<svg xmlns="http://www.w3.org/2000/svg" xmlns:xlink="http://www.w3.org/1999/xlink" width="672" height="211pt" viewBox="0 0 504 211"><g id="graph0" class="graph" transform="scale(1 1) rotate(0) translate(4 207)"><title>dependencies</title><polygon fill="#fff" stroke="transparent" points="-4 4 -4 -207 500 -207 500 4 -4 4"/><text x="227.009" y="-42.4" fill="#000" font-family="sans-serif" font-size="14" font-weight="bold" text-anchor="start">Legend</text><polygon fill="#ffffb3" stroke="transparent" points="14 -10 14 -30 34 -30 34 -10 14 -10"/><text x="37.629" y="-15.4" fill="#000" font-family="sans-serif" font-size="14" text-anchor="start">Declarations</text><polygon fill="#8dd3c7" stroke="transparent" points="127 -10 127 -30 147 -30 147 -10 127 -10"/><text x="150.725" y="-15.4" fill="#000" font-family="sans-serif" font-size="14" text-anchor="start">Module</text><polygon fill="#80b1d3" stroke="transparent" points="213 -10 213 -30 233 -30 233 -10 213 -10"/><text x="236.781" y="-15.4" fill="#000" font-family="sans-serif" font-size="14" text-anchor="start">Bootstrap</text><polygon fill="#fdb462" stroke="transparent" points="310 -10 310 -30 330 -30 330 -10 310 -10"/><text x="333.673" y="-15.4" fill="#000" font-family="sans-serif" font-size="14" text-anchor="start">Providers</text><polygon fill="#fb8072" stroke="transparent" points="406 -10 406 -30 426 -30 426 -10 406 -10"/><text x="429.726" y="-15.4" fill="#000" font-family="sans-serif" font-size="14" text-anchor="start">Exports</text><g id="clust1" class="cluster"><title>cluster_CategoriesModule</title><polygon fill="none" stroke="#000" stroke-dasharray="1 5" points="171 -70 171 -195 325 -195 325 -70 171 -70"/></g><g id="clust4" class="cluster"><title>cluster_CategoriesModule_exports</title><polygon fill="none" stroke="#000" points="179 -135 179 -187 317 -187 317 -135 179 -135"/></g><g id="node1" class="node"><title>CategoriesService</title><polygon fill="#fb8072" stroke="#000" points="308.845 -179 187.155 -179 187.155 -143 308.845 -143 308.845 -179"/><text x="248" y="-156.8" fill="#000" font-family="Times,serif" font-size="14" text-anchor="middle">CategoriesService</text></g><g id="node2" class="node"><title>CategoriesModule</title><polygon fill="#8dd3c7" stroke="#000" points="307.917 -114 304.917 -118 283.917 -118 280.917 -114 188.083 -114 188.083 -78 307.917 -78 307.917 -114"/><text x="248" y="-91.8" fill="#000" font-family="Times,serif" font-size="14" text-anchor="middle">CategoriesModule</text></g><g id="edge1" class="edge"><title>CategoriesModule-&gt;CategoriesService</title><path fill="none" stroke="#000" stroke-dasharray="5 2" d="M248,-114.1061C248,-114.1061 248,-132.991 248,-132.991"/><polygon fill="#000" stroke="#000" points="244.5 -132.991 248 -142.991 251.5 -132.991 244.5 -132.991"/></g></g></svg>