<svg xmlns="http://www.w3.org/2000/svg" xmlns:xlink="http://www.w3.org/1999/xlink" width="650pt" height="284pt" viewBox="0 0 650 284"><g id="graph0" class="graph" transform="scale(1 1) rotate(0) translate(4 280)"><title>dependencies</title><polygon fill="#fff" stroke="transparent" points="-4 4 -4 -280 646 -280 646 4 -4 4"/><text x="300.009" y="-42.4" fill="#000" font-family="sans-serif" font-size="14" font-weight="bold" text-anchor="start">Legend</text><polygon fill="#ffffb3" stroke="transparent" points="87 -10 87 -30 107 -30 107 -10 87 -10"/><text x="110.629" y="-15.4" fill="#000" font-family="sans-serif" font-size="14" text-anchor="start">Declarations</text><polygon fill="#8dd3c7" stroke="transparent" points="200 -10 200 -30 220 -30 220 -10 200 -10"/><text x="223.725" y="-15.4" fill="#000" font-family="sans-serif" font-size="14" text-anchor="start">Module</text><polygon fill="#80b1d3" stroke="transparent" points="286 -10 286 -30 306 -30 306 -10 286 -10"/><text x="309.781" y="-15.4" fill="#000" font-family="sans-serif" font-size="14" text-anchor="start">Bootstrap</text><polygon fill="#fdb462" stroke="transparent" points="383 -10 383 -30 403 -30 403 -10 383 -10"/><text x="406.673" y="-15.4" fill="#000" font-family="sans-serif" font-size="14" text-anchor="start">Providers</text><polygon fill="#fb8072" stroke="transparent" points="479 -10 479 -30 499 -30 499 -10 479 -10"/><text x="502.726" y="-15.4" fill="#000" font-family="sans-serif" font-size="14" text-anchor="start">Exports</text><g id="clust1" class="cluster"><title>cluster_TasksModule</title><polygon fill="none" stroke="#000" stroke-dasharray="1 5" points="8 -70 8 -268 634 -268 634 -70 8 -70"/></g><g id="clust3" class="cluster"><title>cluster_TasksModule_imports</title><polygon fill="none" stroke="#000" points="166 -78 166 -130 626 -130 626 -78 166 -78"/></g><g id="clust4" class="cluster"><title>cluster_TasksModule_exports</title><polygon fill="none" stroke="#000" points="278 -208 278 -260 388 -260 388 -208 278 -208"/></g><g id="clust6" class="cluster"><title>cluster_TasksModule_providers</title><polygon fill="none" stroke="#000" points="16 -78 16 -130 158 -130 158 -78 16 -78"/></g><g id="node1" class="node"><title>CoursesModule</title><polygon fill="#8dd3c7" stroke="#000" points="618.151 -122 615.151 -126 594.151 -126 591.151 -122 513.849 -122 513.849 -86 618.151 -86 618.151 -122"/><text x="566" y="-99.8" fill="#000" font-family="Times,serif" font-size="14" text-anchor="middle">CoursesModule</text></g><g id="node5" class="node"><title>TasksModule</title><polygon fill="#8dd3c7" stroke="#000" points="379.206 -187 376.206 -191 355.206 -191 352.206 -187 286.794 -187 286.794 -151 379.206 -151 379.206 -187"/><text x="333" y="-164.8" fill="#000" font-family="Times,serif" font-size="14" text-anchor="middle">TasksModule</text></g><g id="edge1" class="edge"><title>CoursesModule-&gt;TasksModule</title><path fill="none" stroke="#000" d="M566,-122.2843C566,-143.3211 566,-175 566,-175 566,-175 389.3119,-175 389.3119,-175"/><polygon fill="#000" stroke="#000" points="389.312 -171.5 379.312 -175 389.312 -178.5 389.312 -171.5"/></g><g id="node2" class="node"><title>StagesModule</title><polygon fill="#8dd3c7" stroke="#000" points="496.097 -122 493.097 -126 472.097 -126 469.097 -122 399.903 -122 399.903 -86 496.097 -86 496.097 -122"/><text x="448" y="-99.8" fill="#000" font-family="Times,serif" font-size="14" text-anchor="middle">StagesModule</text></g><g id="edge2" class="edge"><title>StagesModule-&gt;TasksModule</title><path fill="none" stroke="#000" d="M448,-122.0225C448,-139.3734 448,-163 448,-163 448,-163 389.1123,-163 389.1123,-163"/><polygon fill="#000" stroke="#000" points="389.112 -159.5 379.112 -163 389.112 -166.5 389.112 -159.5"/></g><g id="node3" class="node"><title>TracksModule</title><polygon fill="#8dd3c7" stroke="#000" points="381.637 -122 378.637 -126 357.637 -126 354.637 -122 284.363 -122 284.363 -86 381.637 -86 381.637 -122"/><text x="333" y="-99.8" fill="#000" font-family="Times,serif" font-size="14" text-anchor="middle">TracksModule</text></g><g id="edge3" class="edge"><title>TracksModule-&gt;TasksModule</title><path fill="none" stroke="#000" d="M333,-122.1061C333,-122.1061 333,-140.991 333,-140.991"/><polygon fill="#000" stroke="#000" points="329.5 -140.991 333 -150.991 336.5 -140.991 329.5 -140.991"/></g><g id="node4" class="node"><title>UsersModule</title><polygon fill="#8dd3c7" stroke="#000" points="265.922 -122 262.922 -126 241.922 -126 238.922 -122 174.078 -122 174.078 -86 265.922 -86 265.922 -122"/><text x="220" y="-99.8" fill="#000" font-family="Times,serif" font-size="14" text-anchor="middle">UsersModule</text></g><g id="edge4" class="edge"><title>UsersModule-&gt;TasksModule</title><path fill="none" stroke="#000" d="M220,-122.0225C220,-139.3734 220,-163 220,-163 220,-163 276.7125,-163 276.7125,-163"/><polygon fill="#000" stroke="#000" points="276.713 -166.5 286.712 -163 276.712 -159.5 276.713 -166.5"/></g><g id="node6" class="node"><title>TasksService</title><polygon fill="#fb8072" stroke="#000" points="380.134 -252 285.866 -252 285.866 -216 380.134 -216 380.134 -252"/><text x="333" y="-229.8" fill="#000" font-family="Times,serif" font-size="14" text-anchor="middle">TasksService</text></g><g id="edge5" class="edge"><title>TasksModule-&gt;TasksService</title><path fill="none" stroke="#000" stroke-dasharray="5 2" d="M333,-187.1061C333,-187.1061 333,-205.991 333,-205.991"/><polygon fill="#000" stroke="#000" points="329.5 -205.991 333 -215.991 336.5 -205.991 329.5 -205.991"/></g><g id="node7" class="node"><title>TasksService</title><ellipse cx="87" cy="-104" fill="#fdb462" stroke="#000" rx="62.535" ry="18"/><text x="87" y="-99.8" fill="#000" font-family="Times,serif" font-size="14" text-anchor="middle">TasksService</text></g><g id="edge6" class="edge"><title>TasksService-&gt;TasksModule</title><path fill="none" stroke="#000" d="M87,-122.2843C87,-143.3211 87,-175 87,-175 87,-175 276.7293,-175 276.7293,-175"/><polygon fill="#000" stroke="#000" points="276.729 -178.5 286.729 -175 276.729 -171.5 276.729 -178.5"/></g></g></svg>