<svg xmlns="http://www.w3.org/2000/svg" xmlns:xlink="http://www.w3.org/1999/xlink" width="704" height="284pt" viewBox="0 0 528 284"><g id="graph0" class="graph" transform="scale(1 1) rotate(0) translate(4 280)"><title>dependencies</title><polygon fill="#fff" stroke="transparent" points="-4 4 -4 -280 524 -280 524 4 -4 4"/><text x="239.009" y="-42.4" fill="#000" font-family="sans-serif" font-size="14" font-weight="bold" text-anchor="start">Legend</text><polygon fill="#ffffb3" stroke="transparent" points="26 -10 26 -30 46 -30 46 -10 26 -10"/><text x="49.629" y="-15.4" fill="#000" font-family="sans-serif" font-size="14" text-anchor="start">Declarations</text><polygon fill="#8dd3c7" stroke="transparent" points="139 -10 139 -30 159 -30 159 -10 139 -10"/><text x="162.725" y="-15.4" fill="#000" font-family="sans-serif" font-size="14" text-anchor="start">Module</text><polygon fill="#80b1d3" stroke="transparent" points="225 -10 225 -30 245 -30 245 -10 225 -10"/><text x="248.781" y="-15.4" fill="#000" font-family="sans-serif" font-size="14" text-anchor="start">Bootstrap</text><polygon fill="#fdb462" stroke="transparent" points="322 -10 322 -30 342 -30 342 -10 322 -10"/><text x="345.673" y="-15.4" fill="#000" font-family="sans-serif" font-size="14" text-anchor="start">Providers</text><polygon fill="#fb8072" stroke="transparent" points="418 -10 418 -30 438 -30 438 -10 418 -10"/><text x="441.726" y="-15.4" fill="#000" font-family="sans-serif" font-size="14" text-anchor="start">Exports</text><g id="clust1" class="cluster"><title>cluster_TasksModule</title><polygon fill="none" stroke="#000" stroke-dasharray="1 5" points="8 -70 8 -268 512 -268 512 -70 8 -70"/></g><g id="clust3" class="cluster"><title>cluster_TasksModule_imports</title><polygon fill="none" stroke="#000" points="166 -78 166 -130 504 -130 504 -78 166 -78"/></g><g id="clust4" class="cluster"><title>cluster_TasksModule_exports</title><polygon fill="none" stroke="#000" points="221 -208 221 -260 331 -260 331 -208 221 -208"/></g><g id="clust6" class="cluster"><title>cluster_TasksModule_providers</title><polygon fill="none" stroke="#000" points="16 -78 16 -130 158 -130 158 -78 16 -78"/></g><g id="node1" class="node"><title>StagesModule</title><polygon fill="#8dd3c7" stroke="#000" points="496.097 -122 493.097 -126 472.097 -126 469.097 -122 399.903 -122 399.903 -86 496.097 -86 496.097 -122"/><text x="448" y="-99.8" fill="#000" font-family="Times,serif" font-size="14" text-anchor="middle">StagesModule</text></g><g id="node4" class="node"><title>TasksModule</title><polygon fill="#8dd3c7" stroke="#000" points="322.206 -187 319.206 -191 298.206 -191 295.206 -187 229.794 -187 229.794 -151 322.206 -151 322.206 -187"/><text x="276" y="-164.8" fill="#000" font-family="Times,serif" font-size="14" text-anchor="middle">TasksModule</text></g><g id="edge1" class="edge"><title>StagesModule-&gt;TasksModule</title><path fill="none" stroke="#000" d="M448,-122.1061C448,-141.3391 448,-169 448,-169 448,-169 332.5457,-169 332.5457,-169"/><polygon fill="#000" stroke="#000" points="332.546 -165.5 322.546 -169 332.546 -172.5 332.546 -165.5"/></g><g id="node2" class="node"><title>TracksModule</title><polygon fill="#8dd3c7" stroke="#000" points="381.637 -122 378.637 -126 357.637 -126 354.637 -122 284.363 -122 284.363 -86 381.637 -86 381.637 -122"/><text x="333" y="-99.8" fill="#000" font-family="Times,serif" font-size="14" text-anchor="middle">TracksModule</text></g><g id="edge2" class="edge"><title>TracksModule-&gt;TasksModule</title><path fill="none" stroke="#000" d="M303.1423,-122.1061C303.1423,-122.1061 303.1423,-140.991 303.1423,-140.991"/><polygon fill="#000" stroke="#000" points="299.642 -140.991 303.142 -150.991 306.642 -140.991 299.642 -140.991"/></g><g id="node3" class="node"><title>UsersModule</title><polygon fill="#8dd3c7" stroke="#000" points="265.922 -122 262.922 -126 241.922 -126 238.922 -122 174.078 -122 174.078 -86 265.922 -86 265.922 -122"/><text x="220" y="-99.8" fill="#000" font-family="Times,serif" font-size="14" text-anchor="middle">UsersModule</text></g><g id="edge3" class="edge"><title>UsersModule-&gt;TasksModule</title><path fill="none" stroke="#000" d="M247.8037,-122.1061C247.8037,-122.1061 247.8037,-140.991 247.8037,-140.991"/><polygon fill="#000" stroke="#000" points="244.304 -140.991 247.804 -150.991 251.304 -140.991 244.304 -140.991"/></g><g id="node5" class="node"><title>TasksService</title><polygon fill="#fb8072" stroke="#000" points="323.134 -252 228.866 -252 228.866 -216 323.134 -216 323.134 -252"/><text x="276" y="-229.8" fill="#000" font-family="Times,serif" font-size="14" text-anchor="middle">TasksService</text></g><g id="edge4" class="edge"><title>TasksModule-&gt;TasksService</title><path fill="none" stroke="#000" stroke-dasharray="5 2" d="M276,-187.1061C276,-187.1061 276,-205.991 276,-205.991"/><polygon fill="#000" stroke="#000" points="272.5 -205.991 276 -215.991 279.5 -205.991 272.5 -205.991"/></g><g id="node6" class="node"><title>TasksService</title><ellipse cx="87" cy="-104" fill="#fdb462" stroke="#000" rx="62.535" ry="18"/><text x="87" y="-99.8" fill="#000" font-family="Times,serif" font-size="14" text-anchor="middle">TasksService</text></g><g id="edge5" class="edge"><title>TasksService-&gt;TasksModule</title><path fill="none" stroke="#000" d="M87,-122.1061C87,-141.3391 87,-169 87,-169 87,-169 219.7654,-169 219.7654,-169"/><polygon fill="#000" stroke="#000" points="219.765 -172.5 229.765 -169 219.765 -165.5 219.765 -172.5"/></g></g></svg>