<?xml version="1.0" encoding="UTF-8" standalone="no"?>
<!DOCTYPE svg PUBLIC "-//W3C//DTD SVG 1.1//EN"
 "http://www.w3.org/Graphics/SVG/1.1/DTD/svg11.dtd">
<!-- Generated by graphviz version 2.40.1 (20161225.0304)
 -->
<!-- Title: dependencies Pages: 1 -->
<svg width="528pt" height="284pt"
 viewBox="0.00 0.00 528.00 284.00" xmlns="http://www.w3.org/2000/svg" xmlns:xlink="http://www.w3.org/1999/xlink">
<g id="graph0" class="graph" transform="scale(1 1) rotate(0) translate(4 280)">
<title>dependencies</title>
<polygon fill="#ffffff" stroke="transparent" points="-4,4 -4,-280 524,-280 524,4 -4,4"/>
<text text-anchor="start" x="239.0091" y="-42.4" font-family="sans-serif" font-weight="bold" font-size="14.00" fill="#000000">Legend</text>
<polygon fill="#ffffb3" stroke="transparent" points="26,-10 26,-30 46,-30 46,-10 26,-10"/>
<text text-anchor="start" x="49.629" y="-15.4" font-family="sans-serif" font-size="14.00" fill="#000000"> &#160;Declarations</text>
<polygon fill="#8dd3c7" stroke="transparent" points="139,-10 139,-30 159,-30 159,-10 139,-10"/>
<text text-anchor="start" x="162.7251" y="-15.4" font-family="sans-serif" font-size="14.00" fill="#000000"> &#160;Module</text>
<polygon fill="#80b1d3" stroke="transparent" points="225,-10 225,-30 245,-30 245,-10 225,-10"/>
<text text-anchor="start" x="248.7812" y="-15.4" font-family="sans-serif" font-size="14.00" fill="#000000"> &#160;Bootstrap</text>
<polygon fill="#fdb462" stroke="transparent" points="322,-10 322,-30 342,-30 342,-10 322,-10"/>
<text text-anchor="start" x="345.6732" y="-15.4" font-family="sans-serif" font-size="14.00" fill="#000000"> &#160;Providers</text>
<polygon fill="#fb8072" stroke="transparent" points="418,-10 418,-30 438,-30 438,-10 418,-10"/>
<text text-anchor="start" x="441.7258" y="-15.4" font-family="sans-serif" font-size="14.00" fill="#000000"> &#160;Exports</text>
<g id="clust1" class="cluster">
<title>cluster_TasksModule</title>
<polygon fill="none" stroke="#000000" stroke-dasharray="1,5" points="8,-70 8,-268 512,-268 512,-70 8,-70"/>
</g>
<g id="clust3" class="cluster">
<title>cluster_TasksModule_imports</title>
<polygon fill="none" stroke="#000000" points="166,-78 166,-130 504,-130 504,-78 166,-78"/>
</g>
<g id="clust4" class="cluster">
<title>cluster_TasksModule_exports</title>
<polygon fill="none" stroke="#000000" points="221,-208 221,-260 331,-260 331,-208 221,-208"/>
</g>
<g id="clust6" class="cluster">
<title>cluster_TasksModule_providers</title>
<polygon fill="none" stroke="#000000" points="16,-78 16,-130 158,-130 158,-78 16,-78"/>
</g>
<!-- StagesModule -->
<g id="node1" class="node">
<title>StagesModule</title>
<polygon fill="#8dd3c7" stroke="#000000" points="496.0968,-122 493.0968,-126 472.0968,-126 469.0968,-122 399.9032,-122 399.9032,-86 496.0968,-86 496.0968,-122"/>
<text text-anchor="middle" x="448" y="-99.8" font-family="Times,serif" font-size="14.00" fill="#000000">StagesModule</text>
</g>
<!-- TasksModule -->
<g id="node4" class="node">
<title>TasksModule</title>
<polygon fill="#8dd3c7" stroke="#000000" points="322.2064,-187 319.2064,-191 298.2064,-191 295.2064,-187 229.7936,-187 229.7936,-151 322.2064,-151 322.2064,-187"/>
<text text-anchor="middle" x="276" y="-164.8" font-family="Times,serif" font-size="14.00" fill="#000000">TasksModule</text>
</g>
<!-- StagesModule&#45;&gt;TasksModule -->
<g id="edge1" class="edge">
<title>StagesModule&#45;&gt;TasksModule</title>
<path fill="none" stroke="#000000" d="M448,-122.1061C448,-141.3391 448,-169 448,-169 448,-169 332.5457,-169 332.5457,-169"/>
<polygon fill="#000000" stroke="#000000" points="332.5457,-165.5001 322.5457,-169 332.5456,-172.5001 332.5457,-165.5001"/>
</g>
<!-- TracksModule -->
<g id="node2" class="node">
<title>TracksModule</title>
<polygon fill="#8dd3c7" stroke="#000000" points="381.6375,-122 378.6375,-126 357.6375,-126 354.6375,-122 284.3625,-122 284.3625,-86 381.6375,-86 381.6375,-122"/>
<text text-anchor="middle" x="333" y="-99.8" font-family="Times,serif" font-size="14.00" fill="#000000">TracksModule</text>
</g>
<!-- TracksModule&#45;&gt;TasksModule -->
<g id="edge2" class="edge">
<title>TracksModule&#45;&gt;TasksModule</title>
<path fill="none" stroke="#000000" d="M303.1423,-122.1061C303.1423,-122.1061 303.1423,-140.991 303.1423,-140.991"/>
<polygon fill="#000000" stroke="#000000" points="299.6424,-140.9909 303.1423,-150.991 306.6424,-140.991 299.6424,-140.9909"/>
</g>
<!-- UsersModule -->
<g id="node3" class="node">
<title>UsersModule</title>
<polygon fill="#8dd3c7" stroke="#000000" points="265.9218,-122 262.9218,-126 241.9218,-126 238.9218,-122 174.0782,-122 174.0782,-86 265.9218,-86 265.9218,-122"/>
<text text-anchor="middle" x="220" y="-99.8" font-family="Times,serif" font-size="14.00" fill="#000000">UsersModule</text>
</g>
<!-- UsersModule&#45;&gt;TasksModule -->
<g id="edge3" class="edge">
<title>UsersModule&#45;&gt;TasksModule</title>
<path fill="none" stroke="#000000" d="M247.8037,-122.1061C247.8037,-122.1061 247.8037,-140.991 247.8037,-140.991"/>
<polygon fill="#000000" stroke="#000000" points="244.3037,-140.9909 247.8037,-150.991 251.3037,-140.991 244.3037,-140.9909"/>
</g>
<!-- TasksService  -->
<g id="node5" class="node">
<title>TasksService </title>
<polygon fill="#fb8072" stroke="#000000" points="323.1341,-252 228.8659,-252 228.8659,-216 323.1341,-216 323.1341,-252"/>
<text text-anchor="middle" x="276" y="-229.8" font-family="Times,serif" font-size="14.00" fill="#000000">TasksService </text>
</g>
<!-- TasksModule&#45;&gt;TasksService  -->
<g id="edge4" class="edge">
<title>TasksModule&#45;&gt;TasksService </title>
<path fill="none" stroke="#000000" stroke-dasharray="5,2" d="M276,-187.1061C276,-187.1061 276,-205.991 276,-205.991"/>
<polygon fill="#000000" stroke="#000000" points="272.5001,-205.9909 276,-215.991 279.5001,-205.991 272.5001,-205.9909"/>
</g>
<!-- TasksService -->
<g id="node6" class="node">
<title>TasksService</title>
<ellipse fill="#fdb462" stroke="#000000" cx="87" cy="-104" rx="62.5354" ry="18"/>
<text text-anchor="middle" x="87" y="-99.8" font-family="Times,serif" font-size="14.00" fill="#000000">TasksService</text>
</g>
<!-- TasksService&#45;&gt;TasksModule -->
<g id="edge5" class="edge">
<title>TasksService&#45;&gt;TasksModule</title>
<path fill="none" stroke="#000000" d="M87,-122.1061C87,-141.3391 87,-169 87,-169 87,-169 219.7654,-169 219.7654,-169"/>
<polygon fill="#000000" stroke="#000000" points="219.7654,-172.5001 229.7654,-169 219.7654,-165.5001 219.7654,-172.5001"/>
</g>
</g>
</svg>
