<?xml version="1.0" encoding="UTF-8" standalone="no"?>
<!DOCTYPE svg PUBLIC "-//W3C//DTD SVG 1.1//EN"
 "http://www.w3.org/Graphics/SVG/1.1/DTD/svg11.dtd">
<!-- Generated by graphviz version 2.40.1 (20161225.0304)
 -->
<!-- Title: dependencies Pages: 1 -->
<svg width="1084pt" height="284pt"
 viewBox="0.00 0.00 1084.00 284.00" xmlns="http://www.w3.org/2000/svg" xmlns:xlink="http://www.w3.org/1999/xlink">
<g id="graph0" class="graph" transform="scale(1 1) rotate(0) translate(4 280)">
<title>dependencies</title>
<polygon fill="#ffffff" stroke="transparent" points="-4,4 -4,-280 1080,-280 1080,4 -4,4"/>
<text text-anchor="start" x="517.0091" y="-42.4" font-family="sans-serif" font-weight="bold" font-size="14.00" fill="#000000">Legend</text>
<polygon fill="#ffffb3" stroke="transparent" points="304,-10 304,-30 324,-30 324,-10 304,-10"/>
<text text-anchor="start" x="327.629" y="-15.4" font-family="sans-serif" font-size="14.00" fill="#000000"> &#160;Declarations</text>
<polygon fill="#8dd3c7" stroke="transparent" points="417,-10 417,-30 437,-30 437,-10 417,-10"/>
<text text-anchor="start" x="440.7251" y="-15.4" font-family="sans-serif" font-size="14.00" fill="#000000"> &#160;Module</text>
<polygon fill="#80b1d3" stroke="transparent" points="503,-10 503,-30 523,-30 523,-10 503,-10"/>
<text text-anchor="start" x="526.7812" y="-15.4" font-family="sans-serif" font-size="14.00" fill="#000000"> &#160;Bootstrap</text>
<polygon fill="#fdb462" stroke="transparent" points="600,-10 600,-30 620,-30 620,-10 600,-10"/>
<text text-anchor="start" x="623.6732" y="-15.4" font-family="sans-serif" font-size="14.00" fill="#000000"> &#160;Providers</text>
<polygon fill="#fb8072" stroke="transparent" points="696,-10 696,-30 716,-30 716,-10 696,-10"/>
<text text-anchor="start" x="719.7258" y="-15.4" font-family="sans-serif" font-size="14.00" fill="#000000"> &#160;Exports</text>
<g id="clust1" class="cluster">
<title>cluster_AuthModule</title>
<polygon fill="none" stroke="#000000" stroke-dasharray="1,5" points="8,-70 8,-268 1068,-268 1068,-70 8,-70"/>
</g>
<g id="clust3" class="cluster">
<title>cluster_AuthModule_imports</title>
<polygon fill="none" stroke="#000000" points="952,-78 952,-130 1060,-130 1060,-78 952,-78"/>
</g>
<g id="clust4" class="cluster">
<title>cluster_AuthModule_exports</title>
<polygon fill="none" stroke="#000000" points="549,-208 549,-260 655,-260 655,-208 549,-208"/>
</g>
<g id="clust6" class="cluster">
<title>cluster_AuthModule_providers</title>
<polygon fill="none" stroke="#000000" points="16,-78 16,-130 944,-130 944,-78 16,-78"/>
</g>
<!-- UsersModule -->
<g id="node1" class="node">
<title>UsersModule</title>
<polygon fill="#8dd3c7" stroke="#000000" points="1051.9218,-122 1048.9218,-126 1027.9218,-126 1024.9218,-122 960.0782,-122 960.0782,-86 1051.9218,-86 1051.9218,-122"/>
<text text-anchor="middle" x="1006" y="-99.8" font-family="Times,serif" font-size="14.00" fill="#000000">UsersModule</text>
</g>
<!-- AuthModule -->
<g id="node2" class="node">
<title>AuthModule</title>
<polygon fill="#8dd3c7" stroke="#000000" points="645.5482,-187 642.5482,-191 621.5482,-191 618.5482,-187 558.4518,-187 558.4518,-151 645.5482,-151 645.5482,-187"/>
<text text-anchor="middle" x="602" y="-164.8" font-family="Times,serif" font-size="14.00" fill="#000000">AuthModule</text>
</g>
<!-- UsersModule&#45;&gt;AuthModule -->
<g id="edge1" class="edge">
<title>UsersModule&#45;&gt;AuthModule</title>
<path fill="none" stroke="#000000" d="M1006,-122.2921C1006,-144.2057 1006,-178 1006,-178 1006,-178 655.6189,-178 655.6189,-178"/>
<polygon fill="#000000" stroke="#000000" points="655.619,-174.5001 645.6189,-178 655.6189,-181.5001 655.619,-174.5001"/>
</g>
<!-- AuthService  -->
<g id="node3" class="node">
<title>AuthService </title>
<polygon fill="#fb8072" stroke="#000000" points="646.9761,-252 557.0239,-252 557.0239,-216 646.9761,-216 646.9761,-252"/>
<text text-anchor="middle" x="602" y="-229.8" font-family="Times,serif" font-size="14.00" fill="#000000">AuthService </text>
</g>
<!-- AuthModule&#45;&gt;AuthService  -->
<g id="edge2" class="edge">
<title>AuthModule&#45;&gt;AuthService </title>
<path fill="none" stroke="#000000" stroke-dasharray="5,2" d="M602,-187.1061C602,-187.1061 602,-205.991 602,-205.991"/>
<polygon fill="#000000" stroke="#000000" points="598.5001,-205.9909 602,-215.991 605.5001,-205.991 598.5001,-205.9909"/>
</g>
<!-- AuthHandler -->
<g id="node4" class="node">
<title>AuthHandler</title>
<ellipse fill="#fdb462" stroke="#000000" cx="875" cy="-104" rx="61.3974" ry="18"/>
<text text-anchor="middle" x="875" y="-99.8" font-family="Times,serif" font-size="14.00" fill="#000000">AuthHandler</text>
</g>
<!-- AuthHandler&#45;&gt;AuthModule -->
<g id="edge3" class="edge">
<title>AuthHandler&#45;&gt;AuthModule</title>
<path fill="none" stroke="#000000" d="M875,-122.1061C875,-141.3391 875,-169 875,-169 875,-169 655.5595,-169 655.5595,-169"/>
<polygon fill="#000000" stroke="#000000" points="655.5596,-165.5001 645.5595,-169 655.5595,-172.5001 655.5596,-165.5001"/>
</g>
<!-- AuthService -->
<g id="node5" class="node">
<title>AuthService</title>
<ellipse fill="#fdb462" stroke="#000000" cx="736" cy="-104" rx="59.1083" ry="18"/>
<text text-anchor="middle" x="736" y="-99.8" font-family="Times,serif" font-size="14.00" fill="#000000">AuthService</text>
</g>
<!-- AuthService&#45;&gt;AuthModule -->
<g id="edge4" class="edge">
<title>AuthService&#45;&gt;AuthModule</title>
<path fill="none" stroke="#000000" d="M736,-122.027C736,-138.3976 736,-160 736,-160 736,-160 655.8766,-160 655.8766,-160"/>
<polygon fill="#000000" stroke="#000000" points="655.8766,-156.5001 645.8766,-160 655.8766,-163.5001 655.8766,-156.5001"/>
</g>
<!-- JwtStrategy -->
<g id="node6" class="node">
<title>JwtStrategy</title>
<ellipse fill="#fdb462" stroke="#000000" cx="602" cy="-104" rx="56.7561" ry="18"/>
<text text-anchor="middle" x="602" y="-99.8" font-family="Times,serif" font-size="14.00" fill="#000000">JwtStrategy</text>
</g>
<!-- JwtStrategy&#45;&gt;AuthModule -->
<g id="edge5" class="edge">
<title>JwtStrategy&#45;&gt;AuthModule</title>
<path fill="none" stroke="#000000" d="M602,-122.1061C602,-122.1061 602,-140.991 602,-140.991"/>
<polygon fill="#000000" stroke="#000000" points="598.5001,-140.9909 602,-150.991 605.5001,-140.991 598.5001,-140.9909"/>
</g>
<!-- LocalStrategy -->
<g id="node7" class="node">
<title>LocalStrategy</title>
<ellipse fill="#fdb462" stroke="#000000" cx="462" cy="-104" rx="65.4053" ry="18"/>
<text text-anchor="middle" x="462" y="-99.8" font-family="Times,serif" font-size="14.00" fill="#000000">LocalStrategy</text>
</g>
<!-- LocalStrategy&#45;&gt;AuthModule -->
<g id="edge6" class="edge">
<title>LocalStrategy&#45;&gt;AuthModule</title>
<path fill="none" stroke="#000000" d="M462,-122.027C462,-138.3976 462,-160 462,-160 462,-160 548.0872,-160 548.0872,-160"/>
<polygon fill="#000000" stroke="#000000" points="548.0873,-163.5001 558.0872,-160 548.0872,-156.5001 548.0873,-163.5001"/>
</g>
<!-- SessionSerializer -->
<g id="node8" class="node">
<title>SessionSerializer</title>
<ellipse fill="#fdb462" stroke="#000000" cx="301" cy="-104" rx="77.5781" ry="18"/>
<text text-anchor="middle" x="301" y="-99.8" font-family="Times,serif" font-size="14.00" fill="#000000">SessionSerializer</text>
</g>
<!-- SessionSerializer&#45;&gt;AuthModule -->
<g id="edge7" class="edge">
<title>SessionSerializer&#45;&gt;AuthModule</title>
<path fill="none" stroke="#000000" d="M301,-122.1061C301,-141.3391 301,-169 301,-169 301,-169 548.232,-169 548.232,-169"/>
<polygon fill="#000000" stroke="#000000" points="548.2321,-172.5001 558.232,-169 548.232,-165.5001 548.2321,-172.5001"/>
</g>
<!-- TempTokensService -->
<g id="node9" class="node">
<title>TempTokensService</title>
<ellipse fill="#fdb462" stroke="#000000" cx="115" cy="-104" rx="90.8916" ry="18"/>
<text text-anchor="middle" x="115" y="-99.8" font-family="Times,serif" font-size="14.00" fill="#000000">TempTokensService</text>
</g>
<!-- TempTokensService&#45;&gt;AuthModule -->
<g id="edge8" class="edge">
<title>TempTokensService&#45;&gt;AuthModule</title>
<path fill="none" stroke="#000000" d="M115,-122.2921C115,-144.2057 115,-178 115,-178 115,-178 548.3534,-178 548.3534,-178"/>
<polygon fill="#000000" stroke="#000000" points="548.3534,-181.5001 558.3534,-178 548.3534,-174.5001 548.3534,-181.5001"/>
</g>
</g>
</svg>
