<?xml version="1.0" encoding="UTF-8" standalone="no"?>
<!DOCTYPE svg PUBLIC "-//W3C//DTD SVG 1.1//EN"
 "http://www.w3.org/Graphics/SVG/1.1/DTD/svg11.dtd">
<!-- Generated by graphviz version 2.40.1 (20161225.0304)
 -->
<!-- Title: dependencies Pages: 1 -->
<svg width="504pt" height="284pt"
 viewBox="0.00 0.00 504.00 284.00" xmlns="http://www.w3.org/2000/svg" xmlns:xlink="http://www.w3.org/1999/xlink">
<g id="graph0" class="graph" transform="scale(1 1) rotate(0) translate(4 280)">
<title>dependencies</title>
<polygon fill="#ffffff" stroke="transparent" points="-4,4 -4,-280 500,-280 500,4 -4,4"/>
<text text-anchor="start" x="227.0091" y="-42.4" font-family="sans-serif" font-weight="bold" font-size="14.00" fill="#000000">Legend</text>
<polygon fill="#ffffb3" stroke="transparent" points="14,-10 14,-30 34,-30 34,-10 14,-10"/>
<text text-anchor="start" x="37.629" y="-15.4" font-family="sans-serif" font-size="14.00" fill="#000000"> &#160;Declarations</text>
<polygon fill="#8dd3c7" stroke="transparent" points="127,-10 127,-30 147,-30 147,-10 127,-10"/>
<text text-anchor="start" x="150.7251" y="-15.4" font-family="sans-serif" font-size="14.00" fill="#000000"> &#160;Module</text>
<polygon fill="#80b1d3" stroke="transparent" points="213,-10 213,-30 233,-30 233,-10 213,-10"/>
<text text-anchor="start" x="236.7812" y="-15.4" font-family="sans-serif" font-size="14.00" fill="#000000"> &#160;Bootstrap</text>
<polygon fill="#fdb462" stroke="transparent" points="310,-10 310,-30 330,-30 330,-10 310,-10"/>
<text text-anchor="start" x="333.6732" y="-15.4" font-family="sans-serif" font-size="14.00" fill="#000000"> &#160;Providers</text>
<polygon fill="#fb8072" stroke="transparent" points="406,-10 406,-30 426,-30 426,-10 406,-10"/>
<text text-anchor="start" x="429.7258" y="-15.4" font-family="sans-serif" font-size="14.00" fill="#000000"> &#160;Exports</text>
<g id="clust1" class="cluster">
<title>cluster_SharedModule</title>
<polygon fill="none" stroke="#000000" stroke-dasharray="1,5" points="76.5,-70 76.5,-268 419.5,-268 419.5,-70 76.5,-70"/>
</g>
<g id="clust4" class="cluster">
<title>cluster_SharedModule_exports</title>
<polygon fill="none" stroke="#000000" points="108.5,-208 108.5,-260 361.5,-260 361.5,-208 108.5,-208"/>
</g>
<g id="clust6" class="cluster">
<title>cluster_SharedModule_providers</title>
<polygon fill="none" stroke="#000000" points="84.5,-78 84.5,-130 411.5,-130 411.5,-78 84.5,-78"/>
</g>
<!-- BaseService  -->
<g id="node1" class="node">
<title>BaseService </title>
<polygon fill="#fb8072" stroke="#000000" points="353.6885,-252 265.3115,-252 265.3115,-216 353.6885,-216 353.6885,-252"/>
<text text-anchor="middle" x="309.5" y="-229.8" font-family="Times,serif" font-size="14.00" fill="#000000">BaseService </text>
</g>
<!-- CurrentUserService  -->
<g id="node2" class="node">
<title>CurrentUserService </title>
<polygon fill="#fb8072" stroke="#000000" points="246.6674,-252 116.3326,-252 116.3326,-216 246.6674,-216 246.6674,-252"/>
<text text-anchor="middle" x="181.5" y="-229.8" font-family="Times,serif" font-size="14.00" fill="#000000">CurrentUserService </text>
</g>
<!-- SharedModule -->
<g id="node3" class="node">
<title>SharedModule</title>
<polygon fill="#8dd3c7" stroke="#000000" points="254.9231,-187 251.9231,-191 230.9231,-191 227.9231,-187 156.0769,-187 156.0769,-151 254.9231,-151 254.9231,-187"/>
<text text-anchor="middle" x="205.5" y="-164.8" font-family="Times,serif" font-size="14.00" fill="#000000">SharedModule</text>
</g>
<!-- SharedModule&#45;&gt;BaseService  -->
<g id="edge1" class="edge">
<title>SharedModule&#45;&gt;BaseService </title>
<path fill="none" stroke="#000000" stroke-dasharray="5,2" d="M250.7723,-187.1061C250.7723,-206.3391 250.7723,-234 250.7723,-234 250.7723,-234 255.2893,-234 255.2893,-234"/>
<polygon fill="#000000" stroke="#000000" points="255.2893,-237.5001 265.2893,-234 255.2892,-230.5001 255.2893,-237.5001"/>
</g>
<!-- SharedModule&#45;&gt;CurrentUserService  -->
<g id="edge2" class="edge">
<title>SharedModule&#45;&gt;CurrentUserService </title>
<path fill="none" stroke="#000000" stroke-dasharray="5,2" d="M201.5612,-187.1061C201.5612,-187.1061 201.5612,-205.991 201.5612,-205.991"/>
<polygon fill="#000000" stroke="#000000" points="198.0613,-205.9909 201.5612,-215.991 205.0613,-205.991 198.0613,-205.9909"/>
</g>
<!-- BaseService -->
<g id="node4" class="node">
<title>BaseService</title>
<ellipse fill="#fdb462" stroke="#000000" cx="344.5" cy="-104" rx="58.5232" ry="18"/>
<text text-anchor="middle" x="344.5" y="-99.8" font-family="Times,serif" font-size="14.00" fill="#000000">BaseService</text>
</g>
<!-- BaseService&#45;&gt;SharedModule -->
<g id="edge3" class="edge">
<title>BaseService&#45;&gt;SharedModule</title>
<path fill="none" stroke="#000000" d="M319.7914,-120.4022C319.7914,-139.658 319.7914,-169 319.7914,-169 319.7914,-169 264.9652,-169 264.9652,-169"/>
<polygon fill="#000000" stroke="#000000" points="264.9652,-165.5001 254.9652,-169 264.9651,-172.5001 264.9652,-165.5001"/>
</g>
<!-- CurrentUserService -->
<g id="node5" class="node">
<title>CurrentUserService</title>
<ellipse fill="#fdb462" stroke="#000000" cx="180.5" cy="-104" rx="87.9355" ry="18"/>
<text text-anchor="middle" x="180.5" y="-99.8" font-family="Times,serif" font-size="14.00" fill="#000000">CurrentUserService</text>
</g>
<!-- CurrentUserService&#45;&gt;SharedModule -->
<g id="edge4" class="edge">
<title>CurrentUserService&#45;&gt;SharedModule</title>
<path fill="none" stroke="#000000" d="M205.5,-121.4188C205.5,-121.4188 205.5,-140.6234 205.5,-140.6234"/>
<polygon fill="#000000" stroke="#000000" points="202.0001,-140.6234 205.5,-150.6234 209.0001,-140.6234 202.0001,-140.6234"/>
</g>
</g>
</svg>
