<?xml version="1.0" encoding="UTF-8" standalone="no"?>
<!DOCTYPE svg PUBLIC "-//W3C//DTD SVG 1.1//EN"
 "http://www.w3.org/Graphics/SVG/1.1/DTD/svg11.dtd">
<!-- Generated by graphviz version 2.40.1 (20161225.0304)
 -->
<!-- Title: dependencies Pages: 1 -->
<svg width="1070pt" height="284pt"
 viewBox="0.00 0.00 1070.00 284.00" xmlns="http://www.w3.org/2000/svg" xmlns:xlink="http://www.w3.org/1999/xlink">
<g id="graph0" class="graph" transform="scale(1 1) rotate(0) translate(4 280)">
<title>dependencies</title>
<polygon fill="#ffffff" stroke="transparent" points="-4,4 -4,-280 1066,-280 1066,4 -4,4"/>
<text text-anchor="start" x="510.0091" y="-42.4" font-family="sans-serif" font-weight="bold" font-size="14.00" fill="#000000">Legend</text>
<polygon fill="#ffffb3" stroke="transparent" points="297,-10 297,-30 317,-30 317,-10 297,-10"/>
<text text-anchor="start" x="320.629" y="-15.4" font-family="sans-serif" font-size="14.00" fill="#000000"> &#160;Declarations</text>
<polygon fill="#8dd3c7" stroke="transparent" points="410,-10 410,-30 430,-30 430,-10 410,-10"/>
<text text-anchor="start" x="433.7251" y="-15.4" font-family="sans-serif" font-size="14.00" fill="#000000"> &#160;Module</text>
<polygon fill="#80b1d3" stroke="transparent" points="496,-10 496,-30 516,-30 516,-10 496,-10"/>
<text text-anchor="start" x="519.7812" y="-15.4" font-family="sans-serif" font-size="14.00" fill="#000000"> &#160;Bootstrap</text>
<polygon fill="#fdb462" stroke="transparent" points="593,-10 593,-30 613,-30 613,-10 593,-10"/>
<text text-anchor="start" x="616.6732" y="-15.4" font-family="sans-serif" font-size="14.00" fill="#000000"> &#160;Providers</text>
<polygon fill="#fb8072" stroke="transparent" points="689,-10 689,-30 709,-30 709,-10 689,-10"/>
<text text-anchor="start" x="712.7258" y="-15.4" font-family="sans-serif" font-size="14.00" fill="#000000"> &#160;Exports</text>
<g id="clust1" class="cluster">
<title>cluster_AuthModule</title>
<polygon fill="none" stroke="#000000" stroke-dasharray="1,5" points="8,-70 8,-268 1054,-268 1054,-70 8,-70"/>
</g>
<g id="clust3" class="cluster">
<title>cluster_AuthModule_imports</title>
<polygon fill="none" stroke="#000000" points="938,-78 938,-130 1046,-130 1046,-78 938,-78"/>
</g>
<g id="clust4" class="cluster">
<title>cluster_AuthModule_exports</title>
<polygon fill="none" stroke="#000000" points="535,-208 535,-260 641,-260 641,-208 535,-208"/>
</g>
<g id="clust6" class="cluster">
<title>cluster_AuthModule_providers</title>
<polygon fill="none" stroke="#000000" points="16,-78 16,-130 930,-130 930,-78 16,-78"/>
</g>
<!-- UsersModule -->
<g id="node1" class="node">
<title>UsersModule</title>
<polygon fill="#8dd3c7" stroke="#000000" points="1037.9218,-122 1034.9218,-126 1013.9218,-126 1010.9218,-122 946.0782,-122 946.0782,-86 1037.9218,-86 1037.9218,-122"/>
<text text-anchor="middle" x="992" y="-99.8" font-family="Times,serif" font-size="14.00" fill="#000000">UsersModule</text>
</g>
<!-- AuthModule -->
<g id="node2" class="node">
<title>AuthModule</title>
<polygon fill="#8dd3c7" stroke="#000000" points="631.5482,-187 628.5482,-191 607.5482,-191 604.5482,-187 544.4518,-187 544.4518,-151 631.5482,-151 631.5482,-187"/>
<text text-anchor="middle" x="588" y="-164.8" font-family="Times,serif" font-size="14.00" fill="#000000">AuthModule</text>
</g>
<!-- UsersModule&#45;&gt;AuthModule -->
<g id="edge1" class="edge">
<title>UsersModule&#45;&gt;AuthModule</title>
<path fill="none" stroke="#000000" d="M992,-122.2921C992,-144.2057 992,-178 992,-178 992,-178 641.6189,-178 641.6189,-178"/>
<polygon fill="#000000" stroke="#000000" points="641.619,-174.5001 631.6189,-178 641.6189,-181.5001 641.619,-174.5001"/>
</g>
<!-- AuthService  -->
<g id="node3" class="node">
<title>AuthService </title>
<polygon fill="#fb8072" stroke="#000000" points="632.9761,-252 543.0239,-252 543.0239,-216 632.9761,-216 632.9761,-252"/>
<text text-anchor="middle" x="588" y="-229.8" font-family="Times,serif" font-size="14.00" fill="#000000">AuthService </text>
</g>
<!-- AuthModule&#45;&gt;AuthService  -->
<g id="edge2" class="edge">
<title>AuthModule&#45;&gt;AuthService </title>
<path fill="none" stroke="#000000" stroke-dasharray="5,2" d="M588,-187.1061C588,-187.1061 588,-205.991 588,-205.991"/>
<polygon fill="#000000" stroke="#000000" points="584.5001,-205.9909 588,-215.991 591.5001,-205.991 584.5001,-205.9909"/>
</g>
<!-- AuthHandler -->
<g id="node4" class="node">
<title>AuthHandler</title>
<ellipse fill="#fdb462" stroke="#000000" cx="861" cy="-104" rx="61.3974" ry="18"/>
<text text-anchor="middle" x="861" y="-99.8" font-family="Times,serif" font-size="14.00" fill="#000000">AuthHandler</text>
</g>
<!-- AuthHandler&#45;&gt;AuthModule -->
<g id="edge3" class="edge">
<title>AuthHandler&#45;&gt;AuthModule</title>
<path fill="none" stroke="#000000" d="M861,-122.1061C861,-141.3391 861,-169 861,-169 861,-169 641.5595,-169 641.5595,-169"/>
<polygon fill="#000000" stroke="#000000" points="641.5596,-165.5001 631.5595,-169 641.5595,-172.5001 641.5596,-165.5001"/>
</g>
<!-- AuthService -->
<g id="node5" class="node">
<title>AuthService</title>
<ellipse fill="#fdb462" stroke="#000000" cx="722" cy="-104" rx="59.1083" ry="18"/>
<text text-anchor="middle" x="722" y="-99.8" font-family="Times,serif" font-size="14.00" fill="#000000">AuthService</text>
</g>
<!-- AuthService&#45;&gt;AuthModule -->
<g id="edge4" class="edge">
<title>AuthService&#45;&gt;AuthModule</title>
<path fill="none" stroke="#000000" d="M722,-122.027C722,-138.3976 722,-160 722,-160 722,-160 641.8766,-160 641.8766,-160"/>
<polygon fill="#000000" stroke="#000000" points="641.8766,-156.5001 631.8766,-160 641.8766,-163.5001 641.8766,-156.5001"/>
</g>
<!-- JwtStrategy -->
<g id="node6" class="node">
<title>JwtStrategy</title>
<ellipse fill="#fdb462" stroke="#000000" cx="588" cy="-104" rx="56.7561" ry="18"/>
<text text-anchor="middle" x="588" y="-99.8" font-family="Times,serif" font-size="14.00" fill="#000000">JwtStrategy</text>
</g>
<!-- JwtStrategy&#45;&gt;AuthModule -->
<g id="edge5" class="edge">
<title>JwtStrategy&#45;&gt;AuthModule</title>
<path fill="none" stroke="#000000" d="M588,-122.1061C588,-122.1061 588,-140.991 588,-140.991"/>
<polygon fill="#000000" stroke="#000000" points="584.5001,-140.9909 588,-150.991 591.5001,-140.991 584.5001,-140.9909"/>
</g>
<!-- MailService -->
<g id="node7" class="node">
<title>MailService</title>
<ellipse fill="#fdb462" stroke="#000000" cx="455" cy="-104" rx="58.4609" ry="18"/>
<text text-anchor="middle" x="455" y="-99.8" font-family="Times,serif" font-size="14.00" fill="#000000">MailService</text>
</g>
<!-- MailService&#45;&gt;AuthModule -->
<g id="edge6" class="edge">
<title>MailService&#45;&gt;AuthModule</title>
<path fill="none" stroke="#000000" d="M455,-122.027C455,-138.3976 455,-160 455,-160 455,-160 534.4508,-160 534.4508,-160"/>
<polygon fill="#000000" stroke="#000000" points="534.4509,-163.5001 544.4508,-160 534.4508,-156.5001 534.4509,-163.5001"/>
</g>
<!-- SessionSerializer -->
<g id="node8" class="node">
<title>SessionSerializer</title>
<ellipse fill="#fdb462" stroke="#000000" cx="301" cy="-104" rx="77.5781" ry="18"/>
<text text-anchor="middle" x="301" y="-99.8" font-family="Times,serif" font-size="14.00" fill="#000000">SessionSerializer</text>
</g>
<!-- SessionSerializer&#45;&gt;AuthModule -->
<g id="edge7" class="edge">
<title>SessionSerializer&#45;&gt;AuthModule</title>
<path fill="none" stroke="#000000" d="M301,-122.1061C301,-141.3391 301,-169 301,-169 301,-169 534.4109,-169 534.4109,-169"/>
<polygon fill="#000000" stroke="#000000" points="534.4109,-172.5001 544.4109,-169 534.4108,-165.5001 534.4109,-172.5001"/>
</g>
<!-- TempTokensService -->
<g id="node9" class="node">
<title>TempTokensService</title>
<ellipse fill="#fdb462" stroke="#000000" cx="115" cy="-104" rx="90.8916" ry="18"/>
<text text-anchor="middle" x="115" y="-99.8" font-family="Times,serif" font-size="14.00" fill="#000000">TempTokensService</text>
</g>
<!-- TempTokensService&#45;&gt;AuthModule -->
<g id="edge8" class="edge">
<title>TempTokensService&#45;&gt;AuthModule</title>
<path fill="none" stroke="#000000" d="M115,-122.2921C115,-144.2057 115,-178 115,-178 115,-178 534.3491,-178 534.3491,-178"/>
<polygon fill="#000000" stroke="#000000" points="534.3492,-181.5001 544.3491,-178 534.3491,-174.5001 534.3492,-181.5001"/>
</g>
</g>
</svg>
