<?xml version="1.0" encoding="UTF-8" standalone="no"?>
<!DOCTYPE svg PUBLIC "-//W3C//DTD SVG 1.1//EN"
 "http://www.w3.org/Graphics/SVG/1.1/DTD/svg11.dtd">
<!-- Generated by graphviz version 2.40.1 (20161225.0304)
 -->
<!-- Title: dependencies Pages: 1 -->
<svg width="1218pt" height="284pt"
 viewBox="0.00 0.00 1218.00 284.00" xmlns="http://www.w3.org/2000/svg" xmlns:xlink="http://www.w3.org/1999/xlink">
<g id="graph0" class="graph" transform="scale(1 1) rotate(0) translate(4 280)">
<title>dependencies</title>
<polygon fill="#ffffff" stroke="transparent" points="-4,4 -4,-280 1214,-280 1214,4 -4,4"/>
<text text-anchor="start" x="584.0091" y="-42.4" font-family="sans-serif" font-weight="bold" font-size="14.00" fill="#000000">Legend</text>
<polygon fill="#ffffb3" stroke="transparent" points="371,-10 371,-30 391,-30 391,-10 371,-10"/>
<text text-anchor="start" x="394.629" y="-15.4" font-family="sans-serif" font-size="14.00" fill="#000000"> &#160;Declarations</text>
<polygon fill="#8dd3c7" stroke="transparent" points="484,-10 484,-30 504,-30 504,-10 484,-10"/>
<text text-anchor="start" x="507.7251" y="-15.4" font-family="sans-serif" font-size="14.00" fill="#000000"> &#160;Module</text>
<polygon fill="#80b1d3" stroke="transparent" points="570,-10 570,-30 590,-30 590,-10 570,-10"/>
<text text-anchor="start" x="593.7812" y="-15.4" font-family="sans-serif" font-size="14.00" fill="#000000"> &#160;Bootstrap</text>
<polygon fill="#fdb462" stroke="transparent" points="667,-10 667,-30 687,-30 687,-10 667,-10"/>
<text text-anchor="start" x="690.6732" y="-15.4" font-family="sans-serif" font-size="14.00" fill="#000000"> &#160;Providers</text>
<polygon fill="#fb8072" stroke="transparent" points="763,-10 763,-30 783,-30 783,-10 763,-10"/>
<text text-anchor="start" x="786.7258" y="-15.4" font-family="sans-serif" font-size="14.00" fill="#000000"> &#160;Exports</text>
<g id="clust1" class="cluster">
<title>cluster_AuthModule</title>
<polygon fill="none" stroke="#000000" stroke-dasharray="1,5" points="8,-70 8,-268 1202,-268 1202,-70 8,-70"/>
</g>
<g id="clust3" class="cluster">
<title>cluster_AuthModule_imports</title>
<polygon fill="none" stroke="#000000" points="1086,-78 1086,-130 1194,-130 1194,-78 1086,-78"/>
</g>
<g id="clust4" class="cluster">
<title>cluster_AuthModule_exports</title>
<polygon fill="none" stroke="#000000" points="613,-208 613,-260 719,-260 719,-208 613,-208"/>
</g>
<g id="clust6" class="cluster">
<title>cluster_AuthModule_providers</title>
<polygon fill="none" stroke="#000000" points="16,-78 16,-130 1078,-130 1078,-78 16,-78"/>
</g>
<!-- UsersModule -->
<g id="node1" class="node">
<title>UsersModule</title>
<polygon fill="#8dd3c7" stroke="#000000" points="1185.9218,-122 1182.9218,-126 1161.9218,-126 1158.9218,-122 1094.0782,-122 1094.0782,-86 1185.9218,-86 1185.9218,-122"/>
<text text-anchor="middle" x="1140" y="-99.8" font-family="Times,serif" font-size="14.00" fill="#000000">UsersModule</text>
</g>
<!-- AuthModule -->
<g id="node2" class="node">
<title>AuthModule</title>
<polygon fill="#8dd3c7" stroke="#000000" points="709.5482,-187 706.5482,-191 685.5482,-191 682.5482,-187 622.4518,-187 622.4518,-151 709.5482,-151 709.5482,-187"/>
<text text-anchor="middle" x="666" y="-164.8" font-family="Times,serif" font-size="14.00" fill="#000000">AuthModule</text>
</g>
<!-- UsersModule&#45;&gt;AuthModule -->
<g id="edge1" class="edge">
<title>UsersModule&#45;&gt;AuthModule</title>
<path fill="none" stroke="#000000" d="M1140,-122.2921C1140,-144.2057 1140,-178 1140,-178 1140,-178 719.7432,-178 719.7432,-178"/>
<polygon fill="#000000" stroke="#000000" points="719.7432,-174.5001 709.7432,-178 719.7431,-181.5001 719.7432,-174.5001"/>
</g>
<!-- AuthService  -->
<g id="node3" class="node">
<title>AuthService </title>
<polygon fill="#fb8072" stroke="#000000" points="710.9761,-252 621.0239,-252 621.0239,-216 710.9761,-216 710.9761,-252"/>
<text text-anchor="middle" x="666" y="-229.8" font-family="Times,serif" font-size="14.00" fill="#000000">AuthService </text>
</g>
<!-- AuthModule&#45;&gt;AuthService  -->
<g id="edge2" class="edge">
<title>AuthModule&#45;&gt;AuthService </title>
<path fill="none" stroke="#000000" stroke-dasharray="5,2" d="M666,-187.1061C666,-187.1061 666,-205.991 666,-205.991"/>
<polygon fill="#000000" stroke="#000000" points="662.5001,-205.9909 666,-215.991 669.5001,-205.991 662.5001,-205.9909"/>
</g>
<!-- AuthHandler -->
<g id="node4" class="node">
<title>AuthHandler</title>
<ellipse fill="#fdb462" stroke="#000000" cx="1009" cy="-104" rx="61.3974" ry="18"/>
<text text-anchor="middle" x="1009" y="-99.8" font-family="Times,serif" font-size="14.00" fill="#000000">AuthHandler</text>
</g>
<!-- AuthHandler&#45;&gt;AuthModule -->
<g id="edge3" class="edge">
<title>AuthHandler&#45;&gt;AuthModule</title>
<path fill="none" stroke="#000000" d="M1009,-122.1061C1009,-141.3391 1009,-169 1009,-169 1009,-169 719.7896,-169 719.7896,-169"/>
<polygon fill="#000000" stroke="#000000" points="719.7896,-165.5001 709.7896,-169 719.7895,-172.5001 719.7896,-165.5001"/>
</g>
<!-- AuthService -->
<g id="node5" class="node">
<title>AuthService</title>
<ellipse fill="#fdb462" stroke="#000000" cx="870" cy="-104" rx="59.1083" ry="18"/>
<text text-anchor="middle" x="870" y="-99.8" font-family="Times,serif" font-size="14.00" fill="#000000">AuthService</text>
</g>
<!-- AuthService&#45;&gt;AuthModule -->
<g id="edge4" class="edge">
<title>AuthService&#45;&gt;AuthModule</title>
<path fill="none" stroke="#000000" d="M870,-122.027C870,-138.3976 870,-160 870,-160 870,-160 719.7631,-160 719.7631,-160"/>
<polygon fill="#000000" stroke="#000000" points="719.7632,-156.5001 709.7631,-160 719.7631,-163.5001 719.7632,-156.5001"/>
</g>
<!-- JwtStrategy -->
<g id="node6" class="node">
<title>JwtStrategy</title>
<ellipse fill="#fdb462" stroke="#000000" cx="736" cy="-104" rx="56.7561" ry="18"/>
<text text-anchor="middle" x="736" y="-99.8" font-family="Times,serif" font-size="14.00" fill="#000000">JwtStrategy</text>
</g>
<!-- JwtStrategy&#45;&gt;AuthModule -->
<g id="edge5" class="edge">
<title>JwtStrategy&#45;&gt;AuthModule</title>
<path fill="none" stroke="#000000" d="M694.5728,-116.5327C694.5728,-116.5327 694.5728,-140.8507 694.5728,-140.8507"/>
<polygon fill="#000000" stroke="#000000" points="691.0729,-140.8506 694.5728,-150.8507 698.0729,-140.8507 691.0729,-140.8506"/>
</g>
<!-- LocalStrategy -->
<g id="node7" class="node">
<title>LocalStrategy</title>
<ellipse fill="#fdb462" stroke="#000000" cx="596" cy="-104" rx="65.4053" ry="18"/>
<text text-anchor="middle" x="596" y="-99.8" font-family="Times,serif" font-size="14.00" fill="#000000">LocalStrategy</text>
</g>
<!-- LocalStrategy&#45;&gt;AuthModule -->
<g id="edge6" class="edge">
<title>LocalStrategy&#45;&gt;AuthModule</title>
<path fill="none" stroke="#000000" d="M641.7144,-116.8419C641.7144,-116.8419 641.7144,-140.5231 641.7144,-140.5231"/>
<polygon fill="#000000" stroke="#000000" points="638.2145,-140.523 641.7144,-150.5231 645.2145,-140.5231 638.2145,-140.523"/>
</g>
<!-- MailService -->
<g id="node8" class="node">
<title>MailService</title>
<ellipse fill="#fdb462" stroke="#000000" cx="455" cy="-104" rx="58.4609" ry="18"/>
<text text-anchor="middle" x="455" y="-99.8" font-family="Times,serif" font-size="14.00" fill="#000000">MailService</text>
</g>
<!-- MailService&#45;&gt;AuthModule -->
<g id="edge7" class="edge">
<title>MailService&#45;&gt;AuthModule</title>
<path fill="none" stroke="#000000" d="M455,-122.027C455,-138.3976 455,-160 455,-160 455,-160 612.2807,-160 612.2807,-160"/>
<polygon fill="#000000" stroke="#000000" points="612.2807,-163.5001 622.2807,-160 612.2806,-156.5001 612.2807,-163.5001"/>
</g>
<!-- SessionSerializer -->
<g id="node9" class="node">
<title>SessionSerializer</title>
<ellipse fill="#fdb462" stroke="#000000" cx="301" cy="-104" rx="77.5781" ry="18"/>
<text text-anchor="middle" x="301" y="-99.8" font-family="Times,serif" font-size="14.00" fill="#000000">SessionSerializer</text>
</g>
<!-- SessionSerializer&#45;&gt;AuthModule -->
<g id="edge8" class="edge">
<title>SessionSerializer&#45;&gt;AuthModule</title>
<path fill="none" stroke="#000000" d="M301,-122.1061C301,-141.3391 301,-169 301,-169 301,-169 612.335,-169 612.335,-169"/>
<polygon fill="#000000" stroke="#000000" points="612.3351,-172.5001 622.335,-169 612.335,-165.5001 612.3351,-172.5001"/>
</g>
<!-- TempTokensService -->
<g id="node10" class="node">
<title>TempTokensService</title>
<ellipse fill="#fdb462" stroke="#000000" cx="115" cy="-104" rx="90.8916" ry="18"/>
<text text-anchor="middle" x="115" y="-99.8" font-family="Times,serif" font-size="14.00" fill="#000000">TempTokensService</text>
</g>
<!-- TempTokensService&#45;&gt;AuthModule -->
<g id="edge9" class="edge">
<title>TempTokensService&#45;&gt;AuthModule</title>
<path fill="none" stroke="#000000" d="M115,-122.2921C115,-144.2057 115,-178 115,-178 115,-178 612.3034,-178 612.3034,-178"/>
<polygon fill="#000000" stroke="#000000" points="612.3034,-181.5001 622.3034,-178 612.3034,-174.5001 612.3034,-181.5001"/>
</g>
</g>
</svg>
