<svg xmlns="http://www.w3.org/2000/svg" xmlns:xlink="http://www.w3.org/1999/xlink" width="929pt" height="284pt" viewBox="0 0 929 284"><g id="graph0" class="graph" transform="scale(1 1) rotate(0) translate(4 280)"><title>dependencies</title><polygon fill="#fff" stroke="transparent" points="-4 4 -4 -280 925 -280 925 4 -4 4"/><text x="439.509" y="-42.4" fill="#000" font-family="sans-serif" font-size="14" font-weight="bold" text-anchor="start">Legend</text><polygon fill="#ffffb3" stroke="transparent" points="226.5 -10 226.5 -30 246.5 -30 246.5 -10 226.5 -10"/><text x="250.129" y="-15.4" fill="#000" font-family="sans-serif" font-size="14" text-anchor="start">Declarations</text><polygon fill="#8dd3c7" stroke="transparent" points="339.5 -10 339.5 -30 359.5 -30 359.5 -10 339.5 -10"/><text x="363.225" y="-15.4" fill="#000" font-family="sans-serif" font-size="14" text-anchor="start">Module</text><polygon fill="#80b1d3" stroke="transparent" points="425.5 -10 425.5 -30 445.5 -30 445.5 -10 425.5 -10"/><text x="449.281" y="-15.4" fill="#000" font-family="sans-serif" font-size="14" text-anchor="start">Bootstrap</text><polygon fill="#fdb462" stroke="transparent" points="522.5 -10 522.5 -30 542.5 -30 542.5 -10 522.5 -10"/><text x="546.173" y="-15.4" fill="#000" font-family="sans-serif" font-size="14" text-anchor="start">Providers</text><polygon fill="#fb8072" stroke="transparent" points="618.5 -10 618.5 -30 638.5 -30 638.5 -10 618.5 -10"/><text x="642.226" y="-15.4" fill="#000" font-family="sans-serif" font-size="14" text-anchor="start">Exports</text><g id="clust1" class="cluster"><title>cluster_AuthModule</title><polygon fill="none" stroke="#000" stroke-dasharray="1 5" points="8 -70 8 -268 913 -268 913 -70 8 -70"/></g><g id="clust3" class="cluster"><title>cluster_AuthModule_imports</title><polygon fill="none" stroke="#000" points="797 -78 797 -130 905 -130 905 -78 797 -78"/></g><g id="clust4" class="cluster"><title>cluster_AuthModule_exports</title><polygon fill="none" stroke="#000" points="468 -208 468 -260 574 -260 574 -208 468 -208"/></g><g id="clust6" class="cluster"><title>cluster_AuthModule_providers</title><polygon fill="none" stroke="#000" points="16 -78 16 -130 789 -130 789 -78 16 -78"/></g><g id="node1" class="node"><title>UsersModule</title><polygon fill="#8dd3c7" stroke="#000" points="896.922 -122 893.922 -126 872.922 -126 869.922 -122 805.078 -122 805.078 -86 896.922 -86 896.922 -122"/><text x="851" y="-99.8" fill="#000" font-family="Times,serif" font-size="14" text-anchor="middle">UsersModule</text></g><g id="node2" class="node"><title>AuthModule</title><polygon fill="#8dd3c7" stroke="#000" points="564.548 -187 561.548 -191 540.548 -191 537.548 -187 477.452 -187 477.452 -151 564.548 -151 564.548 -187"/><text x="521" y="-164.8" fill="#000" font-family="Times,serif" font-size="14" text-anchor="middle">AuthModule</text></g><g id="edge1" class="edge"><title>UsersModule-&gt;AuthModule</title><path fill="none" stroke="#000" d="M851,-122.2843C851,-143.3211 851,-175 851,-175 851,-175 574.8215,-175 574.8215,-175"/><polygon fill="#000" stroke="#000" points="574.822 -171.5 564.822 -175 574.821 -178.5 574.822 -171.5"/></g><g id="node3" class="node"><title>AuthService</title><polygon fill="#fb8072" stroke="#000" points="565.976 -252 476.024 -252 476.024 -216 565.976 -216 565.976 -252"/><text x="521" y="-229.8" fill="#000" font-family="Times,serif" font-size="14" text-anchor="middle">AuthService</text></g><g id="edge2" class="edge"><title>AuthModule-&gt;AuthService</title><path fill="none" stroke="#000" stroke-dasharray="5 2" d="M521,-187.1061C521,-187.1061 521,-205.991 521,-205.991"/><polygon fill="#000" stroke="#000" points="517.5 -205.991 521 -215.991 524.5 -205.991 517.5 -205.991"/></g><g id="node4" class="node"><title>AuthService</title><ellipse cx="722" cy="-104" fill="#fdb462" stroke="#000" rx="59.108" ry="18"/><text x="722" y="-99.8" fill="#000" font-family="Times,serif" font-size="14" text-anchor="middle">AuthService</text></g><g id="edge3" class="edge"><title>AuthService-&gt;AuthModule</title><path fill="none" stroke="#000" d="M722,-122.0225C722,-139.3734 722,-163 722,-163 722,-163 574.614,-163 574.614,-163"/><polygon fill="#000" stroke="#000" points="574.614 -159.5 564.614 -163 574.614 -166.5 574.614 -159.5"/></g><g id="node5" class="node"><title>JwtStrategy</title><ellipse cx="588" cy="-104" fill="#fdb462" stroke="#000" rx="56.756" ry="18"/><text x="588" y="-99.8" fill="#000" font-family="Times,serif" font-size="14" text-anchor="middle">JwtStrategy</text></g><g id="edge4" class="edge"><title>JwtStrategy-&gt;AuthModule</title><path fill="none" stroke="#000" d="M548.0728,-116.8419C548.0728,-116.8419 548.0728,-140.5231 548.0728,-140.5231"/><polygon fill="#000" stroke="#000" points="544.573 -140.523 548.073 -150.523 551.573 -140.523 544.573 -140.523"/></g><g id="node6" class="node"><title>MailService</title><ellipse cx="455" cy="-104" fill="#fdb462" stroke="#000" rx="58.461" ry="18"/><text x="455" y="-99.8" fill="#000" font-family="Times,serif" font-size="14" text-anchor="middle">MailService</text></g><g id="edge5" class="edge"><title>MailService-&gt;AuthModule</title><path fill="none" stroke="#000" d="M495.2282,-117.1537C495.2282,-117.1537 495.2282,-140.6938 495.2282,-140.6938"/><polygon fill="#000" stroke="#000" points="491.728 -140.694 495.228 -150.694 498.728 -140.694 491.728 -140.694"/></g><g id="node7" class="node"><title>SessionSerializer</title><ellipse cx="301" cy="-104" fill="#fdb462" stroke="#000" rx="77.578" ry="18"/><text x="301" y="-99.8" fill="#000" font-family="Times,serif" font-size="14" text-anchor="middle">SessionSerializer</text></g><g id="edge6" class="edge"><title>SessionSerializer-&gt;AuthModule</title><path fill="none" stroke="#000" d="M301,-122.0225C301,-139.3734 301,-163 301,-163 301,-163 467.272,-163 467.272,-163"/><polygon fill="#000" stroke="#000" points="467.272 -166.5 477.272 -163 467.272 -159.5 467.272 -166.5"/></g><g id="node8" class="node"><title>TempTokensService</title><ellipse cx="115" cy="-104" fill="#fdb462" stroke="#000" rx="90.892" ry="18"/><text x="115" y="-99.8" fill="#000" font-family="Times,serif" font-size="14" text-anchor="middle">TempTokensService</text></g><g id="edge7" class="edge"><title>TempTokensService-&gt;AuthModule</title><path fill="none" stroke="#000" d="M115,-122.2843C115,-143.3211 115,-175 115,-175 115,-175 467.1651,-175 467.1651,-175"/><polygon fill="#000" stroke="#000" points="467.165 -178.5 477.165 -175 467.165 -171.5 467.165 -178.5"/></g></g></svg>