<?xml version="1.0" encoding="UTF-8" standalone="no"?>
<!DOCTYPE svg PUBLIC "-//W3C//DTD SVG 1.1//EN"
 "http://www.w3.org/Graphics/SVG/1.1/DTD/svg11.dtd">
<!-- Generated by graphviz version 2.40.1 (20161225.0304)
 -->
<!-- Title: dependencies Pages: 1 -->
<svg width="504pt" height="284pt"
 viewBox="0.00 0.00 504.00 284.00" xmlns="http://www.w3.org/2000/svg" xmlns:xlink="http://www.w3.org/1999/xlink">
<g id="graph0" class="graph" transform="scale(1 1) rotate(0) translate(4 280)">
<title>dependencies</title>
<polygon fill="#ffffff" stroke="transparent" points="-4,4 -4,-280 500,-280 500,4 -4,4"/>
<text text-anchor="start" x="227.0091" y="-42.4" font-family="sans-serif" font-weight="bold" font-size="14.00" fill="#000000">Legend</text>
<polygon fill="#ffffb3" stroke="transparent" points="14,-10 14,-30 34,-30 34,-10 14,-10"/>
<text text-anchor="start" x="37.629" y="-15.4" font-family="sans-serif" font-size="14.00" fill="#000000"> &#160;Declarations</text>
<polygon fill="#8dd3c7" stroke="transparent" points="127,-10 127,-30 147,-30 147,-10 127,-10"/>
<text text-anchor="start" x="150.7251" y="-15.4" font-family="sans-serif" font-size="14.00" fill="#000000"> &#160;Module</text>
<polygon fill="#80b1d3" stroke="transparent" points="213,-10 213,-30 233,-30 233,-10 213,-10"/>
<text text-anchor="start" x="236.7812" y="-15.4" font-family="sans-serif" font-size="14.00" fill="#000000"> &#160;Bootstrap</text>
<polygon fill="#fdb462" stroke="transparent" points="310,-10 310,-30 330,-30 330,-10 310,-10"/>
<text text-anchor="start" x="333.6732" y="-15.4" font-family="sans-serif" font-size="14.00" fill="#000000"> &#160;Providers</text>
<polygon fill="#fb8072" stroke="transparent" points="406,-10 406,-30 426,-30 426,-10 406,-10"/>
<text text-anchor="start" x="429.7258" y="-15.4" font-family="sans-serif" font-size="14.00" fill="#000000"> &#160;Exports</text>
<g id="clust1" class="cluster">
<title>cluster_StagesModule</title>
<polygon fill="none" stroke="#000000" stroke-dasharray="1,5" points="106,-70 106,-268 390,-268 390,-70 106,-70"/>
</g>
<g id="clust3" class="cluster">
<title>cluster_StagesModule_imports</title>
<polygon fill="none" stroke="#000000" points="268,-78 268,-130 382,-130 382,-78 268,-78"/>
</g>
<g id="clust4" class="cluster">
<title>cluster_StagesModule_exports</title>
<polygon fill="none" stroke="#000000" points="199,-208 199,-260 313,-260 313,-208 199,-208"/>
</g>
<g id="clust6" class="cluster">
<title>cluster_StagesModule_providers</title>
<polygon fill="none" stroke="#000000" points="114,-78 114,-130 260,-130 260,-78 114,-78"/>
</g>
<!-- TracksModule -->
<g id="node1" class="node">
<title>TracksModule</title>
<polygon fill="#8dd3c7" stroke="#000000" points="373.6375,-122 370.6375,-126 349.6375,-126 346.6375,-122 276.3625,-122 276.3625,-86 373.6375,-86 373.6375,-122"/>
<text text-anchor="middle" x="325" y="-99.8" font-family="Times,serif" font-size="14.00" fill="#000000">TracksModule</text>
</g>
<!-- StagesModule -->
<g id="node2" class="node">
<title>StagesModule</title>
<polygon fill="#8dd3c7" stroke="#000000" points="304.0968,-187 301.0968,-191 280.0968,-191 277.0968,-187 207.9032,-187 207.9032,-151 304.0968,-151 304.0968,-187"/>
<text text-anchor="middle" x="256" y="-164.8" font-family="Times,serif" font-size="14.00" fill="#000000">StagesModule</text>
</g>
<!-- TracksModule&#45;&gt;StagesModule -->
<g id="edge1" class="edge">
<title>TracksModule&#45;&gt;StagesModule</title>
<path fill="none" stroke="#000000" d="M290.115,-122.1061C290.115,-122.1061 290.115,-140.991 290.115,-140.991"/>
<polygon fill="#000000" stroke="#000000" points="286.6151,-140.9909 290.115,-150.991 293.6151,-140.991 286.6151,-140.9909"/>
</g>
<!-- StagesService  -->
<g id="node3" class="node">
<title>StagesService </title>
<polygon fill="#fb8072" stroke="#000000" points="305.0246,-252 206.9754,-252 206.9754,-216 305.0246,-216 305.0246,-252"/>
<text text-anchor="middle" x="256" y="-229.8" font-family="Times,serif" font-size="14.00" fill="#000000">StagesService </text>
</g>
<!-- StagesModule&#45;&gt;StagesService  -->
<g id="edge2" class="edge">
<title>StagesModule&#45;&gt;StagesService </title>
<path fill="none" stroke="#000000" stroke-dasharray="5,2" d="M256,-187.1061C256,-187.1061 256,-205.991 256,-205.991"/>
<polygon fill="#000000" stroke="#000000" points="252.5001,-205.9909 256,-215.991 259.5001,-205.991 252.5001,-205.9909"/>
</g>
<!-- StagesService -->
<g id="node4" class="node">
<title>StagesService</title>
<ellipse fill="#fdb462" stroke="#000000" cx="187" cy="-104" rx="65.4033" ry="18"/>
<text text-anchor="middle" x="187" y="-99.8" font-family="Times,serif" font-size="14.00" fill="#000000">StagesService</text>
</g>
<!-- StagesService&#45;&gt;StagesModule -->
<g id="edge3" class="edge">
<title>StagesService&#45;&gt;StagesModule</title>
<path fill="none" stroke="#000000" d="M230.0765,-117.7848C230.0765,-117.7848 230.0765,-140.5475 230.0765,-140.5475"/>
<polygon fill="#000000" stroke="#000000" points="226.5766,-140.5474 230.0765,-150.5475 233.5766,-140.5475 226.5766,-140.5474"/>
</g>
</g>
</svg>
