<svg xmlns="http://www.w3.org/2000/svg" xmlns:xlink="http://www.w3.org/1999/xlink" width="672" height="284pt" viewBox="0 0 504 284"><g id="graph0" class="graph" transform="scale(1 1) rotate(0) translate(4 280)"><title>dependencies</title><polygon fill="#fff" stroke="transparent" points="-4 4 -4 -280 500 -280 500 4 -4 4"/><text x="227.009" y="-42.4" fill="#000" font-family="sans-serif" font-size="14" font-weight="bold" text-anchor="start">Legend</text><polygon fill="#ffffb3" stroke="transparent" points="14 -10 14 -30 34 -30 34 -10 14 -10"/><text x="37.629" y="-15.4" fill="#000" font-family="sans-serif" font-size="14" text-anchor="start">Declarations</text><polygon fill="#8dd3c7" stroke="transparent" points="127 -10 127 -30 147 -30 147 -10 127 -10"/><text x="150.725" y="-15.4" fill="#000" font-family="sans-serif" font-size="14" text-anchor="start">Module</text><polygon fill="#80b1d3" stroke="transparent" points="213 -10 213 -30 233 -30 233 -10 213 -10"/><text x="236.781" y="-15.4" fill="#000" font-family="sans-serif" font-size="14" text-anchor="start">Bootstrap</text><polygon fill="#fdb462" stroke="transparent" points="310 -10 310 -30 330 -30 330 -10 310 -10"/><text x="333.673" y="-15.4" fill="#000" font-family="sans-serif" font-size="14" text-anchor="start">Providers</text><polygon fill="#fb8072" stroke="transparent" points="406 -10 406 -30 426 -30 426 -10 406 -10"/><text x="429.726" y="-15.4" fill="#000" font-family="sans-serif" font-size="14" text-anchor="start">Exports</text><g id="clust1" class="cluster"><title>cluster_StagesModule</title><polygon fill="none" stroke="#000" stroke-dasharray="1 5" points="106 -70 106 -268 390 -268 390 -70 106 -70"/></g><g id="clust3" class="cluster"><title>cluster_StagesModule_imports</title><polygon fill="none" stroke="#000" points="268 -78 268 -130 382 -130 382 -78 268 -78"/></g><g id="clust4" class="cluster"><title>cluster_StagesModule_exports</title><polygon fill="none" stroke="#000" points="199 -208 199 -260 313 -260 313 -208 199 -208"/></g><g id="clust6" class="cluster"><title>cluster_StagesModule_providers</title><polygon fill="none" stroke="#000" points="114 -78 114 -130 260 -130 260 -78 114 -78"/></g><g id="node1" class="node"><title>TracksModule</title><polygon fill="#8dd3c7" stroke="#000" points="373.637 -122 370.637 -126 349.637 -126 346.637 -122 276.363 -122 276.363 -86 373.637 -86 373.637 -122"/><text x="325" y="-99.8" fill="#000" font-family="Times,serif" font-size="14" text-anchor="middle">TracksModule</text></g><g id="node2" class="node"><title>StagesModule</title><polygon fill="#8dd3c7" stroke="#000" points="304.097 -187 301.097 -191 280.097 -191 277.097 -187 207.903 -187 207.903 -151 304.097 -151 304.097 -187"/><text x="256" y="-164.8" fill="#000" font-family="Times,serif" font-size="14" text-anchor="middle">StagesModule</text></g><g id="edge1" class="edge"><title>TracksModule-&gt;StagesModule</title><path fill="none" stroke="#000" d="M290.115,-122.1061C290.115,-122.1061 290.115,-140.991 290.115,-140.991"/><polygon fill="#000" stroke="#000" points="286.615 -140.991 290.115 -150.991 293.615 -140.991 286.615 -140.991"/></g><g id="node3" class="node"><title>StagesService</title><polygon fill="#fb8072" stroke="#000" points="305.025 -252 206.975 -252 206.975 -216 305.025 -216 305.025 -252"/><text x="256" y="-229.8" fill="#000" font-family="Times,serif" font-size="14" text-anchor="middle">StagesService</text></g><g id="edge2" class="edge"><title>StagesModule-&gt;StagesService</title><path fill="none" stroke="#000" stroke-dasharray="5 2" d="M256,-187.1061C256,-187.1061 256,-205.991 256,-205.991"/><polygon fill="#000" stroke="#000" points="252.5 -205.991 256 -215.991 259.5 -205.991 252.5 -205.991"/></g><g id="node4" class="node"><title>StagesService</title><ellipse cx="187" cy="-104" fill="#fdb462" stroke="#000" rx="65.403" ry="18"/><text x="187" y="-99.8" fill="#000" font-family="Times,serif" font-size="14" text-anchor="middle">StagesService</text></g><g id="edge3" class="edge"><title>StagesService-&gt;StagesModule</title><path fill="none" stroke="#000" d="M230.0765,-117.7848C230.0765,-117.7848 230.0765,-140.5475 230.0765,-140.5475"/><polygon fill="#000" stroke="#000" points="226.577 -140.547 230.077 -150.548 233.577 -140.548 226.577 -140.547"/></g></g></svg>