<svg xmlns="http://www.w3.org/2000/svg" xmlns:xlink="http://www.w3.org/1999/xlink" width="672" height="284pt" viewBox="0 0 504 284"><g id="graph0" class="graph" transform="scale(1 1) rotate(0) translate(4 280)"><title>dependencies</title><polygon fill="#fff" stroke="transparent" points="-4 4 -4 -280 500 -280 500 4 -4 4"/><text x="227.009" y="-42.4" fill="#000" font-family="sans-serif" font-size="14" font-weight="bold" text-anchor="start">Legend</text><polygon fill="#ffffb3" stroke="transparent" points="14 -10 14 -30 34 -30 34 -10 14 -10"/><text x="37.629" y="-15.4" fill="#000" font-family="sans-serif" font-size="14" text-anchor="start">Declarations</text><polygon fill="#8dd3c7" stroke="transparent" points="127 -10 127 -30 147 -30 147 -10 127 -10"/><text x="150.725" y="-15.4" fill="#000" font-family="sans-serif" font-size="14" text-anchor="start">Module</text><polygon fill="#80b1d3" stroke="transparent" points="213 -10 213 -30 233 -30 233 -10 213 -10"/><text x="236.781" y="-15.4" fill="#000" font-family="sans-serif" font-size="14" text-anchor="start">Bootstrap</text><polygon fill="#fdb462" stroke="transparent" points="310 -10 310 -30 330 -30 330 -10 310 -10"/><text x="333.673" y="-15.4" fill="#000" font-family="sans-serif" font-size="14" text-anchor="start">Providers</text><polygon fill="#fb8072" stroke="transparent" points="406 -10 406 -30 426 -30 426 -10 406 -10"/><text x="429.726" y="-15.4" fill="#000" font-family="sans-serif" font-size="14" text-anchor="start">Exports</text><g id="clust1" class="cluster"><title>cluster_TracksModule</title><polygon fill="none" stroke="#000" stroke-dasharray="1 5" points="108 -70 108 -268 388 -268 388 -70 108 -70"/></g><g id="clust3" class="cluster"><title>cluster_TracksModule_imports</title><polygon fill="none" stroke="#000" points="272 -78 272 -130 380 -130 380 -78 272 -78"/></g><g id="clust4" class="cluster"><title>cluster_TracksModule_exports</title><polygon fill="none" stroke="#000" points="198 -208 198 -260 314 -260 314 -208 198 -208"/></g><g id="clust6" class="cluster"><title>cluster_TracksModule_providers</title><polygon fill="none" stroke="#000" points="116 -78 116 -130 264 -130 264 -78 116 -78"/></g><g id="node1" class="node"><title>UsersModule</title><polygon fill="#8dd3c7" stroke="#000" points="371.922 -122 368.922 -126 347.922 -126 344.922 -122 280.078 -122 280.078 -86 371.922 -86 371.922 -122"/><text x="326" y="-99.8" fill="#000" font-family="Times,serif" font-size="14" text-anchor="middle">UsersModule</text></g><g id="node2" class="node"><title>TracksModule</title><polygon fill="#8dd3c7" stroke="#000" points="304.637 -187 301.637 -191 280.637 -191 277.637 -187 207.363 -187 207.363 -151 304.637 -151 304.637 -187"/><text x="256" y="-164.8" fill="#000" font-family="Times,serif" font-size="14" text-anchor="middle">TracksModule</text></g><g id="edge1" class="edge"><title>UsersModule-&gt;TracksModule</title><path fill="none" stroke="#000" d="M292.554,-122.1061C292.554,-122.1061 292.554,-140.991 292.554,-140.991"/><polygon fill="#000" stroke="#000" points="289.054 -140.991 292.554 -150.991 296.054 -140.991 289.054 -140.991"/></g><g id="node3" class="node"><title>TracksService</title><polygon fill="#fb8072" stroke="#000" points="305.565 -252 206.435 -252 206.435 -216 305.565 -216 305.565 -252"/><text x="256" y="-229.8" fill="#000" font-family="Times,serif" font-size="14" text-anchor="middle">TracksService</text></g><g id="edge2" class="edge"><title>TracksModule-&gt;TracksService</title><path fill="none" stroke="#000" stroke-dasharray="5 2" d="M256,-187.1061C256,-187.1061 256,-205.991 256,-205.991"/><polygon fill="#000" stroke="#000" points="252.5 -205.991 256 -215.991 259.5 -205.991 252.5 -205.991"/></g><g id="node4" class="node"><title>TracksService</title><ellipse cx="190" cy="-104" fill="#fdb462" stroke="#000" rx="66.028" ry="18"/><text x="190" y="-99.8" fill="#000" font-family="Times,serif" font-size="14" text-anchor="middle">TracksService</text></g><g id="edge3" class="edge"><title>TracksService-&gt;TracksModule</title><path fill="none" stroke="#000" d="M231.7226,-118.104C231.7226,-118.104 231.7226,-140.7209 231.7226,-140.7209"/><polygon fill="#000" stroke="#000" points="228.223 -140.721 231.723 -150.721 235.223 -140.721 228.223 -140.721"/></g></g></svg>