<?xml version="1.0" encoding="UTF-8" standalone="no"?>
<!DOCTYPE svg PUBLIC "-//W3C//DTD SVG 1.1//EN"
 "http://www.w3.org/Graphics/SVG/1.1/DTD/svg11.dtd">
<!-- Generated by graphviz version 2.40.1 (20161225.0304)
 -->
<!-- Title: dependencies Pages: 1 -->
<svg width="600pt" height="284pt"
 viewBox="0.00 0.00 600.00 284.00" xmlns="http://www.w3.org/2000/svg" xmlns:xlink="http://www.w3.org/1999/xlink">
<g id="graph0" class="graph" transform="scale(1 1) rotate(0) translate(4 280)">
<title>dependencies</title>
<polygon fill="#ffffff" stroke="transparent" points="-4,4 -4,-280 596,-280 596,4 -4,4"/>
<text text-anchor="start" x="275.0091" y="-42.4" font-family="sans-serif" font-weight="bold" font-size="14.00" fill="#000000">Legend</text>
<polygon fill="#ffffb3" stroke="transparent" points="62,-10 62,-30 82,-30 82,-10 62,-10"/>
<text text-anchor="start" x="85.629" y="-15.4" font-family="sans-serif" font-size="14.00" fill="#000000"> &#160;Declarations</text>
<polygon fill="#8dd3c7" stroke="transparent" points="175,-10 175,-30 195,-30 195,-10 175,-10"/>
<text text-anchor="start" x="198.7251" y="-15.4" font-family="sans-serif" font-size="14.00" fill="#000000"> &#160;Module</text>
<polygon fill="#80b1d3" stroke="transparent" points="261,-10 261,-30 281,-30 281,-10 261,-10"/>
<text text-anchor="start" x="284.7812" y="-15.4" font-family="sans-serif" font-size="14.00" fill="#000000"> &#160;Bootstrap</text>
<polygon fill="#fdb462" stroke="transparent" points="358,-10 358,-30 378,-30 378,-10 358,-10"/>
<text text-anchor="start" x="381.6732" y="-15.4" font-family="sans-serif" font-size="14.00" fill="#000000"> &#160;Providers</text>
<polygon fill="#fb8072" stroke="transparent" points="454,-10 454,-30 474,-30 474,-10 454,-10"/>
<text text-anchor="start" x="477.7258" y="-15.4" font-family="sans-serif" font-size="14.00" fill="#000000"> &#160;Exports</text>
<g id="clust1" class="cluster">
<title>cluster_TracksModule</title>
<polygon fill="none" stroke="#000000" stroke-dasharray="1,5" points="8,-70 8,-268 584,-268 584,-70 8,-70"/>
</g>
<g id="clust3" class="cluster">
<title>cluster_TracksModule_imports</title>
<polygon fill="none" stroke="#000000" points="350,-78 350,-130 576,-130 576,-78 350,-78"/>
</g>
<g id="clust4" class="cluster">
<title>cluster_TracksModule_exports</title>
<polygon fill="none" stroke="#000000" points="278,-208 278,-260 394,-260 394,-208 278,-208"/>
</g>
<g id="clust6" class="cluster">
<title>cluster_TracksModule_providers</title>
<polygon fill="none" stroke="#000000" points="16,-78 16,-130 342,-130 342,-78 16,-78"/>
</g>
<!-- MentorModule -->
<g id="node1" class="node">
<title>MentorModule</title>
<polygon fill="#8dd3c7" stroke="#000000" points="568.2605,-122 565.2605,-126 544.2605,-126 541.2605,-122 467.7395,-122 467.7395,-86 568.2605,-86 568.2605,-122"/>
<text text-anchor="middle" x="518" y="-99.8" font-family="Times,serif" font-size="14.00" fill="#000000">MentorModule</text>
</g>
<!-- TracksModule -->
<g id="node3" class="node">
<title>TracksModule</title>
<polygon fill="#8dd3c7" stroke="#000000" points="384.6375,-187 381.6375,-191 360.6375,-191 357.6375,-187 287.3625,-187 287.3625,-151 384.6375,-151 384.6375,-187"/>
<text text-anchor="middle" x="336" y="-164.8" font-family="Times,serif" font-size="14.00" fill="#000000">TracksModule</text>
</g>
<!-- MentorModule&#45;&gt;TracksModule -->
<g id="edge1" class="edge">
<title>MentorModule&#45;&gt;TracksModule</title>
<path fill="none" stroke="#000000" d="M518,-122.1061C518,-141.3391 518,-169 518,-169 518,-169 394.7727,-169 394.7727,-169"/>
<polygon fill="#000000" stroke="#000000" points="394.7727,-165.5001 384.7727,-169 394.7726,-172.5001 394.7727,-165.5001"/>
</g>
<!-- UsersModule -->
<g id="node2" class="node">
<title>UsersModule</title>
<polygon fill="#8dd3c7" stroke="#000000" points="449.9218,-122 446.9218,-126 425.9218,-126 422.9218,-122 358.0782,-122 358.0782,-86 449.9218,-86 449.9218,-122"/>
<text text-anchor="middle" x="404" y="-99.8" font-family="Times,serif" font-size="14.00" fill="#000000">UsersModule</text>
</g>
<!-- UsersModule&#45;&gt;TracksModule -->
<g id="edge2" class="edge">
<title>UsersModule&#45;&gt;TracksModule</title>
<path fill="none" stroke="#000000" d="M371.554,-122.1061C371.554,-122.1061 371.554,-140.991 371.554,-140.991"/>
<polygon fill="#000000" stroke="#000000" points="368.0541,-140.9909 371.554,-150.991 375.0541,-140.991 368.0541,-140.9909"/>
</g>
<!-- TracksService  -->
<g id="node4" class="node">
<title>TracksService </title>
<polygon fill="#fb8072" stroke="#000000" points="385.5655,-252 286.4345,-252 286.4345,-216 385.5655,-216 385.5655,-252"/>
<text text-anchor="middle" x="336" y="-229.8" font-family="Times,serif" font-size="14.00" fill="#000000">TracksService </text>
</g>
<!-- TracksModule&#45;&gt;TracksService  -->
<g id="edge3" class="edge">
<title>TracksModule&#45;&gt;TracksService </title>
<path fill="none" stroke="#000000" stroke-dasharray="5,2" d="M336,-187.1061C336,-187.1061 336,-205.991 336,-205.991"/>
<polygon fill="#000000" stroke="#000000" points="332.5001,-205.9909 336,-215.991 339.5001,-205.991 332.5001,-205.9909"/>
</g>
<!-- TracksService -->
<g id="node5" class="node">
<title>TracksService</title>
<ellipse fill="#fdb462" stroke="#000000" cx="268" cy="-104" rx="66.0281" ry="18"/>
<text text-anchor="middle" x="268" y="-99.8" font-family="Times,serif" font-size="14.00" fill="#000000">TracksService</text>
</g>
<!-- TracksService&#45;&gt;TracksModule -->
<g id="edge4" class="edge">
<title>TracksService&#45;&gt;TracksModule</title>
<path fill="none" stroke="#000000" d="M310.7226,-117.7848C310.7226,-117.7848 310.7226,-140.5475 310.7226,-140.5475"/>
<polygon fill="#000000" stroke="#000000" points="307.2227,-140.5474 310.7226,-150.5475 314.2227,-140.5475 307.2227,-140.5474"/>
</g>
<!-- UserStageService -->
<g id="node6" class="node">
<title>UserStageService</title>
<ellipse fill="#fdb462" stroke="#000000" cx="104" cy="-104" rx="79.8488" ry="18"/>
<text text-anchor="middle" x="104" y="-99.8" font-family="Times,serif" font-size="14.00" fill="#000000">UserStageService</text>
</g>
<!-- UserStageService&#45;&gt;TracksModule -->
<g id="edge5" class="edge">
<title>UserStageService&#45;&gt;TracksModule</title>
<path fill="none" stroke="#000000" d="M104,-122.1061C104,-141.3391 104,-169 104,-169 104,-169 277.0823,-169 277.0823,-169"/>
<polygon fill="#000000" stroke="#000000" points="277.0823,-172.5001 287.0823,-169 277.0822,-165.5001 277.0823,-172.5001"/>
</g>
</g>
</svg>
