<svg xmlns="http://www.w3.org/2000/svg" xmlns:xlink="http://www.w3.org/1999/xlink" width="800" height="284pt" viewBox="0 0 600 284"><g id="graph0" class="graph" transform="scale(1 1) rotate(0) translate(4 280)"><title>dependencies</title><polygon fill="#fff" stroke="transparent" points="-4 4 -4 -280 596 -280 596 4 -4 4"/><text x="275.009" y="-42.4" fill="#000" font-family="sans-serif" font-size="14" font-weight="bold" text-anchor="start">Legend</text><polygon fill="#ffffb3" stroke="transparent" points="62 -10 62 -30 82 -30 82 -10 62 -10"/><text x="85.629" y="-15.4" fill="#000" font-family="sans-serif" font-size="14" text-anchor="start">Declarations</text><polygon fill="#8dd3c7" stroke="transparent" points="175 -10 175 -30 195 -30 195 -10 175 -10"/><text x="198.725" y="-15.4" fill="#000" font-family="sans-serif" font-size="14" text-anchor="start">Module</text><polygon fill="#80b1d3" stroke="transparent" points="261 -10 261 -30 281 -30 281 -10 261 -10"/><text x="284.781" y="-15.4" fill="#000" font-family="sans-serif" font-size="14" text-anchor="start">Bootstrap</text><polygon fill="#fdb462" stroke="transparent" points="358 -10 358 -30 378 -30 378 -10 358 -10"/><text x="381.673" y="-15.4" fill="#000" font-family="sans-serif" font-size="14" text-anchor="start">Providers</text><polygon fill="#fb8072" stroke="transparent" points="454 -10 454 -30 474 -30 474 -10 454 -10"/><text x="477.726" y="-15.4" fill="#000" font-family="sans-serif" font-size="14" text-anchor="start">Exports</text><g id="clust1" class="cluster"><title>cluster_TracksModule</title><polygon fill="none" stroke="#000" stroke-dasharray="1 5" points="8 -70 8 -268 584 -268 584 -70 8 -70"/></g><g id="clust3" class="cluster"><title>cluster_TracksModule_imports</title><polygon fill="none" stroke="#000" points="350 -78 350 -130 576 -130 576 -78 350 -78"/></g><g id="clust4" class="cluster"><title>cluster_TracksModule_exports</title><polygon fill="none" stroke="#000" points="278 -208 278 -260 394 -260 394 -208 278 -208"/></g><g id="clust6" class="cluster"><title>cluster_TracksModule_providers</title><polygon fill="none" stroke="#000" points="16 -78 16 -130 342 -130 342 -78 16 -78"/></g><g id="node1" class="node"><title>MentorModule</title><polygon fill="#8dd3c7" stroke="#000" points="568.26 -122 565.26 -126 544.26 -126 541.26 -122 467.74 -122 467.74 -86 568.26 -86 568.26 -122"/><text x="518" y="-99.8" fill="#000" font-family="Times,serif" font-size="14" text-anchor="middle">MentorModule</text></g><g id="node3" class="node"><title>TracksModule</title><polygon fill="#8dd3c7" stroke="#000" points="384.637 -187 381.637 -191 360.637 -191 357.637 -187 287.363 -187 287.363 -151 384.637 -151 384.637 -187"/><text x="336" y="-164.8" fill="#000" font-family="Times,serif" font-size="14" text-anchor="middle">TracksModule</text></g><g id="edge1" class="edge"><title>MentorModule-&gt;TracksModule</title><path fill="none" stroke="#000" d="M518,-122.1061C518,-141.3391 518,-169 518,-169 518,-169 394.7727,-169 394.7727,-169"/><polygon fill="#000" stroke="#000" points="394.773 -165.5 384.773 -169 394.773 -172.5 394.773 -165.5"/></g><g id="node2" class="node"><title>UsersModule</title><polygon fill="#8dd3c7" stroke="#000" points="449.922 -122 446.922 -126 425.922 -126 422.922 -122 358.078 -122 358.078 -86 449.922 -86 449.922 -122"/><text x="404" y="-99.8" fill="#000" font-family="Times,serif" font-size="14" text-anchor="middle">UsersModule</text></g><g id="edge2" class="edge"><title>UsersModule-&gt;TracksModule</title><path fill="none" stroke="#000" d="M371.554,-122.1061C371.554,-122.1061 371.554,-140.991 371.554,-140.991"/><polygon fill="#000" stroke="#000" points="368.054 -140.991 371.554 -150.991 375.054 -140.991 368.054 -140.991"/></g><g id="node4" class="node"><title>TracksService</title><polygon fill="#fb8072" stroke="#000" points="385.565 -252 286.435 -252 286.435 -216 385.565 -216 385.565 -252"/><text x="336" y="-229.8" fill="#000" font-family="Times,serif" font-size="14" text-anchor="middle">TracksService</text></g><g id="edge3" class="edge"><title>TracksModule-&gt;TracksService</title><path fill="none" stroke="#000" stroke-dasharray="5 2" d="M336,-187.1061C336,-187.1061 336,-205.991 336,-205.991"/><polygon fill="#000" stroke="#000" points="332.5 -205.991 336 -215.991 339.5 -205.991 332.5 -205.991"/></g><g id="node5" class="node"><title>TracksService</title><ellipse cx="268" cy="-104" fill="#fdb462" stroke="#000" rx="66.028" ry="18"/><text x="268" y="-99.8" fill="#000" font-family="Times,serif" font-size="14" text-anchor="middle">TracksService</text></g><g id="edge4" class="edge"><title>TracksService-&gt;TracksModule</title><path fill="none" stroke="#000" d="M310.7226,-117.7848C310.7226,-117.7848 310.7226,-140.5475 310.7226,-140.5475"/><polygon fill="#000" stroke="#000" points="307.223 -140.547 310.723 -150.548 314.223 -140.548 307.223 -140.547"/></g><g id="node6" class="node"><title>UserStageService</title><ellipse cx="104" cy="-104" fill="#fdb462" stroke="#000" rx="79.849" ry="18"/><text x="104" y="-99.8" fill="#000" font-family="Times,serif" font-size="14" text-anchor="middle">UserStageService</text></g><g id="edge5" class="edge"><title>UserStageService-&gt;TracksModule</title><path fill="none" stroke="#000" d="M104,-122.1061C104,-141.3391 104,-169 104,-169 104,-169 277.0823,-169 277.0823,-169"/><polygon fill="#000" stroke="#000" points="277.082 -172.5 287.082 -169 277.082 -165.5 277.082 -172.5"/></g></g></svg>