<svg xmlns="http://www.w3.org/2000/svg" xmlns:xlink="http://www.w3.org/1999/xlink" width="4004" height="512pt" viewBox="0 0 3003 512"><g id="graph0" class="graph" transform="scale(1 1) rotate(0) translate(4 508)"><title>dependencies</title><polygon fill="#fff" stroke="transparent" points="-4 4 -4 -508 2999 -508 2999 4 -4 4"/><text x="1476.509" y="-42.4" fill="#000" font-family="sans-serif" font-size="14" font-weight="bold" text-anchor="start">Legend</text><polygon fill="#ffffb3" stroke="transparent" points="1263.5 -10 1263.5 -30 1283.5 -30 1283.5 -10 1263.5 -10"/><text x="1287.129" y="-15.4" fill="#000" font-family="sans-serif" font-size="14" text-anchor="start">Declarations</text><polygon fill="#8dd3c7" stroke="transparent" points="1376.5 -10 1376.5 -30 1396.5 -30 1396.5 -10 1376.5 -10"/><text x="1400.225" y="-15.4" fill="#000" font-family="sans-serif" font-size="14" text-anchor="start">Module</text><polygon fill="#80b1d3" stroke="transparent" points="1462.5 -10 1462.5 -30 1482.5 -30 1482.5 -10 1462.5 -10"/><text x="1486.281" y="-15.4" fill="#000" font-family="sans-serif" font-size="14" text-anchor="start">Bootstrap</text><polygon fill="#fdb462" stroke="transparent" points="1559.5 -10 1559.5 -30 1579.5 -30 1579.5 -10 1559.5 -10"/><text x="1583.173" y="-15.4" fill="#000" font-family="sans-serif" font-size="14" text-anchor="start">Providers</text><polygon fill="#fb8072" stroke="transparent" points="1655.5 -10 1655.5 -30 1675.5 -30 1675.5 -10 1655.5 -10"/><text x="1679.226" y="-15.4" fill="#000" font-family="sans-serif" font-size="14" text-anchor="start">Exports</text><g id="clust1" class="cluster"><title>cluster_AppModule</title><polygon fill="none" stroke="#000" stroke-dasharray="1 5" points="919 -70 919 -488 1651 -488 1651 -70 919 -70"/></g><g id="clust3" class="cluster"><title>cluster_AppModule_imports</title><polygon fill="none" stroke="#000" points="1177 -78 1177 -412 1643 -412 1643 -78 1177 -78"/></g><g id="clust6" class="cluster"><title>cluster_AppModule_providers</title><polygon fill="none" stroke="#000" points="1039 -360 1039 -412 1169 -412 1169 -360 1039 -360"/></g><g id="clust7" class="cluster"><title>cluster_AuthModule</title><polygon fill="none" stroke="#000" stroke-dasharray="1 5" points="8 -70 8 -138 911 -138 911 -70 8 -70"/></g><g id="clust10" class="cluster"><title>cluster_AuthModule_exports</title><polygon fill="none" stroke="#000" points="797 -78 797 -130 903 -130 903 -78 797 -78"/></g><g id="clust12" class="cluster"><title>cluster_AuthModule_providers</title><polygon fill="none" stroke="#000" points="16 -78 16 -130 789 -130 789 -78 16 -78"/></g><g id="clust13" class="cluster"><title>cluster_CategoriesModule</title><polygon fill="none" stroke="#000" stroke-dasharray="1 5" points="1659 -146 1659 -214 1813 -214 1813 -146 1659 -146"/></g><g id="clust16" class="cluster"><title>cluster_CategoriesModule_exports</title><polygon fill="none" stroke="#000" points="1667 -154 1667 -206 1805 -206 1805 -154 1667 -154"/></g><g id="clust19" class="cluster"><title>cluster_CoursesModule</title><polygon fill="none" stroke="#000" stroke-dasharray="1 5" points="1659 -352 1659 -420 1963 -420 1963 -352 1659 -352"/></g><g id="clust22" class="cluster"><title>cluster_CoursesModule_exports</title><polygon fill="none" stroke="#000" points="1833 -360 1833 -412 1955 -412 1955 -360 1833 -360"/></g><g id="clust24" class="cluster"><title>cluster_CoursesModule_providers</title><polygon fill="none" stroke="#000" points="1667 -360 1667 -412 1825 -412 1825 -360 1667 -360"/></g><g id="clust31" class="cluster"><title>cluster_MailModule</title><polygon fill="none" stroke="#000" stroke-dasharray="1 5" points="1821 -146 1821 -214 1941 -214 1941 -146 1821 -146"/></g><g id="clust34" class="cluster"><title>cluster_MailModule_exports</title><polygon fill="none" stroke="#000" points="1829 -154 1829 -206 1933 -206 1933 -154 1829 -154"/></g><g id="clust37" class="cluster"><title>cluster_MentorModule</title><polygon fill="none" stroke="#000" stroke-dasharray="1 5" points="617 -222 617 -290 911 -290 911 -222 617 -222"/></g><g id="clust40" class="cluster"><title>cluster_MentorModule_exports</title><polygon fill="none" stroke="#000" points="785 -230 785 -282 903 -282 903 -230 785 -230"/></g><g id="clust42" class="cluster"><title>cluster_MentorModule_providers</title><polygon fill="none" stroke="#000" points="625 -230 625 -282 777 -282 777 -230 625 -230"/></g><g id="clust43" class="cluster"><title>cluster_ProfileModule</title><polygon fill="none" stroke="#000" stroke-dasharray="1 5" points="2083 -146 2083 -214 2513 -214 2513 -146 2083 -146"/></g><g id="clust46" class="cluster"><title>cluster_ProfileModule_exports</title><polygon fill="none" stroke="#000" points="2389 -154 2389 -206 2505 -206 2505 -154 2389 -154"/></g><g id="clust48" class="cluster"><title>cluster_ProfileModule_providers</title><polygon fill="none" stroke="#000" points="2091 -154 2091 -206 2381 -206 2381 -154 2091 -154"/></g><g id="clust55" class="cluster"><title>cluster_StagesModule</title><polygon fill="none" stroke="#000" stroke-dasharray="1 5" points="1971 -352 1971 -420 2255 -420 2255 -352 1971 -352"/></g><g id="clust58" class="cluster"><title>cluster_StagesModule_exports</title><polygon fill="none" stroke="#000" points="2133 -360 2133 -412 2247 -412 2247 -360 2133 -360"/></g><g id="clust60" class="cluster"><title>cluster_StagesModule_providers</title><polygon fill="none" stroke="#000" points="1979 -360 1979 -412 2125 -412 2125 -360 1979 -360"/></g><g id="clust61" class="cluster"><title>cluster_TasksModule</title><polygon fill="none" stroke="#000" stroke-dasharray="1 5" points="1659 -428 1659 -496 1935 -496 1935 -428 1659 -428"/></g><g id="clust64" class="cluster"><title>cluster_TasksModule_exports</title><polygon fill="none" stroke="#000" points="1817 -436 1817 -488 1927 -488 1927 -436 1817 -436"/></g><g id="clust66" class="cluster"><title>cluster_TasksModule_providers</title><polygon fill="none" stroke="#000" points="1667 -436 1667 -488 1809 -488 1809 -436 1667 -436"/></g><g id="clust67" class="cluster"><title>cluster_TracksModule</title><polygon fill="none" stroke="#000" stroke-dasharray="1 5" points="2521 -146 2521 -214 2987 -214 2987 -146 2521 -146"/></g><g id="clust70" class="cluster"><title>cluster_TracksModule_exports</title><polygon fill="none" stroke="#000" points="2863 -154 2863 -206 2979 -206 2979 -154 2863 -154"/></g><g id="clust72" class="cluster"><title>cluster_TracksModule_providers</title><polygon fill="none" stroke="#000" points="2529 -154 2529 -206 2855 -206 2855 -154 2529 -154"/></g><g id="clust73" class="cluster"><title>cluster_UsersModule</title><polygon fill="none" stroke="#000" stroke-dasharray="1 5" points="1949 -146 1949 -214 2075 -214 2075 -146 1949 -146"/></g><g id="clust76" class="cluster"><title>cluster_UsersModule_exports</title><polygon fill="none" stroke="#000" points="1957 -154 1957 -206 2067 -206 2067 -154 1957 -154"/></g><g id="node1" class="node"><title>AuthModule</title><polygon fill="#8dd3c7" stroke="#000" points="1272.548 -198 1269.548 -202 1248.548 -202 1245.548 -198 1185.452 -198 1185.452 -162 1272.548 -162 1272.548 -198"/><text x="1229" y="-175.8" fill="#000" font-family="Times,serif" font-size="14" text-anchor="middle">AuthModule</text></g><g id="node12" class="node"><title>AppModule</title><polygon fill="#8dd3c7" stroke="#000" points="1107.657 -480 1104.657 -484 1083.657 -484 1080.657 -480 1024.343 -480 1024.343 -444 1107.657 -444 1107.657 -480"/><text x="1066" y="-457.8" fill="#000" font-family="Times,serif" font-size="14" text-anchor="middle">AppModule</text></g><g id="edge1" class="edge"><title>AuthModule-&gt;AppModule</title><path fill="none" stroke="#000" d="M1229,-198.0004C1229,-258.0893 1229,-448 1229,-448 1229,-448 1117.9766,-448 1117.9766,-448"/><polygon fill="#000" stroke="#000" points="1117.977 -444.5 1107.977 -448 1117.976 -451.5 1117.977 -444.5"/></g><g id="node14" class="node"><title>AuthService</title><polygon fill="#fb8072" stroke="#000" points="894.976 -122 805.024 -122 805.024 -86 894.976 -86 894.976 -122"/><text x="850" y="-99.8" fill="#000" font-family="Times,serif" font-size="14" text-anchor="middle">AuthService</text></g><g id="edge14" class="edge"><title>AuthModule-&gt;AuthService</title><path fill="none" stroke="#000" stroke-dasharray="5 2" d="M1185.1536,-168C1085.3891,-168 850,-168 850,-168 850,-168 850,-132.1686 850,-132.1686"/><polygon fill="#000" stroke="#000" points="853.5 -132.169 850 -122.169 846.5 -132.169 853.5 -132.169"/></g><g id="node2" class="node"><title>CategoriesModule</title><polygon fill="#8dd3c7" stroke="#000" points="1420.917 -122 1417.917 -126 1396.917 -126 1393.917 -122 1301.083 -122 1301.083 -86 1420.917 -86 1420.917 -122"/><text x="1361" y="-99.8" fill="#000" font-family="Times,serif" font-size="14" text-anchor="middle">CategoriesModule</text></g><g id="edge2" class="edge"><title>CategoriesModule-&gt;AppModule</title><path fill="none" stroke="#000" d="M1399.8116,-122.4294C1399.8116,-194.8561 1399.8116,-456 1399.8116,-456 1399.8116,-456 1117.9395,-456 1117.9395,-456"/><polygon fill="#000" stroke="#000" points="1117.939 -452.5 1107.939 -456 1117.939 -459.5 1117.939 -452.5"/></g><g id="node20" class="node"><title>CategoriesService</title><polygon fill="#fb8072" stroke="#000" points="1796.845 -198 1675.155 -198 1675.155 -162 1796.845 -162 1796.845 -198"/><text x="1736" y="-175.8" fill="#000" font-family="Times,serif" font-size="14" text-anchor="middle">CategoriesService</text></g><g id="edge20" class="edge"><title>CategoriesModule-&gt;CategoriesService</title><path fill="none" stroke="#000" stroke-dasharray="5 2" d="M1408.2431,-122.0449C1408.2431,-143.6623 1408.2431,-177 1408.2431,-177 1408.2431,-177 1665.1196,-177 1665.1196,-177"/><polygon fill="#000" stroke="#000" points="1665.12 -180.5 1675.12 -177 1665.12 -173.5 1665.12 -180.5"/></g><g id="node3" class="node"><title>CoursesModule</title><polygon fill="#8dd3c7" stroke="#000" points="1521.151 -339 1518.151 -343 1497.151 -343 1494.151 -339 1416.849 -339 1416.849 -303 1521.151 -303 1521.151 -339"/><text x="1469" y="-316.8" fill="#000" font-family="Times,serif" font-size="14" text-anchor="middle">CoursesModule</text></g><g id="node9" class="node"><title>TasksModule</title><polygon fill="#8dd3c7" stroke="#000" points="1515.206 -404 1512.206 -408 1491.206 -408 1488.206 -404 1422.794 -404 1422.794 -368 1515.206 -368 1515.206 -404"/><text x="1469" y="-381.8" fill="#000" font-family="Times,serif" font-size="14" text-anchor="middle">TasksModule</text></g><g id="edge36" class="edge"><title>CoursesModule-&gt;TasksModule</title><path fill="none" stroke="#000" d="M1453.6323,-339.1061C1453.6323,-339.1061 1453.6323,-357.991 1453.6323,-357.991"/><polygon fill="#000" stroke="#000" points="1450.132 -357.991 1453.632 -367.991 1457.132 -357.991 1450.132 -357.991"/></g><g id="edge3" class="edge"><title>CoursesModule-&gt;AppModule</title><path fill="none" stroke="#000" d="M1416.7319,-321C1302.9078,-321 1042.7382,-321 1042.7382,-321 1042.7382,-321 1042.7382,-433.8554 1042.7382,-433.8554"/><polygon fill="#000" stroke="#000" points="1039.238 -433.855 1042.738 -443.855 1046.238 -433.855 1039.238 -433.855"/></g><g id="node21" class="node"><title>CoursesService</title><polygon fill="#fb8072" stroke="#000" points="1947.079 -404 1840.921 -404 1840.921 -368 1947.079 -368 1947.079 -404"/><text x="1894" y="-381.8" fill="#000" font-family="Times,serif" font-size="14" text-anchor="middle">CoursesService</text></g><g id="edge21" class="edge"><title>CoursesModule-&gt;CoursesService</title><path fill="none" stroke="#000" stroke-dasharray="5 2" d="M1484.3677,-339.0449C1484.3677,-346.749 1484.3677,-354 1484.3677,-354 1484.3677,-354 1882.8349,-354 1882.8349,-354 1882.8349,-354 1882.8349,-357.7566 1882.8349,-357.7566"/><polygon fill="#000" stroke="#000" points="1879.335 -357.757 1882.835 -367.757 1886.335 -357.757 1879.335 -357.757"/></g><g id="node4" class="node"><title>MailModule</title><polygon fill="#8dd3c7" stroke="#000" points="1524.99 -122 1521.99 -126 1500.99 -126 1497.99 -122 1439.01 -122 1439.01 -86 1524.99 -86 1524.99 -122"/><text x="1482" y="-99.8" fill="#000" font-family="Times,serif" font-size="14" text-anchor="middle">MailModule</text></g><g id="edge4" class="edge"><title>MailModule-&gt;AppModule</title><path fill="none" stroke="#000" d="M1496.019,-122.1944C1496.019,-130.2782 1496.019,-138 1496.019,-138 1496.019,-138 1033.455,-138 1033.455,-138 1033.455,-138 1033.455,-433.652 1033.455,-433.652"/><polygon fill="#000" stroke="#000" points="1029.955 -433.652 1033.455 -443.652 1036.955 -433.652 1029.955 -433.652"/></g><g id="node23" class="node"><title>MailService</title><polygon fill="#fb8072" stroke="#000" points="1924.918 -198 1837.082 -198 1837.082 -162 1924.918 -162 1924.918 -198"/><text x="1881" y="-175.8" fill="#000" font-family="Times,serif" font-size="14" text-anchor="middle">MailService</text></g><g id="edge23" class="edge"><title>MailModule-&gt;MailService</title><path fill="none" stroke="#000" stroke-dasharray="5 2" d="M1507.4219,-122.0555C1507.4219,-133.439 1507.4219,-146 1507.4219,-146 1507.4219,-146 1881,-146 1881,-146 1881,-146 1881,-151.8056 1881,-151.8056"/><polygon fill="#000" stroke="#000" points="1877.5 -151.805 1881 -161.806 1884.5 -151.806 1877.5 -151.805"/></g><g id="node5" class="node"><title>MentorModule</title><polygon fill="#8dd3c7" stroke="#000" points="1391.261 -198 1388.261 -202 1367.261 -202 1364.261 -198 1290.739 -198 1290.739 -162 1391.261 -162 1391.261 -198"/><text x="1341" y="-175.8" fill="#000" font-family="Times,serif" font-size="14" text-anchor="middle">MentorModule</text></g><g id="node6" class="node"><title>ProfileModule</title><polygon fill="#8dd3c7" stroke="#000" points="1518.65 -274 1515.65 -278 1494.65 -278 1491.65 -274 1421.35 -274 1421.35 -238 1518.65 -238 1518.65 -274"/><text x="1470" y="-251.8" fill="#000" font-family="Times,serif" font-size="14" text-anchor="middle">ProfileModule</text></g><g id="edge28" class="edge"><title>MentorModule-&gt;ProfileModule</title><path fill="none" stroke="#000" d="M1391.273,-191C1411.4812,-191 1430.0901,-191 1430.0901,-191 1430.0901,-191 1430.0901,-227.8939 1430.0901,-227.8939"/><polygon fill="#000" stroke="#000" points="1426.59 -227.894 1430.09 -237.894 1433.59 -227.894 1426.59 -227.894"/></g><g id="node10" class="node"><title>TracksModule</title><polygon fill="#8dd3c7" stroke="#000" points="1634.638 -274 1631.638 -278 1610.638 -278 1607.638 -274 1537.362 -274 1537.362 -238 1634.638 -238 1634.638 -274"/><text x="1586" y="-251.8" fill="#000" font-family="Times,serif" font-size="14" text-anchor="middle">TracksModule</text></g><g id="edge42" class="edge"><title>MentorModule-&gt;TracksModule</title><path fill="none" stroke="#000" d="M1391.4962,-184C1466.3828,-184 1598.1421,-184 1598.1421,-184 1598.1421,-184 1598.1421,-227.8314 1598.1421,-227.8314"/><polygon fill="#000" stroke="#000" points="1594.642 -227.831 1598.142 -237.831 1601.642 -227.831 1594.642 -227.831"/></g><g id="edge5" class="edge"><title>MentorModule-&gt;AppModule</title><path fill="none" stroke="#000" d="M1366.1901,-198.269C1366.1901,-259.2548 1366.1901,-452 1366.1901,-452 1366.1901,-452 1117.7401,-452 1117.7401,-452"/><polygon fill="#000" stroke="#000" points="1117.74 -448.5 1107.74 -452 1117.74 -455.5 1117.74 -448.5"/></g><g id="node24" class="node"><title>MentorService</title><polygon fill="#fb8072" stroke="#000" points="895.188 -274 792.812 -274 792.812 -238 895.188 -238 895.188 -274"/><text x="844" y="-251.8" fill="#000" font-family="Times,serif" font-size="14" text-anchor="middle">MentorService</text></g><g id="edge26" class="edge"><title>MentorModule-&gt;MentorService</title><path fill="none" stroke="#000" stroke-dasharray="5 2" d="M1341,-198.0267C1341,-218.7672 1341,-250 1341,-250 1341,-250 905.3158,-250 905.3158,-250"/><polygon fill="#000" stroke="#000" points="905.316 -246.5 895.316 -250 905.316 -253.5 905.316 -246.5"/></g><g id="edge6" class="edge"><title>ProfileModule-&gt;AppModule</title><path fill="none" stroke="#000" d="M1421.2948,-262C1308.341,-262 1038.0966,-262 1038.0966,-262 1038.0966,-262 1038.0966,-433.8986 1038.0966,-433.8986"/><polygon fill="#000" stroke="#000" points="1034.597 -433.899 1038.097 -443.899 1041.597 -433.899 1034.597 -433.899"/></g><g id="node26" class="node"><title>ProfileService</title><polygon fill="#fb8072" stroke="#000" points="2496.578 -198 2397.422 -198 2397.422 -162 2496.578 -162 2496.578 -198"/><text x="2447" y="-175.8" fill="#000" font-family="Times,serif" font-size="14" text-anchor="middle">ProfileService</text></g><g id="edge30" class="edge"><title>ProfileModule-&gt;ProfileService</title><path fill="none" stroke="#000" stroke-dasharray="5 2" d="M1461.8106,-237.8056C1461.8106,-229.7218 1461.8106,-222 1461.8106,-222 1461.8106,-222 2447,-222 2447,-222 2447,-222 2447,-208.0555 2447,-208.0555"/><polygon fill="#000" stroke="#000" points="2450.5 -208.055 2447 -198.055 2443.5 -208.056 2450.5 -208.055"/></g><g id="node7" class="node"><title>SharedModule</title><polygon fill="#8dd3c7" stroke="#000" points="1283.423 -122 1280.423 -126 1259.423 -126 1256.423 -122 1184.577 -122 1184.577 -86 1283.423 -86 1283.423 -122"/><text x="1234" y="-99.8" fill="#000" font-family="Times,serif" font-size="14" text-anchor="middle">SharedModule</text></g><g id="edge7" class="edge"><title>SharedModule-&gt;AppModule</title><path fill="none" stroke="#000" d="M1184.5916,-104C1123.8771,-104 1028.8134,-104 1028.8134,-104 1028.8134,-104 1028.8134,-433.7545 1028.8134,-433.7545"/><polygon fill="#000" stroke="#000" points="1025.313 -433.755 1028.813 -443.755 1032.313 -433.755 1025.313 -433.755"/></g><g id="node8" class="node"><title>StagesModule</title><polygon fill="#8dd3c7" stroke="#000" points="1635.097 -339 1632.097 -343 1611.097 -343 1608.097 -339 1538.903 -339 1538.903 -303 1635.097 -303 1635.097 -339"/><text x="1587" y="-316.8" fill="#000" font-family="Times,serif" font-size="14" text-anchor="middle">StagesModule</text></g><g id="edge37" class="edge"><title>StagesModule-&gt;TasksModule</title><path fill="none" stroke="#000" d="M1570.9839,-339.0109C1570.9839,-361.4852 1570.9839,-397 1570.9839,-397 1570.9839,-397 1525.2177,-397 1525.2177,-397"/><polygon fill="#000" stroke="#000" points="1525.218 -393.5 1515.218 -397 1525.218 -400.5 1525.218 -393.5"/></g><g id="edge8" class="edge"><title>StagesModule-&gt;AppModule</title><path fill="none" stroke="#000" d="M1603.0161,-339.2141C1603.0161,-379.3755 1603.0161,-472 1603.0161,-472 1603.0161,-472 1117.6919,-472 1117.6919,-472"/><polygon fill="#000" stroke="#000" points="1117.692 -468.5 1107.692 -472 1117.692 -475.5 1117.692 -468.5"/></g><g id="node29" class="node"><title>StagesService</title><polygon fill="#fb8072" stroke="#000" points="2239.025 -404 2140.975 -404 2140.975 -368 2239.025 -368 2239.025 -404"/><text x="2190" y="-381.8" fill="#000" font-family="Times,serif" font-size="14" text-anchor="middle">StagesService</text></g><g id="edge34" class="edge"><title>StagesModule-&gt;StagesService</title><path fill="none" stroke="#000" stroke-dasharray="5 2" d="M1635.1859,-315C1776.8306,-315 2181.9818,-315 2181.9818,-315 2181.9818,-315 2181.9818,-357.7157 2181.9818,-357.7157"/><polygon fill="#000" stroke="#000" points="2178.482 -357.716 2181.982 -367.716 2185.482 -357.716 2178.482 -357.716"/></g><g id="edge9" class="edge"><title>TasksModule-&gt;AppModule</title><path fill="none" stroke="#000" d="M1469,-404.2921C1469,-426.2057 1469,-460 1469,-460 1469,-460 1117.9876,-460 1117.9876,-460"/><polygon fill="#000" stroke="#000" points="1117.988 -456.5 1107.988 -460 1117.988 -463.5 1117.988 -456.5"/></g><g id="node31" class="node"><title>TasksService</title><polygon fill="#fb8072" stroke="#000" points="1919.134 -480 1824.866 -480 1824.866 -444 1919.134 -444 1919.134 -480"/><text x="1872" y="-457.8" fill="#000" font-family="Times,serif" font-size="14" text-anchor="middle">TasksService</text></g><g id="edge40" class="edge"><title>TasksModule-&gt;TasksService</title><path fill="none" stroke="#000" stroke-dasharray="5 2" d="M1445.9485,-404.1097C1445.9485,-413.897 1445.9485,-424 1445.9485,-424 1445.9485,-424 1830.987,-424 1830.987,-424 1830.987,-424 1830.987,-433.8903 1830.987,-433.8903"/><polygon fill="#000" stroke="#000" points="1827.487 -433.89 1830.987 -443.89 1834.487 -433.89 1827.487 -433.89"/></g><g id="edge33" class="edge"><title>TracksModule-&gt;StagesModule</title><path fill="none" stroke="#000" d="M1586.885,-274.1061C1586.885,-274.1061 1586.885,-292.991 1586.885,-292.991"/><polygon fill="#000" stroke="#000" points="1583.385 -292.991 1586.885 -302.991 1590.385 -292.991 1583.385 -292.991"/></g><g id="edge38" class="edge"><title>TracksModule-&gt;TasksModule</title><path fill="none" stroke="#000" d="M1537.1313,-256C1534.9766,-256 1533.6997,-256 1533.6997,-256 1533.6997,-256 1533.6997,-390 1533.6997,-390 1533.6997,-390 1525.3325,-390 1525.3325,-390"/><polygon fill="#000" stroke="#000" points="1525.332 -386.5 1515.332 -390 1525.332 -393.5 1525.332 -386.5"/></g><g id="edge10" class="edge"><title>TracksModule-&gt;AppModule</title><path fill="none" stroke="#000" d="M1537.1229,-265C1536.0455,-265 1535.4407,-265 1535.4407,-265 1535.4407,-265 1535.4407,-468 1535.4407,-468 1535.4407,-468 1117.6597,-468 1117.6597,-468"/><polygon fill="#000" stroke="#000" points="1117.66 -464.5 1107.66 -468 1117.66 -471.5 1117.66 -464.5"/></g><g id="node33" class="node"><title>TracksService</title><polygon fill="#fb8072" stroke="#000" points="2970.566 -198 2871.434 -198 2871.434 -162 2970.566 -162 2970.566 -198"/><text x="2921" y="-175.8" fill="#000" font-family="Times,serif" font-size="14" text-anchor="middle">TracksService</text></g><g id="edge44" class="edge"><title>TracksModule-&gt;TracksService</title><path fill="none" stroke="#000" stroke-dasharray="5 2" d="M1634.6986,-265C1874.7946,-265 2921,-265 2921,-265 2921,-265 2921,-208.0263 2921,-208.0263"/><polygon fill="#000" stroke="#000" points="2924.5 -208.026 2921 -198.026 2917.5 -208.026 2924.5 -208.026"/></g><g id="node11" class="node"><title>UsersModule</title><polygon fill="#8dd3c7" stroke="#000" points="1634.922 -122 1631.922 -126 1610.922 -126 1607.922 -122 1543.078 -122 1543.078 -86 1634.922 -86 1634.922 -122"/><text x="1589" y="-99.8" fill="#000" font-family="Times,serif" font-size="14" text-anchor="middle">UsersModule</text></g><g id="edge13" class="edge"><title>UsersModule-&gt;AuthModule</title><path fill="none" stroke="#000" d="M1561.5738,-122.0511C1561.5738,-136.373 1561.5738,-154 1561.5738,-154 1561.5738,-154 1229,-154 1229,-154 1229,-154 1229,-154.7942 1229,-154.7942"/><polygon fill="#000" stroke="#000" points="1225.5 -151.942 1229 -161.942 1232.5 -151.942 1225.5 -151.942"/></g><g id="edge25" class="edge"><title>UsersModule-&gt;MentorModule</title><path fill="none" stroke="#000" d="M1579.8579,-122.0348C1579.8579,-141.5762 1579.8579,-170 1579.8579,-170 1579.8579,-170 1401.3638,-170 1401.3638,-170"/><polygon fill="#000" stroke="#000" points="1401.364 -166.5 1391.364 -170 1401.364 -173.5 1401.364 -166.5"/></g><g id="edge29" class="edge"><title>UsersModule-&gt;ProfileModule</title><path fill="none" stroke="#000" d="M1543.1279,-95C1534.6866,-95 1528.477,-95 1528.477,-95 1528.477,-95 1528.477,-247 1528.477,-247 1528.477,-247 1527.5113,-247 1527.5113,-247"/><polygon fill="#000" stroke="#000" points="1528.821 -243.5 1518.821 -247 1528.821 -250.5 1528.821 -243.5"/></g><g id="edge39" class="edge"><title>UsersModule-&gt;TasksModule</title><path fill="none" stroke="#000" d="M1543.2635,-104C1535.6749,-104 1530.2179,-104 1530.2179,-104 1530.2179,-104 1530.2179,-376 1530.2179,-376 1530.2179,-376 1525.3987,-376 1525.3987,-376"/><polygon fill="#000" stroke="#000" points="1525.399 -372.5 1515.399 -376 1525.399 -379.5 1525.399 -372.5"/></g><g id="edge43" class="edge"><title>UsersModule-&gt;TracksModule</title><path fill="none" stroke="#000" d="M1616.4262,-122.0333C1616.4262,-122.0333 1616.4262,-227.9902 1616.4262,-227.9902"/><polygon fill="#000" stroke="#000" points="1612.926 -227.99 1616.426 -237.99 1619.926 -227.99 1612.926 -227.99"/></g><g id="edge11" class="edge"><title>UsersModule-&gt;AppModule</title><path fill="none" stroke="#000" d="M1543.2283,-113C1536.5971,-113 1531.9588,-113 1531.9588,-113 1531.9588,-113 1531.9588,-464 1531.9588,-464 1531.9588,-464 1117.7608,-464 1117.7608,-464"/><polygon fill="#000" stroke="#000" points="1117.761 -460.5 1107.761 -464 1117.761 -467.5 1117.761 -460.5"/></g><g id="node36" class="node"><title>UsersService</title><polygon fill="#fb8072" stroke="#000" points="2058.849 -198 1965.151 -198 1965.151 -162 2058.849 -162 2058.849 -198"/><text x="2012" y="-175.8" fill="#000" font-family="Times,serif" font-size="14" text-anchor="middle">UsersService</text></g><g id="edge47" class="edge"><title>UsersModule-&gt;UsersService</title><path fill="none" stroke="#000" stroke-dasharray="5 2" d="M1635.0736,-110C1744.706,-110 2012,-110 2012,-110 2012,-110 2012,-151.9733 2012,-151.9733"/><polygon fill="#000" stroke="#000" points="2008.5 -151.973 2012 -161.973 2015.5 -151.973 2008.5 -151.973"/></g><g id="node13" class="node"><title>AppService</title><ellipse cx="1104" cy="-386" fill="#fdb462" stroke="#000" rx="56.741" ry="18"/><text x="1104" y="-381.8" fill="#000" font-family="Times,serif" font-size="14" text-anchor="middle">AppService</text></g><g id="edge12" class="edge"><title>AppService-&gt;AppModule</title><path fill="none" stroke="#000" d="M1077.604,-402.1176C1077.604,-402.1176 1077.604,-433.7719 1077.604,-433.7719"/><polygon fill="#000" stroke="#000" points="1074.104 -433.772 1077.604 -443.772 1081.104 -433.772 1074.104 -433.772"/></g><g id="node15" class="node"><title>AuthService</title><ellipse cx="722" cy="-104" fill="#fdb462" stroke="#000" rx="59.108" ry="18"/><text x="722" y="-99.8" fill="#000" font-family="Times,serif" font-size="14" text-anchor="middle">AuthService</text></g><g id="edge15" class="edge"><title>AuthService-&gt;AuthModule</title><path fill="none" stroke="#000" d="M775.361,-111.9152C775.361,-130.0392 775.361,-173 775.361,-173 775.361,-173 1175.091,-173 1175.091,-173"/><polygon fill="#000" stroke="#000" points="1175.091 -176.5 1185.091 -173 1175.091 -169.5 1175.091 -176.5"/></g><g id="node16" class="node"><title>JwtStrategy</title><ellipse cx="588" cy="-104" fill="#fdb462" stroke="#000" rx="56.756" ry="18"/><text x="588" y="-99.8" fill="#000" font-family="Times,serif" font-size="14" text-anchor="middle">JwtStrategy</text></g><g id="edge16" class="edge"><title>JwtStrategy-&gt;AuthModule</title><path fill="none" stroke="#000" d="M638.6049,-112.202C638.6049,-131.4688 638.6049,-178 638.6049,-178 638.6049,-178 1175.1068,-178 1175.1068,-178"/><polygon fill="#000" stroke="#000" points="1175.107 -181.5 1185.107 -178 1175.107 -174.5 1175.107 -181.5"/></g><g id="node17" class="node"><title>MailService</title><ellipse cx="455" cy="-104" fill="#fdb462" stroke="#000" rx="58.461" ry="18"/><text x="455" y="-99.8" fill="#000" font-family="Times,serif" font-size="14" text-anchor="middle">MailService</text></g><g id="edge17" class="edge"><title>MailService-&gt;AuthModule</title><path fill="none" stroke="#000" d="M474.41,-121.1418C474.41,-144.3764 474.41,-183 474.41,-183 474.41,-183 1175.4445,-183 1175.4445,-183"/><polygon fill="#000" stroke="#000" points="1175.445 -186.5 1185.445 -183 1175.444 -179.5 1175.445 -186.5"/></g><g id="edge24" class="edge"><title>MailService-&gt;MailModule</title><path fill="none" stroke="#000" d="M435.59,-121.1976C435.59,-126.0327 435.59,-130 435.59,-130 435.59,-130 1450.4077,-130 1450.4077,-130 1450.4077,-130 1450.4077,-129.2058 1450.4077,-129.2058"/><polygon fill="#000" stroke="#000" points="1453.908 -132.058 1450.408 -122.058 1446.908 -132.058 1453.908 -132.058"/></g><g id="node18" class="node"><title>SessionSerializer</title><ellipse cx="301" cy="-104" fill="#fdb462" stroke="#000" rx="77.578" ry="18"/><text x="301" y="-99.8" fill="#000" font-family="Times,serif" font-size="14" text-anchor="middle">SessionSerializer</text></g><g id="edge18" class="edge"><title>SessionSerializer-&gt;AuthModule</title><path fill="none" stroke="#000" d="M301,-122.2267C301,-146.9318 301,-188 301,-188 301,-188 1175.1756,-188 1175.1756,-188"/><polygon fill="#000" stroke="#000" points="1175.176 -191.5 1185.176 -188 1175.176 -184.5 1175.176 -191.5"/></g><g id="node19" class="node"><title>TempTokensService</title><ellipse cx="115" cy="-104" fill="#fdb462" stroke="#000" rx="90.892" ry="18"/><text x="115" y="-99.8" fill="#000" font-family="Times,serif" font-size="14" text-anchor="middle">TempTokensService</text></g><g id="edge19" class="edge"><title>TempTokensService-&gt;AuthModule</title><path fill="none" stroke="#000" d="M115,-122.0105C115,-148.0165 115,-193 115,-193 115,-193 1175.3299,-193 1175.3299,-193"/><polygon fill="#000" stroke="#000" points="1175.33 -196.5 1185.33 -193 1175.33 -189.5 1175.33 -196.5"/></g><g id="node22" class="node"><title>CoursesService</title><ellipse cx="1746" cy="-386" fill="#fdb462" stroke="#000" rx="71.204" ry="18"/><text x="1746" y="-381.8" fill="#000" font-family="Times,serif" font-size="14" text-anchor="middle">CoursesService</text></g><g id="edge22" class="edge"><title>CoursesService-&gt;CoursesModule</title><path fill="none" stroke="#000" d="M1675.7188,-383C1611.5849,-383 1526.736,-383 1526.736,-383 1526.736,-383 1526.736,-321 1526.736,-321 1526.736,-321 1526.2032,-321 1526.2032,-321"/><polygon fill="#000" stroke="#000" points="1531.408 -317.5 1521.408 -321 1531.408 -324.5 1531.408 -317.5"/></g><g id="node25" class="node"><title>MentorService</title><ellipse cx="701" cy="-256" fill="#fdb462" stroke="#000" rx="68.336" ry="18"/><text x="701" y="-251.8" fill="#000" font-family="Times,serif" font-size="14" text-anchor="middle">MentorService</text></g><g id="edge27" class="edge"><title>MentorService-&gt;MentorModule</title><path fill="none" stroke="#000" d="M716.0571,-238.2266C716.0571,-233.6563 716.0571,-230 716.0571,-230 716.0571,-230 1315.81,-230 1315.81,-230 1315.81,-230 1315.81,-208.0511 1315.81,-208.0511"/><polygon fill="#000" stroke="#000" points="1319.31 -208.051 1315.81 -198.051 1312.31 -208.051 1319.31 -208.051"/></g><g id="node27" class="node"><title>ProfileService</title><ellipse cx="2307" cy="-180" fill="#fdb462" stroke="#000" rx="66.045" ry="18"/><text x="2307" y="-175.8" fill="#000" font-family="Times,serif" font-size="14" text-anchor="middle">ProfileService</text></g><g id="edge31" class="edge"><title>ProfileService-&gt;ProfileModule</title><path fill="none" stroke="#000" d="M2307,-198.1944C2307,-206.2782 2307,-214 2307,-214 2307,-214 1484.6162,-214 1484.6162,-214 1484.6162,-214 1484.6162,-227.9445 1484.6162,-227.9445"/><polygon fill="#000" stroke="#000" points="1481.116 -227.944 1484.616 -237.945 1488.116 -227.945 1481.116 -227.944"/></g><g id="node28" class="node"><title>UsersService</title><ellipse cx="2161" cy="-180" fill="#fdb462" stroke="#000" rx="61.952" ry="18"/><text x="2161" y="-175.8" fill="#000" font-family="Times,serif" font-size="14" text-anchor="middle">UsersService</text></g><g id="edge32" class="edge"><title>UsersService-&gt;ProfileModule</title><path fill="none" stroke="#000" d="M2108.1127,-189.3866C2108.1127,-196.834 2108.1127,-206 2108.1127,-206 2108.1127,-206 1473.2134,-206 1473.2134,-206 1473.2134,-206 1473.2134,-227.9489 1473.2134,-227.9489"/><polygon fill="#000" stroke="#000" points="1469.714 -227.949 1473.213 -237.949 1476.714 -227.949 1469.714 -227.949"/></g><g id="edge48" class="edge"><title>UsersService-&gt;UsersModule</title><path fill="none" stroke="#000" d="M2161,-161.8015C2161,-137.6437 2161,-98 2161,-98 2161,-98 1644.8423,-98 1644.8423,-98"/><polygon fill="#000" stroke="#000" points="1644.842 -94.5 1634.842 -98 1644.842 -101.5 1644.842 -94.5"/></g><g id="node30" class="node"><title>StagesService</title><ellipse cx="2052" cy="-386" fill="#fdb462" stroke="#000" rx="65.403" ry="18"/><text x="2052" y="-381.8" fill="#000" font-family="Times,serif" font-size="14" text-anchor="middle">StagesService</text></g><g id="edge35" class="edge"><title>StagesService-&gt;StagesModule</title><path fill="none" stroke="#000" d="M2022.7365,-369.878C2022.7365,-352.4092 2022.7365,-327 2022.7365,-327 2022.7365,-327 1645.2963,-327 1645.2963,-327"/><polygon fill="#000" stroke="#000" points="1645.296 -323.5 1635.296 -327 1645.296 -330.5 1645.296 -323.5"/></g><g id="node32" class="node"><title>TasksService</title><ellipse cx="1738" cy="-462" fill="#fdb462" stroke="#000" rx="62.535" ry="18"/><text x="1738" y="-457.8" fill="#000" font-family="Times,serif" font-size="14" text-anchor="middle">TasksService</text></g><g id="edge41" class="edge"><title>TasksService-&gt;TasksModule</title><path fill="none" stroke="#000" d="M1698.4841,-476C1628.9602,-476 1492.0516,-476 1492.0516,-476 1492.0516,-476 1492.0516,-414.2128 1492.0516,-414.2128"/><polygon fill="#000" stroke="#000" points="1495.552 -414.213 1492.052 -404.213 1488.552 -414.213 1495.552 -414.213"/></g><g id="node34" class="node"><title>TracksService</title><ellipse cx="2781" cy="-180" fill="#fdb462" stroke="#000" rx="66.028" ry="18"/><text x="2781" y="-175.8" fill="#000" font-family="Times,serif" font-size="14" text-anchor="middle">TracksService</text></g><g id="edge45" class="edge"><title>TracksService-&gt;TracksModule</title><path fill="none" stroke="#000" d="M2781,-198.0109C2781,-220.4852 2781,-256 2781,-256 2781,-256 1644.6987,-256 1644.6987,-256"/><polygon fill="#000" stroke="#000" points="1644.699 -252.5 1634.699 -256 1644.699 -259.5 1644.699 -252.5"/></g><g id="node35" class="node"><title>UserStageService</title><ellipse cx="2617" cy="-180" fill="#fdb462" stroke="#000" rx="79.849" ry="18"/><text x="2617" y="-175.8" fill="#000" font-family="Times,serif" font-size="14" text-anchor="middle">UserStageService</text></g><g id="edge46" class="edge"><title>UserStageService-&gt;TracksModule</title><path fill="none" stroke="#000" d="M2617,-198.308C2617,-218.1455 2617,-247 2617,-247 2617,-247 1644.6885,-247 1644.6885,-247"/><polygon fill="#000" stroke="#000" points="1644.688 -243.5 1634.688 -247 1644.688 -250.5 1644.688 -243.5"/></g></g></svg>