<?xml version="1.0" encoding="UTF-8" standalone="no"?>
<!DOCTYPE svg PUBLIC "-//W3C//DTD SVG 1.1//EN"
 "http://www.w3.org/Graphics/SVG/1.1/DTD/svg11.dtd">
<!-- Generated by graphviz version 2.40.1 (20161225.0304)
 -->
<!-- Title: dependencies Pages: 1 -->
<svg width="3379pt" height="306pt"
 viewBox="0.00 0.00 3379.00 306.00" xmlns="http://www.w3.org/2000/svg" xmlns:xlink="http://www.w3.org/1999/xlink">
<g id="graph0" class="graph" transform="scale(1 1) rotate(0) translate(4 302)">
<title>dependencies</title>
<polygon fill="#ffffff" stroke="transparent" points="-4,4 -4,-302 3375,-302 3375,4 -4,4"/>
<text text-anchor="start" x="1664.5091" y="-42.4" font-family="sans-serif" font-weight="bold" font-size="14.00" fill="#000000">Legend</text>
<polygon fill="#ffffb3" stroke="transparent" points="1451.5,-10 1451.5,-30 1471.5,-30 1471.5,-10 1451.5,-10"/>
<text text-anchor="start" x="1475.129" y="-15.4" font-family="sans-serif" font-size="14.00" fill="#000000"> &#160;Declarations</text>
<polygon fill="#8dd3c7" stroke="transparent" points="1564.5,-10 1564.5,-30 1584.5,-30 1584.5,-10 1564.5,-10"/>
<text text-anchor="start" x="1588.2251" y="-15.4" font-family="sans-serif" font-size="14.00" fill="#000000"> &#160;Module</text>
<polygon fill="#80b1d3" stroke="transparent" points="1650.5,-10 1650.5,-30 1670.5,-30 1670.5,-10 1650.5,-10"/>
<text text-anchor="start" x="1674.2812" y="-15.4" font-family="sans-serif" font-size="14.00" fill="#000000"> &#160;Bootstrap</text>
<polygon fill="#fdb462" stroke="transparent" points="1747.5,-10 1747.5,-30 1767.5,-30 1767.5,-10 1747.5,-10"/>
<text text-anchor="start" x="1771.1732" y="-15.4" font-family="sans-serif" font-size="14.00" fill="#000000"> &#160;Providers</text>
<polygon fill="#fb8072" stroke="transparent" points="1843.5,-10 1843.5,-30 1863.5,-30 1863.5,-10 1843.5,-10"/>
<text text-anchor="start" x="1867.2258" y="-15.4" font-family="sans-serif" font-size="14.00" fill="#000000"> &#160;Exports</text>
<g id="clust1" class="cluster">
<title>cluster_AppModule</title>
<polygon fill="none" stroke="#000000" stroke-dasharray="1,5" points="919,-70 919,-282 1891,-282 1891,-70 919,-70"/>
</g>
<g id="clust3" class="cluster">
<title>cluster_AppModule_imports</title>
<polygon fill="none" stroke="#000000" points="1065,-78 1065,-206 1883,-206 1883,-78 1065,-78"/>
</g>
<g id="clust6" class="cluster">
<title>cluster_AppModule_providers</title>
<polygon fill="none" stroke="#000000" points="927,-154 927,-206 1057,-206 1057,-154 927,-154"/>
</g>
<g id="clust7" class="cluster">
<title>cluster_AuthModule</title>
<polygon fill="none" stroke="#000000" stroke-dasharray="1,5" points="8,-70 8,-138 911,-138 911,-70 8,-70"/>
</g>
<g id="clust10" class="cluster">
<title>cluster_AuthModule_exports</title>
<polygon fill="none" stroke="#000000" points="797,-78 797,-130 903,-130 903,-78 797,-78"/>
</g>
<g id="clust12" class="cluster">
<title>cluster_AuthModule_providers</title>
<polygon fill="none" stroke="#000000" points="16,-78 16,-130 789,-130 789,-78 16,-78"/>
</g>
<g id="clust13" class="cluster">
<title>cluster_CategoriesModule</title>
<polygon fill="none" stroke="#000000" stroke-dasharray="1,5" points="1899,-146 1899,-214 2053,-214 2053,-146 1899,-146"/>
</g>
<g id="clust16" class="cluster">
<title>cluster_CategoriesModule_exports</title>
<polygon fill="none" stroke="#000000" points="1907,-154 1907,-206 2045,-206 2045,-154 1907,-154"/>
</g>
<g id="clust19" class="cluster">
<title>cluster_CoursesModule</title>
<polygon fill="none" stroke="#000000" stroke-dasharray="1,5" points="2061,-146 2061,-214 2365,-214 2365,-146 2061,-146"/>
</g>
<g id="clust22" class="cluster">
<title>cluster_CoursesModule_exports</title>
<polygon fill="none" stroke="#000000" points="2235,-154 2235,-206 2357,-206 2357,-154 2235,-154"/>
</g>
<g id="clust24" class="cluster">
<title>cluster_CoursesModule_providers</title>
<polygon fill="none" stroke="#000000" points="2069,-154 2069,-206 2227,-206 2227,-154 2069,-154"/>
</g>
<g id="clust31" class="cluster">
<title>cluster_MailModule</title>
<polygon fill="none" stroke="#000000" stroke-dasharray="1,5" points="2373,-146 2373,-214 2493,-214 2493,-146 2373,-146"/>
</g>
<g id="clust34" class="cluster">
<title>cluster_MailModule_exports</title>
<polygon fill="none" stroke="#000000" points="2381,-154 2381,-206 2485,-206 2485,-154 2381,-154"/>
</g>
<g id="clust37" class="cluster">
<title>cluster_ProfileModule</title>
<polygon fill="none" stroke="#000000" stroke-dasharray="1,5" points="3089,-146 3089,-214 3363,-214 3363,-146 3089,-146"/>
</g>
<g id="clust40" class="cluster">
<title>cluster_ProfileModule_exports</title>
<polygon fill="none" stroke="#000000" points="3245,-154 3245,-206 3355,-206 3355,-154 3245,-154"/>
</g>
<g id="clust42" class="cluster">
<title>cluster_ProfileModule_providers</title>
<polygon fill="none" stroke="#000000" points="3097,-154 3097,-206 3237,-206 3237,-154 3097,-154"/>
</g>
<g id="clust49" class="cluster">
<title>cluster_StagesModule</title>
<polygon fill="none" stroke="#000000" stroke-dasharray="1,5" points="2501,-146 2501,-214 2785,-214 2785,-146 2501,-146"/>
</g>
<g id="clust52" class="cluster">
<title>cluster_StagesModule_exports</title>
<polygon fill="none" stroke="#000000" points="2663,-154 2663,-206 2777,-206 2777,-154 2663,-154"/>
</g>
<g id="clust54" class="cluster">
<title>cluster_StagesModule_providers</title>
<polygon fill="none" stroke="#000000" points="2509,-154 2509,-206 2655,-206 2655,-154 2509,-154"/>
</g>
<g id="clust55" class="cluster">
<title>cluster_TasksModule</title>
<polygon fill="none" stroke="#000000" stroke-dasharray="1,5" points="1899,-222 1899,-290 2175,-290 2175,-222 1899,-222"/>
</g>
<g id="clust58" class="cluster">
<title>cluster_TasksModule_exports</title>
<polygon fill="none" stroke="#000000" points="2057,-230 2057,-282 2167,-282 2167,-230 2057,-230"/>
</g>
<g id="clust60" class="cluster">
<title>cluster_TasksModule_providers</title>
<polygon fill="none" stroke="#000000" points="1907,-230 1907,-282 2049,-282 2049,-230 1907,-230"/>
</g>
<g id="clust61" class="cluster">
<title>cluster_TracksModule</title>
<polygon fill="none" stroke="#000000" stroke-dasharray="1,5" points="2793,-146 2793,-214 3081,-214 3081,-146 2793,-146"/>
</g>
<g id="clust64" class="cluster">
<title>cluster_TracksModule_exports</title>
<polygon fill="none" stroke="#000000" points="2957,-154 2957,-206 3073,-206 3073,-154 2957,-154"/>
</g>
<g id="clust66" class="cluster">
<title>cluster_TracksModule_providers</title>
<polygon fill="none" stroke="#000000" points="2801,-154 2801,-206 2949,-206 2949,-154 2801,-154"/>
</g>
<!-- AuthModule -->
<g id="node1" class="node">
<title>AuthModule</title>
<polygon fill="#8dd3c7" stroke="#000000" points="1160.5482,-198 1157.5482,-202 1136.5482,-202 1133.5482,-198 1073.4518,-198 1073.4518,-162 1160.5482,-162 1160.5482,-198"/>
<text text-anchor="middle" x="1117" y="-175.8" font-family="Times,serif" font-size="14.00" fill="#000000">AuthModule</text>
</g>
<!-- AppModule -->
<g id="node11" class="node">
<title>AppModule</title>
<polygon fill="#8dd3c7" stroke="#000000" points="1605.6571,-274 1602.6571,-278 1581.6571,-278 1578.6571,-274 1522.3429,-274 1522.3429,-238 1605.6571,-238 1605.6571,-274"/>
<text text-anchor="middle" x="1564" y="-251.8" font-family="Times,serif" font-size="14.00" fill="#000000">AppModule</text>
</g>
<!-- AuthModule&#45;&gt;AppModule -->
<g id="edge1" class="edge">
<title>AuthModule&#45;&gt;AppModule</title>
<path fill="none" stroke="#000000" d="M1117,-198.2267C1117,-222.9318 1117,-264 1117,-264 1117,-264 1511.9473,-264 1511.9473,-264"/>
<polygon fill="#000000" stroke="#000000" points="1511.9474,-267.5001 1521.9473,-264 1511.9473,-260.5001 1511.9474,-267.5001"/>
</g>
<!-- AuthService  -->
<g id="node13" class="node">
<title>AuthService </title>
<polygon fill="#fb8072" stroke="#000000" points="894.9761,-122 805.0239,-122 805.0239,-86 894.9761,-86 894.9761,-122"/>
<text text-anchor="middle" x="850" y="-99.8" font-family="Times,serif" font-size="14.00" fill="#000000">AuthService </text>
</g>
<!-- AuthModule&#45;&gt;AuthService  -->
<g id="edge13" class="edge">
<title>AuthModule&#45;&gt;AuthService </title>
<path fill="none" stroke="#000000" stroke-dasharray="5,2" d="M1073.3686,-180C1066.1292,-180 1060.9233,-180 1060.9233,-180 1060.9233,-180 1060.9233,-104 1060.9233,-104 1060.9233,-104 904.9896,-104 904.9896,-104"/>
<polygon fill="#000000" stroke="#000000" points="904.9897,-100.5001 894.9896,-104 904.9896,-107.5001 904.9897,-100.5001"/>
</g>
<!-- CategoriesModule -->
<g id="node2" class="node">
<title>CategoriesModule</title>
<polygon fill="#8dd3c7" stroke="#000000" points="1418.9173,-122 1415.9173,-126 1394.9173,-126 1391.9173,-122 1299.0827,-122 1299.0827,-86 1418.9173,-86 1418.9173,-122"/>
<text text-anchor="middle" x="1359" y="-99.8" font-family="Times,serif" font-size="14.00" fill="#000000">CategoriesModule</text>
</g>
<!-- CategoriesModule&#45;&gt;AppModule -->
<g id="edge2" class="edge">
<title>CategoriesModule&#45;&gt;AppModule</title>
<path fill="none" stroke="#000000" d="M1308.2335,-122.0712C1308.2335,-160.941 1308.2335,-249 1308.2335,-249 1308.2335,-249 1512.3375,-249 1512.3375,-249"/>
<polygon fill="#000000" stroke="#000000" points="1512.3375,-252.5001 1522.3375,-249 1512.3374,-245.5001 1512.3375,-252.5001"/>
</g>
<!-- CategoriesService  -->
<g id="node19" class="node">
<title>CategoriesService </title>
<polygon fill="#fb8072" stroke="#000000" points="2036.8449,-198 1915.1551,-198 1915.1551,-162 2036.8449,-162 2036.8449,-198"/>
<text text-anchor="middle" x="1976" y="-175.8" font-family="Times,serif" font-size="14.00" fill="#000000">CategoriesService </text>
</g>
<!-- CategoriesModule&#45;&gt;CategoriesService  -->
<g id="edge19" class="edge">
<title>CategoriesModule&#45;&gt;CategoriesService </title>
<path fill="none" stroke="#000000" stroke-dasharray="5,2" d="M1366,-122.1505C1366,-134.2708 1366,-148 1366,-148 1366,-148 1976,-148 1976,-148 1976,-148 1976,-151.7566 1976,-151.7566"/>
<polygon fill="#000000" stroke="#000000" points="1972.5001,-151.7566 1976,-161.7566 1979.5001,-151.7566 1972.5001,-151.7566"/>
</g>
<!-- CoursesModule -->
<g id="node3" class="node">
<title>CoursesModule</title>
<polygon fill="#8dd3c7" stroke="#000000" points="1541.1514,-122 1538.1514,-126 1517.1514,-126 1514.1514,-122 1436.8486,-122 1436.8486,-86 1541.1514,-86 1541.1514,-122"/>
<text text-anchor="middle" x="1489" y="-99.8" font-family="Times,serif" font-size="14.00" fill="#000000">CoursesModule</text>
</g>
<!-- CoursesModule&#45;&gt;AppModule -->
<g id="edge3" class="edge">
<title>CoursesModule&#45;&gt;AppModule</title>
<path fill="none" stroke="#000000" d="M1538.0809,-122.0333C1538.0809,-122.0333 1538.0809,-227.9902 1538.0809,-227.9902"/>
<polygon fill="#000000" stroke="#000000" points="1534.581,-227.9901 1538.0809,-237.9902 1541.581,-227.9902 1534.581,-227.9901"/>
</g>
<!-- CoursesService  -->
<g id="node20" class="node">
<title>CoursesService </title>
<polygon fill="#fb8072" stroke="#000000" points="2349.0794,-198 2242.9206,-198 2242.9206,-162 2349.0794,-162 2349.0794,-198"/>
<text text-anchor="middle" x="2296" y="-175.8" font-family="Times,serif" font-size="14.00" fill="#000000">CoursesService </text>
</g>
<!-- CoursesModule&#45;&gt;CoursesService  -->
<g id="edge20" class="edge">
<title>CoursesModule&#45;&gt;CoursesService </title>
<path fill="none" stroke="#000000" stroke-dasharray="5,2" d="M1528.3476,-122.1274C1528.3476,-132.7109 1528.3476,-144 1528.3476,-144 1528.3476,-144 2296,-144 2296,-144 2296,-144 2296,-151.5782 2296,-151.5782"/>
<polygon fill="#000000" stroke="#000000" points="2292.5001,-151.5781 2296,-161.5782 2299.5001,-151.5782 2292.5001,-151.5781"/>
</g>
<!-- MailModule -->
<g id="node4" class="node">
<title>MailModule</title>
<polygon fill="#8dd3c7" stroke="#000000" points="1644.9902,-122 1641.9902,-126 1620.9902,-126 1617.9902,-122 1559.0098,-122 1559.0098,-86 1644.9902,-86 1644.9902,-122"/>
<text text-anchor="middle" x="1602" y="-99.8" font-family="Times,serif" font-size="14.00" fill="#000000">MailModule</text>
</g>
<!-- MailModule&#45;&gt;AppModule -->
<g id="edge4" class="edge">
<title>MailModule&#45;&gt;AppModule</title>
<path fill="none" stroke="#000000" d="M1590.2204,-122.0333C1590.2204,-122.0333 1590.2204,-227.9902 1590.2204,-227.9902"/>
<polygon fill="#000000" stroke="#000000" points="1586.7205,-227.9901 1590.2204,-237.9902 1593.7205,-227.9902 1586.7205,-227.9901"/>
</g>
<!-- MailService  -->
<g id="node22" class="node">
<title>MailService </title>
<polygon fill="#fb8072" stroke="#000000" points="2476.918,-198 2389.082,-198 2389.082,-162 2476.918,-162 2476.918,-198"/>
<text text-anchor="middle" x="2433" y="-175.8" font-family="Times,serif" font-size="14.00" fill="#000000">MailService </text>
</g>
<!-- MailModule&#45;&gt;MailService  -->
<g id="edge22" class="edge">
<title>MailModule&#45;&gt;MailService </title>
<path fill="none" stroke="#000000" stroke-dasharray="5,2" d="M1625.4117,-122.0664C1625.4117,-131.4587 1625.4117,-141 1625.4117,-141 1625.4117,-141 2433,-141 2433,-141 2433,-141 2433,-151.8701 2433,-151.8701"/>
<polygon fill="#000000" stroke="#000000" points="2429.5001,-151.8701 2433,-161.8701 2436.5001,-151.8701 2429.5001,-151.8701"/>
</g>
<!-- ProfileModule -->
<g id="node5" class="node">
<title>ProfileModule</title>
<polygon fill="#8dd3c7" stroke="#000000" points="1414.65,-198 1411.65,-202 1390.65,-202 1387.65,-198 1317.35,-198 1317.35,-162 1414.65,-162 1414.65,-198"/>
<text text-anchor="middle" x="1366" y="-175.8" font-family="Times,serif" font-size="14.00" fill="#000000">ProfileModule</text>
</g>
<!-- ProfileModule&#45;&gt;AppModule -->
<g id="edge5" class="edge">
<title>ProfileModule&#45;&gt;AppModule</title>
<path fill="none" stroke="#000000" d="M1366,-198.1686C1366,-217.0898 1366,-244 1366,-244 1366,-244 1512.0093,-244 1512.0093,-244"/>
<polygon fill="#000000" stroke="#000000" points="1512.0093,-247.5001 1522.0093,-244 1512.0093,-240.5001 1512.0093,-247.5001"/>
</g>
<!-- UsersService  -->
<g id="node23" class="node">
<title>UsersService </title>
<polygon fill="#fb8072" stroke="#000000" points="3346.8493,-198 3253.1507,-198 3253.1507,-162 3346.8493,-162 3346.8493,-198"/>
<text text-anchor="middle" x="3300" y="-175.8" font-family="Times,serif" font-size="14.00" fill="#000000">UsersService </text>
</g>
<!-- ProfileModule&#45;&gt;UsersService  -->
<g id="edge25" class="edge">
<title>ProfileModule&#45;&gt;UsersService </title>
<path fill="none" stroke="#000000" stroke-dasharray="5,2" d="M1390.4124,-161.8196C1390.4124,-148.9618 1390.4124,-134 1390.4124,-134 1390.4124,-134 3284.4419,-134 3284.4419,-134 3284.4419,-134 3284.4419,-151.8196 3284.4419,-151.8196"/>
<polygon fill="#000000" stroke="#000000" points="3280.942,-151.8195 3284.4419,-161.8196 3287.942,-151.8196 3280.942,-151.8195"/>
</g>
<!-- SharedModule -->
<g id="node6" class="node">
<title>SharedModule</title>
<polygon fill="#8dd3c7" stroke="#000000" points="1281.4231,-122 1278.4231,-126 1257.4231,-126 1254.4231,-122 1182.5769,-122 1182.5769,-86 1281.4231,-86 1281.4231,-122"/>
<text text-anchor="middle" x="1232" y="-99.8" font-family="Times,serif" font-size="14.00" fill="#000000">SharedModule</text>
</g>
<!-- SharedModule&#45;&gt;AppModule -->
<g id="edge6" class="edge">
<title>SharedModule&#45;&gt;AppModule</title>
<path fill="none" stroke="#000000" d="M1232,-122.0935C1232,-161.9889 1232,-254 1232,-254 1232,-254 1512.2881,-254 1512.2881,-254"/>
<polygon fill="#000000" stroke="#000000" points="1512.2882,-257.5001 1522.2881,-254 1512.2881,-250.5001 1512.2882,-257.5001"/>
</g>
<!-- StagesModule -->
<g id="node7" class="node">
<title>StagesModule</title>
<polygon fill="#8dd3c7" stroke="#000000" points="1759.0968,-122 1756.0968,-126 1735.0968,-126 1732.0968,-122 1662.9032,-122 1662.9032,-86 1759.0968,-86 1759.0968,-122"/>
<text text-anchor="middle" x="1711" y="-99.8" font-family="Times,serif" font-size="14.00" fill="#000000">StagesModule</text>
</g>
<!-- TasksModule -->
<g id="node8" class="node">
<title>TasksModule</title>
<polygon fill="#8dd3c7" stroke="#000000" points="1525.2064,-198 1522.2064,-202 1501.2064,-202 1498.2064,-198 1432.7936,-198 1432.7936,-162 1525.2064,-162 1525.2064,-198"/>
<text text-anchor="middle" x="1479" y="-175.8" font-family="Times,serif" font-size="14.00" fill="#000000">TasksModule</text>
</g>
<!-- StagesModule&#45;&gt;TasksModule -->
<g id="edge29" class="edge">
<title>StagesModule&#45;&gt;TasksModule</title>
<path fill="none" stroke="#000000" d="M1720.6097,-122.0348C1720.6097,-141.5762 1720.6097,-170 1720.6097,-170 1720.6097,-170 1535.2989,-170 1535.2989,-170"/>
<polygon fill="#000000" stroke="#000000" points="1535.2989,-166.5001 1525.2989,-170 1535.2989,-173.5001 1535.2989,-166.5001"/>
</g>
<!-- StagesModule&#45;&gt;AppModule -->
<g id="edge7" class="edge">
<title>StagesModule&#45;&gt;AppModule</title>
<path fill="none" stroke="#000000" d="M1739.829,-122.0333C1739.829,-162.2965 1739.829,-256 1739.829,-256 1739.829,-256 1615.669,-256 1615.669,-256"/>
<polygon fill="#000000" stroke="#000000" points="1615.6691,-252.5001 1605.669,-256 1615.669,-259.5001 1615.6691,-252.5001"/>
</g>
<!-- StagesService  -->
<g id="node25" class="node">
<title>StagesService </title>
<polygon fill="#fb8072" stroke="#000000" points="2769.0246,-198 2670.9754,-198 2670.9754,-162 2769.0246,-162 2769.0246,-198"/>
<text text-anchor="middle" x="2720" y="-175.8" font-family="Times,serif" font-size="14.00" fill="#000000">StagesService </text>
</g>
<!-- StagesModule&#45;&gt;StagesService  -->
<g id="edge27" class="edge">
<title>StagesModule&#45;&gt;StagesService </title>
<path fill="none" stroke="#000000" stroke-dasharray="5,2" d="M1682.171,-122.0579C1682.171,-126.4945 1682.171,-130 1682.171,-130 1682.171,-130 2720,-130 2720,-130 2720,-130 2720,-151.9489 2720,-151.9489"/>
<polygon fill="#000000" stroke="#000000" points="2716.5001,-151.9488 2720,-161.9489 2723.5001,-151.9489 2716.5001,-151.9488"/>
</g>
<!-- TasksModule&#45;&gt;AppModule -->
<g id="edge8" class="edge">
<title>TasksModule&#45;&gt;AppModule</title>
<path fill="none" stroke="#000000" d="M1525.1105,-191C1530.8968,-191 1534.8365,-191 1534.8365,-191 1534.8365,-191 1534.8365,-227.8939 1534.8365,-227.8939"/>
<polygon fill="#000000" stroke="#000000" points="1531.3366,-227.8938 1534.8365,-237.8939 1538.3366,-227.8939 1531.3366,-227.8938"/>
</g>
<!-- TasksService  -->
<g id="node27" class="node">
<title>TasksService </title>
<polygon fill="#fb8072" stroke="#000000" points="2159.1341,-274 2064.8659,-274 2064.8659,-238 2159.1341,-238 2159.1341,-274"/>
<text text-anchor="middle" x="2112" y="-251.8" font-family="Times,serif" font-size="14.00" fill="#000000">TasksService </text>
</g>
<!-- TasksModule&#45;&gt;TasksService  -->
<g id="edge31" class="edge">
<title>TasksModule&#45;&gt;TasksService </title>
<path fill="none" stroke="#000000" stroke-dasharray="5,2" d="M1477.5343,-198.1097C1477.5343,-207.897 1477.5343,-218 1477.5343,-218 1477.5343,-218 2070.9156,-218 2070.9156,-218 2070.9156,-218 2070.9156,-227.8903 2070.9156,-227.8903"/>
<polygon fill="#000000" stroke="#000000" points="2067.4157,-227.8903 2070.9156,-237.8903 2074.4157,-227.8904 2067.4157,-227.8903"/>
</g>
<!-- TracksModule -->
<g id="node9" class="node">
<title>TracksModule</title>
<polygon fill="#8dd3c7" stroke="#000000" points="1874.6375,-122 1871.6375,-126 1850.6375,-126 1847.6375,-122 1777.3625,-122 1777.3625,-86 1874.6375,-86 1874.6375,-122"/>
<text text-anchor="middle" x="1826" y="-99.8" font-family="Times,serif" font-size="14.00" fill="#000000">TracksModule</text>
</g>
<!-- TracksModule&#45;&gt;TasksModule -->
<g id="edge30" class="edge">
<title>TracksModule&#45;&gt;TasksModule</title>
<path fill="none" stroke="#000000" d="M1826,-122.0449C1826,-143.6623 1826,-177 1826,-177 1826,-177 1535.4379,-177 1535.4379,-177"/>
<polygon fill="#000000" stroke="#000000" points="1535.4379,-173.5001 1525.4379,-177 1535.4379,-180.5001 1535.4379,-173.5001"/>
</g>
<!-- TracksModule&#45;&gt;AppModule -->
<g id="edge9" class="edge">
<title>TracksModule&#45;&gt;AppModule</title>
<path fill="none" stroke="#000000" d="M1850.4092,-122.1558C1850.4092,-164.2614 1850.4092,-265 1850.4092,-265 1850.4092,-265 1615.9531,-265 1615.9531,-265"/>
<polygon fill="#000000" stroke="#000000" points="1615.9531,-261.5001 1605.9531,-265 1615.9531,-268.5001 1615.9531,-261.5001"/>
</g>
<!-- TracksService  -->
<g id="node29" class="node">
<title>TracksService </title>
<polygon fill="#fb8072" stroke="#000000" points="3064.5655,-198 2965.4345,-198 2965.4345,-162 3064.5655,-162 3064.5655,-198"/>
<text text-anchor="middle" x="3015" y="-175.8" font-family="Times,serif" font-size="14.00" fill="#000000">TracksService </text>
</g>
<!-- TracksModule&#45;&gt;TracksService  -->
<g id="edge33" class="edge">
<title>TracksModule&#45;&gt;TracksService </title>
<path fill="none" stroke="#000000" stroke-dasharray="5,2" d="M1874.8269,-98C2098.5657,-98 3015,-98 3015,-98 3015,-98 3015,-151.8015 3015,-151.8015"/>
<polygon fill="#000000" stroke="#000000" points="3011.5001,-151.8015 3015,-161.8015 3018.5001,-151.8016 3011.5001,-151.8015"/>
</g>
<!-- UsersModule -->
<g id="node10" class="node">
<title>UsersModule</title>
<polygon fill="#8dd3c7" stroke="#000000" points="1164.9218,-122 1161.9218,-126 1140.9218,-126 1137.9218,-122 1073.0782,-122 1073.0782,-86 1164.9218,-86 1164.9218,-122"/>
<text text-anchor="middle" x="1119" y="-99.8" font-family="Times,serif" font-size="14.00" fill="#000000">UsersModule</text>
</g>
<!-- UsersModule&#45;&gt;AuthModule -->
<g id="edge12" class="edge">
<title>UsersModule&#45;&gt;AuthModule</title>
<path fill="none" stroke="#000000" d="M1131.6122,-122.0109C1131.6122,-122.0109 1131.6122,-151.855 1131.6122,-151.855"/>
<polygon fill="#000000" stroke="#000000" points="1128.1123,-151.8549 1131.6122,-161.855 1135.1123,-151.855 1128.1123,-151.8549"/>
</g>
<!-- UsersModule&#45;&gt;ProfileModule -->
<g id="edge24" class="edge">
<title>UsersModule&#45;&gt;ProfileModule</title>
<path fill="none" stroke="#000000" d="M1164.7943,-98C1171.8049,-98 1176.7627,-98 1176.7627,-98 1176.7627,-98 1176.7627,-180 1176.7627,-180 1176.7627,-180 1307.2667,-180 1307.2667,-180"/>
<polygon fill="#000000" stroke="#000000" points="1307.2667,-183.5001 1317.2667,-180 1307.2667,-176.5001 1307.2667,-183.5001"/>
</g>
<!-- UsersModule&#45;&gt;AppModule -->
<g id="edge10" class="edge">
<title>UsersModule&#45;&gt;AppModule</title>
<path fill="none" stroke="#000000" d="M1164.8017,-110C1168.4346,-110 1170.7366,-110 1170.7366,-110 1170.7366,-110 1170.7366,-259 1170.7366,-259 1170.7366,-259 1512.2862,-259 1512.2862,-259"/>
<polygon fill="#000000" stroke="#000000" points="1512.2863,-262.5001 1522.2862,-259 1512.2862,-255.5001 1512.2863,-262.5001"/>
</g>
<!-- UsersModule&#45;&gt;UsersService  -->
<g id="edge35" class="edge">
<title>UsersModule&#45;&gt;UsersService </title>
<path fill="none" stroke="#000000" stroke-dasharray="5,2" d="M1141.3326,-122.08C1141.3326,-123.8464 1141.3326,-125 1141.3326,-125 1141.3326,-125 3315.5581,-125 3315.5581,-125 3315.5581,-125 3315.5581,-151.9909 3315.5581,-151.9909"/>
<polygon fill="#000000" stroke="#000000" points="3312.0582,-151.9909 3315.5581,-161.9909 3319.0582,-151.991 3312.0582,-151.9909"/>
</g>
<!-- AppService -->
<g id="node12" class="node">
<title>AppService</title>
<ellipse fill="#fdb462" stroke="#000000" cx="992" cy="-180" rx="56.7406" ry="18"/>
<text text-anchor="middle" x="992" y="-175.8" font-family="Times,serif" font-size="14.00" fill="#000000">AppService</text>
</g>
<!-- AppService&#45;&gt;AppModule -->
<g id="edge11" class="edge">
<title>AppService&#45;&gt;AppModule</title>
<path fill="none" stroke="#000000" d="M992,-198.0105C992,-224.0165 992,-269 992,-269 992,-269 1511.9395,-269 1511.9395,-269"/>
<polygon fill="#000000" stroke="#000000" points="1511.9395,-272.5001 1521.9395,-269 1511.9394,-265.5001 1511.9395,-272.5001"/>
</g>
<!-- AuthService -->
<g id="node14" class="node">
<title>AuthService</title>
<ellipse fill="#fdb462" stroke="#000000" cx="83" cy="-104" rx="59.1083" ry="18"/>
<text text-anchor="middle" x="83" y="-99.8" font-family="Times,serif" font-size="14.00" fill="#000000">AuthService</text>
</g>
<!-- AuthService&#45;&gt;AuthModule -->
<g id="edge14" class="edge">
<title>AuthService&#45;&gt;AuthModule</title>
<path fill="none" stroke="#000000" d="M83,-122.027C83,-138.3976 83,-160 83,-160 83,-160 1083.01,-160 1083.01,-160 1083.01,-160 1083.01,-160.1846 1083.01,-160.1846"/>
<polygon fill="#000000" stroke="#000000" points="1079.5106,-151.8455 1083.01,-161.8457 1086.5106,-151.8459 1079.5106,-151.8455"/>
</g>
<!-- JwtStrategy -->
<g id="node15" class="node">
<title>JwtStrategy</title>
<ellipse fill="#fdb462" stroke="#000000" cx="724" cy="-104" rx="56.7561" ry="18"/>
<text text-anchor="middle" x="724" y="-99.8" font-family="Times,serif" font-size="14.00" fill="#000000">JwtStrategy</text>
</g>
<!-- JwtStrategy&#45;&gt;AuthModule -->
<g id="edge15" class="edge">
<title>JwtStrategy&#45;&gt;AuthModule</title>
<path fill="none" stroke="#000000" d="M724,-122.037C724,-135.2913 724,-151 724,-151 724,-151 1121.8918,-151 1121.8918,-151 1121.8918,-151 1121.8918,-152.0799 1121.8918,-152.0799"/>
<polygon fill="#000000" stroke="#000000" points="1118.3919,-151.7985 1121.8918,-161.7985 1125.3919,-151.7986 1118.3919,-151.7985"/>
</g>
<!-- MailService -->
<g id="node16" class="node">
<title>MailService</title>
<ellipse fill="#fdb462" stroke="#000000" cx="591" cy="-104" rx="58.4609" ry="18"/>
<text text-anchor="middle" x="591" y="-99.8" font-family="Times,serif" font-size="14.00" fill="#000000">MailService</text>
</g>
<!-- MailService&#45;&gt;AuthModule -->
<g id="edge16" class="edge">
<title>MailService&#45;&gt;AuthModule</title>
<path fill="none" stroke="#000000" d="M571.59,-121.1378C571.59,-135.268 571.59,-153 571.59,-153 571.59,-153 1112.1713,-153 1112.1713,-153 1112.1713,-153 1112.1713,-153.8841 1112.1713,-153.8841"/>
<polygon fill="#000000" stroke="#000000" points="1108.6715,-151.8408 1112.1713,-161.8408 1115.6715,-151.8409 1108.6715,-151.8408"/>
</g>
<!-- MailService&#45;&gt;MailModule -->
<g id="edge23" class="edge">
<title>MailService&#45;&gt;MailModule</title>
<path fill="none" stroke="#000000" d="M610.41,-121.2545C610.41,-127.0166 610.41,-132 610.41,-132 610.41,-132 1574.6127,-132 1574.6127,-132 1574.6127,-132 1574.6127,-131.0207 1574.6127,-131.0207"/>
<polygon fill="#000000" stroke="#000000" points="1578.1128,-132.2069 1574.6127,-122.207 1571.1128,-132.207 1578.1128,-132.2069"/>
</g>
<!-- SessionSerializer -->
<g id="node17" class="node">
<title>SessionSerializer</title>
<ellipse fill="#fdb462" stroke="#000000" cx="437" cy="-104" rx="77.5781" ry="18"/>
<text text-anchor="middle" x="437" y="-99.8" font-family="Times,serif" font-size="14.00" fill="#000000">SessionSerializer</text>
</g>
<!-- SessionSerializer&#45;&gt;AuthModule -->
<g id="edge17" class="edge">
<title>SessionSerializer&#45;&gt;AuthModule</title>
<path fill="none" stroke="#000000" d="M437,-122.1243C437,-136.7832 437,-155 437,-155 437,-155 1102.4509,-155 1102.4509,-155 1102.4509,-155 1102.4509,-155.6831 1102.4509,-155.6831"/>
<polygon fill="#000000" stroke="#000000" points="1098.9511,-151.8313 1102.4509,-161.8314 1105.9511,-151.8314 1098.9511,-151.8313"/>
</g>
<!-- TempTokensService -->
<g id="node18" class="node">
<title>TempTokensService</title>
<ellipse fill="#fdb462" stroke="#000000" cx="251" cy="-104" rx="90.8916" ry="18"/>
<text text-anchor="middle" x="251" y="-99.8" font-family="Times,serif" font-size="14.00" fill="#000000">TempTokensService</text>
</g>
<!-- TempTokensService&#45;&gt;AuthModule -->
<g id="edge18" class="edge">
<title>TempTokensService&#45;&gt;AuthModule</title>
<path fill="none" stroke="#000000" d="M251,-122.2819C251,-137.9478 251,-158 251,-158 251,-158 1092.7305,-158 1092.7305,-158 1092.7305,-158 1092.7305,-158.3832 1092.7305,-158.3832"/>
<polygon fill="#000000" stroke="#000000" points="1089.2308,-151.832 1092.7305,-161.8321 1096.2308,-151.8322 1089.2308,-151.832"/>
</g>
<!-- CoursesService -->
<g id="node21" class="node">
<title>CoursesService</title>
<ellipse fill="#fdb462" stroke="#000000" cx="2148" cy="-180" rx="71.2036" ry="18"/>
<text text-anchor="middle" x="2148" y="-175.8" font-family="Times,serif" font-size="14.00" fill="#000000">CoursesService</text>
</g>
<!-- CoursesService&#45;&gt;CoursesModule -->
<g id="edge21" class="edge">
<title>CoursesService&#45;&gt;CoursesModule</title>
<path fill="none" stroke="#000000" d="M2148,-161.8056C2148,-153.7218 2148,-146 2148,-146 2148,-146 1531.592,-146 1531.592,-146 1531.592,-146 1531.592,-132.0555 1531.592,-132.0555"/>
<polygon fill="#000000" stroke="#000000" points="1535.0921,-132.0555 1531.592,-122.0555 1528.0921,-132.0556 1535.0921,-132.0555"/>
</g>
<!-- UsersService -->
<g id="node24" class="node">
<title>UsersService</title>
<ellipse fill="#fdb462" stroke="#000000" cx="3167" cy="-180" rx="61.9519" ry="18"/>
<text text-anchor="middle" x="3167" y="-175.8" font-family="Times,serif" font-size="14.00" fill="#000000">UsersService</text>
</g>
<!-- UsersService&#45;&gt;ProfileModule -->
<g id="edge26" class="edge">
<title>UsersService&#45;&gt;ProfileModule</title>
<path fill="none" stroke="#000000" d="M3146.3414,-163.0053C3146.3414,-150.986 3146.3414,-137 3146.3414,-137 3146.3414,-137 1341.5877,-137 1341.5877,-137 1341.5877,-137 1341.5877,-151.5146 1341.5877,-151.5146"/>
<polygon fill="#000000" stroke="#000000" points="1338.0877,-151.5145 1341.5877,-161.5146 1345.0877,-151.5146 1338.0877,-151.5145"/>
</g>
<!-- UsersService&#45;&gt;UsersModule -->
<g id="edge36" class="edge">
<title>UsersService&#45;&gt;UsersModule</title>
<path fill="none" stroke="#000000" d="M3187.6586,-162.9387C3187.6586,-147.4451 3187.6586,-127 3187.6586,-127 3187.6586,-127 1151.0531,-127 1151.0531,-127 1151.0531,-127 1151.0531,-126.5122 1151.0531,-126.5122"/>
<polygon fill="#000000" stroke="#000000" points="1154.5533,-132.1222 1151.0531,-122.1223 1147.5533,-132.1224 1154.5533,-132.1222"/>
</g>
<!-- StagesService -->
<g id="node26" class="node">
<title>StagesService</title>
<ellipse fill="#fdb462" stroke="#000000" cx="2582" cy="-180" rx="65.4033" ry="18"/>
<text text-anchor="middle" x="2582" y="-175.8" font-family="Times,serif" font-size="14.00" fill="#000000">StagesService</text>
</g>
<!-- StagesService&#45;&gt;StagesModule -->
<g id="edge28" class="edge">
<title>StagesService&#45;&gt;StagesModule</title>
<path fill="none" stroke="#000000" d="M2582,-161.8975C2582,-150.9141 2582,-139 2582,-139 2582,-139 1701.3903,-139 1701.3903,-139 1701.3903,-139 1701.3903,-132.32 1701.3903,-132.32"/>
<polygon fill="#000000" stroke="#000000" points="1704.8904,-132.32 1701.3903,-122.32 1697.8904,-132.3201 1704.8904,-132.32"/>
</g>
<!-- TasksService -->
<g id="node28" class="node">
<title>TasksService</title>
<ellipse fill="#fdb462" stroke="#000000" cx="1978" cy="-256" rx="62.5354" ry="18"/>
<text text-anchor="middle" x="1978" y="-251.8" font-family="Times,serif" font-size="14.00" fill="#000000">TasksService</text>
</g>
<!-- TasksService&#45;&gt;TasksModule -->
<g id="edge32" class="edge">
<title>TasksService&#45;&gt;TasksModule</title>
<path fill="none" stroke="#000000" d="M1923.632,-247C1871.7988,-247 1801.5908,-247 1801.5908,-247 1801.5908,-247 1801.5908,-184 1801.5908,-184 1801.5908,-184 1535.2194,-184 1535.2194,-184"/>
<polygon fill="#000000" stroke="#000000" points="1535.2194,-180.5001 1525.2194,-184 1535.2194,-187.5001 1535.2194,-180.5001"/>
</g>
<!-- TracksService -->
<g id="node30" class="node">
<title>TracksService</title>
<ellipse fill="#fdb462" stroke="#000000" cx="2875" cy="-180" rx="66.0281" ry="18"/>
<text text-anchor="middle" x="2875" y="-175.8" font-family="Times,serif" font-size="14.00" fill="#000000">TracksService</text>
</g>
<!-- TracksService&#45;&gt;TracksModule -->
<g id="edge34" class="edge">
<title>TracksService&#45;&gt;TracksModule</title>
<path fill="none" stroke="#000000" d="M2875,-161.9733C2875,-141.2328 2875,-110 2875,-110 2875,-110 1884.8395,-110 1884.8395,-110"/>
<polygon fill="#000000" stroke="#000000" points="1884.8395,-106.5001 1874.8395,-110 1884.8394,-113.5001 1884.8395,-106.5001"/>
</g>
</g>
</svg>
