<?xml version="1.0" encoding="UTF-8" standalone="no"?>
<!DOCTYPE svg PUBLIC "-//W3C//DTD SVG 1.1//EN"
 "http://www.w3.org/Graphics/SVG/1.1/DTD/svg11.dtd">
<!-- Generated by graphviz version 2.40.1 (20161225.0304)
 -->
<!-- Title: dependencies Pages: 1 -->
<svg width="3267pt" height="371pt"
 viewBox="0.00 0.00 3267.00 371.00" xmlns="http://www.w3.org/2000/svg" xmlns:xlink="http://www.w3.org/1999/xlink">
<g id="graph0" class="graph" transform="scale(1 1) rotate(0) translate(4 367)">
<title>dependencies</title>
<polygon fill="#ffffff" stroke="transparent" points="-4,4 -4,-367 3263,-367 3263,4 -4,4"/>
<text text-anchor="start" x="1608.5091" y="-42.4" font-family="sans-serif" font-weight="bold" font-size="14.00" fill="#000000">Legend</text>
<polygon fill="#ffffb3" stroke="transparent" points="1395.5,-10 1395.5,-30 1415.5,-30 1415.5,-10 1395.5,-10"/>
<text text-anchor="start" x="1419.129" y="-15.4" font-family="sans-serif" font-size="14.00" fill="#000000"> &#160;Declarations</text>
<polygon fill="#8dd3c7" stroke="transparent" points="1508.5,-10 1508.5,-30 1528.5,-30 1528.5,-10 1508.5,-10"/>
<text text-anchor="start" x="1532.2251" y="-15.4" font-family="sans-serif" font-size="14.00" fill="#000000"> &#160;Module</text>
<polygon fill="#80b1d3" stroke="transparent" points="1594.5,-10 1594.5,-30 1614.5,-30 1614.5,-10 1594.5,-10"/>
<text text-anchor="start" x="1618.2812" y="-15.4" font-family="sans-serif" font-size="14.00" fill="#000000"> &#160;Bootstrap</text>
<polygon fill="#fdb462" stroke="transparent" points="1691.5,-10 1691.5,-30 1711.5,-30 1711.5,-10 1691.5,-10"/>
<text text-anchor="start" x="1715.1732" y="-15.4" font-family="sans-serif" font-size="14.00" fill="#000000"> &#160;Providers</text>
<polygon fill="#fb8072" stroke="transparent" points="1787.5,-10 1787.5,-30 1807.5,-30 1807.5,-10 1787.5,-10"/>
<text text-anchor="start" x="1811.2258" y="-15.4" font-family="sans-serif" font-size="14.00" fill="#000000"> &#160;Exports</text>
<g id="clust1" class="cluster">
<title>cluster_AppModule</title>
<polygon fill="none" stroke="#000000" stroke-dasharray="1,5" points="582,-70 582,-347 1442,-347 1442,-70 582,-70"/>
</g>
<g id="clust3" class="cluster">
<title>cluster_AppModule_imports</title>
<polygon fill="none" stroke="#000000" points="840,-78 840,-271 1434,-271 1434,-78 840,-78"/>
</g>
<g id="clust6" class="cluster">
<title>cluster_AppModule_providers</title>
<polygon fill="none" stroke="#000000" points="702,-219 702,-271 832,-271 832,-219 702,-219"/>
</g>
<g id="clust7" class="cluster">
<title>cluster_AuthModule</title>
<polygon fill="none" stroke="#000000" stroke-dasharray="1,5" points="2348,-135 2348,-203 3251,-203 3251,-135 2348,-135"/>
</g>
<g id="clust10" class="cluster">
<title>cluster_AuthModule_exports</title>
<polygon fill="none" stroke="#000000" points="3137,-143 3137,-195 3243,-195 3243,-143 3137,-143"/>
</g>
<g id="clust12" class="cluster">
<title>cluster_AuthModule_providers</title>
<polygon fill="none" stroke="#000000" points="2356,-143 2356,-195 3129,-195 3129,-143 2356,-143"/>
</g>
<g id="clust13" class="cluster">
<title>cluster_CategoriesModule</title>
<polygon fill="none" stroke="#000000" stroke-dasharray="1,5" points="1450,-135 1450,-203 1604,-203 1604,-135 1450,-135"/>
</g>
<g id="clust16" class="cluster">
<title>cluster_CategoriesModule_exports</title>
<polygon fill="none" stroke="#000000" points="1458,-143 1458,-195 1596,-195 1596,-143 1458,-143"/>
</g>
<g id="clust19" class="cluster">
<title>cluster_CoursesModule</title>
<polygon fill="none" stroke="#000000" stroke-dasharray="1,5" points="1612,-135 1612,-203 1916,-203 1916,-135 1612,-135"/>
</g>
<g id="clust22" class="cluster">
<title>cluster_CoursesModule_exports</title>
<polygon fill="none" stroke="#000000" points="1786,-143 1786,-195 1908,-195 1908,-143 1786,-143"/>
</g>
<g id="clust24" class="cluster">
<title>cluster_CoursesModule_providers</title>
<polygon fill="none" stroke="#000000" points="1620,-143 1620,-195 1778,-195 1778,-143 1620,-143"/>
</g>
<g id="clust31" class="cluster">
<title>cluster_MailModule</title>
<polygon fill="none" stroke="#000000" stroke-dasharray="1,5" points="1924,-135 1924,-203 2044,-203 2044,-135 1924,-135"/>
</g>
<g id="clust34" class="cluster">
<title>cluster_MailModule_exports</title>
<polygon fill="none" stroke="#000000" points="1932,-143 1932,-195 2036,-195 2036,-143 1932,-143"/>
</g>
<g id="clust37" class="cluster">
<title>cluster_ProfileModule</title>
<polygon fill="none" stroke="#000000" stroke-dasharray="1,5" points="300,-211 300,-279 574,-279 574,-211 300,-211"/>
</g>
<g id="clust40" class="cluster">
<title>cluster_ProfileModule_exports</title>
<polygon fill="none" stroke="#000000" points="456,-219 456,-271 566,-271 566,-219 456,-219"/>
</g>
<g id="clust42" class="cluster">
<title>cluster_ProfileModule_providers</title>
<polygon fill="none" stroke="#000000" points="308,-219 308,-271 448,-271 448,-219 308,-219"/>
</g>
<g id="clust49" class="cluster">
<title>cluster_StagesModule</title>
<polygon fill="none" stroke="#000000" stroke-dasharray="1,5" points="8,-211 8,-279 292,-279 292,-211 8,-211"/>
</g>
<g id="clust52" class="cluster">
<title>cluster_StagesModule_exports</title>
<polygon fill="none" stroke="#000000" points="170,-219 170,-271 284,-271 284,-219 170,-219"/>
</g>
<g id="clust54" class="cluster">
<title>cluster_StagesModule_providers</title>
<polygon fill="none" stroke="#000000" points="16,-219 16,-271 162,-271 162,-219 16,-219"/>
</g>
<g id="clust55" class="cluster">
<title>cluster_TasksModule</title>
<polygon fill="none" stroke="#000000" stroke-dasharray="1,5" points="1450,-287 1450,-355 1726,-355 1726,-287 1450,-287"/>
</g>
<g id="clust58" class="cluster">
<title>cluster_TasksModule_exports</title>
<polygon fill="none" stroke="#000000" points="1608,-295 1608,-347 1718,-347 1718,-295 1608,-295"/>
</g>
<g id="clust60" class="cluster">
<title>cluster_TasksModule_providers</title>
<polygon fill="none" stroke="#000000" points="1458,-295 1458,-347 1600,-347 1600,-295 1458,-295"/>
</g>
<g id="clust61" class="cluster">
<title>cluster_TracksModule</title>
<polygon fill="none" stroke="#000000" stroke-dasharray="1,5" points="2052,-135 2052,-203 2340,-203 2340,-135 2052,-135"/>
</g>
<g id="clust64" class="cluster">
<title>cluster_TracksModule_exports</title>
<polygon fill="none" stroke="#000000" points="2216,-143 2216,-195 2332,-195 2332,-143 2216,-143"/>
</g>
<g id="clust66" class="cluster">
<title>cluster_TracksModule_providers</title>
<polygon fill="none" stroke="#000000" points="2060,-143 2060,-195 2208,-195 2208,-143 2060,-143"/>
</g>
<!-- AuthModule -->
<g id="node1" class="node">
<title>AuthModule</title>
<polygon fill="#8dd3c7" stroke="#000000" points="1425.5482,-263 1422.5482,-267 1401.5482,-267 1398.5482,-263 1338.4518,-263 1338.4518,-227 1425.5482,-227 1425.5482,-263"/>
<text text-anchor="middle" x="1382" y="-240.8" font-family="Times,serif" font-size="14.00" fill="#000000">AuthModule</text>
</g>
<!-- AppModule -->
<g id="node11" class="node">
<title>AppModule</title>
<polygon fill="#8dd3c7" stroke="#000000" points="732.6571,-339 729.6571,-343 708.6571,-343 705.6571,-339 649.3429,-339 649.3429,-303 732.6571,-303 732.6571,-339"/>
<text text-anchor="middle" x="691" y="-316.8" font-family="Times,serif" font-size="14.00" fill="#000000">AppModule</text>
</g>
<!-- AuthModule&#45;&gt;AppModule -->
<g id="edge1" class="edge">
<title>AuthModule&#45;&gt;AppModule</title>
<path fill="none" stroke="#000000" d="M1382,-263.4152C1382,-290.0057 1382,-336 1382,-336 1382,-336 742.669,-336 742.669,-336"/>
<polygon fill="#000000" stroke="#000000" points="742.669,-332.5001 732.669,-336 742.669,-339.5001 742.669,-332.5001"/>
</g>
<!-- AuthService  -->
<g id="node13" class="node">
<title>AuthService </title>
<polygon fill="#fb8072" stroke="#000000" points="3234.9761,-187 3145.0239,-187 3145.0239,-151 3234.9761,-151 3234.9761,-187"/>
<text text-anchor="middle" x="3190" y="-164.8" font-family="Times,serif" font-size="14.00" fill="#000000">AuthService </text>
</g>
<!-- AuthModule&#45;&gt;AuthService  -->
<g id="edge13" class="edge">
<title>AuthModule&#45;&gt;AuthService </title>
<path fill="none" stroke="#000000" stroke-dasharray="5,2" d="M1425.7965,-258C1701.9075,-258 3190,-258 3190,-258 3190,-258 3190,-197.0105 3190,-197.0105"/>
<polygon fill="#000000" stroke="#000000" points="3193.5001,-197.0104 3190,-187.0105 3186.5001,-197.0105 3193.5001,-197.0104"/>
</g>
<!-- CategoriesModule -->
<g id="node2" class="node">
<title>CategoriesModule</title>
<polygon fill="#8dd3c7" stroke="#000000" points="1083.9173,-122 1080.9173,-126 1059.9173,-126 1056.9173,-122 964.0827,-122 964.0827,-86 1083.9173,-86 1083.9173,-122"/>
<text text-anchor="middle" x="1024" y="-99.8" font-family="Times,serif" font-size="14.00" fill="#000000">CategoriesModule</text>
</g>
<!-- CategoriesModule&#45;&gt;AppModule -->
<g id="edge2" class="edge">
<title>CategoriesModule&#45;&gt;AppModule</title>
<path fill="none" stroke="#000000" d="M1063.7097,-122.0445C1063.7097,-173.9579 1063.7097,-320 1063.7097,-320 1063.7097,-320 742.6697,-320 742.6697,-320"/>
<polygon fill="#000000" stroke="#000000" points="742.6697,-316.5001 732.6697,-320 742.6696,-323.5001 742.6697,-316.5001"/>
</g>
<!-- CategoriesService  -->
<g id="node19" class="node">
<title>CategoriesService </title>
<polygon fill="#fb8072" stroke="#000000" points="1587.8449,-187 1466.1551,-187 1466.1551,-151 1587.8449,-151 1587.8449,-187"/>
<text text-anchor="middle" x="1527" y="-164.8" font-family="Times,serif" font-size="14.00" fill="#000000">CategoriesService </text>
</g>
<!-- CategoriesModule&#45;&gt;CategoriesService  -->
<g id="edge19" class="edge">
<title>CategoriesModule&#45;&gt;CategoriesService </title>
<path fill="none" stroke="#000000" stroke-dasharray="5,2" d="M1073.709,-122.0225C1073.709,-139.3734 1073.709,-163 1073.709,-163 1073.709,-163 1455.8672,-163 1455.8672,-163"/>
<polygon fill="#000000" stroke="#000000" points="1455.8672,-166.5001 1465.8672,-163 1455.8671,-159.5001 1455.8672,-166.5001"/>
</g>
<!-- CoursesModule -->
<g id="node3" class="node">
<title>CoursesModule</title>
<polygon fill="#8dd3c7" stroke="#000000" points="1206.1514,-122 1203.1514,-126 1182.1514,-126 1179.1514,-122 1101.8486,-122 1101.8486,-86 1206.1514,-86 1206.1514,-122"/>
<text text-anchor="middle" x="1154" y="-99.8" font-family="Times,serif" font-size="14.00" fill="#000000">CoursesModule</text>
</g>
<!-- CoursesModule&#45;&gt;AppModule -->
<g id="edge3" class="edge">
<title>CoursesModule&#45;&gt;AppModule</title>
<path fill="none" stroke="#000000" d="M1203.5198,-122.1672C1203.5198,-175.1873 1203.5198,-326 1203.5198,-326 1203.5198,-326 742.9416,-326 742.9416,-326"/>
<polygon fill="#000000" stroke="#000000" points="742.9417,-322.5001 732.9416,-326 742.9416,-329.5001 742.9417,-322.5001"/>
</g>
<!-- CoursesService  -->
<g id="node20" class="node">
<title>CoursesService </title>
<polygon fill="#fb8072" stroke="#000000" points="1900.0794,-187 1793.9206,-187 1793.9206,-151 1900.0794,-151 1900.0794,-187"/>
<text text-anchor="middle" x="1847" y="-164.8" font-family="Times,serif" font-size="14.00" fill="#000000">CoursesService </text>
</g>
<!-- CoursesModule&#45;&gt;CoursesService  -->
<g id="edge20" class="edge">
<title>CoursesModule&#45;&gt;CoursesService </title>
<path fill="none" stroke="#000000" stroke-dasharray="5,2" d="M1197.9087,-122.0449C1197.9087,-129.749 1197.9087,-137 1197.9087,-137 1197.9087,-137 1847,-137 1847,-137 1847,-137 1847,-140.7566 1847,-140.7566"/>
<polygon fill="#000000" stroke="#000000" points="1843.5001,-140.7566 1847,-150.7566 1850.5001,-140.7566 1843.5001,-140.7566"/>
</g>
<!-- MailModule -->
<g id="node4" class="node">
<title>MailModule</title>
<polygon fill="#8dd3c7" stroke="#000000" points="1425.9902,-122 1422.9902,-126 1401.9902,-126 1398.9902,-122 1340.0098,-122 1340.0098,-86 1425.9902,-86 1425.9902,-122"/>
<text text-anchor="middle" x="1383" y="-99.8" font-family="Times,serif" font-size="14.00" fill="#000000">MailModule</text>
</g>
<!-- MailModule&#45;&gt;AppModule -->
<g id="edge4" class="edge">
<title>MailModule&#45;&gt;AppModule</title>
<path fill="none" stroke="#000000" d="M1339.7393,-104C1333.9835,-104 1330.0225,-104 1330.0225,-104 1330.0225,-104 1330.0225,-333 1330.0225,-333 1330.0225,-333 742.928,-333 742.928,-333"/>
<polygon fill="#000000" stroke="#000000" points="742.9281,-329.5001 732.928,-333 742.928,-336.5001 742.9281,-329.5001"/>
</g>
<!-- MailService  -->
<g id="node22" class="node">
<title>MailService </title>
<polygon fill="#fb8072" stroke="#000000" points="2027.918,-187 1940.082,-187 1940.082,-151 2027.918,-151 2027.918,-187"/>
<text text-anchor="middle" x="1984" y="-164.8" font-family="Times,serif" font-size="14.00" fill="#000000">MailService </text>
</g>
<!-- MailModule&#45;&gt;MailService  -->
<g id="edge22" class="edge">
<title>MailModule&#45;&gt;MailService </title>
<path fill="none" stroke="#000000" stroke-dasharray="5,2" d="M1426.2224,-110C1564.0263,-110 1984,-110 1984,-110 1984,-110 1984,-140.9775 1984,-140.9775"/>
<polygon fill="#000000" stroke="#000000" points="1980.5001,-140.9774 1984,-150.9775 1987.5001,-140.9775 1980.5001,-140.9774"/>
</g>
<!-- ProfileModule -->
<g id="node5" class="node">
<title>ProfileModule</title>
<polygon fill="#8dd3c7" stroke="#000000" points="959.65,-263 956.65,-267 935.65,-267 932.65,-263 862.35,-263 862.35,-227 959.65,-227 959.65,-263"/>
<text text-anchor="middle" x="911" y="-240.8" font-family="Times,serif" font-size="14.00" fill="#000000">ProfileModule</text>
</g>
<!-- ProfileModule&#45;&gt;AppModule -->
<g id="edge5" class="edge">
<title>ProfileModule&#45;&gt;AppModule</title>
<path fill="none" stroke="#000000" d="M911,-263.2228C911,-283.3652 911,-313 911,-313 911,-313 742.8982,-313 742.8982,-313"/>
<polygon fill="#000000" stroke="#000000" points="742.8982,-309.5001 732.8982,-313 742.8981,-316.5001 742.8982,-309.5001"/>
</g>
<!-- UsersService  -->
<g id="node23" class="node">
<title>UsersService </title>
<polygon fill="#fb8072" stroke="#000000" points="557.8493,-263 464.1507,-263 464.1507,-227 557.8493,-227 557.8493,-263"/>
<text text-anchor="middle" x="511" y="-240.8" font-family="Times,serif" font-size="14.00" fill="#000000">UsersService </text>
</g>
<!-- ProfileModule&#45;&gt;UsersService  -->
<g id="edge25" class="edge">
<title>ProfileModule&#45;&gt;UsersService </title>
<path fill="none" stroke="#000000" stroke-dasharray="5,2" d="M903.1119,-226.8097C903.1119,-223.4624 903.1119,-221 903.1119,-221 903.1119,-221 526.5581,-221 526.5581,-221 526.5581,-221 526.5581,-221.581 526.5581,-221.581"/>
<polygon fill="#000000" stroke="#000000" points="523.0583,-216.8097 526.5581,-226.8097 530.0583,-216.8098 523.0583,-216.8097"/>
</g>
<!-- SharedModule -->
<g id="node6" class="node">
<title>SharedModule</title>
<polygon fill="#8dd3c7" stroke="#000000" points="946.4231,-122 943.4231,-126 922.4231,-126 919.4231,-122 847.5769,-122 847.5769,-86 946.4231,-86 946.4231,-122"/>
<text text-anchor="middle" x="897" y="-99.8" font-family="Times,serif" font-size="14.00" fill="#000000">SharedModule</text>
</g>
<!-- SharedModule&#45;&gt;AppModule -->
<g id="edge6" class="edge">
<title>SharedModule&#45;&gt;AppModule</title>
<path fill="none" stroke="#000000" d="M847.7085,-104C783.6182,-104 679.7758,-104 679.7758,-104 679.7758,-104 679.7758,-292.8719 679.7758,-292.8719"/>
<polygon fill="#000000" stroke="#000000" points="676.2759,-292.8719 679.7758,-302.8719 683.2759,-292.872 676.2759,-292.8719"/>
</g>
<!-- StagesModule -->
<g id="node7" class="node">
<title>StagesModule</title>
<polygon fill="#8dd3c7" stroke="#000000" points="944.0968,-187 941.0968,-191 920.0968,-191 917.0968,-187 847.9032,-187 847.9032,-151 944.0968,-151 944.0968,-187"/>
<text text-anchor="middle" x="896" y="-164.8" font-family="Times,serif" font-size="14.00" fill="#000000">StagesModule</text>
</g>
<!-- TasksModule -->
<g id="node8" class="node">
<title>TasksModule</title>
<polygon fill="#8dd3c7" stroke="#000000" points="1195.2064,-263 1192.2064,-267 1171.2064,-267 1168.2064,-263 1102.7936,-263 1102.7936,-227 1195.2064,-227 1195.2064,-263"/>
<text text-anchor="middle" x="1149" y="-240.8" font-family="Times,serif" font-size="14.00" fill="#000000">TasksModule</text>
</g>
<!-- StagesModule&#45;&gt;TasksModule -->
<g id="edge30" class="edge">
<title>StagesModule&#45;&gt;TasksModule</title>
<path fill="none" stroke="#000000" d="M923.5801,-187.1097C923.5801,-196.897 923.5801,-207 923.5801,-207 923.5801,-207 1149,-207 1149,-207 1149,-207 1149,-216.8903 1149,-216.8903"/>
<polygon fill="#000000" stroke="#000000" points="1145.5001,-216.8903 1149,-226.8903 1152.5001,-216.8904 1145.5001,-216.8903"/>
</g>
<!-- StagesModule&#45;&gt;AppModule -->
<g id="edge7" class="edge">
<title>StagesModule&#45;&gt;AppModule</title>
<path fill="none" stroke="#000000" d="M855.0635,-187.1446C855.0635,-225.2265 855.0635,-310 855.0635,-310 855.0635,-310 742.8246,-310 742.8246,-310"/>
<polygon fill="#000000" stroke="#000000" points="742.8247,-306.5001 732.8246,-310 742.8246,-313.5001 742.8247,-306.5001"/>
</g>
<!-- StagesService  -->
<g id="node25" class="node">
<title>StagesService </title>
<polygon fill="#fb8072" stroke="#000000" points="276.0246,-263 177.9754,-263 177.9754,-227 276.0246,-227 276.0246,-263"/>
<text text-anchor="middle" x="227" y="-240.8" font-family="Times,serif" font-size="14.00" fill="#000000">StagesService </text>
</g>
<!-- StagesModule&#45;&gt;StagesService  -->
<g id="edge28" class="edge">
<title>StagesModule&#45;&gt;StagesService </title>
<path fill="none" stroke="#000000" stroke-dasharray="5,2" d="M847.8872,-175C694.4915,-175 227,-175 227,-175 227,-175 227,-216.9733 227,-216.9733"/>
<polygon fill="#000000" stroke="#000000" points="223.5001,-216.9732 227,-226.9733 230.5001,-216.9733 223.5001,-216.9732"/>
</g>
<!-- TasksModule&#45;&gt;AppModule -->
<g id="edge8" class="edge">
<title>TasksModule&#45;&gt;AppModule</title>
<path fill="none" stroke="#000000" d="M1149,-263.0908C1149,-286.1328 1149,-323 1149,-323 1149,-323 742.8586,-323 742.8586,-323"/>
<polygon fill="#000000" stroke="#000000" points="742.8586,-319.5001 732.8586,-323 742.8586,-326.5001 742.8586,-319.5001"/>
</g>
<!-- TasksService  -->
<g id="node27" class="node">
<title>TasksService </title>
<polygon fill="#fb8072" stroke="#000000" points="1710.1341,-339 1615.8659,-339 1615.8659,-303 1710.1341,-303 1710.1341,-339"/>
<text text-anchor="middle" x="1663" y="-316.8" font-family="Times,serif" font-size="14.00" fill="#000000">TasksService </text>
</g>
<!-- TasksModule&#45;&gt;TasksService  -->
<g id="edge33" class="edge">
<title>TasksModule&#45;&gt;TasksService </title>
<path fill="none" stroke="#000000" stroke-dasharray="5,2" d="M1125.9484,-263.1097C1125.9484,-272.897 1125.9484,-283 1125.9484,-283 1125.9484,-283 1621.9156,-283 1621.9156,-283 1621.9156,-283 1621.9156,-292.8903 1621.9156,-292.8903"/>
<polygon fill="#000000" stroke="#000000" points="1618.4157,-292.8903 1621.9156,-302.8903 1625.4157,-292.8904 1618.4157,-292.8903"/>
</g>
<!-- TracksModule -->
<g id="node9" class="node">
<title>TracksModule</title>
<polygon fill="#8dd3c7" stroke="#000000" points="1321.6375,-122 1318.6375,-126 1297.6375,-126 1294.6375,-122 1224.3625,-122 1224.3625,-86 1321.6375,-86 1321.6375,-122"/>
<text text-anchor="middle" x="1273" y="-99.8" font-family="Times,serif" font-size="14.00" fill="#000000">TracksModule</text>
</g>
<!-- TracksModule&#45;&gt;StagesModule -->
<g id="edge27" class="edge">
<title>TracksModule&#45;&gt;StagesModule</title>
<path fill="none" stroke="#000000" d="M1240.4544,-122.4854C1240.4544,-134.1399 1240.4544,-147 1240.4544,-147 1240.4544,-147 896,-147 896,-147 896,-147 896,-147.3832 896,-147.3832"/>
<polygon fill="#000000" stroke="#000000" points="892.5003,-140.832 896,-150.8321 899.5003,-140.8322 892.5003,-140.832"/>
</g>
<!-- TracksModule&#45;&gt;TasksModule -->
<g id="edge31" class="edge">
<title>TracksModule&#45;&gt;TasksModule</title>
<path fill="none" stroke="#000000" d="M1289.2728,-122.1446C1289.2728,-160.2265 1289.2728,-245 1289.2728,-245 1289.2728,-245 1205.3193,-245 1205.3193,-245"/>
<polygon fill="#000000" stroke="#000000" points="1205.3194,-241.5001 1195.3193,-245 1205.3193,-248.5001 1205.3194,-241.5001"/>
</g>
<!-- TracksModule&#45;&gt;AppModule -->
<g id="edge9" class="edge">
<title>TracksModule&#45;&gt;AppModule</title>
<path fill="none" stroke="#000000" d="M1305.5456,-122.1125C1305.5456,-175.7414 1305.5456,-330 1305.5456,-330 1305.5456,-330 742.7571,-330 742.7571,-330"/>
<polygon fill="#000000" stroke="#000000" points="742.7571,-326.5001 732.7571,-330 742.757,-333.5001 742.7571,-326.5001"/>
</g>
<!-- TracksService  -->
<g id="node29" class="node">
<title>TracksService </title>
<polygon fill="#fb8072" stroke="#000000" points="2323.5655,-187 2224.4345,-187 2224.4345,-151 2323.5655,-151 2323.5655,-187"/>
<text text-anchor="middle" x="2274" y="-164.8" font-family="Times,serif" font-size="14.00" fill="#000000">TracksService </text>
</g>
<!-- TracksModule&#45;&gt;TracksService  -->
<g id="edge35" class="edge">
<title>TracksModule&#45;&gt;TracksService </title>
<path fill="none" stroke="#000000" stroke-dasharray="5,2" d="M1256.7272,-122.1223C1256.7272,-124.9729 1256.7272,-127 1256.7272,-127 1256.7272,-127 2274,-127 2274,-127 2274,-127 2274,-140.9445 2274,-140.9445"/>
<polygon fill="#000000" stroke="#000000" points="2270.5001,-140.9444 2274,-150.9445 2277.5001,-140.9445 2270.5001,-140.9444"/>
</g>
<!-- UsersModule -->
<g id="node10" class="node">
<title>UsersModule</title>
<polygon fill="#8dd3c7" stroke="#000000" points="1053.9218,-187 1050.9218,-191 1029.9218,-191 1026.9218,-187 962.0782,-187 962.0782,-151 1053.9218,-151 1053.9218,-187"/>
<text text-anchor="middle" x="1008" y="-164.8" font-family="Times,serif" font-size="14.00" fill="#000000">UsersModule</text>
</g>
<!-- UsersModule&#45;&gt;AuthModule -->
<g id="edge12" class="edge">
<title>UsersModule&#45;&gt;AuthModule</title>
<path fill="none" stroke="#000000" d="M1053.9688,-175C1154.075,-175 1382.8892,-175 1382.8892,-175 1382.8892,-175 1382.8892,-216.9733 1382.8892,-216.9733"/>
<polygon fill="#000000" stroke="#000000" points="1379.3893,-216.9732 1382.8892,-226.9733 1386.3893,-216.9733 1379.3893,-216.9732"/>
</g>
<!-- UsersModule&#45;&gt;ProfileModule -->
<g id="edge24" class="edge">
<title>UsersModule&#45;&gt;ProfileModule</title>
<path fill="none" stroke="#000000" d="M962.0971,-169C956.6724,-169 953.0179,-169 953.0179,-169 953.0179,-169 953.0179,-216.9891 953.0179,-216.9891"/>
<polygon fill="#000000" stroke="#000000" points="949.518,-216.989 953.0179,-226.9891 956.518,-216.9891 949.518,-216.989"/>
</g>
<!-- UsersModule&#45;&gt;TasksModule -->
<g id="edge32" class="edge">
<title>UsersModule&#45;&gt;TasksModule</title>
<path fill="none" stroke="#000000" d="M1035.4262,-187.0109C1035.4262,-209.4852 1035.4262,-245 1035.4262,-245 1035.4262,-245 1092.8052,-245 1092.8052,-245"/>
<polygon fill="#000000" stroke="#000000" points="1092.8052,-248.5001 1102.8052,-245 1092.8052,-241.5001 1092.8052,-248.5001"/>
</g>
<!-- UsersModule&#45;&gt;AppModule -->
<g id="edge10" class="edge">
<title>UsersModule&#45;&gt;AppModule</title>
<path fill="none" stroke="#000000" d="M1017.1421,-187.1477C1017.1421,-226.668 1017.1421,-317 1017.1421,-317 1017.1421,-317 742.9697,-317 742.9697,-317"/>
<polygon fill="#000000" stroke="#000000" points="742.9697,-313.5001 732.9697,-317 742.9697,-320.5001 742.9697,-313.5001"/>
</g>
<!-- UsersModule&#45;&gt;UsersService  -->
<g id="edge37" class="edge">
<title>UsersModule&#45;&gt;UsersService </title>
<path fill="none" stroke="#000000" stroke-dasharray="5,2" d="M998.8579,-187.2434C998.8579,-194.4297 998.8579,-201 998.8579,-201 998.8579,-201 495.4419,-201 495.4419,-201 495.4419,-201 495.4419,-216.8495 495.4419,-216.8495"/>
<polygon fill="#000000" stroke="#000000" points="491.942,-216.8494 495.4419,-226.8495 498.942,-216.8495 491.942,-216.8494"/>
</g>
<!-- AppService -->
<g id="node12" class="node">
<title>AppService</title>
<ellipse fill="#fdb462" stroke="#000000" cx="767" cy="-245" rx="56.7406" ry="18"/>
<text text-anchor="middle" x="767" y="-240.8" font-family="Times,serif" font-size="14.00" fill="#000000">AppService</text>
</g>
<!-- AppService&#45;&gt;AppModule -->
<g id="edge11" class="edge">
<title>AppService&#45;&gt;AppModule</title>
<path fill="none" stroke="#000000" d="M721.604,-255.8889C721.604,-255.8889 721.604,-292.7946 721.604,-292.7946"/>
<polygon fill="#000000" stroke="#000000" points="718.1041,-292.7946 721.604,-302.7946 725.1041,-292.7946 718.1041,-292.7946"/>
</g>
<!-- AuthService -->
<g id="node14" class="node">
<title>AuthService</title>
<ellipse fill="#fdb462" stroke="#000000" cx="3062" cy="-169" rx="59.1083" ry="18"/>
<text text-anchor="middle" x="3062" y="-164.8" font-family="Times,serif" font-size="14.00" fill="#000000">AuthService</text>
</g>
<!-- AuthService&#45;&gt;AuthModule -->
<g id="edge14" class="edge">
<title>AuthService&#45;&gt;AuthModule</title>
<path fill="none" stroke="#000000" d="M3062,-187.2267C3062,-211.9318 3062,-253 3062,-253 3062,-253 1435.6435,-253 1435.6435,-253"/>
<polygon fill="#000000" stroke="#000000" points="1435.6436,-249.5001 1425.6435,-253 1435.6435,-256.5001 1435.6436,-249.5001"/>
</g>
<!-- JwtStrategy -->
<g id="node15" class="node">
<title>JwtStrategy</title>
<ellipse fill="#fdb462" stroke="#000000" cx="2928" cy="-169" rx="56.7561" ry="18"/>
<text text-anchor="middle" x="2928" y="-164.8" font-family="Times,serif" font-size="14.00" fill="#000000">JwtStrategy</text>
</g>
<!-- JwtStrategy&#45;&gt;AuthModule -->
<g id="edge15" class="edge">
<title>JwtStrategy&#45;&gt;AuthModule</title>
<path fill="none" stroke="#000000" d="M2928,-187.3228C2928,-210.6602 2928,-248 2928,-248 2928,-248 1435.7784,-248 1435.7784,-248"/>
<polygon fill="#000000" stroke="#000000" points="1435.7785,-244.5001 1425.7784,-248 1435.7784,-251.5001 1435.7785,-244.5001"/>
</g>
<!-- MailService -->
<g id="node16" class="node">
<title>MailService</title>
<ellipse fill="#fdb462" stroke="#000000" cx="2795" cy="-169" rx="58.4609" ry="18"/>
<text text-anchor="middle" x="2795" y="-164.8" font-family="Times,serif" font-size="14.00" fill="#000000">MailService</text>
</g>
<!-- MailService&#45;&gt;AuthModule -->
<g id="edge16" class="edge">
<title>MailService&#45;&gt;AuthModule</title>
<path fill="none" stroke="#000000" d="M2795,-187.2921C2795,-209.2057 2795,-243 2795,-243 2795,-243 1435.8377,-243 1435.8377,-243"/>
<polygon fill="#000000" stroke="#000000" points="1435.8378,-239.5001 1425.8377,-243 1435.8377,-246.5001 1435.8378,-239.5001"/>
</g>
<!-- MailService&#45;&gt;MailModule -->
<g id="edge23" class="edge">
<title>MailService&#45;&gt;MailModule</title>
<path fill="none" stroke="#000000" d="M2795,-150.7157C2795,-129.6789 2795,-98 2795,-98 2795,-98 1436.0293,-98 1436.0293,-98"/>
<polygon fill="#000000" stroke="#000000" points="1436.0294,-94.5001 1426.0293,-98 1436.0293,-101.5001 1436.0294,-94.5001"/>
</g>
<!-- SessionSerializer -->
<g id="node17" class="node">
<title>SessionSerializer</title>
<ellipse fill="#fdb462" stroke="#000000" cx="2641" cy="-169" rx="77.5781" ry="18"/>
<text text-anchor="middle" x="2641" y="-164.8" font-family="Times,serif" font-size="14.00" fill="#000000">SessionSerializer</text>
</g>
<!-- SessionSerializer&#45;&gt;AuthModule -->
<g id="edge17" class="edge">
<title>SessionSerializer&#45;&gt;AuthModule</title>
<path fill="none" stroke="#000000" d="M2641,-187.1289C2641,-207.5724 2641,-238 2641,-238 2641,-238 1435.7032,-238 1435.7032,-238"/>
<polygon fill="#000000" stroke="#000000" points="1435.7033,-234.5001 1425.7032,-238 1435.7032,-241.5001 1435.7033,-234.5001"/>
</g>
<!-- TempTokensService -->
<g id="node18" class="node">
<title>TempTokensService</title>
<ellipse fill="#fdb462" stroke="#000000" cx="2455" cy="-169" rx="90.8916" ry="18"/>
<text text-anchor="middle" x="2455" y="-164.8" font-family="Times,serif" font-size="14.00" fill="#000000">TempTokensService</text>
</g>
<!-- TempTokensService&#45;&gt;AuthModule -->
<g id="edge18" class="edge">
<title>TempTokensService&#45;&gt;AuthModule</title>
<path fill="none" stroke="#000000" d="M2455,-187.1686C2455,-206.0898 2455,-233 2455,-233 2455,-233 1435.727,-233 1435.727,-233"/>
<polygon fill="#000000" stroke="#000000" points="1435.727,-229.5001 1425.727,-233 1435.7269,-236.5001 1435.727,-229.5001"/>
</g>
<!-- CoursesService -->
<g id="node21" class="node">
<title>CoursesService</title>
<ellipse fill="#fdb462" stroke="#000000" cx="1699" cy="-169" rx="71.2036" ry="18"/>
<text text-anchor="middle" x="1699" y="-164.8" font-family="Times,serif" font-size="14.00" fill="#000000">CoursesService</text>
</g>
<!-- CoursesService&#45;&gt;CoursesModule -->
<g id="edge21" class="edge">
<title>CoursesService&#45;&gt;CoursesModule</title>
<path fill="none" stroke="#000000" d="M1699,-150.8408C1699,-145.9567 1699,-142 1699,-142 1699,-142 1200.7143,-142 1200.7143,-142 1200.7143,-142 1200.7143,-132.1097 1200.7143,-132.1097"/>
<polygon fill="#000000" stroke="#000000" points="1204.2143,-132.1096 1200.7143,-122.1097 1197.2143,-132.1097 1204.2143,-132.1096"/>
</g>
<!-- UsersService -->
<g id="node24" class="node">
<title>UsersService</title>
<ellipse fill="#fdb462" stroke="#000000" cx="378" cy="-245" rx="61.9519" ry="18"/>
<text text-anchor="middle" x="378" y="-240.8" font-family="Times,serif" font-size="14.00" fill="#000000">UsersService</text>
</g>
<!-- UsersService&#45;&gt;ProfileModule -->
<g id="edge26" class="edge">
<title>UsersService&#45;&gt;ProfileModule</title>
<path fill="none" stroke="#000000" d="M398.6586,-227.6873C398.6586,-220.5864 398.6586,-214 398.6586,-214 398.6586,-214 882.6436,-214 882.6436,-214 882.6436,-214 882.6436,-216.9672 882.6436,-216.9672"/>
<polygon fill="#000000" stroke="#000000" points="879.1437,-216.9671 882.6436,-226.9672 886.1437,-216.9672 879.1437,-216.9671"/>
</g>
<!-- UsersService&#45;&gt;UsersModule -->
<g id="edge38" class="edge">
<title>UsersService&#45;&gt;UsersModule</title>
<path fill="none" stroke="#000000" d="M357.3414,-228.0177C357.3414,-213.1818 357.3414,-194 357.3414,-194 357.3414,-194 980.5738,-194 980.5738,-194 980.5738,-194 980.5738,-193.3169 980.5738,-193.3169"/>
<polygon fill="#000000" stroke="#000000" points="984.0739,-197.1686 980.5738,-187.1686 977.0739,-197.1687 984.0739,-197.1686"/>
</g>
<!-- StagesService -->
<g id="node26" class="node">
<title>StagesService</title>
<ellipse fill="#fdb462" stroke="#000000" cx="89" cy="-245" rx="65.4033" ry="18"/>
<text text-anchor="middle" x="89" y="-240.8" font-family="Times,serif" font-size="14.00" fill="#000000">StagesService</text>
</g>
<!-- StagesService&#45;&gt;StagesModule -->
<g id="edge29" class="edge">
<title>StagesService&#45;&gt;StagesModule</title>
<path fill="none" stroke="#000000" d="M89,-226.8015C89,-202.6437 89,-163 89,-163 89,-163 837.9352,-163 837.9352,-163"/>
<polygon fill="#000000" stroke="#000000" points="837.9353,-166.5001 847.9352,-163 837.9352,-159.5001 837.9353,-166.5001"/>
</g>
<!-- TasksService -->
<g id="node28" class="node">
<title>TasksService</title>
<ellipse fill="#fdb462" stroke="#000000" cx="1529" cy="-321" rx="62.5354" ry="18"/>
<text text-anchor="middle" x="1529" y="-316.8" font-family="Times,serif" font-size="14.00" fill="#000000">TasksService</text>
</g>
<!-- TasksService&#45;&gt;TasksModule -->
<g id="edge34" class="edge">
<title>TasksService&#45;&gt;TasksModule</title>
<path fill="none" stroke="#000000" d="M1489.4364,-307C1396.5005,-307 1172.0516,-307 1172.0516,-307 1172.0516,-307 1172.0516,-273.2667 1172.0516,-273.2667"/>
<polygon fill="#000000" stroke="#000000" points="1175.5516,-273.2667 1172.0516,-263.2667 1168.5516,-273.2667 1175.5516,-273.2667"/>
</g>
<!-- TracksService -->
<g id="node30" class="node">
<title>TracksService</title>
<ellipse fill="#fdb462" stroke="#000000" cx="2134" cy="-169" rx="66.0281" ry="18"/>
<text text-anchor="middle" x="2134" y="-164.8" font-family="Times,serif" font-size="14.00" fill="#000000">TracksService</text>
</g>
<!-- TracksService&#45;&gt;TracksModule -->
<g id="edge36" class="edge">
<title>TracksService&#45;&gt;TracksModule</title>
<path fill="none" stroke="#000000" d="M2134,-150.9336C2134,-141.5413 2134,-132 2134,-132 2134,-132 1273,-132 1273,-132 1273,-132 1273,-131.0207 1273,-131.0207"/>
<polygon fill="#000000" stroke="#000000" points="1276.5001,-132.2069 1273,-122.207 1269.5001,-132.207 1276.5001,-132.2069"/>
</g>
</g>
</svg>
