<?xml version="1.0" encoding="UTF-8" standalone="no"?>
<!DOCTYPE svg PUBLIC "-//W3C//DTD SVG 1.1//EN"
 "http://www.w3.org/Graphics/SVG/1.1/DTD/svg11.dtd">
<!-- Generated by graphviz version 2.40.1 (20161225.0304)
 -->
<!-- Title: dependencies Pages: 1 -->
<svg width="2903pt" height="458pt"
 viewBox="0.00 0.00 2903.00 458.00" xmlns="http://www.w3.org/2000/svg" xmlns:xlink="http://www.w3.org/1999/xlink">
<g id="graph0" class="graph" transform="scale(1 1) rotate(0) translate(4 454)">
<title>dependencies</title>
<polygon fill="#ffffff" stroke="transparent" points="-4,4 -4,-454 2899,-454 2899,4 -4,4"/>
<text text-anchor="start" x="1426.5091" y="-42.4" font-family="sans-serif" font-weight="bold" font-size="14.00" fill="#000000">Legend</text>
<polygon fill="#ffffb3" stroke="transparent" points="1213.5,-10 1213.5,-30 1233.5,-30 1233.5,-10 1213.5,-10"/>
<text text-anchor="start" x="1237.129" y="-15.4" font-family="sans-serif" font-size="14.00" fill="#000000"> &#160;Declarations</text>
<polygon fill="#8dd3c7" stroke="transparent" points="1326.5,-10 1326.5,-30 1346.5,-30 1346.5,-10 1326.5,-10"/>
<text text-anchor="start" x="1350.2251" y="-15.4" font-family="sans-serif" font-size="14.00" fill="#000000"> &#160;Module</text>
<polygon fill="#80b1d3" stroke="transparent" points="1412.5,-10 1412.5,-30 1432.5,-30 1432.5,-10 1412.5,-10"/>
<text text-anchor="start" x="1436.2812" y="-15.4" font-family="sans-serif" font-size="14.00" fill="#000000"> &#160;Bootstrap</text>
<polygon fill="#fdb462" stroke="transparent" points="1509.5,-10 1509.5,-30 1529.5,-30 1529.5,-10 1509.5,-10"/>
<text text-anchor="start" x="1533.1732" y="-15.4" font-family="sans-serif" font-size="14.00" fill="#000000"> &#160;Providers</text>
<polygon fill="#fb8072" stroke="transparent" points="1605.5,-10 1605.5,-30 1625.5,-30 1625.5,-10 1605.5,-10"/>
<text text-anchor="start" x="1629.2258" y="-15.4" font-family="sans-serif" font-size="14.00" fill="#000000"> &#160;Exports</text>
<g id="clust1" class="cluster">
<title>cluster_AppModule</title>
<polygon fill="none" stroke="#000000" stroke-dasharray="1,5" points="1357,-70 1357,-434 2151,-434 2151,-70 1357,-70"/>
</g>
<g id="clust3" class="cluster">
<title>cluster_AppModule_imports</title>
<polygon fill="none" stroke="#000000" points="1555,-78 1555,-358 2143,-358 2143,-78 1555,-78"/>
</g>
<g id="clust6" class="cluster">
<title>cluster_AppModule_providers</title>
<polygon fill="none" stroke="#000000" points="1417,-306 1417,-358 1547,-358 1547,-306 1417,-306"/>
</g>
<g id="clust7" class="cluster">
<title>cluster_AuthModule</title>
<polygon fill="none" stroke="#000000" stroke-dasharray="1,5" points="8,-70 8,-138 911,-138 911,-70 8,-70"/>
</g>
<g id="clust10" class="cluster">
<title>cluster_AuthModule_exports</title>
<polygon fill="none" stroke="#000000" points="797,-78 797,-130 903,-130 903,-78 797,-78"/>
</g>
<g id="clust12" class="cluster">
<title>cluster_AuthModule_providers</title>
<polygon fill="none" stroke="#000000" points="16,-78 16,-130 789,-130 789,-78 16,-78"/>
</g>
<g id="clust13" class="cluster">
<title>cluster_CategoriesModule</title>
<polygon fill="none" stroke="#000000" stroke-dasharray="1,5" points="2159,-146 2159,-214 2313,-214 2313,-146 2159,-146"/>
</g>
<g id="clust16" class="cluster">
<title>cluster_CategoriesModule_exports</title>
<polygon fill="none" stroke="#000000" points="2167,-154 2167,-206 2305,-206 2305,-154 2167,-154"/>
</g>
<g id="clust19" class="cluster">
<title>cluster_CoursesModule</title>
<polygon fill="none" stroke="#000000" stroke-dasharray="1,5" points="2321,-146 2321,-214 2625,-214 2625,-146 2321,-146"/>
</g>
<g id="clust22" class="cluster">
<title>cluster_CoursesModule_exports</title>
<polygon fill="none" stroke="#000000" points="2495,-154 2495,-206 2617,-206 2617,-154 2495,-154"/>
</g>
<g id="clust24" class="cluster">
<title>cluster_CoursesModule_providers</title>
<polygon fill="none" stroke="#000000" points="2329,-154 2329,-206 2487,-206 2487,-154 2329,-154"/>
</g>
<g id="clust31" class="cluster">
<title>cluster_MailModule</title>
<polygon fill="none" stroke="#000000" stroke-dasharray="1,5" points="2633,-146 2633,-214 2753,-214 2753,-146 2633,-146"/>
</g>
<g id="clust34" class="cluster">
<title>cluster_MailModule_exports</title>
<polygon fill="none" stroke="#000000" points="2641,-154 2641,-206 2745,-206 2745,-154 2641,-154"/>
</g>
<g id="clust37" class="cluster">
<title>cluster_ProfileModule</title>
<polygon fill="none" stroke="#000000" stroke-dasharray="1,5" points="919,-70 919,-138 1349,-138 1349,-70 919,-70"/>
</g>
<g id="clust40" class="cluster">
<title>cluster_ProfileModule_exports</title>
<polygon fill="none" stroke="#000000" points="1225,-78 1225,-130 1341,-130 1341,-78 1225,-78"/>
</g>
<g id="clust42" class="cluster">
<title>cluster_ProfileModule_providers</title>
<polygon fill="none" stroke="#000000" points="927,-78 927,-130 1217,-130 1217,-78 927,-78"/>
</g>
<g id="clust49" class="cluster">
<title>cluster_StagesModule</title>
<polygon fill="none" stroke="#000000" stroke-dasharray="1,5" points="2159,-298 2159,-366 2443,-366 2443,-298 2159,-298"/>
</g>
<g id="clust52" class="cluster">
<title>cluster_StagesModule_exports</title>
<polygon fill="none" stroke="#000000" points="2321,-306 2321,-358 2435,-358 2435,-306 2321,-306"/>
</g>
<g id="clust54" class="cluster">
<title>cluster_StagesModule_providers</title>
<polygon fill="none" stroke="#000000" points="2167,-306 2167,-358 2313,-358 2313,-306 2167,-306"/>
</g>
<g id="clust55" class="cluster">
<title>cluster_TasksModule</title>
<polygon fill="none" stroke="#000000" stroke-dasharray="1,5" points="2159,-374 2159,-442 2435,-442 2435,-374 2159,-374"/>
</g>
<g id="clust58" class="cluster">
<title>cluster_TasksModule_exports</title>
<polygon fill="none" stroke="#000000" points="2317,-382 2317,-434 2427,-434 2427,-382 2317,-382"/>
</g>
<g id="clust60" class="cluster">
<title>cluster_TasksModule_providers</title>
<polygon fill="none" stroke="#000000" points="2167,-382 2167,-434 2309,-434 2309,-382 2167,-382"/>
</g>
<g id="clust61" class="cluster">
<title>cluster_TracksModule</title>
<polygon fill="none" stroke="#000000" stroke-dasharray="1,5" points="2159,-222 2159,-290 2447,-290 2447,-222 2159,-222"/>
</g>
<g id="clust64" class="cluster">
<title>cluster_TracksModule_exports</title>
<polygon fill="none" stroke="#000000" points="2323,-230 2323,-282 2439,-282 2439,-230 2323,-230"/>
</g>
<g id="clust66" class="cluster">
<title>cluster_TracksModule_providers</title>
<polygon fill="none" stroke="#000000" points="2167,-230 2167,-282 2315,-282 2315,-230 2167,-230"/>
</g>
<g id="clust67" class="cluster">
<title>cluster_UsersModule</title>
<polygon fill="none" stroke="#000000" stroke-dasharray="1,5" points="2761,-146 2761,-214 2887,-214 2887,-146 2761,-146"/>
</g>
<g id="clust70" class="cluster">
<title>cluster_UsersModule_exports</title>
<polygon fill="none" stroke="#000000" points="2769,-154 2769,-206 2879,-206 2879,-154 2769,-154"/>
</g>
<!-- AuthModule -->
<g id="node1" class="node">
<title>AuthModule</title>
<polygon fill="#8dd3c7" stroke="#000000" points="1650.5482,-198 1647.5482,-202 1626.5482,-202 1623.5482,-198 1563.4518,-198 1563.4518,-162 1650.5482,-162 1650.5482,-198"/>
<text text-anchor="middle" x="1607" y="-175.8" font-family="Times,serif" font-size="14.00" fill="#000000">AuthModule</text>
</g>
<!-- AppModule -->
<g id="node11" class="node">
<title>AppModule</title>
<polygon fill="#8dd3c7" stroke="#000000" points="1916.6571,-426 1913.6571,-430 1892.6571,-430 1889.6571,-426 1833.3429,-426 1833.3429,-390 1916.6571,-390 1916.6571,-426"/>
<text text-anchor="middle" x="1875" y="-403.8" font-family="Times,serif" font-size="14.00" fill="#000000">AppModule</text>
</g>
<!-- AuthModule&#45;&gt;AppModule -->
<g id="edge1" class="edge">
<title>AuthModule&#45;&gt;AppModule</title>
<path fill="none" stroke="#000000" d="M1607,-198.2803C1607,-254.0109 1607,-418 1607,-418 1607,-418 1823.125,-418 1823.125,-418"/>
<polygon fill="#000000" stroke="#000000" points="1823.125,-421.5001 1833.125,-418 1823.125,-414.5001 1823.125,-421.5001"/>
</g>
<!-- AuthService  -->
<g id="node13" class="node">
<title>AuthService </title>
<polygon fill="#fb8072" stroke="#000000" points="894.9761,-122 805.0239,-122 805.0239,-86 894.9761,-86 894.9761,-122"/>
<text text-anchor="middle" x="850" y="-99.8" font-family="Times,serif" font-size="14.00" fill="#000000">AuthService </text>
</g>
<!-- AuthModule&#45;&gt;AuthService  -->
<g id="edge13" class="edge">
<title>AuthModule&#45;&gt;AuthService </title>
<path fill="none" stroke="#000000" stroke-dasharray="5,2" d="M1563.3054,-168C1402.0973,-168 850,-168 850,-168 850,-168 850,-132.1686 850,-132.1686"/>
<polygon fill="#000000" stroke="#000000" points="853.5001,-132.1686 850,-122.1686 846.5001,-132.1687 853.5001,-132.1686"/>
</g>
<!-- CategoriesModule -->
<g id="node2" class="node">
<title>CategoriesModule</title>
<polygon fill="#8dd3c7" stroke="#000000" points="1908.9173,-122 1905.9173,-126 1884.9173,-126 1881.9173,-122 1789.0827,-122 1789.0827,-86 1908.9173,-86 1908.9173,-122"/>
<text text-anchor="middle" x="1849" y="-99.8" font-family="Times,serif" font-size="14.00" fill="#000000">CategoriesModule</text>
</g>
<!-- CategoriesModule&#45;&gt;AppModule -->
<g id="edge2" class="edge">
<title>CategoriesModule&#45;&gt;AppModule</title>
<path fill="none" stroke="#000000" d="M1801.7367,-122.1926C1801.7367,-186.8928 1801.7367,-402 1801.7367,-402 1801.7367,-402 1823.2321,-402 1823.2321,-402"/>
<polygon fill="#000000" stroke="#000000" points="1823.2321,-405.5001 1833.2321,-402 1823.2321,-398.5001 1823.2321,-405.5001"/>
</g>
<!-- CategoriesService  -->
<g id="node19" class="node">
<title>CategoriesService </title>
<polygon fill="#fb8072" stroke="#000000" points="2296.8449,-198 2175.1551,-198 2175.1551,-162 2296.8449,-162 2296.8449,-198"/>
<text text-anchor="middle" x="2236" y="-175.8" font-family="Times,serif" font-size="14.00" fill="#000000">CategoriesService </text>
</g>
<!-- CategoriesModule&#45;&gt;CategoriesService  -->
<g id="edge19" class="edge">
<title>CategoriesModule&#45;&gt;CategoriesService </title>
<path fill="none" stroke="#000000" stroke-dasharray="5,2" d="M1908.9592,-104C1913.5431,-104 1916.4334,-104 1916.4334,-104 1916.4334,-104 1916.4334,-174 1916.4334,-174 1916.4334,-174 2165.1398,-174 2165.1398,-174"/>
<polygon fill="#000000" stroke="#000000" points="2165.1398,-177.5001 2175.1398,-174 2165.1397,-170.5001 2165.1398,-177.5001"/>
</g>
<!-- CoursesModule -->
<g id="node3" class="node">
<title>CoursesModule</title>
<polygon fill="#8dd3c7" stroke="#000000" points="2031.1514,-122 2028.1514,-126 2007.1514,-126 2004.1514,-122 1926.8486,-122 1926.8486,-86 2031.1514,-86 2031.1514,-122"/>
<text text-anchor="middle" x="1979" y="-99.8" font-family="Times,serif" font-size="14.00" fill="#000000">CoursesModule</text>
</g>
<!-- CoursesModule&#45;&gt;AppModule -->
<g id="edge3" class="edge">
<title>CoursesModule&#45;&gt;AppModule</title>
<path fill="none" stroke="#000000" d="M2005.1627,-122.1062C2005.1627,-187.5518 2005.1627,-408 2005.1627,-408 2005.1627,-408 1926.9008,-408 1926.9008,-408"/>
<polygon fill="#000000" stroke="#000000" points="1926.9008,-404.5001 1916.9008,-408 1926.9007,-411.5001 1926.9008,-404.5001"/>
</g>
<!-- CoursesService  -->
<g id="node20" class="node">
<title>CoursesService </title>
<polygon fill="#fb8072" stroke="#000000" points="2609.0794,-198 2502.9206,-198 2502.9206,-162 2609.0794,-162 2609.0794,-198"/>
<text text-anchor="middle" x="2556" y="-175.8" font-family="Times,serif" font-size="14.00" fill="#000000">CoursesService </text>
</g>
<!-- CoursesModule&#45;&gt;CoursesService  -->
<g id="edge20" class="edge">
<title>CoursesModule&#45;&gt;CoursesService </title>
<path fill="none" stroke="#000000" stroke-dasharray="5,2" d="M1952.8373,-122.207C1952.8373,-127.5549 1952.8373,-132 1952.8373,-132 1952.8373,-132 2556,-132 2556,-132 2556,-132 2556,-151.8533 2556,-151.8533"/>
<polygon fill="#000000" stroke="#000000" points="2552.5001,-151.8532 2556,-161.8533 2559.5001,-151.8533 2552.5001,-151.8532"/>
</g>
<!-- MailModule -->
<g id="node4" class="node">
<title>MailModule</title>
<polygon fill="#8dd3c7" stroke="#000000" points="2134.9902,-122 2131.9902,-126 2110.9902,-126 2107.9902,-122 2049.0098,-122 2049.0098,-86 2134.9902,-86 2134.9902,-122"/>
<text text-anchor="middle" x="2092" y="-99.8" font-family="Times,serif" font-size="14.00" fill="#000000">MailModule</text>
</g>
<!-- MailModule&#45;&gt;AppModule -->
<g id="edge4" class="edge">
<title>MailModule&#45;&gt;AppModule</title>
<path fill="none" stroke="#000000" d="M2092,-122.1811C2092,-188.983 2092,-417 2092,-417 2092,-417 1926.8398,-417 1926.8398,-417"/>
<polygon fill="#000000" stroke="#000000" points="1926.8398,-413.5001 1916.8398,-417 1926.8397,-420.5001 1926.8398,-413.5001"/>
</g>
<!-- MailService  -->
<g id="node22" class="node">
<title>MailService </title>
<polygon fill="#fb8072" stroke="#000000" points="2736.918,-198 2649.082,-198 2649.082,-162 2736.918,-162 2736.918,-198"/>
<text text-anchor="middle" x="2693" y="-175.8" font-family="Times,serif" font-size="14.00" fill="#000000">MailService </text>
</g>
<!-- MailModule&#45;&gt;MailService  -->
<g id="edge22" class="edge">
<title>MailModule&#45;&gt;MailService </title>
<path fill="none" stroke="#000000" stroke-dasharray="5,2" d="M2135.2224,-104C2273.0263,-104 2693,-104 2693,-104 2693,-104 2693,-151.9891 2693,-151.9891"/>
<polygon fill="#000000" stroke="#000000" points="2689.5001,-151.989 2693,-161.9891 2696.5001,-151.9891 2689.5001,-151.989"/>
</g>
<!-- ProfileModule -->
<g id="node5" class="node">
<title>ProfileModule</title>
<polygon fill="#8dd3c7" stroke="#000000" points="1766.65,-198 1763.65,-202 1742.65,-202 1739.65,-198 1669.35,-198 1669.35,-162 1766.65,-162 1766.65,-198"/>
<text text-anchor="middle" x="1718" y="-175.8" font-family="Times,serif" font-size="14.00" fill="#000000">ProfileModule</text>
</g>
<!-- ProfileModule&#45;&gt;AppModule -->
<g id="edge5" class="edge">
<title>ProfileModule&#45;&gt;AppModule</title>
<path fill="none" stroke="#000000" d="M1718,-198.0477C1718,-252.2681 1718,-410 1718,-410 1718,-410 1823.3391,-410 1823.3391,-410"/>
<polygon fill="#000000" stroke="#000000" points="1823.3391,-413.5001 1833.3391,-410 1823.339,-406.5001 1823.3391,-413.5001"/>
</g>
<!-- ProfileService  -->
<g id="node23" class="node">
<title>ProfileService </title>
<polygon fill="#fb8072" stroke="#000000" points="1332.5781,-122 1233.4219,-122 1233.4219,-86 1332.5781,-86 1332.5781,-122"/>
<text text-anchor="middle" x="1283" y="-99.8" font-family="Times,serif" font-size="14.00" fill="#000000">ProfileService </text>
</g>
<!-- ProfileModule&#45;&gt;ProfileService  -->
<g id="edge25" class="edge">
<title>ProfileModule&#45;&gt;ProfileService </title>
<path fill="none" stroke="#000000" stroke-dasharray="5,2" d="M1743.3158,-161.9551C1743.3158,-154.251 1743.3158,-147 1743.3158,-147 1743.3158,-147 1283,-147 1283,-147 1283,-147 1283,-132.4854 1283,-132.4854"/>
<polygon fill="#000000" stroke="#000000" points="1286.5001,-132.4854 1283,-122.4854 1279.5001,-132.4855 1286.5001,-132.4854"/>
</g>
<!-- SharedModule -->
<g id="node6" class="node">
<title>SharedModule</title>
<polygon fill="#8dd3c7" stroke="#000000" points="1771.4231,-122 1768.4231,-126 1747.4231,-126 1744.4231,-122 1672.5769,-122 1672.5769,-86 1771.4231,-86 1771.4231,-122"/>
<text text-anchor="middle" x="1722" y="-99.8" font-family="Times,serif" font-size="14.00" fill="#000000">SharedModule</text>
</g>
<!-- SharedModule&#45;&gt;AppModule -->
<g id="edge6" class="edge">
<title>SharedModule&#45;&gt;AppModule</title>
<path fill="none" stroke="#000000" d="M1771.6562,-104C1776.8347,-104 1780.2514,-104 1780.2514,-104 1780.2514,-104 1780.2514,-406 1780.2514,-406 1780.2514,-406 1823.1661,-406 1823.1661,-406"/>
<polygon fill="#000000" stroke="#000000" points="1823.1661,-409.5001 1833.1661,-406 1823.166,-402.5001 1823.1661,-409.5001"/>
</g>
<!-- StagesModule -->
<g id="node7" class="node">
<title>StagesModule</title>
<polygon fill="#8dd3c7" stroke="#000000" points="1921.0968,-274 1918.0968,-278 1897.0968,-278 1894.0968,-274 1824.9032,-274 1824.9032,-238 1921.0968,-238 1921.0968,-274"/>
<text text-anchor="middle" x="1873" y="-251.8" font-family="Times,serif" font-size="14.00" fill="#000000">StagesModule</text>
</g>
<!-- TasksModule -->
<g id="node8" class="node">
<title>TasksModule</title>
<polygon fill="#8dd3c7" stroke="#000000" points="1921.2064,-350 1918.2064,-354 1897.2064,-354 1894.2064,-350 1828.7936,-350 1828.7936,-314 1921.2064,-314 1921.2064,-350"/>
<text text-anchor="middle" x="1875" y="-327.8" font-family="Times,serif" font-size="14.00" fill="#000000">TasksModule</text>
</g>
<!-- StagesModule&#45;&gt;TasksModule -->
<g id="edge31" class="edge">
<title>StagesModule&#45;&gt;TasksModule</title>
<path fill="none" stroke="#000000" d="M1859.6141,-274.0109C1859.6141,-274.0109 1859.6141,-303.855 1859.6141,-303.855"/>
<polygon fill="#000000" stroke="#000000" points="1856.1142,-303.8549 1859.6141,-313.855 1863.1142,-303.855 1856.1142,-303.8549"/>
</g>
<!-- StagesModule&#45;&gt;AppModule -->
<g id="edge7" class="edge">
<title>StagesModule&#45;&gt;AppModule</title>
<path fill="none" stroke="#000000" d="M1824.7064,-256C1823.1541,-256 1822.2591,-256 1822.2591,-256 1822.2591,-256 1822.2591,-394 1822.2591,-394 1822.2591,-394 1823.3519,-394 1823.3519,-394"/>
<polygon fill="#000000" stroke="#000000" points="1823.1871,-397.5001 1833.187,-394 1823.187,-390.5001 1823.1871,-397.5001"/>
</g>
<!-- StagesService  -->
<g id="node26" class="node">
<title>StagesService </title>
<polygon fill="#fb8072" stroke="#000000" points="2427.0246,-350 2328.9754,-350 2328.9754,-314 2427.0246,-314 2427.0246,-350"/>
<text text-anchor="middle" x="2378" y="-327.8" font-family="Times,serif" font-size="14.00" fill="#000000">StagesService </text>
</g>
<!-- StagesModule&#45;&gt;StagesService  -->
<g id="edge29" class="edge">
<title>StagesModule&#45;&gt;StagesService </title>
<path fill="none" stroke="#000000" stroke-dasharray="5,2" d="M1890.3312,-274.1097C1890.3312,-283.897 1890.3312,-294 1890.3312,-294 1890.3312,-294 2379.115,-294 2379.115,-294 2379.115,-294 2379.115,-303.8903 2379.115,-303.8903"/>
<polygon fill="#000000" stroke="#000000" points="2375.6151,-303.8903 2379.115,-313.8903 2382.6151,-303.8904 2375.6151,-303.8903"/>
</g>
<!-- TasksModule&#45;&gt;AppModule -->
<g id="edge8" class="edge">
<title>TasksModule&#45;&gt;AppModule</title>
<path fill="none" stroke="#000000" d="M1861.0573,-350.0109C1861.0573,-350.0109 1861.0573,-379.855 1861.0573,-379.855"/>
<polygon fill="#000000" stroke="#000000" points="1857.5574,-379.8549 1861.0573,-389.855 1864.5574,-379.855 1857.5574,-379.8549"/>
</g>
<!-- TasksService  -->
<g id="node28" class="node">
<title>TasksService </title>
<polygon fill="#fb8072" stroke="#000000" points="2419.1341,-426 2324.8659,-426 2324.8659,-390 2419.1341,-390 2419.1341,-426"/>
<text text-anchor="middle" x="2372" y="-403.8" font-family="Times,serif" font-size="14.00" fill="#000000">TasksService </text>
</g>
<!-- TasksModule&#45;&gt;TasksService  -->
<g id="edge34" class="edge">
<title>TasksModule&#45;&gt;TasksService </title>
<path fill="none" stroke="#000000" stroke-dasharray="5,2" d="M1888.9427,-350.1097C1888.9427,-359.897 1888.9427,-370 1888.9427,-370 1888.9427,-370 2374.0274,-370 2374.0274,-370 2374.0274,-370 2374.0274,-379.8903 2374.0274,-379.8903"/>
<polygon fill="#000000" stroke="#000000" points="2370.5274,-379.8903 2374.0274,-389.8903 2377.5274,-379.8904 2370.5274,-379.8903"/>
</g>
<!-- TracksModule -->
<g id="node9" class="node">
<title>TracksModule</title>
<polygon fill="#8dd3c7" stroke="#000000" points="1911.6375,-198 1908.6375,-202 1887.6375,-202 1884.6375,-198 1814.3625,-198 1814.3625,-162 1911.6375,-162 1911.6375,-198"/>
<text text-anchor="middle" x="1863" y="-175.8" font-family="Times,serif" font-size="14.00" fill="#000000">TracksModule</text>
</g>
<!-- TracksModule&#45;&gt;StagesModule -->
<g id="edge28" class="edge">
<title>TracksModule&#45;&gt;StagesModule</title>
<path fill="none" stroke="#000000" d="M1853.9072,-198.0109C1853.9072,-198.0109 1853.9072,-227.855 1853.9072,-227.855"/>
<polygon fill="#000000" stroke="#000000" points="1850.4073,-227.8549 1853.9072,-237.855 1857.4073,-227.855 1850.4073,-227.8549"/>
</g>
<!-- TracksModule&#45;&gt;TasksModule -->
<g id="edge32" class="edge">
<title>TracksModule&#45;&gt;TasksModule</title>
<path fill="none" stroke="#000000" d="M1819.5666,-198.1958C1819.5666,-237.3337 1819.5666,-326 1819.5666,-326 1819.5666,-326 1820.482,-326 1820.482,-326"/>
<polygon fill="#000000" stroke="#000000" points="1818.7203,-329.5001 1828.7203,-326 1818.7203,-322.5001 1818.7203,-329.5001"/>
</g>
<!-- TracksModule&#45;&gt;AppModule -->
<g id="edge9" class="edge">
<title>TracksModule&#45;&gt;AppModule</title>
<path fill="none" stroke="#000000" d="M1816.8741,-198.2116C1816.8741,-250.6057 1816.8741,-398 1816.8741,-398 1816.8741,-398 1823.0654,-398 1823.0654,-398"/>
<polygon fill="#000000" stroke="#000000" points="1823.0654,-401.5001 1833.0654,-398 1823.0654,-394.5001 1823.0654,-401.5001"/>
</g>
<!-- TracksService  -->
<g id="node30" class="node">
<title>TracksService </title>
<polygon fill="#fb8072" stroke="#000000" points="2430.5655,-274 2331.4345,-274 2331.4345,-238 2430.5655,-238 2430.5655,-274"/>
<text text-anchor="middle" x="2381" y="-251.8" font-family="Times,serif" font-size="14.00" fill="#000000">TracksService </text>
</g>
<!-- TracksModule&#45;&gt;TracksService  -->
<g id="edge37" class="edge">
<title>TracksModule&#45;&gt;TracksService </title>
<path fill="none" stroke="#000000" stroke-dasharray="5,2" d="M1882.8628,-198.1097C1882.8628,-207.897 1882.8628,-218 1882.8628,-218 1882.8628,-218 2383.8403,-218 2383.8403,-218 2383.8403,-218 2383.8403,-227.8903 2383.8403,-227.8903"/>
<polygon fill="#000000" stroke="#000000" points="2380.3404,-227.8903 2383.8403,-237.8903 2387.3404,-227.8904 2380.3404,-227.8903"/>
</g>
<!-- UsersModule -->
<g id="node10" class="node">
<title>UsersModule</title>
<polygon fill="#8dd3c7" stroke="#000000" points="1654.9218,-122 1651.9218,-126 1630.9218,-126 1627.9218,-122 1563.0782,-122 1563.0782,-86 1654.9218,-86 1654.9218,-122"/>
<text text-anchor="middle" x="1609" y="-99.8" font-family="Times,serif" font-size="14.00" fill="#000000">UsersModule</text>
</g>
<!-- UsersModule&#45;&gt;AuthModule -->
<g id="edge12" class="edge">
<title>UsersModule&#45;&gt;AuthModule</title>
<path fill="none" stroke="#000000" d="M1585.1606,-122.0109C1585.1606,-122.0109 1585.1606,-151.855 1585.1606,-151.855"/>
<polygon fill="#000000" stroke="#000000" points="1581.6607,-151.8549 1585.1606,-161.855 1588.6607,-151.855 1581.6607,-151.8549"/>
</g>
<!-- UsersModule&#45;&gt;ProfileModule -->
<g id="edge24" class="edge">
<title>UsersModule&#45;&gt;ProfileModule</title>
<path fill="none" stroke="#000000" d="M1654.9207,-95C1661.2086,-95 1665.5591,-95 1665.5591,-95 1665.5591,-95 1665.5591,-180 1665.5591,-180 1665.5591,-180 1665.9362,-180 1665.9362,-180"/>
<polygon fill="#000000" stroke="#000000" points="1659.3306,-183.5003 1669.3305,-180 1659.3304,-176.5003 1659.3306,-183.5003"/>
</g>
<!-- UsersModule&#45;&gt;TasksModule -->
<g id="edge33" class="edge">
<title>UsersModule&#45;&gt;TasksModule</title>
<path fill="none" stroke="#000000" d="M1655.0215,-104C1659.2253,-104 1661.9429,-104 1661.9429,-104 1661.9429,-104 1661.9429,-338 1661.9429,-338 1661.9429,-338 1818.7698,-338 1818.7698,-338"/>
<polygon fill="#000000" stroke="#000000" points="1818.7698,-341.5001 1828.7698,-338 1818.7697,-334.5001 1818.7698,-341.5001"/>
</g>
<!-- UsersModule&#45;&gt;TracksModule -->
<g id="edge36" class="edge">
<title>UsersModule&#45;&gt;TracksModule</title>
<path fill="none" stroke="#000000" d="M1607.0316,-122.1097C1607.0316,-131.897 1607.0316,-142 1607.0316,-142 1607.0316,-142 1861.445,-142 1861.445,-142 1861.445,-142 1861.445,-151.8903 1861.445,-151.8903"/>
<polygon fill="#000000" stroke="#000000" points="1857.945,-151.8903 1861.445,-161.8903 1864.945,-151.8904 1857.945,-151.8903"/>
</g>
<!-- UsersModule&#45;&gt;AppModule -->
<g id="edge10" class="edge">
<title>UsersModule&#45;&gt;AppModule</title>
<path fill="none" stroke="#000000" d="M1654.7792,-113C1656.9989,-113 1658.3266,-113 1658.3266,-113 1658.3266,-113 1658.3266,-414 1658.3266,-414 1658.3266,-414 1823.2232,-414 1823.2232,-414"/>
<polygon fill="#000000" stroke="#000000" points="1823.2232,-417.5001 1833.2232,-414 1823.2232,-410.5001 1823.2232,-417.5001"/>
</g>
<!-- UsersService  -->
<g id="node32" class="node">
<title>UsersService </title>
<polygon fill="#fb8072" stroke="#000000" points="2870.8493,-198 2777.1507,-198 2777.1507,-162 2870.8493,-162 2870.8493,-198"/>
<text text-anchor="middle" x="2824" y="-175.8" font-family="Times,serif" font-size="14.00" fill="#000000">UsersService </text>
</g>
<!-- UsersModule&#45;&gt;UsersService  -->
<g id="edge39" class="edge">
<title>UsersModule&#45;&gt;UsersService </title>
<path fill="none" stroke="#000000" stroke-dasharray="5,2" d="M1628.9025,-122.1223C1628.9025,-124.9729 1628.9025,-127 1628.9025,-127 1628.9025,-127 2824,-127 2824,-127 2824,-127 2824,-151.7604 2824,-151.7604"/>
<polygon fill="#000000" stroke="#000000" points="2820.5001,-151.7604 2824,-161.7604 2827.5001,-151.7604 2820.5001,-151.7604"/>
</g>
<!-- AppService -->
<g id="node12" class="node">
<title>AppService</title>
<ellipse fill="#fdb462" stroke="#000000" cx="1482" cy="-332" rx="56.7406" ry="18"/>
<text text-anchor="middle" x="1482" y="-327.8" font-family="Times,serif" font-size="14.00" fill="#000000">AppService</text>
</g>
<!-- AppService&#45;&gt;AppModule -->
<g id="edge11" class="edge">
<title>AppService&#45;&gt;AppModule</title>
<path fill="none" stroke="#000000" d="M1482,-350.2128C1482,-376.5111 1482,-422 1482,-422 1482,-422 1823.3142,-422 1823.3142,-422"/>
<polygon fill="#000000" stroke="#000000" points="1823.3142,-425.5001 1833.3142,-422 1823.3141,-418.5001 1823.3142,-425.5001"/>
</g>
<!-- AuthService -->
<g id="node14" class="node">
<title>AuthService</title>
<ellipse fill="#fdb462" stroke="#000000" cx="215" cy="-104" rx="59.1083" ry="18"/>
<text text-anchor="middle" x="215" y="-99.8" font-family="Times,serif" font-size="14.00" fill="#000000">AuthService</text>
</g>
<!-- AuthService&#45;&gt;AuthModule -->
<g id="edge14" class="edge">
<title>AuthService&#45;&gt;AuthModule</title>
<path fill="none" stroke="#000000" d="M215,-122.2267C215,-146.9318 215,-188 215,-188 215,-188 1553.4283,-188 1553.4283,-188"/>
<polygon fill="#000000" stroke="#000000" points="1553.4283,-191.5001 1563.4283,-188 1553.4282,-184.5001 1553.4283,-191.5001"/>
</g>
<!-- JwtStrategy -->
<g id="node15" class="node">
<title>JwtStrategy</title>
<ellipse fill="#fdb462" stroke="#000000" cx="81" cy="-104" rx="56.7561" ry="18"/>
<text text-anchor="middle" x="81" y="-99.8" font-family="Times,serif" font-size="14.00" fill="#000000">JwtStrategy</text>
</g>
<!-- JwtStrategy&#45;&gt;AuthModule -->
<g id="edge15" class="edge">
<title>JwtStrategy&#45;&gt;AuthModule</title>
<path fill="none" stroke="#000000" d="M81,-122.0105C81,-148.0165 81,-193 81,-193 81,-193 1553.3826,-193 1553.3826,-193"/>
<polygon fill="#000000" stroke="#000000" points="1553.3826,-196.5001 1563.3826,-193 1553.3825,-189.5001 1553.3826,-196.5001"/>
</g>
<!-- MailService -->
<g id="node16" class="node">
<title>MailService</title>
<ellipse fill="#fdb462" stroke="#000000" cx="723" cy="-104" rx="58.4609" ry="18"/>
<text text-anchor="middle" x="723" y="-99.8" font-family="Times,serif" font-size="14.00" fill="#000000">MailService</text>
</g>
<!-- MailService&#45;&gt;AuthModule -->
<g id="edge16" class="edge">
<title>MailService&#45;&gt;AuthModule</title>
<path fill="none" stroke="#000000" d="M723,-122.1289C723,-142.5724 723,-173 723,-173 723,-173 1553.1623,-173 1553.1623,-173"/>
<polygon fill="#000000" stroke="#000000" points="1553.1623,-176.5001 1563.1623,-173 1553.1623,-169.5001 1553.1623,-176.5001"/>
</g>
<!-- MailService&#45;&gt;MailModule -->
<g id="edge23" class="edge">
<title>MailService&#45;&gt;MailModule</title>
<path fill="none" stroke="#000000" d="M723,-85.9445C723,-74.561 723,-62 723,-62 723,-62 2092,-62 2092,-62 2092,-62 2092,-75.9445 2092,-75.9445"/>
<polygon fill="#000000" stroke="#000000" points="2088.5001,-75.9444 2092,-85.9445 2095.5001,-75.9445 2088.5001,-75.9444"/>
</g>
<!-- SessionSerializer -->
<g id="node17" class="node">
<title>SessionSerializer</title>
<ellipse fill="#fdb462" stroke="#000000" cx="569" cy="-104" rx="77.5781" ry="18"/>
<text text-anchor="middle" x="569" y="-99.8" font-family="Times,serif" font-size="14.00" fill="#000000">SessionSerializer</text>
</g>
<!-- SessionSerializer&#45;&gt;AuthModule -->
<g id="edge17" class="edge">
<title>SessionSerializer&#45;&gt;AuthModule</title>
<path fill="none" stroke="#000000" d="M569,-122.2921C569,-144.2057 569,-178 569,-178 569,-178 1553.3913,-178 1553.3913,-178"/>
<polygon fill="#000000" stroke="#000000" points="1553.3913,-181.5001 1563.3913,-178 1553.3912,-174.5001 1553.3913,-181.5001"/>
</g>
<!-- TempTokensService -->
<g id="node18" class="node">
<title>TempTokensService</title>
<ellipse fill="#fdb462" stroke="#000000" cx="383" cy="-104" rx="90.8916" ry="18"/>
<text text-anchor="middle" x="383" y="-99.8" font-family="Times,serif" font-size="14.00" fill="#000000">TempTokensService</text>
</g>
<!-- TempTokensService&#45;&gt;AuthModule -->
<g id="edge18" class="edge">
<title>TempTokensService&#45;&gt;AuthModule</title>
<path fill="none" stroke="#000000" d="M383,-122.3228C383,-145.6602 383,-183 383,-183 383,-183 1553.4372,-183 1553.4372,-183"/>
<polygon fill="#000000" stroke="#000000" points="1553.4372,-186.5001 1563.4372,-183 1553.4372,-179.5001 1553.4372,-186.5001"/>
</g>
<!-- CoursesService -->
<g id="node21" class="node">
<title>CoursesService</title>
<ellipse fill="#fdb462" stroke="#000000" cx="2408" cy="-180" rx="71.2036" ry="18"/>
<text text-anchor="middle" x="2408" y="-175.8" font-family="Times,serif" font-size="14.00" fill="#000000">CoursesService</text>
</g>
<!-- CoursesService&#45;&gt;CoursesModule -->
<g id="edge21" class="edge">
<title>CoursesService&#45;&gt;CoursesModule</title>
<path fill="none" stroke="#000000" d="M2408,-161.5146C2408,-149.8601 2408,-137 2408,-137 2408,-137 1979,-137 1979,-137 1979,-137 1979,-132.0449 1979,-132.0449"/>
<polygon fill="#000000" stroke="#000000" points="1982.5001,-132.0448 1979,-122.0449 1975.5001,-132.0449 1982.5001,-132.0448"/>
</g>
<!-- ProfileService -->
<g id="node24" class="node">
<title>ProfileService</title>
<ellipse fill="#fdb462" stroke="#000000" cx="1143" cy="-104" rx="66.0454" ry="18"/>
<text text-anchor="middle" x="1143" y="-99.8" font-family="Times,serif" font-size="14.00" fill="#000000">ProfileService</text>
</g>
<!-- ProfileService&#45;&gt;ProfileModule -->
<g id="edge26" class="edge">
<title>ProfileService&#45;&gt;ProfileModule</title>
<path fill="none" stroke="#000000" d="M1143,-122.1467C1143,-135.7395 1143,-152 1143,-152 1143,-152 1719.8068,-152 1719.8068,-152 1719.8068,-152 1719.8068,-152.9793 1719.8068,-152.9793"/>
<polygon fill="#000000" stroke="#000000" points="1716.3069,-151.793 1719.8068,-161.793 1723.3069,-151.7931 1716.3069,-151.793"/>
</g>
<!-- UsersService -->
<g id="node25" class="node">
<title>UsersService</title>
<ellipse fill="#fdb462" stroke="#000000" cx="997" cy="-104" rx="61.9519" ry="18"/>
<text text-anchor="middle" x="997" y="-99.8" font-family="Times,serif" font-size="14.00" fill="#000000">UsersService</text>
</g>
<!-- UsersService&#45;&gt;ProfileModule -->
<g id="edge27" class="edge">
<title>UsersService&#45;&gt;ProfileModule</title>
<path fill="none" stroke="#000000" d="M997,-122.2396C997,-137.5706 997,-157 997,-157 997,-157 1696.2979,-157 1696.2979,-157 1696.2979,-157 1696.2979,-157.4878 1696.2979,-157.4878"/>
<polygon fill="#000000" stroke="#000000" points="1692.7981,-151.8776 1696.2979,-161.8777 1699.7981,-151.8778 1692.7981,-151.8776"/>
</g>
<!-- UsersService&#45;&gt;UsersModule -->
<g id="edge40" class="edge">
<title>UsersService&#45;&gt;UsersModule</title>
<path fill="none" stroke="#000000" d="M997,-85.8568C997,-79.5389 997,-74 997,-74 997,-74 1609,-74 1609,-74 1609,-74 1609,-75.8568 1609,-75.8568"/>
<polygon fill="#000000" stroke="#000000" points="1605.5001,-75.8568 1609,-85.8568 1612.5001,-75.8568 1605.5001,-75.8568"/>
</g>
<!-- StagesService -->
<g id="node27" class="node">
<title>StagesService</title>
<ellipse fill="#fdb462" stroke="#000000" cx="2240" cy="-332" rx="65.4033" ry="18"/>
<text text-anchor="middle" x="2240" y="-327.8" font-family="Times,serif" font-size="14.00" fill="#000000">StagesService</text>
</g>
<!-- StagesService&#45;&gt;StagesModule -->
<g id="edge30" class="edge">
<title>StagesService&#45;&gt;StagesModule</title>
<path fill="none" stroke="#000000" d="M2178.1291,-326C2164.9256,-326 2154.8657,-326 2154.8657,-326 2154.8657,-326 2154.8657,-262 2154.8657,-262 2154.8657,-262 1931.1342,-262 1931.1342,-262"/>
<polygon fill="#000000" stroke="#000000" points="1931.1342,-258.5001 1921.1342,-262 1931.1341,-265.5001 1931.1342,-258.5001"/>
</g>
<!-- TasksService -->
<g id="node29" class="node">
<title>TasksService</title>
<ellipse fill="#fdb462" stroke="#000000" cx="2238" cy="-408" rx="62.5354" ry="18"/>
<text text-anchor="middle" x="2238" y="-403.8" font-family="Times,serif" font-size="14.00" fill="#000000">TasksService</text>
</g>
<!-- TasksService&#45;&gt;TasksModule -->
<g id="edge35" class="edge">
<title>TasksService&#45;&gt;TasksModule</title>
<path fill="none" stroke="#000000" d="M2183.5918,-399C2163.2249,-399 2144.9304,-399 2144.9304,-399 2144.9304,-399 2144.9304,-338 2144.9304,-338 2144.9304,-338 1931.4027,-338 1931.4027,-338"/>
<polygon fill="#000000" stroke="#000000" points="1931.4027,-334.5001 1921.4027,-338 1931.4027,-341.5001 1931.4027,-334.5001"/>
</g>
<!-- TracksService -->
<g id="node31" class="node">
<title>TracksService</title>
<ellipse fill="#fdb462" stroke="#000000" cx="2241" cy="-256" rx="66.0281" ry="18"/>
<text text-anchor="middle" x="2241" y="-251.8" font-family="Times,serif" font-size="14.00" fill="#000000">TracksService</text>
</g>
<!-- TracksService&#45;&gt;TracksModule -->
<g id="edge38" class="edge">
<title>TracksService&#45;&gt;TracksModule</title>
<path fill="none" stroke="#000000" d="M2178.4239,-250C2170.3367,-250 2164.8011,-250 2164.8011,-250 2164.8011,-250 2164.8011,-186 2164.8011,-186 2164.8011,-186 1921.825,-186 1921.825,-186"/>
<polygon fill="#000000" stroke="#000000" points="1921.825,-182.5001 1911.825,-186 1921.8249,-189.5001 1921.825,-182.5001"/>
</g>
</g>
</svg>
