<?xml version="1.0" encoding="UTF-8" standalone="no"?>
<!DOCTYPE svg PUBLIC "-//W3C//DTD SVG 1.1//EN"
 "http://www.w3.org/Graphics/SVG/1.1/DTD/svg11.dtd">
<!-- Generated by graphviz version 2.40.1 (20161225.0304)
 -->
<!-- Title: dependencies Pages: 1 -->
<svg width="3259pt" height="355pt"
 viewBox="0.00 0.00 3259.00 355.00" xmlns="http://www.w3.org/2000/svg" xmlns:xlink="http://www.w3.org/1999/xlink">
<g id="graph0" class="graph" transform="scale(1 1) rotate(0) translate(4 351)">
<title>dependencies</title>
<polygon fill="#ffffff" stroke="transparent" points="-4,4 -4,-351 3255,-351 3255,4 -4,4"/>
<text text-anchor="start" x="1604.5091" y="-42.4" font-family="sans-serif" font-weight="bold" font-size="14.00" fill="#000000">Legend</text>
<polygon fill="#ffffb3" stroke="transparent" points="1391.5,-10 1391.5,-30 1411.5,-30 1411.5,-10 1391.5,-10"/>
<text text-anchor="start" x="1415.129" y="-15.4" font-family="sans-serif" font-size="14.00" fill="#000000"> &#160;Declarations</text>
<polygon fill="#8dd3c7" stroke="transparent" points="1504.5,-10 1504.5,-30 1524.5,-30 1524.5,-10 1504.5,-10"/>
<text text-anchor="start" x="1528.2251" y="-15.4" font-family="sans-serif" font-size="14.00" fill="#000000"> &#160;Module</text>
<polygon fill="#80b1d3" stroke="transparent" points="1590.5,-10 1590.5,-30 1610.5,-30 1610.5,-10 1590.5,-10"/>
<text text-anchor="start" x="1614.2812" y="-15.4" font-family="sans-serif" font-size="14.00" fill="#000000"> &#160;Bootstrap</text>
<polygon fill="#fdb462" stroke="transparent" points="1687.5,-10 1687.5,-30 1707.5,-30 1707.5,-10 1687.5,-10"/>
<text text-anchor="start" x="1711.1732" y="-15.4" font-family="sans-serif" font-size="14.00" fill="#000000"> &#160;Providers</text>
<polygon fill="#fb8072" stroke="transparent" points="1783.5,-10 1783.5,-30 1803.5,-30 1803.5,-10 1783.5,-10"/>
<text text-anchor="start" x="1807.2258" y="-15.4" font-family="sans-serif" font-size="14.00" fill="#000000"> &#160;Exports</text>
<g id="clust1" class="cluster">
<title>cluster_AppModule</title>
<polygon fill="none" stroke="#000000" stroke-dasharray="1,5" points="1060,-70 1060,-339 1925,-339 1925,-70 1060,-70"/>
</g>
<g id="clust3" class="cluster">
<title>cluster_AppModule_imports</title>
<polygon fill="none" stroke="#000000" points="1068,-146 1068,-274 1885,-274 1885,-146 1068,-146"/>
</g>
<g id="clust6" class="cluster">
<title>cluster_AppModule_providers</title>
<polygon fill="none" stroke="#000000" points="1639,-78 1639,-130 1917,-130 1917,-78 1639,-78"/>
</g>
<g id="clust7" class="cluster">
<title>cluster_AuthModule</title>
<polygon fill="none" stroke="#000000" stroke-dasharray="1,5" points="8,-138 8,-206 1052,-206 1052,-138 8,-138"/>
</g>
<g id="clust10" class="cluster">
<title>cluster_AuthModule_exports</title>
<polygon fill="none" stroke="#000000" points="938,-146 938,-198 1044,-198 1044,-146 938,-146"/>
</g>
<g id="clust12" class="cluster">
<title>cluster_AuthModule_providers</title>
<polygon fill="none" stroke="#000000" points="16,-146 16,-198 930,-198 930,-146 16,-146"/>
</g>
<g id="clust13" class="cluster">
<title>cluster_CategoriesModule</title>
<polygon fill="none" stroke="#000000" stroke-dasharray="1,5" points="1933,-214 1933,-282 2087,-282 2087,-214 1933,-214"/>
</g>
<g id="clust16" class="cluster">
<title>cluster_CategoriesModule_exports</title>
<polygon fill="none" stroke="#000000" points="1941,-222 1941,-274 2079,-274 2079,-222 1941,-222"/>
</g>
<g id="clust19" class="cluster">
<title>cluster_CoursesModule</title>
<polygon fill="none" stroke="#000000" stroke-dasharray="1,5" points="2095,-214 2095,-282 2399,-282 2399,-214 2095,-214"/>
</g>
<g id="clust22" class="cluster">
<title>cluster_CoursesModule_exports</title>
<polygon fill="none" stroke="#000000" points="2269,-222 2269,-274 2391,-274 2391,-222 2269,-222"/>
</g>
<g id="clust24" class="cluster">
<title>cluster_CoursesModule_providers</title>
<polygon fill="none" stroke="#000000" points="2103,-222 2103,-274 2261,-274 2261,-222 2103,-222"/>
</g>
<g id="clust31" class="cluster">
<title>cluster_MailModule</title>
<polygon fill="none" stroke="#000000" stroke-dasharray="1,5" points="2407,-214 2407,-282 2527,-282 2527,-214 2407,-214"/>
</g>
<g id="clust34" class="cluster">
<title>cluster_MailModule_exports</title>
<polygon fill="none" stroke="#000000" points="2415,-222 2415,-274 2519,-274 2519,-222 2415,-222"/>
</g>
<g id="clust37" class="cluster">
<title>cluster_ProfileModule</title>
<polygon fill="none" stroke="#000000" stroke-dasharray="1,5" points="2969,-214 2969,-282 3243,-282 3243,-214 2969,-214"/>
</g>
<g id="clust40" class="cluster">
<title>cluster_ProfileModule_exports</title>
<polygon fill="none" stroke="#000000" points="3125,-222 3125,-274 3235,-274 3235,-222 3125,-222"/>
</g>
<g id="clust42" class="cluster">
<title>cluster_ProfileModule_providers</title>
<polygon fill="none" stroke="#000000" points="2977,-222 2977,-274 3117,-274 3117,-222 2977,-222"/>
</g>
<g id="clust49" class="cluster">
<title>cluster_StagesModule</title>
<polygon fill="none" stroke="#000000" stroke-dasharray="1,5" points="2535,-214 2535,-282 2665,-282 2665,-214 2535,-214"/>
</g>
<g id="clust52" class="cluster">
<title>cluster_StagesModule_exports</title>
<polygon fill="none" stroke="#000000" points="2543,-222 2543,-274 2657,-274 2657,-222 2543,-222"/>
</g>
<g id="clust55" class="cluster">
<title>cluster_TracksModule</title>
<polygon fill="none" stroke="#000000" stroke-dasharray="1,5" points="2673,-214 2673,-282 2961,-282 2961,-214 2673,-214"/>
</g>
<g id="clust58" class="cluster">
<title>cluster_TracksModule_exports</title>
<polygon fill="none" stroke="#000000" points="2837,-222 2837,-274 2953,-274 2953,-222 2837,-222"/>
</g>
<g id="clust60" class="cluster">
<title>cluster_TracksModule_providers</title>
<polygon fill="none" stroke="#000000" points="2681,-222 2681,-274 2829,-274 2829,-222 2681,-222"/>
</g>
<!-- AuthModule -->
<g id="node1" class="node">
<title>AuthModule</title>
<polygon fill="#8dd3c7" stroke="#000000" points="1163.5482,-266 1160.5482,-270 1139.5482,-270 1136.5482,-266 1076.4518,-266 1076.4518,-230 1163.5482,-230 1163.5482,-266"/>
<text text-anchor="middle" x="1120" y="-243.8" font-family="Times,serif" font-size="14.00" fill="#000000">AuthModule</text>
</g>
<!-- AppModule -->
<g id="node10" class="node">
<title>AppModule</title>
<polygon fill="#8dd3c7" stroke="#000000" points="1625.6571,-331 1622.6571,-335 1601.6571,-335 1598.6571,-331 1542.3429,-331 1542.3429,-295 1625.6571,-295 1625.6571,-331"/>
<text text-anchor="middle" x="1584" y="-308.8" font-family="Times,serif" font-size="14.00" fill="#000000">AppModule</text>
</g>
<!-- AuthModule&#45;&gt;AppModule -->
<g id="edge1" class="edge">
<title>AuthModule&#45;&gt;AppModule</title>
<path fill="none" stroke="#000000" d="M1120,-266.0109C1120,-288.4852 1120,-324 1120,-324 1120,-324 1532.0047,-324 1532.0047,-324"/>
<polygon fill="#000000" stroke="#000000" points="1532.0048,-327.5001 1542.0047,-324 1532.0047,-320.5001 1532.0048,-327.5001"/>
</g>
<!-- AuthService  -->
<g id="node13" class="node">
<title>AuthService </title>
<polygon fill="#fb8072" stroke="#000000" points="1035.9761,-190 946.0239,-190 946.0239,-154 1035.9761,-154 1035.9761,-190"/>
<text text-anchor="middle" x="991" y="-167.8" font-family="Times,serif" font-size="14.00" fill="#000000">AuthService </text>
</g>
<!-- AuthModule&#45;&gt;AuthService  -->
<g id="edge13" class="edge">
<title>AuthModule&#45;&gt;AuthService </title>
<path fill="none" stroke="#000000" stroke-dasharray="5,2" d="M1076.3265,-235C1038.9026,-235 991,-235 991,-235 991,-235 991,-200.2222 991,-200.2222"/>
<polygon fill="#000000" stroke="#000000" points="994.5001,-200.2222 991,-190.2222 987.5001,-200.2222 994.5001,-200.2222"/>
</g>
<!-- CategoriesModule -->
<g id="node2" class="node">
<title>CategoriesModule</title>
<polygon fill="#8dd3c7" stroke="#000000" points="1420.9173,-190 1417.9173,-194 1396.9173,-194 1393.9173,-190 1301.0827,-190 1301.0827,-154 1420.9173,-154 1420.9173,-190"/>
<text text-anchor="middle" x="1361" y="-167.8" font-family="Times,serif" font-size="14.00" fill="#000000">CategoriesModule</text>
</g>
<!-- CategoriesModule&#45;&gt;AppModule -->
<g id="edge2" class="edge">
<title>CategoriesModule&#45;&gt;AppModule</title>
<path fill="none" stroke="#000000" d="M1354.2335,-190.215C1354.2335,-226.2102 1354.2335,-303 1354.2335,-303 1354.2335,-303 1532.1245,-303 1532.1245,-303"/>
<polygon fill="#000000" stroke="#000000" points="1532.1245,-306.5001 1542.1245,-303 1532.1244,-299.5001 1532.1245,-306.5001"/>
</g>
<!-- CategoriesService  -->
<g id="node20" class="node">
<title>CategoriesService </title>
<polygon fill="#fb8072" stroke="#000000" points="2070.8449,-266 1949.1551,-266 1949.1551,-230 2070.8449,-230 2070.8449,-266"/>
<text text-anchor="middle" x="2010" y="-243.8" font-family="Times,serif" font-size="14.00" fill="#000000">CategoriesService </text>
</g>
<!-- CategoriesModule&#45;&gt;CategoriesService  -->
<g id="edge20" class="edge">
<title>CategoriesModule&#45;&gt;CategoriesService </title>
<path fill="none" stroke="#000000" stroke-dasharray="5,2" d="M1413.9418,-190.0091C1413.9418,-206.0494 1413.9418,-227 1413.9418,-227 1413.9418,-227 2010,-227 2010,-227 2010,-227 2010,-227.292 2010,-227.292"/>
<polygon fill="#000000" stroke="#000000" points="2006.5004,-219.9198 2010,-229.92 2013.5004,-219.9201 2006.5004,-219.9198"/>
</g>
<!-- CoursesModule -->
<g id="node3" class="node">
<title>CoursesModule</title>
<polygon fill="#8dd3c7" stroke="#000000" points="1543.1514,-190 1540.1514,-194 1519.1514,-194 1516.1514,-190 1438.8486,-190 1438.8486,-154 1543.1514,-154 1543.1514,-190"/>
<text text-anchor="middle" x="1491" y="-167.8" font-family="Times,serif" font-size="14.00" fill="#000000">CoursesModule</text>
</g>
<!-- CoursesModule&#45;&gt;AppModule -->
<g id="edge3" class="edge">
<title>CoursesModule&#45;&gt;AppModule</title>
<path fill="none" stroke="#000000" d="M1543.3527,-172C1550.3182,-172 1555.1117,-172 1555.1117,-172 1555.1117,-172 1555.1117,-284.8554 1555.1117,-284.8554"/>
<polygon fill="#000000" stroke="#000000" points="1551.6118,-284.8553 1555.1117,-294.8554 1558.6118,-284.8554 1551.6118,-284.8553"/>
</g>
<!-- CoursesService  -->
<g id="node21" class="node">
<title>CoursesService </title>
<polygon fill="#fb8072" stroke="#000000" points="2383.0794,-266 2276.9206,-266 2276.9206,-230 2383.0794,-230 2383.0794,-266"/>
<text text-anchor="middle" x="2330" y="-243.8" font-family="Times,serif" font-size="14.00" fill="#000000">CoursesService </text>
</g>
<!-- CoursesModule&#45;&gt;CoursesService  -->
<g id="edge21" class="edge">
<title>CoursesModule&#45;&gt;CoursesService </title>
<path fill="none" stroke="#000000" stroke-dasharray="5,2" d="M1517.2737,-190.1467C1517.2737,-203.7395 1517.2737,-220 1517.2737,-220 1517.2737,-220 2330,-220 2330,-220 2330,-220 2330,-220.9793 2330,-220.9793"/>
<polygon fill="#000000" stroke="#000000" points="2326.5001,-219.793 2330,-229.793 2333.5001,-219.7931 2326.5001,-219.793"/>
</g>
<!-- MailModule -->
<g id="node4" class="node">
<title>MailModule</title>
<polygon fill="#8dd3c7" stroke="#000000" points="1646.9902,-190 1643.9902,-194 1622.9902,-194 1619.9902,-190 1561.0098,-190 1561.0098,-154 1646.9902,-154 1646.9902,-190"/>
<text text-anchor="middle" x="1604" y="-167.8" font-family="Times,serif" font-size="14.00" fill="#000000">MailModule</text>
</g>
<!-- MailModule&#45;&gt;AppModule -->
<g id="edge4" class="edge">
<title>MailModule&#45;&gt;AppModule</title>
<path fill="none" stroke="#000000" d="M1604.2204,-190.1446C1604.2204,-190.1446 1604.2204,-284.925 1604.2204,-284.925"/>
<polygon fill="#000000" stroke="#000000" points="1600.7205,-284.925 1604.2204,-294.925 1607.7205,-284.925 1600.7205,-284.925"/>
</g>
<!-- MailService  -->
<g id="node23" class="node">
<title>MailService </title>
<polygon fill="#fb8072" stroke="#000000" points="2510.918,-266 2423.082,-266 2423.082,-230 2510.918,-230 2510.918,-266"/>
<text text-anchor="middle" x="2467" y="-243.8" font-family="Times,serif" font-size="14.00" fill="#000000">MailService </text>
</g>
<!-- MailModule&#45;&gt;MailService  -->
<g id="edge23" class="edge">
<title>MailModule&#45;&gt;MailService </title>
<path fill="none" stroke="#000000" stroke-dasharray="5,2" d="M1636.4117,-190.1505C1636.4117,-202.2708 1636.4117,-216 1636.4117,-216 1636.4117,-216 2467,-216 2467,-216 2467,-216 2467,-219.7566 2467,-219.7566"/>
<polygon fill="#000000" stroke="#000000" points="2463.5001,-219.7566 2467,-229.7566 2470.5001,-219.7566 2463.5001,-219.7566"/>
</g>
<!-- ProfileModule -->
<g id="node5" class="node">
<title>ProfileModule</title>
<polygon fill="#8dd3c7" stroke="#000000" points="1504.65,-266 1501.65,-270 1480.65,-270 1477.65,-266 1407.35,-266 1407.35,-230 1504.65,-230 1504.65,-266"/>
<text text-anchor="middle" x="1456" y="-243.8" font-family="Times,serif" font-size="14.00" fill="#000000">ProfileModule</text>
</g>
<!-- ProfileModule&#45;&gt;AppModule -->
<g id="edge5" class="edge">
<title>ProfileModule&#45;&gt;AppModule</title>
<path fill="none" stroke="#000000" d="M1504.7934,-248C1527.3477,-248 1549.2186,-248 1549.2186,-248 1549.2186,-248 1549.2186,-284.8939 1549.2186,-284.8939"/>
<polygon fill="#000000" stroke="#000000" points="1545.7187,-284.8938 1549.2186,-294.8939 1552.7187,-284.8939 1545.7187,-284.8938"/>
</g>
<!-- UsersService  -->
<g id="node24" class="node">
<title>UsersService </title>
<polygon fill="#fb8072" stroke="#000000" points="3226.8493,-266 3133.1507,-266 3133.1507,-230 3226.8493,-230 3226.8493,-266"/>
<text text-anchor="middle" x="3180" y="-243.8" font-family="Times,serif" font-size="14.00" fill="#000000">UsersService </text>
</g>
<!-- ProfileModule&#45;&gt;UsersService  -->
<g id="edge26" class="edge">
<title>ProfileModule&#45;&gt;UsersService </title>
<path fill="none" stroke="#000000" stroke-dasharray="5,2" d="M1460.7246,-229.5146C1460.7246,-217.8601 1460.7246,-205 1460.7246,-205 1460.7246,-205 3164.4419,-205 3164.4419,-205 3164.4419,-205 3164.4419,-219.5146 3164.4419,-219.5146"/>
<polygon fill="#000000" stroke="#000000" points="3160.942,-219.5145 3164.4419,-229.5146 3167.942,-219.5146 3160.942,-219.5145"/>
</g>
<!-- SharedModule -->
<g id="node6" class="node">
<title>SharedModule</title>
<polygon fill="#8dd3c7" stroke="#000000" points="1174.4231,-190 1171.4231,-194 1150.4231,-194 1147.4231,-190 1075.5769,-190 1075.5769,-154 1174.4231,-154 1174.4231,-190"/>
<text text-anchor="middle" x="1125" y="-167.8" font-family="Times,serif" font-size="14.00" fill="#000000">SharedModule</text>
</g>
<!-- SharedModule&#45;&gt;AppModule -->
<g id="edge6" class="edge">
<title>SharedModule&#45;&gt;AppModule</title>
<path fill="none" stroke="#000000" d="M1168.9923,-190.0712C1168.9923,-228.941 1168.9923,-317 1168.9923,-317 1168.9923,-317 1532.3073,-317 1532.3073,-317"/>
<polygon fill="#000000" stroke="#000000" points="1532.3074,-320.5001 1542.3073,-317 1532.3073,-313.5001 1532.3074,-320.5001"/>
</g>
<!-- StagesModule -->
<g id="node7" class="node">
<title>StagesModule</title>
<polygon fill="#8dd3c7" stroke="#000000" points="1761.0968,-190 1758.0968,-194 1737.0968,-194 1734.0968,-190 1664.9032,-190 1664.9032,-154 1761.0968,-154 1761.0968,-190"/>
<text text-anchor="middle" x="1713" y="-167.8" font-family="Times,serif" font-size="14.00" fill="#000000">StagesModule</text>
</g>
<!-- StagesModule&#45;&gt;AppModule -->
<g id="edge7" class="edge">
<title>StagesModule&#45;&gt;AppModule</title>
<path fill="none" stroke="#000000" d="M1729.0161,-190.0411C1729.0161,-227.4476 1729.0161,-310 1729.0161,-310 1729.0161,-310 1635.9447,-310 1635.9447,-310"/>
<polygon fill="#000000" stroke="#000000" points="1635.9447,-306.5001 1625.9447,-310 1635.9446,-313.5001 1635.9447,-306.5001"/>
</g>
<!-- StagesService  -->
<g id="node26" class="node">
<title>StagesService </title>
<polygon fill="#fb8072" stroke="#000000" points="2649.0246,-266 2550.9754,-266 2550.9754,-230 2649.0246,-230 2649.0246,-266"/>
<text text-anchor="middle" x="2600" y="-243.8" font-family="Times,serif" font-size="14.00" fill="#000000">StagesService </text>
</g>
<!-- StagesModule&#45;&gt;StagesService  -->
<g id="edge28" class="edge">
<title>StagesModule&#45;&gt;StagesService </title>
<path fill="none" stroke="#000000" stroke-dasharray="5,2" d="M1696.9839,-190.1274C1696.9839,-200.7109 1696.9839,-212 1696.9839,-212 1696.9839,-212 2600,-212 2600,-212 2600,-212 2600,-219.5782 2600,-219.5782"/>
<polygon fill="#000000" stroke="#000000" points="2596.5001,-219.5781 2600,-229.5782 2603.5001,-219.5782 2596.5001,-219.5781"/>
</g>
<!-- TracksModule -->
<g id="node8" class="node">
<title>TracksModule</title>
<polygon fill="#8dd3c7" stroke="#000000" points="1876.6375,-190 1873.6375,-194 1852.6375,-194 1849.6375,-190 1779.3625,-190 1779.3625,-154 1876.6375,-154 1876.6375,-190"/>
<text text-anchor="middle" x="1828" y="-167.8" font-family="Times,serif" font-size="14.00" fill="#000000">TracksModule</text>
</g>
<!-- TracksModule&#45;&gt;AppModule -->
<g id="edge8" class="edge">
<title>TracksModule&#45;&gt;AppModule</title>
<path fill="none" stroke="#000000" d="M1828,-190.0712C1828,-228.941 1828,-317 1828,-317 1828,-317 1635.6679,-317 1635.6679,-317"/>
<polygon fill="#000000" stroke="#000000" points="1635.6679,-313.5001 1625.6679,-317 1635.6678,-320.5001 1635.6679,-313.5001"/>
</g>
<!-- TracksService  -->
<g id="node27" class="node">
<title>TracksService </title>
<polygon fill="#fb8072" stroke="#000000" points="2944.5655,-266 2845.4345,-266 2845.4345,-230 2944.5655,-230 2944.5655,-266"/>
<text text-anchor="middle" x="2895" y="-243.8" font-family="Times,serif" font-size="14.00" fill="#000000">TracksService </text>
</g>
<!-- TracksModule&#45;&gt;TracksService  -->
<g id="edge30" class="edge">
<title>TracksModule&#45;&gt;TracksService </title>
<path fill="none" stroke="#000000" stroke-dasharray="5,2" d="M1876.971,-166C2086.2632,-166 2895,-166 2895,-166 2895,-166 2895,-219.8015 2895,-219.8015"/>
<polygon fill="#000000" stroke="#000000" points="2891.5001,-219.8015 2895,-229.8015 2898.5001,-219.8016 2891.5001,-219.8015"/>
</g>
<!-- UsersModule -->
<g id="node9" class="node">
<title>UsersModule</title>
<polygon fill="#8dd3c7" stroke="#000000" points="1283.9218,-190 1280.9218,-194 1259.9218,-194 1256.9218,-190 1192.0782,-190 1192.0782,-154 1283.9218,-154 1283.9218,-190"/>
<text text-anchor="middle" x="1238" y="-167.8" font-family="Times,serif" font-size="14.00" fill="#000000">UsersModule</text>
</g>
<!-- UsersModule&#45;&gt;AuthModule -->
<g id="edge12" class="edge">
<title>UsersModule&#45;&gt;AuthModule</title>
<path fill="none" stroke="#000000" d="M1238,-190.1985C1238,-214.3563 1238,-254 1238,-254 1238,-254 1173.6036,-254 1173.6036,-254"/>
<polygon fill="#000000" stroke="#000000" points="1173.6036,-250.5001 1163.6036,-254 1173.6036,-257.5001 1173.6036,-250.5001"/>
</g>
<!-- UsersModule&#45;&gt;ProfileModule -->
<g id="edge25" class="edge">
<title>UsersModule&#45;&gt;ProfileModule</title>
<path fill="none" stroke="#000000" d="M1268.4736,-190.0267C1268.4736,-210.7672 1268.4736,-242 1268.4736,-242 1268.4736,-242 1397.2192,-242 1397.2192,-242"/>
<polygon fill="#000000" stroke="#000000" points="1397.2192,-245.5001 1407.2192,-242 1397.2191,-238.5001 1397.2192,-245.5001"/>
</g>
<!-- UsersModule&#45;&gt;AppModule -->
<g id="edge9" class="edge">
<title>UsersModule&#45;&gt;AppModule</title>
<path fill="none" stroke="#000000" d="M1253.2368,-190.0411C1253.2368,-227.4476 1253.2368,-310 1253.2368,-310 1253.2368,-310 1532.1086,-310 1532.1086,-310"/>
<polygon fill="#000000" stroke="#000000" points="1532.1086,-313.5001 1542.1086,-310 1532.1086,-306.5001 1532.1086,-313.5001"/>
</g>
<!-- UsersModule&#45;&gt;UsersService  -->
<g id="edge32" class="edge">
<title>UsersModule&#45;&gt;UsersService </title>
<path fill="none" stroke="#000000" stroke-dasharray="5,2" d="M1207.5264,-190.1679C1207.5264,-192.4478 1207.5264,-194 1207.5264,-194 1207.5264,-194 3195.5581,-194 3195.5581,-194 3195.5581,-194 3195.5581,-219.7181 3195.5581,-219.7181"/>
<polygon fill="#000000" stroke="#000000" points="3192.0582,-219.718 3195.5581,-229.7181 3199.0582,-219.7181 3192.0582,-219.718"/>
</g>
<!-- AppService -->
<g id="node11" class="node">
<title>AppService</title>
<ellipse fill="#fdb462" stroke="#000000" cx="1852" cy="-104" rx="56.7406" ry="18"/>
<text text-anchor="middle" x="1852" y="-99.8" font-family="Times,serif" font-size="14.00" fill="#000000">AppService</text>
</g>
<!-- AppService&#45;&gt;AppModule -->
<g id="edge10" class="edge">
<title>AppService&#45;&gt;AppModule</title>
<path fill="none" stroke="#000000" d="M1892.7193,-116.779C1892.7193,-163.7324 1892.7193,-324 1892.7193,-324 1892.7193,-324 1635.9565,-324 1635.9565,-324"/>
<polygon fill="#000000" stroke="#000000" points="1635.9566,-320.5001 1625.9565,-324 1635.9565,-327.5001 1635.9566,-320.5001"/>
</g>
<!-- StagesService -->
<g id="node12" class="node">
<title>StagesService</title>
<ellipse fill="#fdb462" stroke="#000000" cx="1712" cy="-104" rx="65.4033" ry="18"/>
<text text-anchor="middle" x="1712" y="-99.8" font-family="Times,serif" font-size="14.00" fill="#000000">StagesService</text>
</g>
<!-- StagesService&#45;&gt;StagesModule -->
<g id="edge29" class="edge">
<title>StagesService&#45;&gt;StagesModule</title>
<path fill="none" stroke="#000000" d="M1713,-122.2228C1713,-122.2228 1713,-143.7269 1713,-143.7269"/>
<polygon fill="#000000" stroke="#000000" points="1709.5001,-143.7269 1713,-153.7269 1716.5001,-143.727 1709.5001,-143.7269"/>
</g>
<!-- StagesService&#45;&gt;AppModule -->
<g id="edge11" class="edge">
<title>StagesService&#45;&gt;AppModule</title>
<path fill="none" stroke="#000000" d="M1655.9734,-113.3313C1655.9734,-152.6743 1655.9734,-303 1655.9734,-303 1655.9734,-303 1635.8672,-303 1635.8672,-303"/>
<polygon fill="#000000" stroke="#000000" points="1635.8672,-299.5001 1625.8672,-303 1635.8672,-306.5001 1635.8672,-299.5001"/>
</g>
<!-- AuthHandler -->
<g id="node14" class="node">
<title>AuthHandler</title>
<ellipse fill="#fdb462" stroke="#000000" cx="861" cy="-172" rx="61.3974" ry="18"/>
<text text-anchor="middle" x="861" y="-167.8" font-family="Times,serif" font-size="14.00" fill="#000000">AuthHandler</text>
</g>
<!-- AuthHandler&#45;&gt;AuthModule -->
<g id="edge14" class="edge">
<title>AuthHandler&#45;&gt;AuthModule</title>
<path fill="none" stroke="#000000" d="M861,-190.308C861,-210.1455 861,-239 861,-239 861,-239 1066.3571,-239 1066.3571,-239"/>
<polygon fill="#000000" stroke="#000000" points="1066.3571,-242.5001 1076.3571,-239 1066.357,-235.5001 1066.3571,-242.5001"/>
</g>
<!-- AuthService -->
<g id="node15" class="node">
<title>AuthService</title>
<ellipse fill="#fdb462" stroke="#000000" cx="722" cy="-172" rx="59.1083" ry="18"/>
<text text-anchor="middle" x="722" y="-167.8" font-family="Times,serif" font-size="14.00" fill="#000000">AuthService</text>
</g>
<!-- AuthService&#45;&gt;AuthModule -->
<g id="edge15" class="edge">
<title>AuthService&#45;&gt;AuthModule</title>
<path fill="none" stroke="#000000" d="M722,-190.1686C722,-211.498 722,-244 722,-244 722,-244 1066.2685,-244 1066.2685,-244"/>
<polygon fill="#000000" stroke="#000000" points="1066.2686,-247.5001 1076.2685,-244 1066.2685,-240.5001 1066.2686,-247.5001"/>
</g>
<!-- JwtStrategy -->
<g id="node16" class="node">
<title>JwtStrategy</title>
<ellipse fill="#fdb462" stroke="#000000" cx="588" cy="-172" rx="56.7561" ry="18"/>
<text text-anchor="middle" x="588" y="-167.8" font-family="Times,serif" font-size="14.00" fill="#000000">JwtStrategy</text>
</g>
<!-- JwtStrategy&#45;&gt;AuthModule -->
<g id="edge16" class="edge">
<title>JwtStrategy&#45;&gt;AuthModule</title>
<path fill="none" stroke="#000000" d="M588,-190.0109C588,-212.4852 588,-248 588,-248 588,-248 1066.0116,-248 1066.0116,-248"/>
<polygon fill="#000000" stroke="#000000" points="1066.0116,-251.5001 1076.0116,-248 1066.0116,-244.5001 1066.0116,-251.5001"/>
</g>
<!-- MailService -->
<g id="node17" class="node">
<title>MailService</title>
<ellipse fill="#fdb462" stroke="#000000" cx="455" cy="-172" rx="58.4609" ry="18"/>
<text text-anchor="middle" x="455" y="-167.8" font-family="Times,serif" font-size="14.00" fill="#000000">MailService</text>
</g>
<!-- MailService&#45;&gt;AuthModule -->
<g id="edge17" class="edge">
<title>MailService&#45;&gt;AuthModule</title>
<path fill="none" stroke="#000000" d="M474.41,-189.178C474.41,-212.9548 474.41,-253 474.41,-253 474.41,-253 1066.3864,-253 1066.3864,-253"/>
<polygon fill="#000000" stroke="#000000" points="1066.3864,-256.5001 1076.3864,-253 1066.3863,-249.5001 1066.3864,-256.5001"/>
</g>
<!-- MailService&#45;&gt;MailModule -->
<g id="edge24" class="edge">
<title>MailService&#45;&gt;MailModule</title>
<path fill="none" stroke="#000000" d="M435.59,-189.2046C435.59,-195.4492 435.59,-201 435.59,-201 435.59,-201 1582.6127,-201 1582.6127,-201 1582.6127,-201 1582.6127,-199.9201 1582.6127,-199.9201"/>
<polygon fill="#000000" stroke="#000000" points="1586.1128,-200.2014 1582.6127,-190.2015 1579.1128,-200.2015 1586.1128,-200.2014"/>
</g>
<!-- SessionSerializer -->
<g id="node18" class="node">
<title>SessionSerializer</title>
<ellipse fill="#fdb462" stroke="#000000" cx="301" cy="-172" rx="77.5781" ry="18"/>
<text text-anchor="middle" x="301" y="-167.8" font-family="Times,serif" font-size="14.00" fill="#000000">SessionSerializer</text>
</g>
<!-- SessionSerializer&#45;&gt;AuthModule -->
<g id="edge18" class="edge">
<title>SessionSerializer&#45;&gt;AuthModule</title>
<path fill="none" stroke="#000000" d="M301,-190.0263C301,-214.9773 301,-257 301,-257 301,-257 1066.2565,-257 1066.2565,-257"/>
<polygon fill="#000000" stroke="#000000" points="1066.2566,-260.5001 1076.2565,-257 1066.2565,-253.5001 1066.2566,-260.5001"/>
</g>
<!-- TempTokensService -->
<g id="node19" class="node">
<title>TempTokensService</title>
<ellipse fill="#fdb462" stroke="#000000" cx="115" cy="-172" rx="90.8916" ry="18"/>
<text text-anchor="middle" x="115" y="-167.8" font-family="Times,serif" font-size="14.00" fill="#000000">TempTokensService</text>
</g>
<!-- TempTokensService&#45;&gt;AuthModule -->
<g id="edge19" class="edge">
<title>TempTokensService&#45;&gt;AuthModule</title>
<path fill="none" stroke="#000000" d="M115,-190.2128C115,-216.5111 115,-262 115,-262 115,-262 1066.1702,-262 1066.1702,-262"/>
<polygon fill="#000000" stroke="#000000" points="1066.1702,-265.5001 1076.1702,-262 1066.1701,-258.5001 1066.1702,-265.5001"/>
</g>
<!-- CoursesService -->
<g id="node22" class="node">
<title>CoursesService</title>
<ellipse fill="#fdb462" stroke="#000000" cx="2182" cy="-248" rx="71.2036" ry="18"/>
<text text-anchor="middle" x="2182" y="-243.8" font-family="Times,serif" font-size="14.00" fill="#000000">CoursesService</text>
</g>
<!-- CoursesService&#45;&gt;CoursesModule -->
<g id="edge22" class="edge">
<title>CoursesService&#45;&gt;CoursesModule</title>
<path fill="none" stroke="#000000" d="M2182,-229.8314C2182,-225.9541 2182,-223 2182,-223 2182,-223 1529.7228,-223 1529.7228,-223 1529.7228,-223 1529.7228,-200.1243 1529.7228,-200.1243"/>
<polygon fill="#000000" stroke="#000000" points="1533.2229,-200.1243 1529.7228,-190.1243 1526.2229,-200.1243 1533.2229,-200.1243"/>
</g>
<!-- UsersService -->
<g id="node25" class="node">
<title>UsersService</title>
<ellipse fill="#fdb462" stroke="#000000" cx="3047" cy="-248" rx="61.9519" ry="18"/>
<text text-anchor="middle" x="3047" y="-243.8" font-family="Times,serif" font-size="14.00" fill="#000000">UsersService</text>
</g>
<!-- UsersService&#45;&gt;ProfileModule -->
<g id="edge27" class="edge">
<title>UsersService&#45;&gt;ProfileModule</title>
<path fill="none" stroke="#000000" d="M3026.3414,-230.7805C3026.3414,-220.3329 3026.3414,-209 3026.3414,-209 3026.3414,-209 1482.7747,-209 1482.7747,-209 1482.7747,-209 1482.7747,-219.8701 1482.7747,-219.8701"/>
<polygon fill="#000000" stroke="#000000" points="1479.2748,-219.8701 1482.7747,-229.8701 1486.2748,-219.8701 1479.2748,-219.8701"/>
</g>
<!-- UsersService&#45;&gt;UsersModule -->
<g id="edge33" class="edge">
<title>UsersService&#45;&gt;UsersModule</title>
<path fill="none" stroke="#000000" d="M3067.6586,-230.7928C3067.6586,-216.3296 3067.6586,-198 3067.6586,-198 3067.6586,-198 1222.7632,-198 1222.7632,-198 1222.7632,-198 1222.7632,-197.2058 1222.7632,-197.2058"/>
<polygon fill="#000000" stroke="#000000" points="1226.2633,-200.0578 1222.7632,-190.0579 1219.2633,-200.0579 1226.2633,-200.0578"/>
</g>
<!-- TracksService -->
<g id="node28" class="node">
<title>TracksService</title>
<ellipse fill="#fdb462" stroke="#000000" cx="2755" cy="-248" rx="66.0281" ry="18"/>
<text text-anchor="middle" x="2755" y="-243.8" font-family="Times,serif" font-size="14.00" fill="#000000">TracksService</text>
</g>
<!-- TracksService&#45;&gt;TracksModule -->
<g id="edge31" class="edge">
<title>TracksService&#45;&gt;TracksModule</title>
<path fill="none" stroke="#000000" d="M2755,-229.9733C2755,-209.2328 2755,-178 2755,-178 2755,-178 1886.8592,-178 1886.8592,-178"/>
<polygon fill="#000000" stroke="#000000" points="1886.8593,-174.5001 1876.8592,-178 1886.8592,-181.5001 1886.8593,-174.5001"/>
</g>
</g>
</svg>
