<svg xmlns="http://www.w3.org/2000/svg" xmlns:xlink="http://www.w3.org/1999/xlink" width="3557pt" height="371pt" viewBox="0 0 3557 371"><g id="graph0" class="graph" transform="scale(1 1) rotate(0) translate(4 367)"><title>dependencies</title><polygon fill="#fff" stroke="transparent" points="-4 4 -4 -367 3553 -367 3553 4 -4 4"/><text x="1753.509" y="-42.4" fill="#000" font-family="sans-serif" font-size="14" font-weight="bold" text-anchor="start">Legend</text><polygon fill="#ffffb3" stroke="transparent" points="1540.5 -10 1540.5 -30 1560.5 -30 1560.5 -10 1540.5 -10"/><text x="1564.129" y="-15.4" fill="#000" font-family="sans-serif" font-size="14" text-anchor="start">Declarations</text><polygon fill="#8dd3c7" stroke="transparent" points="1653.5 -10 1653.5 -30 1673.5 -30 1673.5 -10 1653.5 -10"/><text x="1677.225" y="-15.4" fill="#000" font-family="sans-serif" font-size="14" text-anchor="start">Module</text><polygon fill="#80b1d3" stroke="transparent" points="1739.5 -10 1739.5 -30 1759.5 -30 1759.5 -10 1739.5 -10"/><text x="1763.281" y="-15.4" fill="#000" font-family="sans-serif" font-size="14" text-anchor="start">Bootstrap</text><polygon fill="#fdb462" stroke="transparent" points="1836.5 -10 1836.5 -30 1856.5 -30 1856.5 -10 1836.5 -10"/><text x="1860.173" y="-15.4" fill="#000" font-family="sans-serif" font-size="14" text-anchor="start">Providers</text><polygon fill="#fb8072" stroke="transparent" points="1932.5 -10 1932.5 -30 1952.5 -30 1952.5 -10 1932.5 -10"/><text x="1956.226" y="-15.4" fill="#000" font-family="sans-serif" font-size="14" text-anchor="start">Exports</text><g id="clust1" class="cluster"><title>cluster_AppModule</title><polygon fill="none" stroke="#000" stroke-dasharray="1 5" points="434 -70 434 -347 1294 -347 1294 -70 434 -70"/></g><g id="clust3" class="cluster"><title>cluster_AppModule_imports</title><polygon fill="none" stroke="#000" points="692 -78 692 -271 1286 -271 1286 -78 692 -78"/></g><g id="clust6" class="cluster"><title>cluster_AppModule_providers</title><polygon fill="none" stroke="#000" points="554 -219 554 -271 684 -271 684 -219 554 -219"/></g><g id="clust7" class="cluster"><title>cluster_AuthModule</title><polygon fill="none" stroke="#000" stroke-dasharray="1 5" points="2200 -135 2200 -203 3103 -203 3103 -135 2200 -135"/></g><g id="clust10" class="cluster"><title>cluster_AuthModule_exports</title><polygon fill="none" stroke="#000" points="2989 -143 2989 -195 3095 -195 3095 -143 2989 -143"/></g><g id="clust12" class="cluster"><title>cluster_AuthModule_providers</title><polygon fill="none" stroke="#000" points="2208 -143 2208 -195 2981 -195 2981 -143 2208 -143"/></g><g id="clust13" class="cluster"><title>cluster_CategoriesModule</title><polygon fill="none" stroke="#000" stroke-dasharray="1 5" points="1302 -135 1302 -203 1456 -203 1456 -135 1302 -135"/></g><g id="clust16" class="cluster"><title>cluster_CategoriesModule_exports</title><polygon fill="none" stroke="#000" points="1310 -143 1310 -195 1448 -195 1448 -143 1310 -143"/></g><g id="clust19" class="cluster"><title>cluster_CoursesModule</title><polygon fill="none" stroke="#000" stroke-dasharray="1 5" points="1464 -135 1464 -203 1768 -203 1768 -135 1464 -135"/></g><g id="clust22" class="cluster"><title>cluster_CoursesModule_exports</title><polygon fill="none" stroke="#000" points="1638 -143 1638 -195 1760 -195 1760 -143 1638 -143"/></g><g id="clust24" class="cluster"><title>cluster_CoursesModule_providers</title><polygon fill="none" stroke="#000" points="1472 -143 1472 -195 1630 -195 1630 -143 1472 -143"/></g><g id="clust31" class="cluster"><title>cluster_MailModule</title><polygon fill="none" stroke="#000" stroke-dasharray="1 5" points="1776 -135 1776 -203 1896 -203 1896 -135 1776 -135"/></g><g id="clust34" class="cluster"><title>cluster_MailModule_exports</title><polygon fill="none" stroke="#000" points="1784 -143 1784 -195 1888 -195 1888 -143 1784 -143"/></g><g id="clust37" class="cluster"><title>cluster_ProfileModule</title><polygon fill="none" stroke="#000" stroke-dasharray="1 5" points="3111 -135 3111 -203 3541 -203 3541 -135 3111 -135"/></g><g id="clust40" class="cluster"><title>cluster_ProfileModule_exports</title><polygon fill="none" stroke="#000" points="3417 -143 3417 -195 3533 -195 3533 -143 3417 -143"/></g><g id="clust42" class="cluster"><title>cluster_ProfileModule_providers</title><polygon fill="none" stroke="#000" points="3119 -143 3119 -195 3409 -195 3409 -143 3119 -143"/></g><g id="clust49" class="cluster"><title>cluster_StagesModule</title><polygon fill="none" stroke="#000" stroke-dasharray="1 5" points="8 -211 8 -279 292 -279 292 -211 8 -211"/></g><g id="clust52" class="cluster"><title>cluster_StagesModule_exports</title><polygon fill="none" stroke="#000" points="170 -219 170 -271 284 -271 284 -219 170 -219"/></g><g id="clust54" class="cluster"><title>cluster_StagesModule_providers</title><polygon fill="none" stroke="#000" points="16 -219 16 -271 162 -271 162 -219 16 -219"/></g><g id="clust55" class="cluster"><title>cluster_TasksModule</title><polygon fill="none" stroke="#000" stroke-dasharray="1 5" points="1302 -287 1302 -355 1578 -355 1578 -287 1302 -287"/></g><g id="clust58" class="cluster"><title>cluster_TasksModule_exports</title><polygon fill="none" stroke="#000" points="1460 -295 1460 -347 1570 -347 1570 -295 1460 -295"/></g><g id="clust60" class="cluster"><title>cluster_TasksModule_providers</title><polygon fill="none" stroke="#000" points="1310 -295 1310 -347 1452 -347 1452 -295 1310 -295"/></g><g id="clust61" class="cluster"><title>cluster_TracksModule</title><polygon fill="none" stroke="#000" stroke-dasharray="1 5" points="1904 -135 1904 -203 2192 -203 2192 -135 1904 -135"/></g><g id="clust64" class="cluster"><title>cluster_TracksModule_exports</title><polygon fill="none" stroke="#000" points="2068 -143 2068 -195 2184 -195 2184 -143 2068 -143"/></g><g id="clust66" class="cluster"><title>cluster_TracksModule_providers</title><polygon fill="none" stroke="#000" points="1912 -143 1912 -195 2060 -195 2060 -143 1912 -143"/></g><g id="clust67" class="cluster"><title>cluster_UsersModule</title><polygon fill="none" stroke="#000" stroke-dasharray="1 5" points="300 -211 300 -279 426 -279 426 -211 300 -211"/></g><g id="clust70" class="cluster"><title>cluster_UsersModule_exports</title><polygon fill="none" stroke="#000" points="308 -219 308 -271 418 -271 418 -219 308 -219"/></g><g id="node1" class="node"><title>AuthModule</title><polygon fill="#8dd3c7" stroke="#000" points="1161.548 -263 1158.548 -267 1137.548 -267 1134.548 -263 1074.452 -263 1074.452 -227 1161.548 -227 1161.548 -263"/><text x="1118" y="-240.8" fill="#000" font-family="Times,serif" font-size="14" text-anchor="middle">AuthModule</text></g><g id="node11" class="node"><title>AppModule</title><polygon fill="#8dd3c7" stroke="#000" points="584.657 -339 581.657 -343 560.657 -343 557.657 -339 501.343 -339 501.343 -303 584.657 -303 584.657 -339"/><text x="543" y="-316.8" fill="#000" font-family="Times,serif" font-size="14" text-anchor="middle">AppModule</text></g><g id="edge1" class="edge"><title>AuthModule-&gt;AppModule</title><path fill="none" stroke="#000" d="M1118,-263.2267C1118,-287.9318 1118,-329 1118,-329 1118,-329 594.8158,-329 594.8158,-329"/><polygon fill="#000" stroke="#000" points="594.816 -325.5 584.816 -329 594.816 -332.5 594.816 -325.5"/></g><g id="node13" class="node"><title>AuthService</title><polygon fill="#fb8072" stroke="#000" points="3086.976 -187 2997.024 -187 2997.024 -151 3086.976 -151 3086.976 -187"/><text x="3042" y="-164.8" fill="#000" font-family="Times,serif" font-size="14" text-anchor="middle">AuthService</text></g><g id="edge13" class="edge"><title>AuthModule-&gt;AuthService</title><path fill="none" stroke="#000" stroke-dasharray="5 2" d="M1105.6201,-226.68C1105.6201,-218.2117 1105.6201,-210 1105.6201,-210 1105.6201,-210 3042,-210 3042,-210 3042,-210 3042,-197.1025 3042,-197.1025"/><polygon fill="#000" stroke="#000" points="3045.5 -197.102 3042 -187.102 3038.5 -197.103 3045.5 -197.102"/></g><g id="node2" class="node"><title>CategoriesModule</title><polygon fill="#8dd3c7" stroke="#000" points="935.917 -122 932.917 -126 911.917 -126 908.917 -122 816.083 -122 816.083 -86 935.917 -86 935.917 -122"/><text x="876" y="-99.8" fill="#000" font-family="Times,serif" font-size="14" text-anchor="middle">CategoriesModule</text></g><g id="edge2" class="edge"><title>CategoriesModule-&gt;AppModule</title><path fill="none" stroke="#000" d="M895.9028,-122.2688C895.9028,-173.3605 895.9028,-314 895.9028,-314 895.9028,-314 594.8684,-314 594.8684,-314"/><polygon fill="#000" stroke="#000" points="594.868 -310.5 584.868 -314 594.868 -317.5 594.868 -310.5"/></g><g id="node19" class="node"><title>CategoriesService</title><polygon fill="#fb8072" stroke="#000" points="1439.845 -187 1318.155 -187 1318.155 -151 1439.845 -151 1439.845 -187"/><text x="1379" y="-164.8" fill="#000" font-family="Times,serif" font-size="14" text-anchor="middle">CategoriesService</text></g><g id="edge19" class="edge"><title>CategoriesModule-&gt;CategoriesService</title><path fill="none" stroke="#000" stroke-dasharray="5 2" d="M856.0972,-122.1505C856.0972,-134.2708 856.0972,-148 856.0972,-148 856.0972,-148 1379,-148 1379,-148 1379,-148 1379,-148.292 1379,-148.292"/><polygon fill="#000" stroke="#000" points="1375.5 -140.92 1379 -150.92 1382.5 -140.92 1375.5 -140.92"/></g><g id="node3" class="node"><title>CoursesModule</title><polygon fill="#8dd3c7" stroke="#000" points="1058.151 -122 1055.151 -126 1034.151 -126 1031.151 -122 953.849 -122 953.849 -86 1058.151 -86 1058.151 -122"/><text x="1006" y="-99.8" fill="#000" font-family="Times,serif" font-size="14" text-anchor="middle">CoursesModule</text></g><g id="edge3" class="edge"><title>CoursesModule-&gt;AppModule</title><path fill="none" stroke="#000" d="M958.7858,-122.2455C958.7858,-173.9967 958.7858,-318 958.7858,-318 958.7858,-318 594.7708,-318 594.7708,-318"/><polygon fill="#000" stroke="#000" points="594.771 -314.5 584.771 -318 594.771 -321.5 594.771 -314.5"/></g><g id="node20" class="node"><title>CoursesService</title><polygon fill="#fb8072" stroke="#000" points="1752.079 -187 1645.921 -187 1645.921 -151 1752.079 -151 1752.079 -187"/><text x="1699" y="-164.8" fill="#000" font-family="Times,serif" font-size="14" text-anchor="middle">CoursesService</text></g><g id="edge20" class="edge"><title>CoursesModule-&gt;CoursesService</title><path fill="none" stroke="#000" stroke-dasharray="5 2" d="M982.3381,-122.1097C982.3381,-131.897 982.3381,-142 982.3381,-142 982.3381,-142 1699,-142 1699,-142 1699,-142 1699,-142.8841 1699,-142.8841"/><polygon fill="#000" stroke="#000" points="1695.5 -140.841 1699 -150.841 1702.5 -140.841 1695.5 -140.841"/></g><g id="node4" class="node"><title>MailModule</title><polygon fill="#8dd3c7" stroke="#000" points="1277.99 -122 1274.99 -126 1253.99 -126 1250.99 -122 1192.01 -122 1192.01 -86 1277.99 -86 1277.99 -122"/><text x="1235" y="-99.8" fill="#000" font-family="Times,serif" font-size="14" text-anchor="middle">MailModule</text></g><g id="edge4" class="edge"><title>MailModule-&gt;AppModule</title><path fill="none" stroke="#000" d="M1234.9148,-122.1762C1234.9148,-148.9879 1234.9148,-196 1234.9148,-196 1234.9148,-196 541.9771,-196 541.9771,-196 541.9771,-196 541.9771,-292.8239 541.9771,-292.8239"/><polygon fill="#000" stroke="#000" points="538.477 -292.824 541.977 -302.824 545.477 -292.824 538.477 -292.824"/></g><g id="node22" class="node"><title>MailService</title><polygon fill="#fb8072" stroke="#000" points="1879.918 -187 1792.082 -187 1792.082 -151 1879.918 -151 1879.918 -187"/><text x="1836" y="-164.8" fill="#000" font-family="Times,serif" font-size="14" text-anchor="middle">MailService</text></g><g id="edge22" class="edge"><title>MailModule-&gt;MailService</title><path fill="none" stroke="#000" stroke-dasharray="5 2" d="M1278.2224,-110C1416.0263,-110 1836,-110 1836,-110 1836,-110 1836,-140.9775 1836,-140.9775"/><polygon fill="#000" stroke="#000" points="1832.5 -140.977 1836 -150.977 1839.5 -140.977 1832.5 -140.977"/></g><g id="node5" class="node"><title>ProfileModule</title><polygon fill="#8dd3c7" stroke="#000" points="1277.65 -263 1274.65 -267 1253.65 -267 1250.65 -263 1180.35 -263 1180.35 -227 1277.65 -227 1277.65 -263"/><text x="1229" y="-240.8" fill="#000" font-family="Times,serif" font-size="14" text-anchor="middle">ProfileModule</text></g><g id="edge5" class="edge"><title>ProfileModule-&gt;AppModule</title><path fill="none" stroke="#000" d="M1229,-263.4152C1229,-290.0057 1229,-336 1229,-336 1229,-336 594.8797,-336 594.8797,-336"/><polygon fill="#000" stroke="#000" points="594.88 -332.5 584.88 -336 594.88 -339.5 594.88 -332.5"/></g><g id="node23" class="node"><title>ProfileService</title><polygon fill="#fb8072" stroke="#000" points="3524.578 -187 3425.422 -187 3425.422 -151 3524.578 -151 3524.578 -187"/><text x="3475" y="-164.8" fill="#000" font-family="Times,serif" font-size="14" text-anchor="middle">ProfileService</text></g><g id="edge25" class="edge"><title>ProfileModule-&gt;ProfileService</title><path fill="none" stroke="#000" stroke-dasharray="5 2" d="M1277.7363,-254C1605.4544,-254 3475,-254 3475,-254 3475,-254 3475,-197.0263 3475,-197.0263"/><polygon fill="#000" stroke="#000" points="3478.5 -197.026 3475 -187.026 3471.5 -197.026 3478.5 -197.026"/></g><g id="node6" class="node"><title>SharedModule</title><polygon fill="#8dd3c7" stroke="#000" points="798.423 -122 795.423 -126 774.423 -126 771.423 -122 699.577 -122 699.577 -86 798.423 -86 798.423 -122"/><text x="749" y="-99.8" fill="#000" font-family="Times,serif" font-size="14" text-anchor="middle">SharedModule</text></g><g id="edge6" class="edge"><title>SharedModule-&gt;AppModule</title><path fill="none" stroke="#000" d="M699.652,-104C632.7644,-104 521.5745,-104 521.5745,-104 521.5745,-104 521.5745,-292.8719 521.5745,-292.8719"/><polygon fill="#000" stroke="#000" points="518.075 -292.872 521.574 -302.872 525.075 -292.872 518.075 -292.872"/></g><g id="node7" class="node"><title>StagesModule</title><polygon fill="#8dd3c7" stroke="#000" points="796.097 -187 793.097 -191 772.097 -191 769.097 -187 699.903 -187 699.903 -151 796.097 -151 796.097 -187"/><text x="748" y="-164.8" fill="#000" font-family="Times,serif" font-size="14" text-anchor="middle">StagesModule</text></g><g id="node8" class="node"><title>TasksModule</title><polygon fill="#8dd3c7" stroke="#000" points="1056.206 -263 1053.206 -267 1032.206 -267 1029.206 -263 963.794 -263 963.794 -227 1056.206 -227 1056.206 -263"/><text x="1010" y="-240.8" fill="#000" font-family="Times,serif" font-size="14" text-anchor="middle">TasksModule</text></g><g id="edge31" class="edge"><title>StagesModule-&gt;TasksModule</title><path fill="none" stroke="#000" d="M796.1763,-169C874.1143,-169 1019.2206,-169 1019.2206,-169 1019.2206,-169 1019.2206,-216.9891 1019.2206,-216.9891"/><polygon fill="#000" stroke="#000" points="1015.721 -216.989 1019.221 -226.989 1022.721 -216.989 1015.721 -216.989"/></g><g id="edge7" class="edge"><title>StagesModule-&gt;AppModule</title><path fill="none" stroke="#000" d="M748,-187.2733C748,-225.6253 748,-311 748,-311 748,-311 594.9795,-311 594.9795,-311"/><polygon fill="#000" stroke="#000" points="594.98 -307.5 584.98 -311 594.98 -314.5 594.98 -307.5"/></g><g id="node26" class="node"><title>StagesService</title><polygon fill="#fb8072" stroke="#000" points="276.025 -263 177.975 -263 177.975 -227 276.025 -227 276.025 -263"/><text x="227" y="-240.8" fill="#000" font-family="Times,serif" font-size="14" text-anchor="middle">StagesService</text></g><g id="edge29" class="edge"><title>StagesModule-&gt;StagesService</title><path fill="none" stroke="#000" stroke-dasharray="5 2" d="M699.9194,-175C570.9414,-175 227,-175 227,-175 227,-175 227,-216.9733 227,-216.9733"/><polygon fill="#000" stroke="#000" points="223.5 -216.973 227 -226.973 230.5 -216.973 223.5 -216.973"/></g><g id="edge8" class="edge"><title>TasksModule-&gt;AppModule</title><path fill="none" stroke="#000" d="M1010,-263.0109C1010,-285.4852 1010,-321 1010,-321 1010,-321 594.8541,-321 594.8541,-321"/><polygon fill="#000" stroke="#000" points="594.854 -317.5 584.854 -321 594.854 -324.5 594.854 -317.5"/></g><g id="node28" class="node"><title>TasksService</title><polygon fill="#fb8072" stroke="#000" points="1562.134 -339 1467.866 -339 1467.866 -303 1562.134 -303 1562.134 -339"/><text x="1515" y="-316.8" fill="#000" font-family="Times,serif" font-size="14" text-anchor="middle">TasksService</text></g><g id="edge34" class="edge"><title>TasksModule-&gt;TasksService</title><path fill="none" stroke="#000" stroke-dasharray="5 2" d="M986.9485,-263.1097C986.9485,-272.897 986.9485,-283 986.9485,-283 986.9485,-283 1473.9156,-283 1473.9156,-283 1473.9156,-283 1473.9156,-292.8903 1473.9156,-292.8903"/><polygon fill="#000" stroke="#000" points="1470.416 -292.89 1473.916 -302.89 1477.416 -292.89 1470.416 -292.89"/></g><g id="node9" class="node"><title>TracksModule</title><polygon fill="#8dd3c7" stroke="#000" points="1173.638 -122 1170.638 -126 1149.638 -126 1146.638 -122 1076.362 -122 1076.362 -86 1173.638 -86 1173.638 -122"/><text x="1125" y="-99.8" fill="#000" font-family="Times,serif" font-size="14" text-anchor="middle">TracksModule</text></g><g id="edge28" class="edge"><title>TracksModule-&gt;StagesModule</title><path fill="none" stroke="#000" d="M1095.3138,-122.207C1095.3138,-127.5549 1095.3138,-132 1095.3138,-132 1095.3138,-132 748,-132 748,-132 748,-132 748,-140.9336 748,-140.9336"/><polygon fill="#000" stroke="#000" points="744.5 -140.934 748 -150.934 751.5 -140.934 744.5 -140.934"/></g><g id="edge32" class="edge"><title>TracksModule-&gt;TasksModule</title><path fill="none" stroke="#000" d="M1114.446,-122.0328C1114.446,-128.8526 1114.446,-135 1114.446,-135 1114.446,-135 1037.6619,-135 1037.6619,-135 1037.6619,-135 1037.6619,-216.8357 1037.6619,-216.8357"/><polygon fill="#000" stroke="#000" points="1034.162 -216.836 1037.662 -226.836 1041.162 -216.836 1034.162 -216.836"/></g><g id="edge9" class="edge"><title>TracksModule-&gt;AppModule</title><path fill="none" stroke="#000" d="M1169.8034,-122.2728C1169.8034,-176.3763 1169.8034,-332 1169.8034,-332 1169.8034,-332 595.0996,-332 595.0996,-332"/><polygon fill="#000" stroke="#000" points="595.1 -328.5 585.1 -332 595.1 -335.5 595.1 -328.5"/></g><g id="node30" class="node"><title>TracksService</title><polygon fill="#fb8072" stroke="#000" points="2175.566 -187 2076.434 -187 2076.434 -151 2175.566 -151 2175.566 -187"/><text x="2126" y="-164.8" fill="#000" font-family="Times,serif" font-size="14" text-anchor="middle">TracksService</text></g><g id="edge36" class="edge"><title>TracksModule-&gt;TracksService</title><path fill="none" stroke="#000" stroke-dasharray="5 2" d="M1159.9609,-122.1679C1159.9609,-124.4478 1159.9609,-126 1159.9609,-126 1159.9609,-126 2126,-126 2126,-126 2126,-126 2126,-140.5146 2126,-140.5146"/><polygon fill="#000" stroke="#000" points="2122.5 -140.514 2126 -150.515 2129.5 -140.515 2122.5 -140.514"/></g><g id="node10" class="node"><title>UsersModule</title><polygon fill="#8dd3c7" stroke="#000" points="1152.922 -187 1149.922 -191 1128.922 -191 1125.922 -187 1061.078 -187 1061.078 -151 1152.922 -151 1152.922 -187"/><text x="1107" y="-164.8" fill="#000" font-family="Times,serif" font-size="14" text-anchor="middle">UsersModule</text></g><g id="edge12" class="edge"><title>UsersModule-&gt;AuthModule</title><path fill="none" stroke="#000" d="M1089.9233,-187.0109C1089.9233,-187.0109 1089.9233,-216.855 1089.9233,-216.855"/><polygon fill="#000" stroke="#000" points="1086.423 -216.855 1089.923 -226.855 1093.423 -216.855 1086.423 -216.855"/></g><g id="edge24" class="edge"><title>UsersModule-&gt;ProfileModule</title><path fill="none" stroke="#000" d="M1153.007,-169C1170.4063,-169 1186.0901,-169 1186.0901,-169 1186.0901,-169 1186.0901,-216.9891 1186.0901,-216.9891"/><polygon fill="#000" stroke="#000" points="1182.59 -216.989 1186.09 -226.989 1189.59 -216.989 1182.59 -216.989"/></g><g id="edge33" class="edge"><title>UsersModule-&gt;TasksModule</title><path fill="none" stroke="#000" d="M1067.7581,-187.0109C1067.7581,-209.4852 1067.7581,-245 1067.7581,-245 1067.7581,-245 1066.3469,-245 1066.3469,-245"/><polygon fill="#000" stroke="#000" points="1066.347 -241.5 1056.347 -245 1066.347 -248.5 1066.347 -241.5"/></g><g id="edge10" class="edge"><title>UsersModule-&gt;AppModule</title><path fill="none" stroke="#000" d="M1070.9923,-187.2005C1070.9923,-228.3516 1070.9923,-325 1070.9923,-325 1070.9923,-325 594.872,-325 594.872,-325"/><polygon fill="#000" stroke="#000" points="594.872 -321.5 584.872 -325 594.872 -328.5 594.872 -321.5"/></g><g id="node32" class="node"><title>UsersService</title><polygon fill="#fb8072" stroke="#000" points="409.849 -263 316.151 -263 316.151 -227 409.849 -227 409.849 -263"/><text x="363" y="-240.8" fill="#000" font-family="Times,serif" font-size="14" text-anchor="middle">UsersService</text></g><g id="edge38" class="edge"><title>UsersModule-&gt;UsersService</title><path fill="none" stroke="#000" stroke-dasharray="5 2" d="M1064.5238,-187.1223C1064.5238,-189.9729 1064.5238,-192 1064.5238,-192 1064.5238,-192 363,-192 363,-192 363,-192 363,-216.7604 363,-216.7604"/><polygon fill="#000" stroke="#000" points="359.5 -216.76 363 -226.76 366.5 -216.76 359.5 -216.76"/></g><g id="node12" class="node"><title>AppService</title><ellipse cx="619" cy="-245" fill="#fdb462" stroke="#000" rx="56.741" ry="18"/><text x="619" y="-240.8" fill="#000" font-family="Times,serif" font-size="14" text-anchor="middle">AppService</text></g><g id="edge11" class="edge"><title>AppService-&gt;AppModule</title><path fill="none" stroke="#000" d="M573.604,-255.8889C573.604,-255.8889 573.604,-292.7946 573.604,-292.7946"/><polygon fill="#000" stroke="#000" points="570.104 -292.795 573.604 -302.795 577.104 -292.795 570.104 -292.795"/></g><g id="node14" class="node"><title>AuthService</title><ellipse cx="2275" cy="-169" fill="#fdb462" stroke="#000" rx="59.108" ry="18"/><text x="2275" y="-164.8" fill="#000" font-family="Times,serif" font-size="14" text-anchor="middle">AuthService</text></g><g id="edge14" class="edge"><title>AuthService-&gt;AuthModule</title><path fill="none" stroke="#000" d="M2275,-187.0439C2275,-199.5633 2275,-214 2275,-214 2275,-214 1154.523,-214 1154.523,-214 1154.523,-214 1154.523,-216.9672 1154.523,-216.9672"/><polygon fill="#000" stroke="#000" points="1151.023 -216.967 1154.523 -226.967 1158.023 -216.967 1151.023 -216.967"/></g><g id="node15" class="node"><title>JwtStrategy</title><ellipse cx="2916" cy="-169" fill="#fdb462" stroke="#000" rx="56.756" ry="18"/><text x="2916" y="-164.8" fill="#000" font-family="Times,serif" font-size="14" text-anchor="middle">JwtStrategy</text></g><g id="edge15" class="edge"><title>JwtStrategy-&gt;AuthModule</title><path fill="none" stroke="#000" d="M2916,-187C2916,-196 2916,-205 2916,-205 2916,-205 1137.0136,-205 1137.0136,-205 1137.0136,-205 1137.0136,-216.8726 1137.0136,-216.8726"/><polygon fill="#000" stroke="#000" points="1133.514 -216.873 1137.014 -226.873 1140.514 -216.873 1133.514 -216.873"/></g><g id="node16" class="node"><title>MailService</title><ellipse cx="2783" cy="-169" fill="#fdb462" stroke="#000" rx="58.461" ry="18"/><text x="2783" y="-164.8" fill="#000" font-family="Times,serif" font-size="14" text-anchor="middle">MailService</text></g><g id="edge16" class="edge"><title>MailService-&gt;AuthModule</title><path fill="none" stroke="#000" d="M2783,-187.2434C2783,-194.4297 2783,-201 2783,-201 2783,-201 1121.3168,-201 1121.3168,-201 1121.3168,-201 1121.3168,-216.8495 1121.3168,-216.8495"/><polygon fill="#000" stroke="#000" points="1117.817 -216.849 1121.317 -226.85 1124.817 -216.85 1117.817 -216.849"/></g><g id="edge23" class="edge"><title>MailService-&gt;MailModule</title><path fill="none" stroke="#000" d="M2783,-150.7157C2783,-129.6789 2783,-98 2783,-98 2783,-98 1288.018,-98 1288.018,-98"/><polygon fill="#000" stroke="#000" points="1288.018 -94.5 1278.018 -98 1288.018 -101.5 1288.018 -94.5"/></g><g id="node17" class="node"><title>SessionSerializer</title><ellipse cx="2629" cy="-169" fill="#fdb462" stroke="#000" rx="77.578" ry="18"/><text x="2629" y="-164.8" fill="#000" font-family="Times,serif" font-size="14" text-anchor="middle">SessionSerializer</text></g><g id="edge17" class="edge"><title>SessionSerializer-&gt;AuthModule</title><path fill="none" stroke="#000" d="M2629,-187.2819C2629,-202.9478 2629,-223 2629,-223 2629,-223 1158.1483,-223 1158.1483,-223 1158.1483,-223 1158.1483,-223.3832 1158.1483,-223.3832"/><polygon fill="#000" stroke="#000" points="1154.649 -216.832 1158.148 -226.832 1161.649 -216.832 1154.649 -216.832"/></g><g id="node18" class="node"><title>TempTokensService</title><ellipse cx="2443" cy="-169" fill="#fdb462" stroke="#000" rx="90.892" ry="18"/><text x="2443" y="-164.8" fill="#000" font-family="Times,serif" font-size="14" text-anchor="middle">TempTokensService</text></g><g id="edge18" class="edge"><title>TempTokensService-&gt;AuthModule</title><path fill="none" stroke="#000" d="M2443,-187.0511C2443,-201.373 2443,-219 2443,-219 2443,-219 1156.3356,-219 1156.3356,-219 1156.3356,-219 1156.3356,-219.7942 1156.3356,-219.7942"/><polygon fill="#000" stroke="#000" points="1152.836 -216.942 1156.336 -226.942 1159.836 -216.942 1152.836 -216.942"/></g><g id="node21" class="node"><title>CoursesService</title><ellipse cx="1551" cy="-169" fill="#fdb462" stroke="#000" rx="71.204" ry="18"/><text x="1551" y="-164.8" fill="#000" font-family="Times,serif" font-size="14" text-anchor="middle">CoursesService</text></g><g id="edge21" class="edge"><title>CoursesService-&gt;CoursesModule</title><path fill="none" stroke="#000" d="M1551,-150.8097C1551,-147.4624 1551,-145 1551,-145 1551,-145 1000.7794,-145 1000.7794,-145 1000.7794,-145 1000.7794,-132.1025 1000.7794,-132.1025"/><polygon fill="#000" stroke="#000" points="1004.279 -132.102 1000.779 -122.103 997.279 -132.103 1004.279 -132.102"/></g><g id="node24" class="node"><title>ProfileService</title><ellipse cx="3193" cy="-169" fill="#fdb462" stroke="#000" rx="66.045" ry="18"/><text x="3193" y="-164.8" fill="#000" font-family="Times,serif" font-size="14" text-anchor="middle">ProfileService</text></g><g id="edge26" class="edge"><title>ProfileService-&gt;ProfileModule</title><path fill="none" stroke="#000" d="M3193,-187.308C3193,-207.1455 3193,-236 3193,-236 3193,-236 1288.0386,-236 1288.0386,-236"/><polygon fill="#000" stroke="#000" points="1288.039 -232.5 1278.039 -236 1288.039 -239.5 1288.039 -232.5"/></g><g id="node25" class="node"><title>UsersService</title><ellipse cx="3339" cy="-169" fill="#fdb462" stroke="#000" rx="61.952" ry="18"/><text x="3339" y="-164.8" fill="#000" font-family="Times,serif" font-size="14" text-anchor="middle">UsersService</text></g><g id="edge27" class="edge"><title>UsersService-&gt;ProfileModule</title><path fill="none" stroke="#000" d="M3339,-187.0109C3339,-209.4852 3339,-245 3339,-245 3339,-245 1287.7957,-245 1287.7957,-245"/><polygon fill="#000" stroke="#000" points="1287.796 -241.5 1277.796 -245 1287.796 -248.5 1287.796 -241.5"/></g><g id="edge39" class="edge"><title>UsersService-&gt;UsersModule</title><path fill="none" stroke="#000" d="M3339,-150.8568C3339,-144.5389 3339,-139 3339,-139 3339,-139 1133.5782,-139 1133.5782,-139 1133.5782,-139 1133.5782,-140.8568 1133.5782,-140.8568"/><polygon fill="#000" stroke="#000" points="1130.078 -140.857 1133.578 -150.857 1137.078 -140.857 1130.078 -140.857"/></g><g id="node27" class="node"><title>StagesService</title><ellipse cx="89" cy="-245" fill="#fdb462" stroke="#000" rx="65.403" ry="18"/><text x="89" y="-240.8" fill="#000" font-family="Times,serif" font-size="14" text-anchor="middle">StagesService</text></g><g id="edge30" class="edge"><title>StagesService-&gt;StagesModule</title><path fill="none" stroke="#000" d="M89,-226.8015C89,-202.6437 89,-163 89,-163 89,-163 689.8092,-163 689.8092,-163"/><polygon fill="#000" stroke="#000" points="689.809 -166.5 699.809 -163 689.809 -159.5 689.809 -166.5"/></g><g id="node29" class="node"><title>TasksService</title><ellipse cx="1381" cy="-321" fill="#fdb462" stroke="#000" rx="62.535" ry="18"/><text x="1381" y="-316.8" fill="#000" font-family="Times,serif" font-size="14" text-anchor="middle">TasksService</text></g><g id="edge35" class="edge"><title>TasksService-&gt;TasksModule</title><path fill="none" stroke="#000" d="M1341.4246,-307C1250.2277,-307 1033.0516,-307 1033.0516,-307 1033.0516,-307 1033.0516,-273.2667 1033.0516,-273.2667"/><polygon fill="#000" stroke="#000" points="1036.552 -273.267 1033.052 -263.267 1029.552 -273.267 1036.552 -273.267"/></g><g id="node31" class="node"><title>TracksService</title><ellipse cx="1986" cy="-169" fill="#fdb462" stroke="#000" rx="66.028" ry="18"/><text x="1986" y="-164.8" fill="#000" font-family="Times,serif" font-size="14" text-anchor="middle">TracksService</text></g><g id="edge37" class="edge"><title>TracksService-&gt;TracksModule</title><path fill="none" stroke="#000" d="M1986,-150.8726C1986,-140.2891 1986,-129 1986,-129 1986,-129 1165.7885,-129 1165.7885,-129 1165.7885,-129 1165.7885,-128.3169 1165.7885,-128.3169"/><polygon fill="#000" stroke="#000" points="1169.289 -132.169 1165.789 -122.169 1162.289 -132.169 1169.289 -132.169"/></g></g></svg>
