<?xml version="1.0" encoding="UTF-8" standalone="no"?>
<!DOCTYPE svg PUBLIC "-//W3C//DTD SVG 1.1//EN"
 "http://www.w3.org/Graphics/SVG/1.1/DTD/svg11.dtd">
<!-- Generated by graphviz version 2.40.1 (20161225.0304)
 -->
<!-- Title: dependencies Pages: 1 -->
<svg width="3003pt" height="512pt"
 viewBox="0.00 0.00 3003.00 512.00" xmlns="http://www.w3.org/2000/svg" xmlns:xlink="http://www.w3.org/1999/xlink">
<g id="graph0" class="graph" transform="scale(1 1) rotate(0) translate(4 508)">
<title>dependencies</title>
<polygon fill="#ffffff" stroke="transparent" points="-4,4 -4,-508 2999,-508 2999,4 -4,4"/>
<text text-anchor="start" x="1476.5091" y="-42.4" font-family="sans-serif" font-weight="bold" font-size="14.00" fill="#000000">Legend</text>
<polygon fill="#ffffb3" stroke="transparent" points="1263.5,-10 1263.5,-30 1283.5,-30 1283.5,-10 1263.5,-10"/>
<text text-anchor="start" x="1287.129" y="-15.4" font-family="sans-serif" font-size="14.00" fill="#000000"> &#160;Declarations</text>
<polygon fill="#8dd3c7" stroke="transparent" points="1376.5,-10 1376.5,-30 1396.5,-30 1396.5,-10 1376.5,-10"/>
<text text-anchor="start" x="1400.2251" y="-15.4" font-family="sans-serif" font-size="14.00" fill="#000000"> &#160;Module</text>
<polygon fill="#80b1d3" stroke="transparent" points="1462.5,-10 1462.5,-30 1482.5,-30 1482.5,-10 1462.5,-10"/>
<text text-anchor="start" x="1486.2812" y="-15.4" font-family="sans-serif" font-size="14.00" fill="#000000"> &#160;Bootstrap</text>
<polygon fill="#fdb462" stroke="transparent" points="1559.5,-10 1559.5,-30 1579.5,-30 1579.5,-10 1559.5,-10"/>
<text text-anchor="start" x="1583.1732" y="-15.4" font-family="sans-serif" font-size="14.00" fill="#000000"> &#160;Providers</text>
<polygon fill="#fb8072" stroke="transparent" points="1655.5,-10 1655.5,-30 1675.5,-30 1675.5,-10 1655.5,-10"/>
<text text-anchor="start" x="1679.2258" y="-15.4" font-family="sans-serif" font-size="14.00" fill="#000000"> &#160;Exports</text>
<g id="clust1" class="cluster">
<title>cluster_AppModule</title>
<polygon fill="none" stroke="#000000" stroke-dasharray="1,5" points="919,-70 919,-488 1651,-488 1651,-70 919,-70"/>
</g>
<g id="clust3" class="cluster">
<title>cluster_AppModule_imports</title>
<polygon fill="none" stroke="#000000" points="1177,-78 1177,-412 1643,-412 1643,-78 1177,-78"/>
</g>
<g id="clust6" class="cluster">
<title>cluster_AppModule_providers</title>
<polygon fill="none" stroke="#000000" points="1039,-360 1039,-412 1169,-412 1169,-360 1039,-360"/>
</g>
<g id="clust7" class="cluster">
<title>cluster_AuthModule</title>
<polygon fill="none" stroke="#000000" stroke-dasharray="1,5" points="8,-70 8,-138 911,-138 911,-70 8,-70"/>
</g>
<g id="clust10" class="cluster">
<title>cluster_AuthModule_exports</title>
<polygon fill="none" stroke="#000000" points="797,-78 797,-130 903,-130 903,-78 797,-78"/>
</g>
<g id="clust12" class="cluster">
<title>cluster_AuthModule_providers</title>
<polygon fill="none" stroke="#000000" points="16,-78 16,-130 789,-130 789,-78 16,-78"/>
</g>
<g id="clust13" class="cluster">
<title>cluster_CategoriesModule</title>
<polygon fill="none" stroke="#000000" stroke-dasharray="1,5" points="1659,-146 1659,-214 1813,-214 1813,-146 1659,-146"/>
</g>
<g id="clust16" class="cluster">
<title>cluster_CategoriesModule_exports</title>
<polygon fill="none" stroke="#000000" points="1667,-154 1667,-206 1805,-206 1805,-154 1667,-154"/>
</g>
<g id="clust19" class="cluster">
<title>cluster_CoursesModule</title>
<polygon fill="none" stroke="#000000" stroke-dasharray="1,5" points="1659,-352 1659,-420 1963,-420 1963,-352 1659,-352"/>
</g>
<g id="clust22" class="cluster">
<title>cluster_CoursesModule_exports</title>
<polygon fill="none" stroke="#000000" points="1833,-360 1833,-412 1955,-412 1955,-360 1833,-360"/>
</g>
<g id="clust24" class="cluster">
<title>cluster_CoursesModule_providers</title>
<polygon fill="none" stroke="#000000" points="1667,-360 1667,-412 1825,-412 1825,-360 1667,-360"/>
</g>
<g id="clust31" class="cluster">
<title>cluster_MailModule</title>
<polygon fill="none" stroke="#000000" stroke-dasharray="1,5" points="1821,-146 1821,-214 1941,-214 1941,-146 1821,-146"/>
</g>
<g id="clust34" class="cluster">
<title>cluster_MailModule_exports</title>
<polygon fill="none" stroke="#000000" points="1829,-154 1829,-206 1933,-206 1933,-154 1829,-154"/>
</g>
<g id="clust37" class="cluster">
<title>cluster_MentorModule</title>
<polygon fill="none" stroke="#000000" stroke-dasharray="1,5" points="617,-222 617,-290 911,-290 911,-222 617,-222"/>
</g>
<g id="clust40" class="cluster">
<title>cluster_MentorModule_exports</title>
<polygon fill="none" stroke="#000000" points="785,-230 785,-282 903,-282 903,-230 785,-230"/>
</g>
<g id="clust42" class="cluster">
<title>cluster_MentorModule_providers</title>
<polygon fill="none" stroke="#000000" points="625,-230 625,-282 777,-282 777,-230 625,-230"/>
</g>
<g id="clust43" class="cluster">
<title>cluster_ProfileModule</title>
<polygon fill="none" stroke="#000000" stroke-dasharray="1,5" points="2083,-146 2083,-214 2513,-214 2513,-146 2083,-146"/>
</g>
<g id="clust46" class="cluster">
<title>cluster_ProfileModule_exports</title>
<polygon fill="none" stroke="#000000" points="2389,-154 2389,-206 2505,-206 2505,-154 2389,-154"/>
</g>
<g id="clust48" class="cluster">
<title>cluster_ProfileModule_providers</title>
<polygon fill="none" stroke="#000000" points="2091,-154 2091,-206 2381,-206 2381,-154 2091,-154"/>
</g>
<g id="clust55" class="cluster">
<title>cluster_StagesModule</title>
<polygon fill="none" stroke="#000000" stroke-dasharray="1,5" points="1971,-352 1971,-420 2255,-420 2255,-352 1971,-352"/>
</g>
<g id="clust58" class="cluster">
<title>cluster_StagesModule_exports</title>
<polygon fill="none" stroke="#000000" points="2133,-360 2133,-412 2247,-412 2247,-360 2133,-360"/>
</g>
<g id="clust60" class="cluster">
<title>cluster_StagesModule_providers</title>
<polygon fill="none" stroke="#000000" points="1979,-360 1979,-412 2125,-412 2125,-360 1979,-360"/>
</g>
<g id="clust61" class="cluster">
<title>cluster_TasksModule</title>
<polygon fill="none" stroke="#000000" stroke-dasharray="1,5" points="1659,-428 1659,-496 1935,-496 1935,-428 1659,-428"/>
</g>
<g id="clust64" class="cluster">
<title>cluster_TasksModule_exports</title>
<polygon fill="none" stroke="#000000" points="1817,-436 1817,-488 1927,-488 1927,-436 1817,-436"/>
</g>
<g id="clust66" class="cluster">
<title>cluster_TasksModule_providers</title>
<polygon fill="none" stroke="#000000" points="1667,-436 1667,-488 1809,-488 1809,-436 1667,-436"/>
</g>
<g id="clust67" class="cluster">
<title>cluster_TracksModule</title>
<polygon fill="none" stroke="#000000" stroke-dasharray="1,5" points="2521,-146 2521,-214 2987,-214 2987,-146 2521,-146"/>
</g>
<g id="clust70" class="cluster">
<title>cluster_TracksModule_exports</title>
<polygon fill="none" stroke="#000000" points="2863,-154 2863,-206 2979,-206 2979,-154 2863,-154"/>
</g>
<g id="clust72" class="cluster">
<title>cluster_TracksModule_providers</title>
<polygon fill="none" stroke="#000000" points="2529,-154 2529,-206 2855,-206 2855,-154 2529,-154"/>
</g>
<g id="clust73" class="cluster">
<title>cluster_UsersModule</title>
<polygon fill="none" stroke="#000000" stroke-dasharray="1,5" points="1949,-146 1949,-214 2075,-214 2075,-146 1949,-146"/>
</g>
<g id="clust76" class="cluster">
<title>cluster_UsersModule_exports</title>
<polygon fill="none" stroke="#000000" points="1957,-154 1957,-206 2067,-206 2067,-154 1957,-154"/>
</g>
<!-- AuthModule -->
<g id="node1" class="node">
<title>AuthModule</title>
<polygon fill="#8dd3c7" stroke="#000000" points="1272.5482,-198 1269.5482,-202 1248.5482,-202 1245.5482,-198 1185.4518,-198 1185.4518,-162 1272.5482,-162 1272.5482,-198"/>
<text text-anchor="middle" x="1229" y="-175.8" font-family="Times,serif" font-size="14.00" fill="#000000">AuthModule</text>
</g>
<!-- AppModule -->
<g id="node12" class="node">
<title>AppModule</title>
<polygon fill="#8dd3c7" stroke="#000000" points="1107.6571,-480 1104.6571,-484 1083.6571,-484 1080.6571,-480 1024.3429,-480 1024.3429,-444 1107.6571,-444 1107.6571,-480"/>
<text text-anchor="middle" x="1066" y="-457.8" font-family="Times,serif" font-size="14.00" fill="#000000">AppModule</text>
</g>
<!-- AuthModule&#45;&gt;AppModule -->
<g id="edge1" class="edge">
<title>AuthModule&#45;&gt;AppModule</title>
<path fill="none" stroke="#000000" d="M1229,-198.0004C1229,-258.0893 1229,-448 1229,-448 1229,-448 1117.9766,-448 1117.9766,-448"/>
<polygon fill="#000000" stroke="#000000" points="1117.9766,-444.5001 1107.9766,-448 1117.9765,-451.5001 1117.9766,-444.5001"/>
</g>
<!-- AuthService  -->
<g id="node14" class="node">
<title>AuthService </title>
<polygon fill="#fb8072" stroke="#000000" points="894.9761,-122 805.0239,-122 805.0239,-86 894.9761,-86 894.9761,-122"/>
<text text-anchor="middle" x="850" y="-99.8" font-family="Times,serif" font-size="14.00" fill="#000000">AuthService </text>
</g>
<!-- AuthModule&#45;&gt;AuthService  -->
<g id="edge14" class="edge">
<title>AuthModule&#45;&gt;AuthService </title>
<path fill="none" stroke="#000000" stroke-dasharray="5,2" d="M1185.1536,-168C1085.3891,-168 850,-168 850,-168 850,-168 850,-132.1686 850,-132.1686"/>
<polygon fill="#000000" stroke="#000000" points="853.5001,-132.1686 850,-122.1686 846.5001,-132.1687 853.5001,-132.1686"/>
</g>
<!-- CategoriesModule -->
<g id="node2" class="node">
<title>CategoriesModule</title>
<polygon fill="#8dd3c7" stroke="#000000" points="1420.9173,-122 1417.9173,-126 1396.9173,-126 1393.9173,-122 1301.0827,-122 1301.0827,-86 1420.9173,-86 1420.9173,-122"/>
<text text-anchor="middle" x="1361" y="-99.8" font-family="Times,serif" font-size="14.00" fill="#000000">CategoriesModule</text>
</g>
<!-- CategoriesModule&#45;&gt;AppModule -->
<g id="edge2" class="edge">
<title>CategoriesModule&#45;&gt;AppModule</title>
<path fill="none" stroke="#000000" d="M1399.8116,-122.4294C1399.8116,-194.8561 1399.8116,-456 1399.8116,-456 1399.8116,-456 1117.9395,-456 1117.9395,-456"/>
<polygon fill="#000000" stroke="#000000" points="1117.9395,-452.5001 1107.9395,-456 1117.9394,-459.5001 1117.9395,-452.5001"/>
</g>
<!-- CategoriesService  -->
<g id="node20" class="node">
<title>CategoriesService </title>
<polygon fill="#fb8072" stroke="#000000" points="1796.8449,-198 1675.1551,-198 1675.1551,-162 1796.8449,-162 1796.8449,-198"/>
<text text-anchor="middle" x="1736" y="-175.8" font-family="Times,serif" font-size="14.00" fill="#000000">CategoriesService </text>
</g>
<!-- CategoriesModule&#45;&gt;CategoriesService  -->
<g id="edge20" class="edge">
<title>CategoriesModule&#45;&gt;CategoriesService </title>
<path fill="none" stroke="#000000" stroke-dasharray="5,2" d="M1408.2431,-122.0449C1408.2431,-143.6623 1408.2431,-177 1408.2431,-177 1408.2431,-177 1665.1196,-177 1665.1196,-177"/>
<polygon fill="#000000" stroke="#000000" points="1665.1196,-180.5001 1675.1196,-177 1665.1195,-173.5001 1665.1196,-180.5001"/>
</g>
<!-- CoursesModule -->
<g id="node3" class="node">
<title>CoursesModule</title>
<polygon fill="#8dd3c7" stroke="#000000" points="1521.1514,-339 1518.1514,-343 1497.1514,-343 1494.1514,-339 1416.8486,-339 1416.8486,-303 1521.1514,-303 1521.1514,-339"/>
<text text-anchor="middle" x="1469" y="-316.8" font-family="Times,serif" font-size="14.00" fill="#000000">CoursesModule</text>
</g>
<!-- TasksModule -->
<g id="node9" class="node">
<title>TasksModule</title>
<polygon fill="#8dd3c7" stroke="#000000" points="1515.2064,-404 1512.2064,-408 1491.2064,-408 1488.2064,-404 1422.7936,-404 1422.7936,-368 1515.2064,-368 1515.2064,-404"/>
<text text-anchor="middle" x="1469" y="-381.8" font-family="Times,serif" font-size="14.00" fill="#000000">TasksModule</text>
</g>
<!-- CoursesModule&#45;&gt;TasksModule -->
<g id="edge36" class="edge">
<title>CoursesModule&#45;&gt;TasksModule</title>
<path fill="none" stroke="#000000" d="M1453.6323,-339.1061C1453.6323,-339.1061 1453.6323,-357.991 1453.6323,-357.991"/>
<polygon fill="#000000" stroke="#000000" points="1450.1324,-357.9909 1453.6323,-367.991 1457.1324,-357.991 1450.1324,-357.9909"/>
</g>
<!-- CoursesModule&#45;&gt;AppModule -->
<g id="edge3" class="edge">
<title>CoursesModule&#45;&gt;AppModule</title>
<path fill="none" stroke="#000000" d="M1416.7319,-321C1302.9078,-321 1042.7382,-321 1042.7382,-321 1042.7382,-321 1042.7382,-433.8554 1042.7382,-433.8554"/>
<polygon fill="#000000" stroke="#000000" points="1039.2383,-433.8553 1042.7382,-443.8554 1046.2383,-433.8554 1039.2383,-433.8553"/>
</g>
<!-- CoursesService  -->
<g id="node21" class="node">
<title>CoursesService </title>
<polygon fill="#fb8072" stroke="#000000" points="1947.0794,-404 1840.9206,-404 1840.9206,-368 1947.0794,-368 1947.0794,-404"/>
<text text-anchor="middle" x="1894" y="-381.8" font-family="Times,serif" font-size="14.00" fill="#000000">CoursesService </text>
</g>
<!-- CoursesModule&#45;&gt;CoursesService  -->
<g id="edge21" class="edge">
<title>CoursesModule&#45;&gt;CoursesService </title>
<path fill="none" stroke="#000000" stroke-dasharray="5,2" d="M1484.3677,-339.0449C1484.3677,-346.749 1484.3677,-354 1484.3677,-354 1484.3677,-354 1882.8349,-354 1882.8349,-354 1882.8349,-354 1882.8349,-357.7566 1882.8349,-357.7566"/>
<polygon fill="#000000" stroke="#000000" points="1879.3349,-357.7566 1882.8349,-367.7566 1886.3349,-357.7566 1879.3349,-357.7566"/>
</g>
<!-- MailModule -->
<g id="node4" class="node">
<title>MailModule</title>
<polygon fill="#8dd3c7" stroke="#000000" points="1524.9902,-122 1521.9902,-126 1500.9902,-126 1497.9902,-122 1439.0098,-122 1439.0098,-86 1524.9902,-86 1524.9902,-122"/>
<text text-anchor="middle" x="1482" y="-99.8" font-family="Times,serif" font-size="14.00" fill="#000000">MailModule</text>
</g>
<!-- MailModule&#45;&gt;AppModule -->
<g id="edge4" class="edge">
<title>MailModule&#45;&gt;AppModule</title>
<path fill="none" stroke="#000000" d="M1496.019,-122.1944C1496.019,-130.2782 1496.019,-138 1496.019,-138 1496.019,-138 1033.455,-138 1033.455,-138 1033.455,-138 1033.455,-433.652 1033.455,-433.652"/>
<polygon fill="#000000" stroke="#000000" points="1029.9551,-433.652 1033.455,-443.652 1036.9551,-433.6521 1029.9551,-433.652"/>
</g>
<!-- MailService  -->
<g id="node23" class="node">
<title>MailService </title>
<polygon fill="#fb8072" stroke="#000000" points="1924.918,-198 1837.082,-198 1837.082,-162 1924.918,-162 1924.918,-198"/>
<text text-anchor="middle" x="1881" y="-175.8" font-family="Times,serif" font-size="14.00" fill="#000000">MailService </text>
</g>
<!-- MailModule&#45;&gt;MailService  -->
<g id="edge23" class="edge">
<title>MailModule&#45;&gt;MailService </title>
<path fill="none" stroke="#000000" stroke-dasharray="5,2" d="M1507.4219,-122.0555C1507.4219,-133.439 1507.4219,-146 1507.4219,-146 1507.4219,-146 1881,-146 1881,-146 1881,-146 1881,-151.8056 1881,-151.8056"/>
<polygon fill="#000000" stroke="#000000" points="1877.5001,-151.8055 1881,-161.8056 1884.5001,-151.8056 1877.5001,-151.8055"/>
</g>
<!-- MentorModule -->
<g id="node5" class="node">
<title>MentorModule</title>
<polygon fill="#8dd3c7" stroke="#000000" points="1391.2605,-198 1388.2605,-202 1367.2605,-202 1364.2605,-198 1290.7395,-198 1290.7395,-162 1391.2605,-162 1391.2605,-198"/>
<text text-anchor="middle" x="1341" y="-175.8" font-family="Times,serif" font-size="14.00" fill="#000000">MentorModule</text>
</g>
<!-- ProfileModule -->
<g id="node6" class="node">
<title>ProfileModule</title>
<polygon fill="#8dd3c7" stroke="#000000" points="1518.65,-274 1515.65,-278 1494.65,-278 1491.65,-274 1421.35,-274 1421.35,-238 1518.65,-238 1518.65,-274"/>
<text text-anchor="middle" x="1470" y="-251.8" font-family="Times,serif" font-size="14.00" fill="#000000">ProfileModule</text>
</g>
<!-- MentorModule&#45;&gt;ProfileModule -->
<g id="edge28" class="edge">
<title>MentorModule&#45;&gt;ProfileModule</title>
<path fill="none" stroke="#000000" d="M1391.273,-191C1411.4812,-191 1430.0901,-191 1430.0901,-191 1430.0901,-191 1430.0901,-227.8939 1430.0901,-227.8939"/>
<polygon fill="#000000" stroke="#000000" points="1426.5902,-227.8938 1430.0901,-237.8939 1433.5902,-227.8939 1426.5902,-227.8938"/>
</g>
<!-- TracksModule -->
<g id="node10" class="node">
<title>TracksModule</title>
<polygon fill="#8dd3c7" stroke="#000000" points="1634.6375,-274 1631.6375,-278 1610.6375,-278 1607.6375,-274 1537.3625,-274 1537.3625,-238 1634.6375,-238 1634.6375,-274"/>
<text text-anchor="middle" x="1586" y="-251.8" font-family="Times,serif" font-size="14.00" fill="#000000">TracksModule</text>
</g>
<!-- MentorModule&#45;&gt;TracksModule -->
<g id="edge42" class="edge">
<title>MentorModule&#45;&gt;TracksModule</title>
<path fill="none" stroke="#000000" d="M1391.4962,-184C1466.3828,-184 1598.1421,-184 1598.1421,-184 1598.1421,-184 1598.1421,-227.8314 1598.1421,-227.8314"/>
<polygon fill="#000000" stroke="#000000" points="1594.6422,-227.8313 1598.1421,-237.8314 1601.6422,-227.8314 1594.6422,-227.8313"/>
</g>
<!-- MentorModule&#45;&gt;AppModule -->
<g id="edge5" class="edge">
<title>MentorModule&#45;&gt;AppModule</title>
<path fill="none" stroke="#000000" d="M1366.1901,-198.269C1366.1901,-259.2548 1366.1901,-452 1366.1901,-452 1366.1901,-452 1117.7401,-452 1117.7401,-452"/>
<polygon fill="#000000" stroke="#000000" points="1117.7402,-448.5001 1107.7401,-452 1117.7401,-455.5001 1117.7402,-448.5001"/>
</g>
<!-- MentorService  -->
<g id="node24" class="node">
<title>MentorService </title>
<polygon fill="#fb8072" stroke="#000000" points="895.1885,-274 792.8115,-274 792.8115,-238 895.1885,-238 895.1885,-274"/>
<text text-anchor="middle" x="844" y="-251.8" font-family="Times,serif" font-size="14.00" fill="#000000">MentorService </text>
</g>
<!-- MentorModule&#45;&gt;MentorService  -->
<g id="edge26" class="edge">
<title>MentorModule&#45;&gt;MentorService </title>
<path fill="none" stroke="#000000" stroke-dasharray="5,2" d="M1341,-198.0267C1341,-218.7672 1341,-250 1341,-250 1341,-250 905.3158,-250 905.3158,-250"/>
<polygon fill="#000000" stroke="#000000" points="905.3158,-246.5001 895.3158,-250 905.3158,-253.5001 905.3158,-246.5001"/>
</g>
<!-- ProfileModule&#45;&gt;AppModule -->
<g id="edge6" class="edge">
<title>ProfileModule&#45;&gt;AppModule</title>
<path fill="none" stroke="#000000" d="M1421.2948,-262C1308.341,-262 1038.0966,-262 1038.0966,-262 1038.0966,-262 1038.0966,-433.8986 1038.0966,-433.8986"/>
<polygon fill="#000000" stroke="#000000" points="1034.5965,-433.8986 1038.0966,-443.8986 1041.5965,-433.8986 1034.5965,-433.8986"/>
</g>
<!-- ProfileService  -->
<g id="node26" class="node">
<title>ProfileService </title>
<polygon fill="#fb8072" stroke="#000000" points="2496.5781,-198 2397.4219,-198 2397.4219,-162 2496.5781,-162 2496.5781,-198"/>
<text text-anchor="middle" x="2447" y="-175.8" font-family="Times,serif" font-size="14.00" fill="#000000">ProfileService </text>
</g>
<!-- ProfileModule&#45;&gt;ProfileService  -->
<g id="edge30" class="edge">
<title>ProfileModule&#45;&gt;ProfileService </title>
<path fill="none" stroke="#000000" stroke-dasharray="5,2" d="M1461.8106,-237.8056C1461.8106,-229.7218 1461.8106,-222 1461.8106,-222 1461.8106,-222 2447,-222 2447,-222 2447,-222 2447,-208.0555 2447,-208.0555"/>
<polygon fill="#000000" stroke="#000000" points="2450.5001,-208.0555 2447,-198.0555 2443.5001,-208.0556 2450.5001,-208.0555"/>
</g>
<!-- SharedModule -->
<g id="node7" class="node">
<title>SharedModule</title>
<polygon fill="#8dd3c7" stroke="#000000" points="1283.4231,-122 1280.4231,-126 1259.4231,-126 1256.4231,-122 1184.5769,-122 1184.5769,-86 1283.4231,-86 1283.4231,-122"/>
<text text-anchor="middle" x="1234" y="-99.8" font-family="Times,serif" font-size="14.00" fill="#000000">SharedModule</text>
</g>
<!-- SharedModule&#45;&gt;AppModule -->
<g id="edge7" class="edge">
<title>SharedModule&#45;&gt;AppModule</title>
<path fill="none" stroke="#000000" d="M1184.5916,-104C1123.8771,-104 1028.8134,-104 1028.8134,-104 1028.8134,-104 1028.8134,-433.7545 1028.8134,-433.7545"/>
<polygon fill="#000000" stroke="#000000" points="1025.3135,-433.7545 1028.8134,-443.7545 1032.3135,-433.7546 1025.3135,-433.7545"/>
</g>
<!-- StagesModule -->
<g id="node8" class="node">
<title>StagesModule</title>
<polygon fill="#8dd3c7" stroke="#000000" points="1635.0968,-339 1632.0968,-343 1611.0968,-343 1608.0968,-339 1538.9032,-339 1538.9032,-303 1635.0968,-303 1635.0968,-339"/>
<text text-anchor="middle" x="1587" y="-316.8" font-family="Times,serif" font-size="14.00" fill="#000000">StagesModule</text>
</g>
<!-- StagesModule&#45;&gt;TasksModule -->
<g id="edge37" class="edge">
<title>StagesModule&#45;&gt;TasksModule</title>
<path fill="none" stroke="#000000" d="M1570.9839,-339.0109C1570.9839,-361.4852 1570.9839,-397 1570.9839,-397 1570.9839,-397 1525.2177,-397 1525.2177,-397"/>
<polygon fill="#000000" stroke="#000000" points="1525.2177,-393.5001 1515.2177,-397 1525.2176,-400.5001 1525.2177,-393.5001"/>
</g>
<!-- StagesModule&#45;&gt;AppModule -->
<g id="edge8" class="edge">
<title>StagesModule&#45;&gt;AppModule</title>
<path fill="none" stroke="#000000" d="M1603.0161,-339.2141C1603.0161,-379.3755 1603.0161,-472 1603.0161,-472 1603.0161,-472 1117.6919,-472 1117.6919,-472"/>
<polygon fill="#000000" stroke="#000000" points="1117.6919,-468.5001 1107.6919,-472 1117.6919,-475.5001 1117.6919,-468.5001"/>
</g>
<!-- StagesService  -->
<g id="node29" class="node">
<title>StagesService </title>
<polygon fill="#fb8072" stroke="#000000" points="2239.0246,-404 2140.9754,-404 2140.9754,-368 2239.0246,-368 2239.0246,-404"/>
<text text-anchor="middle" x="2190" y="-381.8" font-family="Times,serif" font-size="14.00" fill="#000000">StagesService </text>
</g>
<!-- StagesModule&#45;&gt;StagesService  -->
<g id="edge34" class="edge">
<title>StagesModule&#45;&gt;StagesService </title>
<path fill="none" stroke="#000000" stroke-dasharray="5,2" d="M1635.1859,-315C1776.8306,-315 2181.9818,-315 2181.9818,-315 2181.9818,-315 2181.9818,-357.7157 2181.9818,-357.7157"/>
<polygon fill="#000000" stroke="#000000" points="2178.4819,-357.7157 2181.9818,-367.7157 2185.4819,-357.7158 2178.4819,-357.7157"/>
</g>
<!-- TasksModule&#45;&gt;AppModule -->
<g id="edge9" class="edge">
<title>TasksModule&#45;&gt;AppModule</title>
<path fill="none" stroke="#000000" d="M1469,-404.2921C1469,-426.2057 1469,-460 1469,-460 1469,-460 1117.9876,-460 1117.9876,-460"/>
<polygon fill="#000000" stroke="#000000" points="1117.9876,-456.5001 1107.9876,-460 1117.9876,-463.5001 1117.9876,-456.5001"/>
</g>
<!-- TasksService  -->
<g id="node31" class="node">
<title>TasksService </title>
<polygon fill="#fb8072" stroke="#000000" points="1919.1341,-480 1824.8659,-480 1824.8659,-444 1919.1341,-444 1919.1341,-480"/>
<text text-anchor="middle" x="1872" y="-457.8" font-family="Times,serif" font-size="14.00" fill="#000000">TasksService </text>
</g>
<!-- TasksModule&#45;&gt;TasksService  -->
<g id="edge40" class="edge">
<title>TasksModule&#45;&gt;TasksService </title>
<path fill="none" stroke="#000000" stroke-dasharray="5,2" d="M1445.9485,-404.1097C1445.9485,-413.897 1445.9485,-424 1445.9485,-424 1445.9485,-424 1830.987,-424 1830.987,-424 1830.987,-424 1830.987,-433.8903 1830.987,-433.8903"/>
<polygon fill="#000000" stroke="#000000" points="1827.4871,-433.8903 1830.987,-443.8903 1834.4871,-433.8904 1827.4871,-433.8903"/>
</g>
<!-- TracksModule&#45;&gt;StagesModule -->
<g id="edge33" class="edge">
<title>TracksModule&#45;&gt;StagesModule</title>
<path fill="none" stroke="#000000" d="M1586.885,-274.1061C1586.885,-274.1061 1586.885,-292.991 1586.885,-292.991"/>
<polygon fill="#000000" stroke="#000000" points="1583.3851,-292.9909 1586.885,-302.991 1590.3851,-292.991 1583.3851,-292.9909"/>
</g>
<!-- TracksModule&#45;&gt;TasksModule -->
<g id="edge38" class="edge">
<title>TracksModule&#45;&gt;TasksModule</title>
<path fill="none" stroke="#000000" d="M1537.1313,-256C1534.9766,-256 1533.6997,-256 1533.6997,-256 1533.6997,-256 1533.6997,-390 1533.6997,-390 1533.6997,-390 1525.3325,-390 1525.3325,-390"/>
<polygon fill="#000000" stroke="#000000" points="1525.3325,-386.5001 1515.3325,-390 1525.3324,-393.5001 1525.3325,-386.5001"/>
</g>
<!-- TracksModule&#45;&gt;AppModule -->
<g id="edge10" class="edge">
<title>TracksModule&#45;&gt;AppModule</title>
<path fill="none" stroke="#000000" d="M1537.1229,-265C1536.0455,-265 1535.4407,-265 1535.4407,-265 1535.4407,-265 1535.4407,-468 1535.4407,-468 1535.4407,-468 1117.6597,-468 1117.6597,-468"/>
<polygon fill="#000000" stroke="#000000" points="1117.6598,-464.5001 1107.6597,-468 1117.6597,-471.5001 1117.6598,-464.5001"/>
</g>
<!-- TracksService  -->
<g id="node33" class="node">
<title>TracksService </title>
<polygon fill="#fb8072" stroke="#000000" points="2970.5655,-198 2871.4345,-198 2871.4345,-162 2970.5655,-162 2970.5655,-198"/>
<text text-anchor="middle" x="2921" y="-175.8" font-family="Times,serif" font-size="14.00" fill="#000000">TracksService </text>
</g>
<!-- TracksModule&#45;&gt;TracksService  -->
<g id="edge44" class="edge">
<title>TracksModule&#45;&gt;TracksService </title>
<path fill="none" stroke="#000000" stroke-dasharray="5,2" d="M1634.6986,-265C1874.7946,-265 2921,-265 2921,-265 2921,-265 2921,-208.0263 2921,-208.0263"/>
<polygon fill="#000000" stroke="#000000" points="2924.5001,-208.0263 2921,-198.0263 2917.5001,-208.0263 2924.5001,-208.0263"/>
</g>
<!-- UsersModule -->
<g id="node11" class="node">
<title>UsersModule</title>
<polygon fill="#8dd3c7" stroke="#000000" points="1634.9218,-122 1631.9218,-126 1610.9218,-126 1607.9218,-122 1543.0782,-122 1543.0782,-86 1634.9218,-86 1634.9218,-122"/>
<text text-anchor="middle" x="1589" y="-99.8" font-family="Times,serif" font-size="14.00" fill="#000000">UsersModule</text>
</g>
<!-- UsersModule&#45;&gt;AuthModule -->
<g id="edge13" class="edge">
<title>UsersModule&#45;&gt;AuthModule</title>
<path fill="none" stroke="#000000" d="M1561.5738,-122.0511C1561.5738,-136.373 1561.5738,-154 1561.5738,-154 1561.5738,-154 1229,-154 1229,-154 1229,-154 1229,-154.7942 1229,-154.7942"/>
<polygon fill="#000000" stroke="#000000" points="1225.5001,-151.9421 1229,-161.9421 1232.5001,-151.9422 1225.5001,-151.9421"/>
</g>
<!-- UsersModule&#45;&gt;MentorModule -->
<g id="edge25" class="edge">
<title>UsersModule&#45;&gt;MentorModule</title>
<path fill="none" stroke="#000000" d="M1579.8579,-122.0348C1579.8579,-141.5762 1579.8579,-170 1579.8579,-170 1579.8579,-170 1401.3638,-170 1401.3638,-170"/>
<polygon fill="#000000" stroke="#000000" points="1401.3638,-166.5001 1391.3638,-170 1401.3637,-173.5001 1401.3638,-166.5001"/>
</g>
<!-- UsersModule&#45;&gt;ProfileModule -->
<g id="edge29" class="edge">
<title>UsersModule&#45;&gt;ProfileModule</title>
<path fill="none" stroke="#000000" d="M1543.1279,-95C1534.6866,-95 1528.477,-95 1528.477,-95 1528.477,-95 1528.477,-247 1528.477,-247 1528.477,-247 1527.5113,-247 1527.5113,-247"/>
<polygon fill="#000000" stroke="#000000" points="1528.8207,-243.5001 1518.8207,-247 1528.8206,-250.5001 1528.8207,-243.5001"/>
</g>
<!-- UsersModule&#45;&gt;TasksModule -->
<g id="edge39" class="edge">
<title>UsersModule&#45;&gt;TasksModule</title>
<path fill="none" stroke="#000000" d="M1543.2635,-104C1535.6749,-104 1530.2179,-104 1530.2179,-104 1530.2179,-104 1530.2179,-376 1530.2179,-376 1530.2179,-376 1525.3987,-376 1525.3987,-376"/>
<polygon fill="#000000" stroke="#000000" points="1525.3988,-372.5001 1515.3987,-376 1525.3987,-379.5001 1525.3988,-372.5001"/>
</g>
<!-- UsersModule&#45;&gt;TracksModule -->
<g id="edge43" class="edge">
<title>UsersModule&#45;&gt;TracksModule</title>
<path fill="none" stroke="#000000" d="M1616.4262,-122.0333C1616.4262,-122.0333 1616.4262,-227.9902 1616.4262,-227.9902"/>
<polygon fill="#000000" stroke="#000000" points="1612.9263,-227.9901 1616.4262,-237.9902 1619.9263,-227.9902 1612.9263,-227.9901"/>
</g>
<!-- UsersModule&#45;&gt;AppModule -->
<g id="edge11" class="edge">
<title>UsersModule&#45;&gt;AppModule</title>
<path fill="none" stroke="#000000" d="M1543.2283,-113C1536.5971,-113 1531.9588,-113 1531.9588,-113 1531.9588,-113 1531.9588,-464 1531.9588,-464 1531.9588,-464 1117.7608,-464 1117.7608,-464"/>
<polygon fill="#000000" stroke="#000000" points="1117.7608,-460.5001 1107.7608,-464 1117.7608,-467.5001 1117.7608,-460.5001"/>
</g>
<!-- UsersService  -->
<g id="node36" class="node">
<title>UsersService </title>
<polygon fill="#fb8072" stroke="#000000" points="2058.8493,-198 1965.1507,-198 1965.1507,-162 2058.8493,-162 2058.8493,-198"/>
<text text-anchor="middle" x="2012" y="-175.8" font-family="Times,serif" font-size="14.00" fill="#000000">UsersService </text>
</g>
<!-- UsersModule&#45;&gt;UsersService  -->
<g id="edge47" class="edge">
<title>UsersModule&#45;&gt;UsersService </title>
<path fill="none" stroke="#000000" stroke-dasharray="5,2" d="M1635.0736,-110C1744.706,-110 2012,-110 2012,-110 2012,-110 2012,-151.9733 2012,-151.9733"/>
<polygon fill="#000000" stroke="#000000" points="2008.5001,-151.9732 2012,-161.9733 2015.5001,-151.9733 2008.5001,-151.9732"/>
</g>
<!-- AppService -->
<g id="node13" class="node">
<title>AppService</title>
<ellipse fill="#fdb462" stroke="#000000" cx="1104" cy="-386" rx="56.7406" ry="18"/>
<text text-anchor="middle" x="1104" y="-381.8" font-family="Times,serif" font-size="14.00" fill="#000000">AppService</text>
</g>
<!-- AppService&#45;&gt;AppModule -->
<g id="edge12" class="edge">
<title>AppService&#45;&gt;AppModule</title>
<path fill="none" stroke="#000000" d="M1077.604,-402.1176C1077.604,-402.1176 1077.604,-433.7719 1077.604,-433.7719"/>
<polygon fill="#000000" stroke="#000000" points="1074.1041,-433.7719 1077.604,-443.7719 1081.1041,-433.772 1074.1041,-433.7719"/>
</g>
<!-- AuthService -->
<g id="node15" class="node">
<title>AuthService</title>
<ellipse fill="#fdb462" stroke="#000000" cx="722" cy="-104" rx="59.1083" ry="18"/>
<text text-anchor="middle" x="722" y="-99.8" font-family="Times,serif" font-size="14.00" fill="#000000">AuthService</text>
</g>
<!-- AuthService&#45;&gt;AuthModule -->
<g id="edge15" class="edge">
<title>AuthService&#45;&gt;AuthModule</title>
<path fill="none" stroke="#000000" d="M775.361,-111.9152C775.361,-130.0392 775.361,-173 775.361,-173 775.361,-173 1175.091,-173 1175.091,-173"/>
<polygon fill="#000000" stroke="#000000" points="1175.091,-176.5001 1185.091,-173 1175.091,-169.5001 1175.091,-176.5001"/>
</g>
<!-- JwtStrategy -->
<g id="node16" class="node">
<title>JwtStrategy</title>
<ellipse fill="#fdb462" stroke="#000000" cx="588" cy="-104" rx="56.7561" ry="18"/>
<text text-anchor="middle" x="588" y="-99.8" font-family="Times,serif" font-size="14.00" fill="#000000">JwtStrategy</text>
</g>
<!-- JwtStrategy&#45;&gt;AuthModule -->
<g id="edge16" class="edge">
<title>JwtStrategy&#45;&gt;AuthModule</title>
<path fill="none" stroke="#000000" d="M638.6049,-112.202C638.6049,-131.4688 638.6049,-178 638.6049,-178 638.6049,-178 1175.1068,-178 1175.1068,-178"/>
<polygon fill="#000000" stroke="#000000" points="1175.1068,-181.5001 1185.1068,-178 1175.1067,-174.5001 1175.1068,-181.5001"/>
</g>
<!-- MailService -->
<g id="node17" class="node">
<title>MailService</title>
<ellipse fill="#fdb462" stroke="#000000" cx="455" cy="-104" rx="58.4609" ry="18"/>
<text text-anchor="middle" x="455" y="-99.8" font-family="Times,serif" font-size="14.00" fill="#000000">MailService</text>
</g>
<!-- MailService&#45;&gt;AuthModule -->
<g id="edge17" class="edge">
<title>MailService&#45;&gt;AuthModule</title>
<path fill="none" stroke="#000000" d="M474.41,-121.1418C474.41,-144.3764 474.41,-183 474.41,-183 474.41,-183 1175.4445,-183 1175.4445,-183"/>
<polygon fill="#000000" stroke="#000000" points="1175.4445,-186.5001 1185.4445,-183 1175.4444,-179.5001 1175.4445,-186.5001"/>
</g>
<!-- MailService&#45;&gt;MailModule -->
<g id="edge24" class="edge">
<title>MailService&#45;&gt;MailModule</title>
<path fill="none" stroke="#000000" d="M435.59,-121.1976C435.59,-126.0327 435.59,-130 435.59,-130 435.59,-130 1450.4077,-130 1450.4077,-130 1450.4077,-130 1450.4077,-129.2058 1450.4077,-129.2058"/>
<polygon fill="#000000" stroke="#000000" points="1453.9079,-132.0578 1450.4077,-122.0579 1446.9079,-132.0579 1453.9079,-132.0578"/>
</g>
<!-- SessionSerializer -->
<g id="node18" class="node">
<title>SessionSerializer</title>
<ellipse fill="#fdb462" stroke="#000000" cx="301" cy="-104" rx="77.5781" ry="18"/>
<text text-anchor="middle" x="301" y="-99.8" font-family="Times,serif" font-size="14.00" fill="#000000">SessionSerializer</text>
</g>
<!-- SessionSerializer&#45;&gt;AuthModule -->
<g id="edge18" class="edge">
<title>SessionSerializer&#45;&gt;AuthModule</title>
<path fill="none" stroke="#000000" d="M301,-122.2267C301,-146.9318 301,-188 301,-188 301,-188 1175.1756,-188 1175.1756,-188"/>
<polygon fill="#000000" stroke="#000000" points="1175.1757,-191.5001 1185.1756,-188 1175.1756,-184.5001 1175.1757,-191.5001"/>
</g>
<!-- TempTokensService -->
<g id="node19" class="node">
<title>TempTokensService</title>
<ellipse fill="#fdb462" stroke="#000000" cx="115" cy="-104" rx="90.8916" ry="18"/>
<text text-anchor="middle" x="115" y="-99.8" font-family="Times,serif" font-size="14.00" fill="#000000">TempTokensService</text>
</g>
<!-- TempTokensService&#45;&gt;AuthModule -->
<g id="edge19" class="edge">
<title>TempTokensService&#45;&gt;AuthModule</title>
<path fill="none" stroke="#000000" d="M115,-122.0105C115,-148.0165 115,-193 115,-193 115,-193 1175.3299,-193 1175.3299,-193"/>
<polygon fill="#000000" stroke="#000000" points="1175.3299,-196.5001 1185.3299,-193 1175.3298,-189.5001 1175.3299,-196.5001"/>
</g>
<!-- CoursesService -->
<g id="node22" class="node">
<title>CoursesService</title>
<ellipse fill="#fdb462" stroke="#000000" cx="1746" cy="-386" rx="71.2036" ry="18"/>
<text text-anchor="middle" x="1746" y="-381.8" font-family="Times,serif" font-size="14.00" fill="#000000">CoursesService</text>
</g>
<!-- CoursesService&#45;&gt;CoursesModule -->
<g id="edge22" class="edge">
<title>CoursesService&#45;&gt;CoursesModule</title>
<path fill="none" stroke="#000000" d="M1675.7188,-383C1611.5849,-383 1526.736,-383 1526.736,-383 1526.736,-383 1526.736,-321 1526.736,-321 1526.736,-321 1526.2032,-321 1526.2032,-321"/>
<polygon fill="#000000" stroke="#000000" points="1531.4079,-317.5002 1521.4079,-321 1531.4078,-324.5002 1531.4079,-317.5002"/>
</g>
<!-- MentorService -->
<g id="node25" class="node">
<title>MentorService</title>
<ellipse fill="#fdb462" stroke="#000000" cx="701" cy="-256" rx="68.3362" ry="18"/>
<text text-anchor="middle" x="701" y="-251.8" font-family="Times,serif" font-size="14.00" fill="#000000">MentorService</text>
</g>
<!-- MentorService&#45;&gt;MentorModule -->
<g id="edge27" class="edge">
<title>MentorService&#45;&gt;MentorModule</title>
<path fill="none" stroke="#000000" d="M716.0571,-238.2266C716.0571,-233.6563 716.0571,-230 716.0571,-230 716.0571,-230 1315.81,-230 1315.81,-230 1315.81,-230 1315.81,-208.0511 1315.81,-208.0511"/>
<polygon fill="#000000" stroke="#000000" points="1319.31,-208.0511 1315.81,-198.0511 1312.31,-208.0512 1319.31,-208.0511"/>
</g>
<!-- ProfileService -->
<g id="node27" class="node">
<title>ProfileService</title>
<ellipse fill="#fdb462" stroke="#000000" cx="2307" cy="-180" rx="66.0454" ry="18"/>
<text text-anchor="middle" x="2307" y="-175.8" font-family="Times,serif" font-size="14.00" fill="#000000">ProfileService</text>
</g>
<!-- ProfileService&#45;&gt;ProfileModule -->
<g id="edge31" class="edge">
<title>ProfileService&#45;&gt;ProfileModule</title>
<path fill="none" stroke="#000000" d="M2307,-198.1944C2307,-206.2782 2307,-214 2307,-214 2307,-214 1484.6162,-214 1484.6162,-214 1484.6162,-214 1484.6162,-227.9445 1484.6162,-227.9445"/>
<polygon fill="#000000" stroke="#000000" points="1481.1163,-227.9444 1484.6162,-237.9445 1488.1163,-227.9445 1481.1163,-227.9444"/>
</g>
<!-- UsersService -->
<g id="node28" class="node">
<title>UsersService</title>
<ellipse fill="#fdb462" stroke="#000000" cx="2161" cy="-180" rx="61.9519" ry="18"/>
<text text-anchor="middle" x="2161" y="-175.8" font-family="Times,serif" font-size="14.00" fill="#000000">UsersService</text>
</g>
<!-- UsersService&#45;&gt;ProfileModule -->
<g id="edge32" class="edge">
<title>UsersService&#45;&gt;ProfileModule</title>
<path fill="none" stroke="#000000" d="M2108.1127,-189.3866C2108.1127,-196.834 2108.1127,-206 2108.1127,-206 2108.1127,-206 1473.2134,-206 1473.2134,-206 1473.2134,-206 1473.2134,-227.9489 1473.2134,-227.9489"/>
<polygon fill="#000000" stroke="#000000" points="1469.7135,-227.9488 1473.2134,-237.9489 1476.7135,-227.9489 1469.7135,-227.9488"/>
</g>
<!-- UsersService&#45;&gt;UsersModule -->
<g id="edge48" class="edge">
<title>UsersService&#45;&gt;UsersModule</title>
<path fill="none" stroke="#000000" d="M2161,-161.8015C2161,-137.6437 2161,-98 2161,-98 2161,-98 1644.8423,-98 1644.8423,-98"/>
<polygon fill="#000000" stroke="#000000" points="1644.8423,-94.5001 1634.8423,-98 1644.8422,-101.5001 1644.8423,-94.5001"/>
</g>
<!-- StagesService -->
<g id="node30" class="node">
<title>StagesService</title>
<ellipse fill="#fdb462" stroke="#000000" cx="2052" cy="-386" rx="65.4033" ry="18"/>
<text text-anchor="middle" x="2052" y="-381.8" font-family="Times,serif" font-size="14.00" fill="#000000">StagesService</text>
</g>
<!-- StagesService&#45;&gt;StagesModule -->
<g id="edge35" class="edge">
<title>StagesService&#45;&gt;StagesModule</title>
<path fill="none" stroke="#000000" d="M2022.7365,-369.878C2022.7365,-352.4092 2022.7365,-327 2022.7365,-327 2022.7365,-327 1645.2963,-327 1645.2963,-327"/>
<polygon fill="#000000" stroke="#000000" points="1645.2963,-323.5001 1635.2963,-327 1645.2963,-330.5001 1645.2963,-323.5001"/>
</g>
<!-- TasksService -->
<g id="node32" class="node">
<title>TasksService</title>
<ellipse fill="#fdb462" stroke="#000000" cx="1738" cy="-462" rx="62.5354" ry="18"/>
<text text-anchor="middle" x="1738" y="-457.8" font-family="Times,serif" font-size="14.00" fill="#000000">TasksService</text>
</g>
<!-- TasksService&#45;&gt;TasksModule -->
<g id="edge41" class="edge">
<title>TasksService&#45;&gt;TasksModule</title>
<path fill="none" stroke="#000000" d="M1698.4841,-476C1628.9602,-476 1492.0516,-476 1492.0516,-476 1492.0516,-476 1492.0516,-414.2128 1492.0516,-414.2128"/>
<polygon fill="#000000" stroke="#000000" points="1495.5516,-414.2128 1492.0516,-404.2128 1488.5516,-414.2129 1495.5516,-414.2128"/>
</g>
<!-- TracksService -->
<g id="node34" class="node">
<title>TracksService</title>
<ellipse fill="#fdb462" stroke="#000000" cx="2781" cy="-180" rx="66.0281" ry="18"/>
<text text-anchor="middle" x="2781" y="-175.8" font-family="Times,serif" font-size="14.00" fill="#000000">TracksService</text>
</g>
<!-- TracksService&#45;&gt;TracksModule -->
<g id="edge45" class="edge">
<title>TracksService&#45;&gt;TracksModule</title>
<path fill="none" stroke="#000000" d="M2781,-198.0109C2781,-220.4852 2781,-256 2781,-256 2781,-256 1644.6987,-256 1644.6987,-256"/>
<polygon fill="#000000" stroke="#000000" points="1644.6988,-252.5001 1634.6987,-256 1644.6987,-259.5001 1644.6988,-252.5001"/>
</g>
<!-- UserStageService -->
<g id="node35" class="node">
<title>UserStageService</title>
<ellipse fill="#fdb462" stroke="#000000" cx="2617" cy="-180" rx="79.8488" ry="18"/>
<text text-anchor="middle" x="2617" y="-175.8" font-family="Times,serif" font-size="14.00" fill="#000000">UserStageService</text>
</g>
<!-- UserStageService&#45;&gt;TracksModule -->
<g id="edge46" class="edge">
<title>UserStageService&#45;&gt;TracksModule</title>
<path fill="none" stroke="#000000" d="M2617,-198.308C2617,-218.1455 2617,-247 2617,-247 2617,-247 1644.6885,-247 1644.6885,-247"/>
<polygon fill="#000000" stroke="#000000" points="1644.6885,-243.5001 1634.6885,-247 1644.6885,-250.5001 1644.6885,-243.5001"/>
</g>
</g>
</svg>
