<?xml version="1.0" encoding="UTF-8" standalone="no"?>
<!DOCTYPE svg PUBLIC "-//W3C//DTD SVG 1.1//EN"
 "http://www.w3.org/Graphics/SVG/1.1/DTD/svg11.dtd">
<!-- Generated by graphviz version 2.40.1 (20161225.0304)
 -->
<!-- Title: dependencies Pages: 1 -->
<svg width="3128pt" height="363pt"
 viewBox="0.00 0.00 3128.00 363.00" xmlns="http://www.w3.org/2000/svg" xmlns:xlink="http://www.w3.org/1999/xlink">
<g id="graph0" class="graph" transform="scale(1 1) rotate(0) translate(4 359)">
<title>dependencies</title>
<polygon fill="#ffffff" stroke="transparent" points="-4,4 -4,-359 3124,-359 3124,4 -4,4"/>
<text text-anchor="start" x="1539.0091" y="-42.4" font-family="sans-serif" font-weight="bold" font-size="14.00" fill="#000000">Legend</text>
<polygon fill="#ffffb3" stroke="transparent" points="1326,-10 1326,-30 1346,-30 1346,-10 1326,-10"/>
<text text-anchor="start" x="1349.629" y="-15.4" font-family="sans-serif" font-size="14.00" fill="#000000"> &#160;Declarations</text>
<polygon fill="#8dd3c7" stroke="transparent" points="1439,-10 1439,-30 1459,-30 1459,-10 1439,-10"/>
<text text-anchor="start" x="1462.7251" y="-15.4" font-family="sans-serif" font-size="14.00" fill="#000000"> &#160;Module</text>
<polygon fill="#80b1d3" stroke="transparent" points="1525,-10 1525,-30 1545,-30 1545,-10 1525,-10"/>
<text text-anchor="start" x="1548.7812" y="-15.4" font-family="sans-serif" font-size="14.00" fill="#000000"> &#160;Bootstrap</text>
<polygon fill="#fdb462" stroke="transparent" points="1622,-10 1622,-30 1642,-30 1642,-10 1622,-10"/>
<text text-anchor="start" x="1645.6732" y="-15.4" font-family="sans-serif" font-size="14.00" fill="#000000"> &#160;Providers</text>
<polygon fill="#fb8072" stroke="transparent" points="1718,-10 1718,-30 1738,-30 1738,-10 1718,-10"/>
<text text-anchor="start" x="1741.7258" y="-15.4" font-family="sans-serif" font-size="14.00" fill="#000000"> &#160;Exports</text>
<g id="clust1" class="cluster">
<title>cluster_AppModule</title>
<polygon fill="none" stroke="#000000" stroke-dasharray="1,5" points="1380,-146 1380,-347 2238,-347 2238,-146 1380,-146"/>
</g>
<g id="clust3" class="cluster">
<title>cluster_AppModule_imports</title>
<polygon fill="none" stroke="#000000" points="1526,-154 1526,-282 2230,-282 2230,-154 1526,-154"/>
</g>
<g id="clust6" class="cluster">
<title>cluster_AppModule_providers</title>
<polygon fill="none" stroke="#000000" points="1388,-230 1388,-282 1518,-282 1518,-230 1388,-230"/>
</g>
<g id="clust7" class="cluster">
<title>cluster_AuthModule</title>
<polygon fill="none" stroke="#000000" stroke-dasharray="1,5" points="8,-146 8,-214 1200,-214 1200,-146 8,-146"/>
</g>
<g id="clust10" class="cluster">
<title>cluster_AuthModule_exports</title>
<polygon fill="none" stroke="#000000" points="1086,-154 1086,-206 1192,-206 1192,-154 1086,-154"/>
</g>
<g id="clust12" class="cluster">
<title>cluster_AuthModule_providers</title>
<polygon fill="none" stroke="#000000" points="16,-154 16,-206 1078,-206 1078,-154 16,-154"/>
</g>
<g id="clust13" class="cluster">
<title>cluster_CategoriesModule</title>
<polygon fill="none" stroke="#000000" stroke-dasharray="1,5" points="1851,-70 1851,-138 2033,-138 2033,-70 1851,-70"/>
</g>
<g id="clust18" class="cluster">
<title>cluster_CategoriesModule_providers</title>
<polygon fill="none" stroke="#000000" points="1859,-78 1859,-130 2025,-130 2025,-78 1859,-78"/>
</g>
<g id="clust31" class="cluster">
<title>cluster_MailModule</title>
<polygon fill="none" stroke="#000000" stroke-dasharray="1,5" points="2246,-222 2246,-290 2366,-290 2366,-222 2246,-222"/>
</g>
<g id="clust34" class="cluster">
<title>cluster_MailModule_exports</title>
<polygon fill="none" stroke="#000000" points="2254,-230 2254,-282 2358,-282 2358,-230 2254,-230"/>
</g>
<g id="clust37" class="cluster">
<title>cluster_ProfileModule</title>
<polygon fill="none" stroke="#000000" stroke-dasharray="1,5" points="1208,-146 1208,-214 1372,-214 1372,-146 1208,-146"/>
</g>
<g id="clust42" class="cluster">
<title>cluster_ProfileModule_providers</title>
<polygon fill="none" stroke="#000000" points="1216,-154 1216,-206 1364,-206 1364,-154 1216,-154"/>
</g>
<g id="clust43" class="cluster">
<title>cluster_SharedModule</title>
<polygon fill="none" stroke="#000000" stroke-dasharray="1,5" points="2374,-222 2374,-290 2978,-290 2978,-222 2374,-222"/>
</g>
<g id="clust46" class="cluster">
<title>cluster_SharedModule_exports</title>
<polygon fill="none" stroke="#000000" points="2717,-230 2717,-282 2970,-282 2970,-230 2717,-230"/>
</g>
<g id="clust48" class="cluster">
<title>cluster_SharedModule_providers</title>
<polygon fill="none" stroke="#000000" points="2382,-230 2382,-282 2709,-282 2709,-230 2382,-230"/>
</g>
<g id="clust55" class="cluster">
<title>cluster_UsersModule</title>
<polygon fill="none" stroke="#000000" stroke-dasharray="1,5" points="2986,-222 2986,-290 3112,-290 3112,-222 2986,-222"/>
</g>
<g id="clust58" class="cluster">
<title>cluster_UsersModule_exports</title>
<polygon fill="none" stroke="#000000" points="2994,-230 2994,-282 3104,-282 3104,-230 2994,-230"/>
</g>
<!-- AuthModule -->
<g id="node1" class="node">
<title>AuthModule</title>
<polygon fill="#8dd3c7" stroke="#000000" points="1621.5482,-274 1618.5482,-278 1597.5482,-278 1594.5482,-274 1534.4518,-274 1534.4518,-238 1621.5482,-238 1621.5482,-274"/>
<text text-anchor="middle" x="1578" y="-251.8" font-family="Times,serif" font-size="14.00" fill="#000000">AuthModule</text>
</g>
<!-- AppModule -->
<g id="node9" class="node">
<title>AppModule</title>
<polygon fill="#8dd3c7" stroke="#000000" points="1818.6571,-339 1815.6571,-343 1794.6571,-343 1791.6571,-339 1735.3429,-339 1735.3429,-303 1818.6571,-303 1818.6571,-339"/>
<text text-anchor="middle" x="1777" y="-316.8" font-family="Times,serif" font-size="14.00" fill="#000000">AppModule</text>
</g>
<!-- AuthModule&#45;&gt;AppModule -->
<g id="edge1" class="edge">
<title>AuthModule&#45;&gt;AppModule</title>
<path fill="none" stroke="#000000" d="M1578,-274.1061C1578,-293.3391 1578,-321 1578,-321 1578,-321 1725.2831,-321 1725.2831,-321"/>
<polygon fill="#000000" stroke="#000000" points="1725.2831,-324.5001 1735.2831,-321 1725.283,-317.5001 1725.2831,-324.5001"/>
</g>
<!-- AuthService  -->
<g id="node11" class="node">
<title>AuthService </title>
<polygon fill="#fb8072" stroke="#000000" points="1183.9761,-198 1094.0239,-198 1094.0239,-162 1183.9761,-162 1183.9761,-198"/>
<text text-anchor="middle" x="1139" y="-175.8" font-family="Times,serif" font-size="14.00" fill="#000000">AuthService </text>
</g>
<!-- AuthModule&#45;&gt;AuthService  -->
<g id="edge11" class="edge">
<title>AuthModule&#45;&gt;AuthService </title>
<path fill="none" stroke="#000000" stroke-dasharray="5,2" d="M1597.9143,-237.8495C1597.9143,-225.7292 1597.9143,-212 1597.9143,-212 1597.9143,-212 1139,-212 1139,-212 1139,-212 1139,-208.2434 1139,-208.2434"/>
<polygon fill="#000000" stroke="#000000" points="1142.5001,-208.2434 1139,-198.2434 1135.5001,-208.2434 1142.5001,-208.2434"/>
</g>
<!-- CategoriesModule -->
<g id="node2" class="node">
<title>CategoriesModule</title>
<polygon fill="#8dd3c7" stroke="#000000" points="2001.9173,-198 1998.9173,-202 1977.9173,-202 1974.9173,-198 1882.0827,-198 1882.0827,-162 2001.9173,-162 2001.9173,-198"/>
<text text-anchor="middle" x="1942" y="-175.8" font-family="Times,serif" font-size="14.00" fill="#000000">CategoriesModule</text>
</g>
<!-- CategoriesModule&#45;&gt;AppModule -->
<g id="edge2" class="edge">
<title>CategoriesModule&#45;&gt;AppModule</title>
<path fill="none" stroke="#000000" d="M1942,-198.0773C1942,-234.2287 1942,-312 1942,-312 1942,-312 1829.0634,-312 1829.0634,-312"/>
<polygon fill="#000000" stroke="#000000" points="1829.0634,-308.5001 1819.0634,-312 1829.0634,-315.5001 1829.0634,-308.5001"/>
</g>
<!-- CoursesModule -->
<g id="node3" class="node">
<title>CoursesModule</title>
<polygon fill="#8dd3c7" stroke="#000000" points="1748.1514,-198 1745.1514,-202 1724.1514,-202 1721.1514,-198 1643.8486,-198 1643.8486,-162 1748.1514,-162 1748.1514,-198"/>
<text text-anchor="middle" x="1696" y="-175.8" font-family="Times,serif" font-size="14.00" fill="#000000">CoursesModule</text>
</g>
<!-- CoursesModule&#45;&gt;AppModule -->
<g id="edge3" class="edge">
<title>CoursesModule&#45;&gt;AppModule</title>
<path fill="none" stroke="#000000" d="M1744.8252,-198.1446C1744.8252,-198.1446 1744.8252,-292.925 1744.8252,-292.925"/>
<polygon fill="#000000" stroke="#000000" points="1741.3253,-292.925 1744.8252,-302.925 1748.3253,-292.925 1741.3253,-292.925"/>
</g>
<!-- MailModule -->
<g id="node4" class="node">
<title>MailModule</title>
<polygon fill="#8dd3c7" stroke="#000000" points="2105.9902,-198 2102.9902,-202 2081.9902,-202 2078.9902,-198 2020.0098,-198 2020.0098,-162 2105.9902,-162 2105.9902,-198"/>
<text text-anchor="middle" x="2063" y="-175.8" font-family="Times,serif" font-size="14.00" fill="#000000">MailModule</text>
</g>
<!-- MailModule&#45;&gt;AppModule -->
<g id="edge4" class="edge">
<title>MailModule&#45;&gt;AppModule</title>
<path fill="none" stroke="#000000" d="M2063,-198.1446C2063,-236.2265 2063,-321 2063,-321 2063,-321 1828.8931,-321 1828.8931,-321"/>
<polygon fill="#000000" stroke="#000000" points="1828.8932,-317.5001 1818.8931,-321 1828.8931,-324.5001 1828.8932,-317.5001"/>
</g>
<!-- MailService  -->
<g id="node20" class="node">
<title>MailService </title>
<polygon fill="#fb8072" stroke="#000000" points="2349.918,-274 2262.082,-274 2262.082,-238 2349.918,-238 2349.918,-274"/>
<text text-anchor="middle" x="2306" y="-251.8" font-family="Times,serif" font-size="14.00" fill="#000000">MailService </text>
</g>
<!-- MailModule&#45;&gt;MailService  -->
<g id="edge20" class="edge">
<title>MailModule&#45;&gt;MailService </title>
<path fill="none" stroke="#000000" stroke-dasharray="5,2" d="M2084.4976,-198.0267C2084.4976,-218.7672 2084.4976,-250 2084.4976,-250 2084.4976,-250 2251.9734,-250 2251.9734,-250"/>
<polygon fill="#000000" stroke="#000000" points="2251.9734,-253.5001 2261.9734,-250 2251.9734,-246.5001 2251.9734,-253.5001"/>
</g>
<!-- ProfileModule -->
<g id="node5" class="node">
<title>ProfileModule</title>
<polygon fill="#8dd3c7" stroke="#000000" points="1737.65,-274 1734.65,-278 1713.65,-278 1710.65,-274 1640.35,-274 1640.35,-238 1737.65,-238 1737.65,-274"/>
<text text-anchor="middle" x="1689" y="-251.8" font-family="Times,serif" font-size="14.00" fill="#000000">ProfileModule</text>
</g>
<!-- ProfileModule&#45;&gt;AppModule -->
<g id="edge5" class="edge">
<title>ProfileModule&#45;&gt;AppModule</title>
<path fill="none" stroke="#000000" d="M1737.8917,-262C1740.0475,-262 1741.3249,-262 1741.3249,-262 1741.3249,-262 1741.3249,-292.9775 1741.3249,-292.9775"/>
<polygon fill="#000000" stroke="#000000" points="1737.825,-292.9774 1741.3249,-302.9775 1744.825,-292.9775 1737.825,-292.9774"/>
</g>
<!-- SharedModule -->
<g id="node6" class="node">
<title>SharedModule</title>
<polygon fill="#8dd3c7" stroke="#000000" points="2222.4231,-198 2219.4231,-202 2198.4231,-202 2195.4231,-198 2123.5769,-198 2123.5769,-162 2222.4231,-162 2222.4231,-198"/>
<text text-anchor="middle" x="2173" y="-175.8" font-family="Times,serif" font-size="14.00" fill="#000000">SharedModule</text>
</g>
<!-- SharedModule&#45;&gt;AppModule -->
<g id="edge6" class="edge">
<title>SharedModule&#45;&gt;AppModule</title>
<path fill="none" stroke="#000000" d="M2173,-198.0935C2173,-237.9889 2173,-330 2173,-330 2173,-330 1829.004,-330 1829.004,-330"/>
<polygon fill="#000000" stroke="#000000" points="1829.0041,-326.5001 1819.004,-330 1829.004,-333.5001 1829.0041,-326.5001"/>
</g>
<!-- BaseService  -->
<g id="node22" class="node">
<title>BaseService </title>
<polygon fill="#fb8072" stroke="#000000" points="2813.1885,-274 2724.8115,-274 2724.8115,-238 2813.1885,-238 2813.1885,-274"/>
<text text-anchor="middle" x="2769" y="-251.8" font-family="Times,serif" font-size="14.00" fill="#000000">BaseService </text>
</g>
<!-- SharedModule&#45;&gt;BaseService  -->
<g id="edge24" class="edge">
<title>SharedModule&#45;&gt;BaseService </title>
<path fill="none" stroke="#000000" stroke-dasharray="5,2" d="M2222.2802,-177C2365.0743,-177 2769,-177 2769,-177 2769,-177 2769,-227.6772 2769,-227.6772"/>
<polygon fill="#000000" stroke="#000000" points="2765.5001,-227.6772 2769,-237.6772 2772.5001,-227.6773 2765.5001,-227.6772"/>
</g>
<!-- CurrentUserService  -->
<g id="node23" class="node">
<title>CurrentUserService </title>
<polygon fill="#fb8072" stroke="#000000" points="2962.1674,-274 2831.8326,-274 2831.8326,-238 2962.1674,-238 2962.1674,-274"/>
<text text-anchor="middle" x="2897" y="-251.8" font-family="Times,serif" font-size="14.00" fill="#000000">CurrentUserService </text>
</g>
<!-- SharedModule&#45;&gt;CurrentUserService  -->
<g id="edge25" class="edge">
<title>SharedModule&#45;&gt;CurrentUserService </title>
<path fill="none" stroke="#000000" stroke-dasharray="5,2" d="M2222.4785,-170C2385.7417,-170 2897,-170 2897,-170 2897,-170 2897,-227.7616 2897,-227.7616"/>
<polygon fill="#000000" stroke="#000000" points="2893.5001,-227.7616 2897,-237.7616 2900.5001,-227.7616 2893.5001,-227.7616"/>
</g>
<!-- TracksModule -->
<g id="node7" class="node">
<title>TracksModule</title>
<polygon fill="#8dd3c7" stroke="#000000" points="1863.6375,-198 1860.6375,-202 1839.6375,-202 1836.6375,-198 1766.3625,-198 1766.3625,-162 1863.6375,-162 1863.6375,-198"/>
<text text-anchor="middle" x="1815" y="-175.8" font-family="Times,serif" font-size="14.00" fill="#000000">TracksModule</text>
</g>
<!-- TracksModule&#45;&gt;AppModule -->
<g id="edge7" class="edge">
<title>TracksModule&#45;&gt;AppModule</title>
<path fill="none" stroke="#000000" d="M1792.5049,-198.1446C1792.5049,-198.1446 1792.5049,-292.925 1792.5049,-292.925"/>
<polygon fill="#000000" stroke="#000000" points="1789.005,-292.925 1792.5049,-302.925 1796.005,-292.925 1789.005,-292.925"/>
</g>
<!-- UsersModule -->
<g id="node8" class="node">
<title>UsersModule</title>
<polygon fill="#8dd3c7" stroke="#000000" points="1625.9218,-198 1622.9218,-202 1601.9218,-202 1598.9218,-198 1534.0782,-198 1534.0782,-162 1625.9218,-162 1625.9218,-198"/>
<text text-anchor="middle" x="1580" y="-175.8" font-family="Times,serif" font-size="14.00" fill="#000000">UsersModule</text>
</g>
<!-- UsersModule&#45;&gt;AuthModule -->
<g id="edge10" class="edge">
<title>UsersModule&#45;&gt;AuthModule</title>
<path fill="none" stroke="#000000" d="M1605.8673,-198.0109C1605.8673,-198.0109 1605.8673,-227.855 1605.8673,-227.855"/>
<polygon fill="#000000" stroke="#000000" points="1602.3674,-227.8549 1605.8673,-237.855 1609.3674,-227.855 1602.3674,-227.8549"/>
</g>
<!-- UsersModule&#45;&gt;ProfileModule -->
<g id="edge22" class="edge">
<title>UsersModule&#45;&gt;ProfileModule</title>
<path fill="none" stroke="#000000" d="M1625.7118,-174C1631.4481,-174 1635.3537,-174 1635.3537,-174 1635.3537,-174 1635.3537,-256 1635.3537,-256 1635.3537,-256 1635.8487,-256 1635.8487,-256"/>
<polygon fill="#000000" stroke="#000000" points="1630.3045,-259.5002 1640.3044,-256 1630.3043,-252.5002 1630.3045,-259.5002"/>
</g>
<!-- UsersModule&#45;&gt;AppModule -->
<g id="edge8" class="edge">
<title>UsersModule&#45;&gt;AppModule</title>
<path fill="none" stroke="#000000" d="M1625.8687,-186C1628.7555,-186 1630.532,-186 1630.532,-186 1630.532,-186 1630.532,-312 1630.532,-312 1630.532,-312 1725.0282,-312 1725.0282,-312"/>
<polygon fill="#000000" stroke="#000000" points="1725.0282,-315.5001 1735.0282,-312 1725.0281,-308.5001 1725.0282,-315.5001"/>
</g>
<!-- UsersService  -->
<g id="node26" class="node">
<title>UsersService </title>
<polygon fill="#fb8072" stroke="#000000" points="3095.8493,-274 3002.1507,-274 3002.1507,-238 3095.8493,-238 3095.8493,-274"/>
<text text-anchor="middle" x="3049" y="-251.8" font-family="Times,serif" font-size="14.00" fill="#000000">UsersService </text>
</g>
<!-- UsersModule&#45;&gt;UsersService  -->
<g id="edge28" class="edge">
<title>UsersModule&#45;&gt;UsersService </title>
<path fill="none" stroke="#000000" stroke-dasharray="5,2" d="M1613.8204,-198.1686C1613.8204,-202.0459 1613.8204,-205 1613.8204,-205 1613.8204,-205 3049,-205 3049,-205 3049,-205 3049,-227.8757 3049,-227.8757"/>
<polygon fill="#000000" stroke="#000000" points="3045.5001,-227.8757 3049,-237.8757 3052.5001,-227.8757 3045.5001,-227.8757"/>
</g>
<!-- AppService -->
<g id="node10" class="node">
<title>AppService</title>
<ellipse fill="#fdb462" stroke="#000000" cx="1453" cy="-256" rx="56.7406" ry="18"/>
<text text-anchor="middle" x="1453" y="-251.8" font-family="Times,serif" font-size="14.00" fill="#000000">AppService</text>
</g>
<!-- AppService&#45;&gt;AppModule -->
<g id="edge9" class="edge">
<title>AppService&#45;&gt;AppModule</title>
<path fill="none" stroke="#000000" d="M1453,-274.2921C1453,-296.2057 1453,-330 1453,-330 1453,-330 1725.306,-330 1725.306,-330"/>
<polygon fill="#000000" stroke="#000000" points="1725.306,-333.5001 1735.306,-330 1725.3059,-326.5001 1725.306,-333.5001"/>
</g>
<!-- AuthHandler -->
<g id="node12" class="node">
<title>AuthHandler</title>
<ellipse fill="#fdb462" stroke="#000000" cx="636" cy="-180" rx="61.3974" ry="18"/>
<text text-anchor="middle" x="636" y="-175.8" font-family="Times,serif" font-size="14.00" fill="#000000">AuthHandler</text>
</g>
<!-- AuthHandler&#45;&gt;AuthModule -->
<g id="edge12" class="edge">
<title>AuthHandler&#45;&gt;AuthModule</title>
<path fill="none" stroke="#000000" d="M636,-198.0555C636,-209.439 636,-222 636,-222 636,-222 1574.055,-222 1574.055,-222 1574.055,-222 1574.055,-227.8056 1574.055,-227.8056"/>
<polygon fill="#000000" stroke="#000000" points="1570.5551,-227.8055 1574.055,-237.8056 1577.5551,-227.8056 1570.5551,-227.8055"/>
</g>
<!-- AuthService -->
<g id="node13" class="node">
<title>AuthService</title>
<ellipse fill="#fdb462" stroke="#000000" cx="497" cy="-180" rx="59.1083" ry="18"/>
<text text-anchor="middle" x="497" y="-175.8" font-family="Times,serif" font-size="14.00" fill="#000000">AuthService</text>
</g>
<!-- AuthService&#45;&gt;AuthModule -->
<g id="edge13" class="edge">
<title>AuthService&#45;&gt;AuthModule</title>
<path fill="none" stroke="#000000" d="M497,-198.0439C497,-210.5633 497,-225 497,-225 497,-225 1566.1019,-225 1566.1019,-225 1566.1019,-225 1566.1019,-227.9672 1566.1019,-227.9672"/>
<polygon fill="#000000" stroke="#000000" points="1562.602,-227.9671 1566.1019,-237.9672 1569.602,-227.9672 1562.602,-227.9671"/>
</g>
<!-- JwtStrategy -->
<g id="node14" class="node">
<title>JwtStrategy</title>
<ellipse fill="#fdb462" stroke="#000000" cx="363" cy="-180" rx="56.7561" ry="18"/>
<text text-anchor="middle" x="363" y="-175.8" font-family="Times,serif" font-size="14.00" fill="#000000">JwtStrategy</text>
</g>
<!-- JwtStrategy&#45;&gt;AuthModule -->
<g id="edge14" class="edge">
<title>JwtStrategy&#45;&gt;AuthModule</title>
<path fill="none" stroke="#000000" d="M363,-198.1467C363,-211.7395 363,-228 363,-228 363,-228 1558.1488,-228 1558.1488,-228 1558.1488,-228 1558.1488,-228.9793 1558.1488,-228.9793"/>
<polygon fill="#000000" stroke="#000000" points="1554.649,-227.793 1558.1488,-237.793 1561.649,-227.7931 1554.649,-227.793"/>
</g>
<!-- LocalStrategy -->
<g id="node15" class="node">
<title>LocalStrategy</title>
<ellipse fill="#fdb462" stroke="#000000" cx="223" cy="-180" rx="65.4053" ry="18"/>
<text text-anchor="middle" x="223" y="-175.8" font-family="Times,serif" font-size="14.00" fill="#000000">LocalStrategy</text>
</g>
<!-- LocalStrategy&#45;&gt;AuthModule -->
<g id="edge15" class="edge">
<title>LocalStrategy&#45;&gt;AuthModule</title>
<path fill="none" stroke="#000000" d="M223,-198.1871C223,-213.1824 223,-232 223,-232 223,-232 1550.1958,-232 1550.1958,-232 1550.1958,-232 1550.1958,-232.581 1550.1958,-232.581"/>
<polygon fill="#000000" stroke="#000000" points="1546.696,-227.8097 1550.1958,-237.8097 1553.696,-227.8098 1546.696,-227.8097"/>
</g>
<!-- MailService -->
<g id="node16" class="node">
<title>MailService</title>
<ellipse fill="#fdb462" stroke="#000000" cx="82" cy="-180" rx="58.4609" ry="18"/>
<text text-anchor="middle" x="82" y="-175.8" font-family="Times,serif" font-size="14.00" fill="#000000">MailService</text>
</g>
<!-- MailService&#45;&gt;AuthModule -->
<g id="edge16" class="edge">
<title>MailService&#45;&gt;AuthModule</title>
<path fill="none" stroke="#000000" d="M62.59,-197.1009C62.59,-213.2462 62.59,-235 62.59,-235 62.59,-235 1542.2427,-235 1542.2427,-235 1542.2427,-235 1542.2427,-235.292 1542.2427,-235.292"/>
<polygon fill="#000000" stroke="#000000" points="1538.7431,-227.9198 1542.2427,-237.92 1545.7431,-227.9201 1538.7431,-227.9198"/>
</g>
<!-- MailService&#45;&gt;MailModule -->
<g id="edge21" class="edge">
<title>MailService&#45;&gt;MailModule</title>
<path fill="none" stroke="#000000" d="M101.41,-197.3344C101.41,-200.061 101.41,-202 101.41,-202 101.41,-202 2041.5025,-202 2041.5025,-202 2041.5025,-202 2041.5025,-201.6168 2041.5025,-201.6168"/>
<polygon fill="#000000" stroke="#000000" points="2045.0027,-208.1678 2041.5025,-198.1679 2038.0027,-208.168 2045.0027,-208.1678"/>
</g>
<!-- SessionSerializer -->
<g id="node17" class="node">
<title>SessionSerializer</title>
<ellipse fill="#fdb462" stroke="#000000" cx="992" cy="-180" rx="77.5781" ry="18"/>
<text text-anchor="middle" x="992" y="-175.8" font-family="Times,serif" font-size="14.00" fill="#000000">SessionSerializer</text>
</g>
<!-- SessionSerializer&#45;&gt;AuthModule -->
<g id="edge17" class="edge">
<title>SessionSerializer&#45;&gt;AuthModule</title>
<path fill="none" stroke="#000000" d="M992,-198.32C992,-206.7883 992,-215 992,-215 992,-215 1589.9612,-215 1589.9612,-215 1589.9612,-215 1589.9612,-227.8975 1589.9612,-227.8975"/>
<polygon fill="#000000" stroke="#000000" points="1586.4613,-227.8974 1589.9612,-237.8975 1593.4613,-227.8975 1586.4613,-227.8974"/>
</g>
<!-- TempTokensService -->
<g id="node18" class="node">
<title>TempTokensService</title>
<ellipse fill="#fdb462" stroke="#000000" cx="806" cy="-180" rx="90.8916" ry="18"/>
<text text-anchor="middle" x="806" y="-175.8" font-family="Times,serif" font-size="14.00" fill="#000000">TempTokensService</text>
</g>
<!-- TempTokensService&#45;&gt;AuthModule -->
<g id="edge18" class="edge">
<title>TempTokensService&#45;&gt;AuthModule</title>
<path fill="none" stroke="#000000" d="M806,-198.1097C806,-207.897 806,-218 806,-218 806,-218 1582.0081,-218 1582.0081,-218 1582.0081,-218 1582.0081,-227.8903 1582.0081,-227.8903"/>
<polygon fill="#000000" stroke="#000000" points="1578.5082,-227.8903 1582.0081,-237.8903 1585.5082,-227.8904 1578.5082,-227.8903"/>
</g>
<!-- CategoryService -->
<g id="node19" class="node">
<title>CategoryService</title>
<ellipse fill="#fdb462" stroke="#000000" cx="1942" cy="-104" rx="75.279" ry="18"/>
<text text-anchor="middle" x="1942" y="-99.8" font-family="Times,serif" font-size="14.00" fill="#000000">CategoryService</text>
</g>
<!-- CategoryService&#45;&gt;CategoriesModule -->
<g id="edge19" class="edge">
<title>CategoryService&#45;&gt;CategoriesModule</title>
<path fill="none" stroke="#000000" d="M1942,-122.0109C1942,-122.0109 1942,-151.855 1942,-151.855"/>
<polygon fill="#000000" stroke="#000000" points="1938.5001,-151.8549 1942,-161.855 1945.5001,-151.855 1938.5001,-151.8549"/>
</g>
<!-- ProfileService -->
<g id="node21" class="node">
<title>ProfileService</title>
<ellipse fill="#fdb462" stroke="#000000" cx="1290" cy="-180" rx="66.0454" ry="18"/>
<text text-anchor="middle" x="1290" y="-175.8" font-family="Times,serif" font-size="14.00" fill="#000000">ProfileService</text>
</g>
<!-- ProfileService&#45;&gt;ProfileModule -->
<g id="edge23" class="edge">
<title>ProfileService&#45;&gt;ProfileModule</title>
<path fill="none" stroke="#000000" d="M1290,-198.207C1290,-203.5549 1290,-208 1290,-208 1290,-208 1690.7497,-208 1690.7497,-208 1690.7497,-208 1690.7497,-227.8533 1690.7497,-227.8533"/>
<polygon fill="#000000" stroke="#000000" points="1687.2497,-227.8532 1690.7497,-237.8533 1694.2497,-227.8533 1687.2497,-227.8532"/>
</g>
<!-- BaseService -->
<g id="node24" class="node">
<title>BaseService</title>
<ellipse fill="#fdb462" stroke="#000000" cx="2449" cy="-256" rx="58.5232" ry="18"/>
<text text-anchor="middle" x="2449" y="-251.8" font-family="Times,serif" font-size="14.00" fill="#000000">BaseService</text>
</g>
<!-- BaseService&#45;&gt;SharedModule -->
<g id="edge26" class="edge">
<title>BaseService&#45;&gt;SharedModule</title>
<path fill="none" stroke="#000000" d="M2449,-237.8939C2449,-218.6609 2449,-191 2449,-191 2449,-191 2232.3433,-191 2232.3433,-191"/>
<polygon fill="#000000" stroke="#000000" points="2232.3433,-187.5001 2222.3433,-191 2232.3432,-194.5001 2232.3433,-187.5001"/>
</g>
<!-- CurrentUserService -->
<g id="node25" class="node">
<title>CurrentUserService</title>
<ellipse fill="#fdb462" stroke="#000000" cx="2613" cy="-256" rx="87.9355" ry="18"/>
<text text-anchor="middle" x="2613" y="-251.8" font-family="Times,serif" font-size="14.00" fill="#000000">CurrentUserService</text>
</g>
<!-- CurrentUserService&#45;&gt;SharedModule -->
<g id="edge27" class="edge">
<title>CurrentUserService&#45;&gt;SharedModule</title>
<path fill="none" stroke="#000000" d="M2613,-237.8314C2613,-216.502 2613,-184 2613,-184 2613,-184 2232.6183,-184 2232.6183,-184"/>
<polygon fill="#000000" stroke="#000000" points="2232.6183,-180.5001 2222.6183,-184 2232.6183,-187.5001 2232.6183,-180.5001"/>
</g>
</g>
</svg>
