<svg xmlns="http://www.w3.org/2000/svg" xmlns:xlink="http://www.w3.org/1999/xlink" width="2903pt" height="458pt" viewBox="0 0 2903 458"><g id="graph0" class="graph" transform="scale(1 1) rotate(0) translate(4 454)"><title>dependencies</title><polygon fill="#fff" stroke="transparent" points="-4 4 -4 -454 2899 -454 2899 4 -4 4"/><text x="1426.509" y="-42.4" fill="#000" font-family="sans-serif" font-size="14" font-weight="bold" text-anchor="start">Legend</text><polygon fill="#ffffb3" stroke="transparent" points="1213.5 -10 1213.5 -30 1233.5 -30 1233.5 -10 1213.5 -10"/><text x="1237.129" y="-15.4" fill="#000" font-family="sans-serif" font-size="14" text-anchor="start">Declarations</text><polygon fill="#8dd3c7" stroke="transparent" points="1326.5 -10 1326.5 -30 1346.5 -30 1346.5 -10 1326.5 -10"/><text x="1350.225" y="-15.4" fill="#000" font-family="sans-serif" font-size="14" text-anchor="start">Module</text><polygon fill="#80b1d3" stroke="transparent" points="1412.5 -10 1412.5 -30 1432.5 -30 1432.5 -10 1412.5 -10"/><text x="1436.281" y="-15.4" fill="#000" font-family="sans-serif" font-size="14" text-anchor="start">Bootstrap</text><polygon fill="#fdb462" stroke="transparent" points="1509.5 -10 1509.5 -30 1529.5 -30 1529.5 -10 1509.5 -10"/><text x="1533.173" y="-15.4" fill="#000" font-family="sans-serif" font-size="14" text-anchor="start">Providers</text><polygon fill="#fb8072" stroke="transparent" points="1605.5 -10 1605.5 -30 1625.5 -30 1625.5 -10 1605.5 -10"/><text x="1629.226" y="-15.4" fill="#000" font-family="sans-serif" font-size="14" text-anchor="start">Exports</text><g id="clust1" class="cluster"><title>cluster_AppModule</title><polygon fill="none" stroke="#000" stroke-dasharray="1 5" points="1357 -70 1357 -434 2151 -434 2151 -70 1357 -70"/></g><g id="clust3" class="cluster"><title>cluster_AppModule_imports</title><polygon fill="none" stroke="#000" points="1555 -78 1555 -358 2143 -358 2143 -78 1555 -78"/></g><g id="clust6" class="cluster"><title>cluster_AppModule_providers</title><polygon fill="none" stroke="#000" points="1417 -306 1417 -358 1547 -358 1547 -306 1417 -306"/></g><g id="clust7" class="cluster"><title>cluster_AuthModule</title><polygon fill="none" stroke="#000" stroke-dasharray="1 5" points="8 -70 8 -138 911 -138 911 -70 8 -70"/></g><g id="clust10" class="cluster"><title>cluster_AuthModule_exports</title><polygon fill="none" stroke="#000" points="797 -78 797 -130 903 -130 903 -78 797 -78"/></g><g id="clust12" class="cluster"><title>cluster_AuthModule_providers</title><polygon fill="none" stroke="#000" points="16 -78 16 -130 789 -130 789 -78 16 -78"/></g><g id="clust13" class="cluster"><title>cluster_CategoriesModule</title><polygon fill="none" stroke="#000" stroke-dasharray="1 5" points="2159 -146 2159 -214 2313 -214 2313 -146 2159 -146"/></g><g id="clust16" class="cluster"><title>cluster_CategoriesModule_exports</title><polygon fill="none" stroke="#000" points="2167 -154 2167 -206 2305 -206 2305 -154 2167 -154"/></g><g id="clust19" class="cluster"><title>cluster_CoursesModule</title><polygon fill="none" stroke="#000" stroke-dasharray="1 5" points="2321 -146 2321 -214 2625 -214 2625 -146 2321 -146"/></g><g id="clust22" class="cluster"><title>cluster_CoursesModule_exports</title><polygon fill="none" stroke="#000" points="2495 -154 2495 -206 2617 -206 2617 -154 2495 -154"/></g><g id="clust24" class="cluster"><title>cluster_CoursesModule_providers</title><polygon fill="none" stroke="#000" points="2329 -154 2329 -206 2487 -206 2487 -154 2329 -154"/></g><g id="clust31" class="cluster"><title>cluster_MailModule</title><polygon fill="none" stroke="#000" stroke-dasharray="1 5" points="2633 -146 2633 -214 2753 -214 2753 -146 2633 -146"/></g><g id="clust34" class="cluster"><title>cluster_MailModule_exports</title><polygon fill="none" stroke="#000" points="2641 -154 2641 -206 2745 -206 2745 -154 2641 -154"/></g><g id="clust37" class="cluster"><title>cluster_ProfileModule</title><polygon fill="none" stroke="#000" stroke-dasharray="1 5" points="919 -70 919 -138 1349 -138 1349 -70 919 -70"/></g><g id="clust40" class="cluster"><title>cluster_ProfileModule_exports</title><polygon fill="none" stroke="#000" points="1225 -78 1225 -130 1341 -130 1341 -78 1225 -78"/></g><g id="clust42" class="cluster"><title>cluster_ProfileModule_providers</title><polygon fill="none" stroke="#000" points="927 -78 927 -130 1217 -130 1217 -78 927 -78"/></g><g id="clust49" class="cluster"><title>cluster_StagesModule</title><polygon fill="none" stroke="#000" stroke-dasharray="1 5" points="2159 -298 2159 -366 2443 -366 2443 -298 2159 -298"/></g><g id="clust52" class="cluster"><title>cluster_StagesModule_exports</title><polygon fill="none" stroke="#000" points="2321 -306 2321 -358 2435 -358 2435 -306 2321 -306"/></g><g id="clust54" class="cluster"><title>cluster_StagesModule_providers</title><polygon fill="none" stroke="#000" points="2167 -306 2167 -358 2313 -358 2313 -306 2167 -306"/></g><g id="clust55" class="cluster"><title>cluster_TasksModule</title><polygon fill="none" stroke="#000" stroke-dasharray="1 5" points="2159 -374 2159 -442 2435 -442 2435 -374 2159 -374"/></g><g id="clust58" class="cluster"><title>cluster_TasksModule_exports</title><polygon fill="none" stroke="#000" points="2317 -382 2317 -434 2427 -434 2427 -382 2317 -382"/></g><g id="clust60" class="cluster"><title>cluster_TasksModule_providers</title><polygon fill="none" stroke="#000" points="2167 -382 2167 -434 2309 -434 2309 -382 2167 -382"/></g><g id="clust61" class="cluster"><title>cluster_TracksModule</title><polygon fill="none" stroke="#000" stroke-dasharray="1 5" points="2159 -222 2159 -290 2447 -290 2447 -222 2159 -222"/></g><g id="clust64" class="cluster"><title>cluster_TracksModule_exports</title><polygon fill="none" stroke="#000" points="2323 -230 2323 -282 2439 -282 2439 -230 2323 -230"/></g><g id="clust66" class="cluster"><title>cluster_TracksModule_providers</title><polygon fill="none" stroke="#000" points="2167 -230 2167 -282 2315 -282 2315 -230 2167 -230"/></g><g id="clust67" class="cluster"><title>cluster_UsersModule</title><polygon fill="none" stroke="#000" stroke-dasharray="1 5" points="2761 -146 2761 -214 2887 -214 2887 -146 2761 -146"/></g><g id="clust70" class="cluster"><title>cluster_UsersModule_exports</title><polygon fill="none" stroke="#000" points="2769 -154 2769 -206 2879 -206 2879 -154 2769 -154"/></g><g id="node1" class="node"><title>AuthModule</title><polygon fill="#8dd3c7" stroke="#000" points="1650.548 -198 1647.548 -202 1626.548 -202 1623.548 -198 1563.452 -198 1563.452 -162 1650.548 -162 1650.548 -198"/><text x="1607" y="-175.8" fill="#000" font-family="Times,serif" font-size="14" text-anchor="middle">AuthModule</text></g><g id="node11" class="node"><title>AppModule</title><polygon fill="#8dd3c7" stroke="#000" points="1916.657 -426 1913.657 -430 1892.657 -430 1889.657 -426 1833.343 -426 1833.343 -390 1916.657 -390 1916.657 -426"/><text x="1875" y="-403.8" fill="#000" font-family="Times,serif" font-size="14" text-anchor="middle">AppModule</text></g><g id="edge1" class="edge"><title>AuthModule-&gt;AppModule</title><path fill="none" stroke="#000" d="M1607,-198.2803C1607,-254.0109 1607,-418 1607,-418 1607,-418 1823.125,-418 1823.125,-418"/><polygon fill="#000" stroke="#000" points="1823.125 -421.5 1833.125 -418 1823.125 -414.5 1823.125 -421.5"/></g><g id="node13" class="node"><title>AuthService</title><polygon fill="#fb8072" stroke="#000" points="894.976 -122 805.024 -122 805.024 -86 894.976 -86 894.976 -122"/><text x="850" y="-99.8" fill="#000" font-family="Times,serif" font-size="14" text-anchor="middle">AuthService</text></g><g id="edge13" class="edge"><title>AuthModule-&gt;AuthService</title><path fill="none" stroke="#000" stroke-dasharray="5 2" d="M1563.3054,-168C1402.0973,-168 850,-168 850,-168 850,-168 850,-132.1686 850,-132.1686"/><polygon fill="#000" stroke="#000" points="853.5 -132.169 850 -122.169 846.5 -132.169 853.5 -132.169"/></g><g id="node2" class="node"><title>CategoriesModule</title><polygon fill="#8dd3c7" stroke="#000" points="1908.917 -122 1905.917 -126 1884.917 -126 1881.917 -122 1789.083 -122 1789.083 -86 1908.917 -86 1908.917 -122"/><text x="1849" y="-99.8" fill="#000" font-family="Times,serif" font-size="14" text-anchor="middle">CategoriesModule</text></g><g id="edge2" class="edge"><title>CategoriesModule-&gt;AppModule</title><path fill="none" stroke="#000" d="M1801.7367,-122.1926C1801.7367,-186.8928 1801.7367,-402 1801.7367,-402 1801.7367,-402 1823.2321,-402 1823.2321,-402"/><polygon fill="#000" stroke="#000" points="1823.232 -405.5 1833.232 -402 1823.232 -398.5 1823.232 -405.5"/></g><g id="node19" class="node"><title>CategoriesService</title><polygon fill="#fb8072" stroke="#000" points="2296.845 -198 2175.155 -198 2175.155 -162 2296.845 -162 2296.845 -198"/><text x="2236" y="-175.8" fill="#000" font-family="Times,serif" font-size="14" text-anchor="middle">CategoriesService</text></g><g id="edge19" class="edge"><title>CategoriesModule-&gt;CategoriesService</title><path fill="none" stroke="#000" stroke-dasharray="5 2" d="M1908.9592,-104C1913.5431,-104 1916.4334,-104 1916.4334,-104 1916.4334,-104 1916.4334,-174 1916.4334,-174 1916.4334,-174 2165.1398,-174 2165.1398,-174"/><polygon fill="#000" stroke="#000" points="2165.14 -177.5 2175.14 -174 2165.14 -170.5 2165.14 -177.5"/></g><g id="node3" class="node"><title>CoursesModule</title><polygon fill="#8dd3c7" stroke="#000" points="2031.151 -122 2028.151 -126 2007.151 -126 2004.151 -122 1926.849 -122 1926.849 -86 2031.151 -86 2031.151 -122"/><text x="1979" y="-99.8" fill="#000" font-family="Times,serif" font-size="14" text-anchor="middle">CoursesModule</text></g><g id="edge3" class="edge"><title>CoursesModule-&gt;AppModule</title><path fill="none" stroke="#000" d="M2005.1627,-122.1062C2005.1627,-187.5518 2005.1627,-408 2005.1627,-408 2005.1627,-408 1926.9008,-408 1926.9008,-408"/><polygon fill="#000" stroke="#000" points="1926.901 -404.5 1916.901 -408 1926.901 -411.5 1926.901 -404.5"/></g><g id="node20" class="node"><title>CoursesService</title><polygon fill="#fb8072" stroke="#000" points="2609.079 -198 2502.921 -198 2502.921 -162 2609.079 -162 2609.079 -198"/><text x="2556" y="-175.8" fill="#000" font-family="Times,serif" font-size="14" text-anchor="middle">CoursesService</text></g><g id="edge20" class="edge"><title>CoursesModule-&gt;CoursesService</title><path fill="none" stroke="#000" stroke-dasharray="5 2" d="M1952.8373,-122.207C1952.8373,-127.5549 1952.8373,-132 1952.8373,-132 1952.8373,-132 2556,-132 2556,-132 2556,-132 2556,-151.8533 2556,-151.8533"/><polygon fill="#000" stroke="#000" points="2552.5 -151.853 2556 -161.853 2559.5 -151.853 2552.5 -151.853"/></g><g id="node4" class="node"><title>MailModule</title><polygon fill="#8dd3c7" stroke="#000" points="2134.99 -122 2131.99 -126 2110.99 -126 2107.99 -122 2049.01 -122 2049.01 -86 2134.99 -86 2134.99 -122"/><text x="2092" y="-99.8" fill="#000" font-family="Times,serif" font-size="14" text-anchor="middle">MailModule</text></g><g id="edge4" class="edge"><title>MailModule-&gt;AppModule</title><path fill="none" stroke="#000" d="M2092,-122.1811C2092,-188.983 2092,-417 2092,-417 2092,-417 1926.8398,-417 1926.8398,-417"/><polygon fill="#000" stroke="#000" points="1926.84 -413.5 1916.84 -417 1926.84 -420.5 1926.84 -413.5"/></g><g id="node22" class="node"><title>MailService</title><polygon fill="#fb8072" stroke="#000" points="2736.918 -198 2649.082 -198 2649.082 -162 2736.918 -162 2736.918 -198"/><text x="2693" y="-175.8" fill="#000" font-family="Times,serif" font-size="14" text-anchor="middle">MailService</text></g><g id="edge22" class="edge"><title>MailModule-&gt;MailService</title><path fill="none" stroke="#000" stroke-dasharray="5 2" d="M2135.2224,-104C2273.0263,-104 2693,-104 2693,-104 2693,-104 2693,-151.9891 2693,-151.9891"/><polygon fill="#000" stroke="#000" points="2689.5 -151.989 2693 -161.989 2696.5 -151.989 2689.5 -151.989"/></g><g id="node5" class="node"><title>ProfileModule</title><polygon fill="#8dd3c7" stroke="#000" points="1766.65 -198 1763.65 -202 1742.65 -202 1739.65 -198 1669.35 -198 1669.35 -162 1766.65 -162 1766.65 -198"/><text x="1718" y="-175.8" fill="#000" font-family="Times,serif" font-size="14" text-anchor="middle">ProfileModule</text></g><g id="edge5" class="edge"><title>ProfileModule-&gt;AppModule</title><path fill="none" stroke="#000" d="M1718,-198.0477C1718,-252.2681 1718,-410 1718,-410 1718,-410 1823.3391,-410 1823.3391,-410"/><polygon fill="#000" stroke="#000" points="1823.339 -413.5 1833.339 -410 1823.339 -406.5 1823.339 -413.5"/></g><g id="node23" class="node"><title>ProfileService</title><polygon fill="#fb8072" stroke="#000" points="1332.578 -122 1233.422 -122 1233.422 -86 1332.578 -86 1332.578 -122"/><text x="1283" y="-99.8" fill="#000" font-family="Times,serif" font-size="14" text-anchor="middle">ProfileService</text></g><g id="edge25" class="edge"><title>ProfileModule-&gt;ProfileService</title><path fill="none" stroke="#000" stroke-dasharray="5 2" d="M1743.3158,-161.9551C1743.3158,-154.251 1743.3158,-147 1743.3158,-147 1743.3158,-147 1283,-147 1283,-147 1283,-147 1283,-132.4854 1283,-132.4854"/><polygon fill="#000" stroke="#000" points="1286.5 -132.485 1283 -122.485 1279.5 -132.486 1286.5 -132.485"/></g><g id="node6" class="node"><title>SharedModule</title><polygon fill="#8dd3c7" stroke="#000" points="1771.423 -122 1768.423 -126 1747.423 -126 1744.423 -122 1672.577 -122 1672.577 -86 1771.423 -86 1771.423 -122"/><text x="1722" y="-99.8" fill="#000" font-family="Times,serif" font-size="14" text-anchor="middle">SharedModule</text></g><g id="edge6" class="edge"><title>SharedModule-&gt;AppModule</title><path fill="none" stroke="#000" d="M1771.6562,-104C1776.8347,-104 1780.2514,-104 1780.2514,-104 1780.2514,-104 1780.2514,-406 1780.2514,-406 1780.2514,-406 1823.1661,-406 1823.1661,-406"/><polygon fill="#000" stroke="#000" points="1823.166 -409.5 1833.166 -406 1823.166 -402.5 1823.166 -409.5"/></g><g id="node7" class="node"><title>StagesModule</title><polygon fill="#8dd3c7" stroke="#000" points="1921.097 -274 1918.097 -278 1897.097 -278 1894.097 -274 1824.903 -274 1824.903 -238 1921.097 -238 1921.097 -274"/><text x="1873" y="-251.8" fill="#000" font-family="Times,serif" font-size="14" text-anchor="middle">StagesModule</text></g><g id="node8" class="node"><title>TasksModule</title><polygon fill="#8dd3c7" stroke="#000" points="1921.206 -350 1918.206 -354 1897.206 -354 1894.206 -350 1828.794 -350 1828.794 -314 1921.206 -314 1921.206 -350"/><text x="1875" y="-327.8" fill="#000" font-family="Times,serif" font-size="14" text-anchor="middle">TasksModule</text></g><g id="edge31" class="edge"><title>StagesModule-&gt;TasksModule</title><path fill="none" stroke="#000" d="M1859.6141,-274.0109C1859.6141,-274.0109 1859.6141,-303.855 1859.6141,-303.855"/><polygon fill="#000" stroke="#000" points="1856.114 -303.855 1859.614 -313.855 1863.114 -303.855 1856.114 -303.855"/></g><g id="edge7" class="edge"><title>StagesModule-&gt;AppModule</title><path fill="none" stroke="#000" d="M1824.7064,-256C1823.1541,-256 1822.2591,-256 1822.2591,-256 1822.2591,-256 1822.2591,-394 1822.2591,-394 1822.2591,-394 1823.3519,-394 1823.3519,-394"/><polygon fill="#000" stroke="#000" points="1823.187 -397.5 1833.187 -394 1823.187 -390.5 1823.187 -397.5"/></g><g id="node26" class="node"><title>StagesService</title><polygon fill="#fb8072" stroke="#000" points="2427.025 -350 2328.975 -350 2328.975 -314 2427.025 -314 2427.025 -350"/><text x="2378" y="-327.8" fill="#000" font-family="Times,serif" font-size="14" text-anchor="middle">StagesService</text></g><g id="edge29" class="edge"><title>StagesModule-&gt;StagesService</title><path fill="none" stroke="#000" stroke-dasharray="5 2" d="M1890.3312,-274.1097C1890.3312,-283.897 1890.3312,-294 1890.3312,-294 1890.3312,-294 2379.115,-294 2379.115,-294 2379.115,-294 2379.115,-303.8903 2379.115,-303.8903"/><polygon fill="#000" stroke="#000" points="2375.615 -303.89 2379.115 -313.89 2382.615 -303.89 2375.615 -303.89"/></g><g id="edge8" class="edge"><title>TasksModule-&gt;AppModule</title><path fill="none" stroke="#000" d="M1861.0573,-350.0109C1861.0573,-350.0109 1861.0573,-379.855 1861.0573,-379.855"/><polygon fill="#000" stroke="#000" points="1857.557 -379.855 1861.057 -389.855 1864.557 -379.855 1857.557 -379.855"/></g><g id="node28" class="node"><title>TasksService</title><polygon fill="#fb8072" stroke="#000" points="2419.134 -426 2324.866 -426 2324.866 -390 2419.134 -390 2419.134 -426"/><text x="2372" y="-403.8" fill="#000" font-family="Times,serif" font-size="14" text-anchor="middle">TasksService</text></g><g id="edge34" class="edge"><title>TasksModule-&gt;TasksService</title><path fill="none" stroke="#000" stroke-dasharray="5 2" d="M1888.9427,-350.1097C1888.9427,-359.897 1888.9427,-370 1888.9427,-370 1888.9427,-370 2374.0274,-370 2374.0274,-370 2374.0274,-370 2374.0274,-379.8903 2374.0274,-379.8903"/><polygon fill="#000" stroke="#000" points="2370.527 -379.89 2374.027 -389.89 2377.527 -379.89 2370.527 -379.89"/></g><g id="node9" class="node"><title>TracksModule</title><polygon fill="#8dd3c7" stroke="#000" points="1911.638 -198 1908.638 -202 1887.638 -202 1884.638 -198 1814.362 -198 1814.362 -162 1911.638 -162 1911.638 -198"/><text x="1863" y="-175.8" fill="#000" font-family="Times,serif" font-size="14" text-anchor="middle">TracksModule</text></g><g id="edge28" class="edge"><title>TracksModule-&gt;StagesModule</title><path fill="none" stroke="#000" d="M1853.9072,-198.0109C1853.9072,-198.0109 1853.9072,-227.855 1853.9072,-227.855"/><polygon fill="#000" stroke="#000" points="1850.407 -227.855 1853.907 -237.855 1857.407 -227.855 1850.407 -227.855"/></g><g id="edge32" class="edge"><title>TracksModule-&gt;TasksModule</title><path fill="none" stroke="#000" d="M1819.5666,-198.1958C1819.5666,-237.3337 1819.5666,-326 1819.5666,-326 1819.5666,-326 1820.482,-326 1820.482,-326"/><polygon fill="#000" stroke="#000" points="1818.72 -329.5 1828.72 -326 1818.72 -322.5 1818.72 -329.5"/></g><g id="edge9" class="edge"><title>TracksModule-&gt;AppModule</title><path fill="none" stroke="#000" d="M1816.8741,-198.2116C1816.8741,-250.6057 1816.8741,-398 1816.8741,-398 1816.8741,-398 1823.0654,-398 1823.0654,-398"/><polygon fill="#000" stroke="#000" points="1823.065 -401.5 1833.065 -398 1823.065 -394.5 1823.065 -401.5"/></g><g id="node30" class="node"><title>TracksService</title><polygon fill="#fb8072" stroke="#000" points="2430.566 -274 2331.434 -274 2331.434 -238 2430.566 -238 2430.566 -274"/><text x="2381" y="-251.8" fill="#000" font-family="Times,serif" font-size="14" text-anchor="middle">TracksService</text></g><g id="edge37" class="edge"><title>TracksModule-&gt;TracksService</title><path fill="none" stroke="#000" stroke-dasharray="5 2" d="M1882.8628,-198.1097C1882.8628,-207.897 1882.8628,-218 1882.8628,-218 1882.8628,-218 2383.8403,-218 2383.8403,-218 2383.8403,-218 2383.8403,-227.8903 2383.8403,-227.8903"/><polygon fill="#000" stroke="#000" points="2380.34 -227.89 2383.84 -237.89 2387.34 -227.89 2380.34 -227.89"/></g><g id="node10" class="node"><title>UsersModule</title><polygon fill="#8dd3c7" stroke="#000" points="1654.922 -122 1651.922 -126 1630.922 -126 1627.922 -122 1563.078 -122 1563.078 -86 1654.922 -86 1654.922 -122"/><text x="1609" y="-99.8" fill="#000" font-family="Times,serif" font-size="14" text-anchor="middle">UsersModule</text></g><g id="edge12" class="edge"><title>UsersModule-&gt;AuthModule</title><path fill="none" stroke="#000" d="M1585.1606,-122.0109C1585.1606,-122.0109 1585.1606,-151.855 1585.1606,-151.855"/><polygon fill="#000" stroke="#000" points="1581.661 -151.855 1585.161 -161.855 1588.661 -151.855 1581.661 -151.855"/></g><g id="edge24" class="edge"><title>UsersModule-&gt;ProfileModule</title><path fill="none" stroke="#000" d="M1654.9207,-95C1661.2086,-95 1665.5591,-95 1665.5591,-95 1665.5591,-95 1665.5591,-180 1665.5591,-180 1665.5591,-180 1665.9362,-180 1665.9362,-180"/><polygon fill="#000" stroke="#000" points="1659.331 -183.5 1669.331 -180 1659.33 -176.5 1659.331 -183.5"/></g><g id="edge33" class="edge"><title>UsersModule-&gt;TasksModule</title><path fill="none" stroke="#000" d="M1655.0215,-104C1659.2253,-104 1661.9429,-104 1661.9429,-104 1661.9429,-104 1661.9429,-338 1661.9429,-338 1661.9429,-338 1818.7698,-338 1818.7698,-338"/><polygon fill="#000" stroke="#000" points="1818.77 -341.5 1828.77 -338 1818.77 -334.5 1818.77 -341.5"/></g><g id="edge36" class="edge"><title>UsersModule-&gt;TracksModule</title><path fill="none" stroke="#000" d="M1607.0316,-122.1097C1607.0316,-131.897 1607.0316,-142 1607.0316,-142 1607.0316,-142 1861.445,-142 1861.445,-142 1861.445,-142 1861.445,-151.8903 1861.445,-151.8903"/><polygon fill="#000" stroke="#000" points="1857.945 -151.89 1861.445 -161.89 1864.945 -151.89 1857.945 -151.89"/></g><g id="edge10" class="edge"><title>UsersModule-&gt;AppModule</title><path fill="none" stroke="#000" d="M1654.7792,-113C1656.9989,-113 1658.3266,-113 1658.3266,-113 1658.3266,-113 1658.3266,-414 1658.3266,-414 1658.3266,-414 1823.2232,-414 1823.2232,-414"/><polygon fill="#000" stroke="#000" points="1823.223 -417.5 1833.223 -414 1823.223 -410.5 1823.223 -417.5"/></g><g id="node32" class="node"><title>UsersService</title><polygon fill="#fb8072" stroke="#000" points="2870.849 -198 2777.151 -198 2777.151 -162 2870.849 -162 2870.849 -198"/><text x="2824" y="-175.8" fill="#000" font-family="Times,serif" font-size="14" text-anchor="middle">UsersService</text></g><g id="edge39" class="edge"><title>UsersModule-&gt;UsersService</title><path fill="none" stroke="#000" stroke-dasharray="5 2" d="M1628.9025,-122.1223C1628.9025,-124.9729 1628.9025,-127 1628.9025,-127 1628.9025,-127 2824,-127 2824,-127 2824,-127 2824,-151.7604 2824,-151.7604"/><polygon fill="#000" stroke="#000" points="2820.5 -151.76 2824 -161.76 2827.5 -151.76 2820.5 -151.76"/></g><g id="node12" class="node"><title>AppService</title><ellipse cx="1482" cy="-332" fill="#fdb462" stroke="#000" rx="56.741" ry="18"/><text x="1482" y="-327.8" fill="#000" font-family="Times,serif" font-size="14" text-anchor="middle">AppService</text></g><g id="edge11" class="edge"><title>AppService-&gt;AppModule</title><path fill="none" stroke="#000" d="M1482,-350.2128C1482,-376.5111 1482,-422 1482,-422 1482,-422 1823.3142,-422 1823.3142,-422"/><polygon fill="#000" stroke="#000" points="1823.314 -425.5 1833.314 -422 1823.314 -418.5 1823.314 -425.5"/></g><g id="node14" class="node"><title>AuthService</title><ellipse cx="215" cy="-104" fill="#fdb462" stroke="#000" rx="59.108" ry="18"/><text x="215" y="-99.8" fill="#000" font-family="Times,serif" font-size="14" text-anchor="middle">AuthService</text></g><g id="edge14" class="edge"><title>AuthService-&gt;AuthModule</title><path fill="none" stroke="#000" d="M215,-122.2267C215,-146.9318 215,-188 215,-188 215,-188 1553.4283,-188 1553.4283,-188"/><polygon fill="#000" stroke="#000" points="1553.428 -191.5 1563.428 -188 1553.428 -184.5 1553.428 -191.5"/></g><g id="node15" class="node"><title>JwtStrategy</title><ellipse cx="81" cy="-104" fill="#fdb462" stroke="#000" rx="56.756" ry="18"/><text x="81" y="-99.8" fill="#000" font-family="Times,serif" font-size="14" text-anchor="middle">JwtStrategy</text></g><g id="edge15" class="edge"><title>JwtStrategy-&gt;AuthModule</title><path fill="none" stroke="#000" d="M81,-122.0105C81,-148.0165 81,-193 81,-193 81,-193 1553.3826,-193 1553.3826,-193"/><polygon fill="#000" stroke="#000" points="1553.383 -196.5 1563.383 -193 1553.382 -189.5 1553.383 -196.5"/></g><g id="node16" class="node"><title>MailService</title><ellipse cx="723" cy="-104" fill="#fdb462" stroke="#000" rx="58.461" ry="18"/><text x="723" y="-99.8" fill="#000" font-family="Times,serif" font-size="14" text-anchor="middle">MailService</text></g><g id="edge16" class="edge"><title>MailService-&gt;AuthModule</title><path fill="none" stroke="#000" d="M723,-122.1289C723,-142.5724 723,-173 723,-173 723,-173 1553.1623,-173 1553.1623,-173"/><polygon fill="#000" stroke="#000" points="1553.162 -176.5 1563.162 -173 1553.162 -169.5 1553.162 -176.5"/></g><g id="edge23" class="edge"><title>MailService-&gt;MailModule</title><path fill="none" stroke="#000" d="M723,-85.9445C723,-74.561 723,-62 723,-62 723,-62 2092,-62 2092,-62 2092,-62 2092,-75.9445 2092,-75.9445"/><polygon fill="#000" stroke="#000" points="2088.5 -75.944 2092 -85.945 2095.5 -75.945 2088.5 -75.944"/></g><g id="node17" class="node"><title>SessionSerializer</title><ellipse cx="569" cy="-104" fill="#fdb462" stroke="#000" rx="77.578" ry="18"/><text x="569" y="-99.8" fill="#000" font-family="Times,serif" font-size="14" text-anchor="middle">SessionSerializer</text></g><g id="edge17" class="edge"><title>SessionSerializer-&gt;AuthModule</title><path fill="none" stroke="#000" d="M569,-122.2921C569,-144.2057 569,-178 569,-178 569,-178 1553.3913,-178 1553.3913,-178"/><polygon fill="#000" stroke="#000" points="1553.391 -181.5 1563.391 -178 1553.391 -174.5 1553.391 -181.5"/></g><g id="node18" class="node"><title>TempTokensService</title><ellipse cx="383" cy="-104" fill="#fdb462" stroke="#000" rx="90.892" ry="18"/><text x="383" y="-99.8" fill="#000" font-family="Times,serif" font-size="14" text-anchor="middle">TempTokensService</text></g><g id="edge18" class="edge"><title>TempTokensService-&gt;AuthModule</title><path fill="none" stroke="#000" d="M383,-122.3228C383,-145.6602 383,-183 383,-183 383,-183 1553.4372,-183 1553.4372,-183"/><polygon fill="#000" stroke="#000" points="1553.437 -186.5 1563.437 -183 1553.437 -179.5 1553.437 -186.5"/></g><g id="node21" class="node"><title>CoursesService</title><ellipse cx="2408" cy="-180" fill="#fdb462" stroke="#000" rx="71.204" ry="18"/><text x="2408" y="-175.8" fill="#000" font-family="Times,serif" font-size="14" text-anchor="middle">CoursesService</text></g><g id="edge21" class="edge"><title>CoursesService-&gt;CoursesModule</title><path fill="none" stroke="#000" d="M2408,-161.5146C2408,-149.8601 2408,-137 2408,-137 2408,-137 1979,-137 1979,-137 1979,-137 1979,-132.0449 1979,-132.0449"/><polygon fill="#000" stroke="#000" points="1982.5 -132.045 1979 -122.045 1975.5 -132.045 1982.5 -132.045"/></g><g id="node24" class="node"><title>ProfileService</title><ellipse cx="1143" cy="-104" fill="#fdb462" stroke="#000" rx="66.045" ry="18"/><text x="1143" y="-99.8" fill="#000" font-family="Times,serif" font-size="14" text-anchor="middle">ProfileService</text></g><g id="edge26" class="edge"><title>ProfileService-&gt;ProfileModule</title><path fill="none" stroke="#000" d="M1143,-122.1467C1143,-135.7395 1143,-152 1143,-152 1143,-152 1719.8068,-152 1719.8068,-152 1719.8068,-152 1719.8068,-152.9793 1719.8068,-152.9793"/><polygon fill="#000" stroke="#000" points="1716.307 -151.793 1719.807 -161.793 1723.307 -151.793 1716.307 -151.793"/></g><g id="node25" class="node"><title>UsersService</title><ellipse cx="997" cy="-104" fill="#fdb462" stroke="#000" rx="61.952" ry="18"/><text x="997" y="-99.8" fill="#000" font-family="Times,serif" font-size="14" text-anchor="middle">UsersService</text></g><g id="edge27" class="edge"><title>UsersService-&gt;ProfileModule</title><path fill="none" stroke="#000" d="M997,-122.2396C997,-137.5706 997,-157 997,-157 997,-157 1696.2979,-157 1696.2979,-157 1696.2979,-157 1696.2979,-157.4878 1696.2979,-157.4878"/><polygon fill="#000" stroke="#000" points="1692.798 -151.878 1696.298 -161.878 1699.798 -151.878 1692.798 -151.878"/></g><g id="edge40" class="edge"><title>UsersService-&gt;UsersModule</title><path fill="none" stroke="#000" d="M997,-85.8568C997,-79.5389 997,-74 997,-74 997,-74 1609,-74 1609,-74 1609,-74 1609,-75.8568 1609,-75.8568"/><polygon fill="#000" stroke="#000" points="1605.5 -75.857 1609 -85.857 1612.5 -75.857 1605.5 -75.857"/></g><g id="node27" class="node"><title>StagesService</title><ellipse cx="2240" cy="-332" fill="#fdb462" stroke="#000" rx="65.403" ry="18"/><text x="2240" y="-327.8" fill="#000" font-family="Times,serif" font-size="14" text-anchor="middle">StagesService</text></g><g id="edge30" class="edge"><title>StagesService-&gt;StagesModule</title><path fill="none" stroke="#000" d="M2178.1291,-326C2164.9256,-326 2154.8657,-326 2154.8657,-326 2154.8657,-326 2154.8657,-262 2154.8657,-262 2154.8657,-262 1931.1342,-262 1931.1342,-262"/><polygon fill="#000" stroke="#000" points="1931.134 -258.5 1921.134 -262 1931.134 -265.5 1931.134 -258.5"/></g><g id="node29" class="node"><title>TasksService</title><ellipse cx="2238" cy="-408" fill="#fdb462" stroke="#000" rx="62.535" ry="18"/><text x="2238" y="-403.8" fill="#000" font-family="Times,serif" font-size="14" text-anchor="middle">TasksService</text></g><g id="edge35" class="edge"><title>TasksService-&gt;TasksModule</title><path fill="none" stroke="#000" d="M2183.5918,-399C2163.2249,-399 2144.9304,-399 2144.9304,-399 2144.9304,-399 2144.9304,-338 2144.9304,-338 2144.9304,-338 1931.4027,-338 1931.4027,-338"/><polygon fill="#000" stroke="#000" points="1931.403 -334.5 1921.403 -338 1931.403 -341.5 1931.403 -334.5"/></g><g id="node31" class="node"><title>TracksService</title><ellipse cx="2241" cy="-256" fill="#fdb462" stroke="#000" rx="66.028" ry="18"/><text x="2241" y="-251.8" fill="#000" font-family="Times,serif" font-size="14" text-anchor="middle">TracksService</text></g><g id="edge38" class="edge"><title>TracksService-&gt;TracksModule</title><path fill="none" stroke="#000" d="M2178.4239,-250C2170.3367,-250 2164.8011,-250 2164.8011,-250 2164.8011,-250 2164.8011,-186 2164.8011,-186 2164.8011,-186 1921.825,-186 1921.825,-186"/><polygon fill="#000" stroke="#000" points="1921.825 -182.5 1911.825 -186 1921.825 -189.5 1921.825 -182.5"/></g></g></svg>