<?xml version="1.0" encoding="UTF-8" standalone="no"?>
<!DOCTYPE svg PUBLIC "-//W3C//DTD SVG 1.1//EN"
 "http://www.w3.org/Graphics/SVG/1.1/DTD/svg11.dtd">
<!-- Generated by graphviz version 2.40.1 (20161225.0304)
 -->
<!-- Title: dependencies Pages: 1 -->
<svg width="1103pt" height="211pt"
 viewBox="0.00 0.00 1103.00 211.00" xmlns="http://www.w3.org/2000/svg" xmlns:xlink="http://www.w3.org/1999/xlink">
<g id="graph0" class="graph" transform="scale(1 1) rotate(0) translate(4 207)">
<title>dependencies</title>
<polygon fill="#ffffff" stroke="transparent" points="-4,4 -4,-207 1099,-207 1099,4 -4,4"/>
<text text-anchor="start" x="526.5091" y="-42.4" font-family="sans-serif" font-weight="bold" font-size="14.00" fill="#000000">Legend</text>
<polygon fill="#ffffb3" stroke="transparent" points="313.5,-10 313.5,-30 333.5,-30 333.5,-10 313.5,-10"/>
<text text-anchor="start" x="337.129" y="-15.4" font-family="sans-serif" font-size="14.00" fill="#000000"> &#160;Declarations</text>
<polygon fill="#8dd3c7" stroke="transparent" points="426.5,-10 426.5,-30 446.5,-30 446.5,-10 426.5,-10"/>
<text text-anchor="start" x="450.2251" y="-15.4" font-family="sans-serif" font-size="14.00" fill="#000000"> &#160;Module</text>
<polygon fill="#80b1d3" stroke="transparent" points="512.5,-10 512.5,-30 532.5,-30 532.5,-10 512.5,-10"/>
<text text-anchor="start" x="536.2812" y="-15.4" font-family="sans-serif" font-size="14.00" fill="#000000"> &#160;Bootstrap</text>
<polygon fill="#fdb462" stroke="transparent" points="609.5,-10 609.5,-30 629.5,-30 629.5,-10 609.5,-10"/>
<text text-anchor="start" x="633.1732" y="-15.4" font-family="sans-serif" font-size="14.00" fill="#000000"> &#160;Providers</text>
<polygon fill="#fb8072" stroke="transparent" points="705.5,-10 705.5,-30 725.5,-30 725.5,-10 705.5,-10"/>
<text text-anchor="start" x="729.2258" y="-15.4" font-family="sans-serif" font-size="14.00" fill="#000000"> &#160;Exports</text>
<g id="clust1" class="cluster">
<title>cluster_AppModule</title>
<polygon fill="none" stroke="#000000" stroke-dasharray="1,5" points="8,-70 8,-195 1087,-195 1087,-70 8,-70"/>
</g>
<g id="clust3" class="cluster">
<title>cluster_AppModule_imports</title>
<polygon fill="none" stroke="#000000" points="154,-78 154,-130 1079,-130 1079,-78 154,-78"/>
</g>
<g id="clust6" class="cluster">
<title>cluster_AppModule_providers</title>
<polygon fill="none" stroke="#000000" points="16,-78 16,-130 146,-130 146,-78 16,-78"/>
</g>
<!-- AuthModule -->
<g id="node1" class="node">
<title>AuthModule</title>
<polygon fill="#8dd3c7" stroke="#000000" points="1070.5482,-122 1067.5482,-126 1046.5482,-126 1043.5482,-122 983.4518,-122 983.4518,-86 1070.5482,-86 1070.5482,-122"/>
<text text-anchor="middle" x="1027" y="-99.8" font-family="Times,serif" font-size="14.00" fill="#000000">AuthModule</text>
</g>
<!-- AppModule -->
<g id="node9" class="node">
<title>AppModule</title>
<polygon fill="#8dd3c7" stroke="#000000" points="594.6571,-187 591.6571,-191 570.6571,-191 567.6571,-187 511.3429,-187 511.3429,-151 594.6571,-151 594.6571,-187"/>
<text text-anchor="middle" x="553" y="-164.8" font-family="Times,serif" font-size="14.00" fill="#000000">AppModule</text>
</g>
<!-- AuthModule&#45;&gt;AppModule -->
<g id="edge1" class="edge">
<title>AuthModule&#45;&gt;AppModule</title>
<path fill="none" stroke="#000000" d="M1027,-122.0109C1027,-144.4852 1027,-180 1027,-180 1027,-180 605.0643,-180 605.0643,-180"/>
<polygon fill="#000000" stroke="#000000" points="605.0644,-176.5001 595.0643,-180 605.0643,-183.5001 605.0644,-176.5001"/>
</g>
<!-- CategoriesModule -->
<g id="node2" class="node">
<title>CategoriesModule</title>
<polygon fill="#8dd3c7" stroke="#000000" points="965.9173,-122 962.9173,-126 941.9173,-126 938.9173,-122 846.0827,-122 846.0827,-86 965.9173,-86 965.9173,-122"/>
<text text-anchor="middle" x="906" y="-99.8" font-family="Times,serif" font-size="14.00" fill="#000000">CategoriesModule</text>
</g>
<!-- CategoriesModule&#45;&gt;AppModule -->
<g id="edge2" class="edge">
<title>CategoriesModule&#45;&gt;AppModule</title>
<path fill="none" stroke="#000000" d="M906,-122.1289C906,-142.5724 906,-173 906,-173 906,-173 604.8799,-173 604.8799,-173"/>
<polygon fill="#000000" stroke="#000000" points="604.88,-169.5001 594.8799,-173 604.8799,-176.5001 604.88,-169.5001"/>
</g>
<!-- CoursesModule -->
<g id="node3" class="node">
<title>CoursesModule</title>
<polygon fill="#8dd3c7" stroke="#000000" points="828.1514,-122 825.1514,-126 804.1514,-126 801.1514,-122 723.8486,-122 723.8486,-86 828.1514,-86 828.1514,-122"/>
<text text-anchor="middle" x="776" y="-99.8" font-family="Times,serif" font-size="14.00" fill="#000000">CoursesModule</text>
</g>
<!-- CoursesModule&#45;&gt;AppModule -->
<g id="edge3" class="edge">
<title>CoursesModule&#45;&gt;AppModule</title>
<path fill="none" stroke="#000000" d="M776,-122.2667C776,-140.5552 776,-166 776,-166 776,-166 604.683,-166 604.683,-166"/>
<polygon fill="#000000" stroke="#000000" points="604.683,-162.5001 594.683,-166 604.683,-169.5001 604.683,-162.5001"/>
</g>
<!-- MailModule -->
<g id="node4" class="node">
<title>MailModule</title>
<polygon fill="#8dd3c7" stroke="#000000" points="705.9902,-122 702.9902,-126 681.9902,-126 678.9902,-122 620.0098,-122 620.0098,-86 705.9902,-86 705.9902,-122"/>
<text text-anchor="middle" x="663" y="-99.8" font-family="Times,serif" font-size="14.00" fill="#000000">MailModule</text>
</g>
<!-- MailModule&#45;&gt;AppModule -->
<g id="edge4" class="edge">
<title>MailModule&#45;&gt;AppModule</title>
<path fill="none" stroke="#000000" d="M663,-122.0091C663,-138.0494 663,-159 663,-159 663,-159 604.9001,-159 604.9001,-159"/>
<polygon fill="#000000" stroke="#000000" points="604.9001,-155.5001 594.9001,-159 604.9,-162.5001 604.9001,-155.5001"/>
</g>
<!-- ProfileModule -->
<g id="node5" class="node">
<title>ProfileModule</title>
<polygon fill="#8dd3c7" stroke="#000000" points="601.65,-122 598.65,-126 577.65,-126 574.65,-122 504.35,-122 504.35,-86 601.65,-86 601.65,-122"/>
<text text-anchor="middle" x="553" y="-99.8" font-family="Times,serif" font-size="14.00" fill="#000000">ProfileModule</text>
</g>
<!-- ProfileModule&#45;&gt;AppModule -->
<g id="edge5" class="edge">
<title>ProfileModule&#45;&gt;AppModule</title>
<path fill="none" stroke="#000000" d="M553,-122.1061C553,-122.1061 553,-140.991 553,-140.991"/>
<polygon fill="#000000" stroke="#000000" points="549.5001,-140.9909 553,-150.991 556.5001,-140.991 549.5001,-140.9909"/>
</g>
<!-- SharedModule -->
<g id="node6" class="node">
<title>SharedModule</title>
<polygon fill="#8dd3c7" stroke="#000000" points="486.4231,-122 483.4231,-126 462.4231,-126 459.4231,-122 387.5769,-122 387.5769,-86 486.4231,-86 486.4231,-122"/>
<text text-anchor="middle" x="437" y="-99.8" font-family="Times,serif" font-size="14.00" fill="#000000">SharedModule</text>
</g>
<!-- SharedModule&#45;&gt;AppModule -->
<g id="edge6" class="edge">
<title>SharedModule&#45;&gt;AppModule</title>
<path fill="none" stroke="#000000" d="M437,-122.0091C437,-138.0494 437,-159 437,-159 437,-159 501.1213,-159 501.1213,-159"/>
<polygon fill="#000000" stroke="#000000" points="501.1214,-162.5001 511.1213,-159 501.1213,-155.5001 501.1214,-162.5001"/>
</g>
<!-- TracksModule -->
<g id="node7" class="node">
<title>TracksModule</title>
<polygon fill="#8dd3c7" stroke="#000000" points="369.6375,-122 366.6375,-126 345.6375,-126 342.6375,-122 272.3625,-122 272.3625,-86 369.6375,-86 369.6375,-122"/>
<text text-anchor="middle" x="321" y="-99.8" font-family="Times,serif" font-size="14.00" fill="#000000">TracksModule</text>
</g>
<!-- TracksModule&#45;&gt;AppModule -->
<g id="edge7" class="edge">
<title>TracksModule&#45;&gt;AppModule</title>
<path fill="none" stroke="#000000" d="M321,-122.2667C321,-140.5552 321,-166 321,-166 321,-166 501.2551,-166 501.2551,-166"/>
<polygon fill="#000000" stroke="#000000" points="501.2551,-169.5001 511.2551,-166 501.2551,-162.5001 501.2551,-169.5001"/>
</g>
<!-- UsersModule -->
<g id="node8" class="node">
<title>UsersModule</title>
<polygon fill="#8dd3c7" stroke="#000000" points="253.9218,-122 250.9218,-126 229.9218,-126 226.9218,-122 162.0782,-122 162.0782,-86 253.9218,-86 253.9218,-122"/>
<text text-anchor="middle" x="208" y="-99.8" font-family="Times,serif" font-size="14.00" fill="#000000">UsersModule</text>
</g>
<!-- UsersModule&#45;&gt;AppModule -->
<g id="edge8" class="edge">
<title>UsersModule&#45;&gt;AppModule</title>
<path fill="none" stroke="#000000" d="M208,-122.1289C208,-142.5724 208,-173 208,-173 208,-173 501.0411,-173 501.0411,-173"/>
<polygon fill="#000000" stroke="#000000" points="501.0412,-176.5001 511.0411,-173 501.0411,-169.5001 501.0412,-176.5001"/>
</g>
<!-- AppService -->
<g id="node10" class="node">
<title>AppService</title>
<ellipse fill="#fdb462" stroke="#000000" cx="81" cy="-104" rx="56.7406" ry="18"/>
<text text-anchor="middle" x="81" y="-99.8" font-family="Times,serif" font-size="14.00" fill="#000000">AppService</text>
</g>
<!-- AppService&#45;&gt;AppModule -->
<g id="edge9" class="edge">
<title>AppService&#45;&gt;AppModule</title>
<path fill="none" stroke="#000000" d="M81,-122.0109C81,-144.4852 81,-180 81,-180 81,-180 501.1131,-180 501.1131,-180"/>
<polygon fill="#000000" stroke="#000000" points="501.1132,-183.5001 511.1131,-180 501.1131,-176.5001 501.1132,-183.5001"/>
</g>
</g>
</svg>
