<svg xmlns="http://www.w3.org/2000/svg" xmlns:xlink="http://www.w3.org/1999/xlink" width="1445pt" height="211pt" viewBox="0 0 1445 211"><g id="graph0" class="graph" transform="scale(1 1) rotate(0) translate(4 207)"><title>dependencies</title><polygon fill="#fff" stroke="transparent" points="-4 4 -4 -207 1441 -207 1441 4 -4 4"/><text x="697.509" y="-42.4" fill="#000" font-family="sans-serif" font-size="14" font-weight="bold" text-anchor="start">Legend</text><polygon fill="#ffffb3" stroke="transparent" points="484.5 -10 484.5 -30 504.5 -30 504.5 -10 484.5 -10"/><text x="508.129" y="-15.4" fill="#000" font-family="sans-serif" font-size="14" text-anchor="start">Declarations</text><polygon fill="#8dd3c7" stroke="transparent" points="597.5 -10 597.5 -30 617.5 -30 617.5 -10 597.5 -10"/><text x="621.225" y="-15.4" fill="#000" font-family="sans-serif" font-size="14" text-anchor="start">Module</text><polygon fill="#80b1d3" stroke="transparent" points="683.5 -10 683.5 -30 703.5 -30 703.5 -10 683.5 -10"/><text x="707.281" y="-15.4" fill="#000" font-family="sans-serif" font-size="14" text-anchor="start">Bootstrap</text><polygon fill="#fdb462" stroke="transparent" points="780.5 -10 780.5 -30 800.5 -30 800.5 -10 780.5 -10"/><text x="804.173" y="-15.4" fill="#000" font-family="sans-serif" font-size="14" text-anchor="start">Providers</text><polygon fill="#fb8072" stroke="transparent" points="876.5 -10 876.5 -30 896.5 -30 896.5 -10 876.5 -10"/><text x="900.226" y="-15.4" fill="#000" font-family="sans-serif" font-size="14" text-anchor="start">Exports</text><g id="clust1" class="cluster"><title>cluster_AppModule</title><polygon fill="none" stroke="#000" stroke-dasharray="1 5" points="8 -70 8 -195 1429 -195 1429 -70 8 -70"/></g><g id="clust3" class="cluster"><title>cluster_AppModule_imports</title><polygon fill="none" stroke="#000" points="154 -78 154 -130 1421 -130 1421 -78 154 -78"/></g><g id="clust6" class="cluster"><title>cluster_AppModule_providers</title><polygon fill="none" stroke="#000" points="16 -78 16 -130 146 -130 146 -78 16 -78"/></g><g id="node1" class="node"><title>AuthModule</title><polygon fill="#8dd3c7" stroke="#000" points="1412.548 -122 1409.548 -126 1388.548 -126 1385.548 -122 1325.452 -122 1325.452 -86 1412.548 -86 1412.548 -122"/><text x="1369" y="-99.8" fill="#000" font-family="Times,serif" font-size="14" text-anchor="middle">AuthModule</text></g><g id="node12" class="node"><title>AppModule</title><polygon fill="#8dd3c7" stroke="#000" points="760.657 -187 757.657 -191 736.657 -191 733.657 -187 677.343 -187 677.343 -151 760.657 -151 760.657 -187"/><text x="719" y="-164.8" fill="#000" font-family="Times,serif" font-size="14" text-anchor="middle">AppModule</text></g><g id="edge1" class="edge"><title>AuthModule-&gt;AppModule</title><path fill="none" stroke="#000" d="M1369,-122.0908C1369,-145.1328 1369,-182 1369,-182 1369,-182 771.1475,-182 771.1475,-182"/><polygon fill="#000" stroke="#000" points="771.148 -178.5 761.148 -182 771.148 -185.5 771.148 -178.5"/></g><g id="node2" class="node"><title>CategoriesModule</title><polygon fill="#8dd3c7" stroke="#000" points="1307.917 -122 1304.917 -126 1283.917 -126 1280.917 -122 1188.083 -122 1188.083 -86 1307.917 -86 1307.917 -122"/><text x="1248" y="-99.8" fill="#000" font-family="Times,serif" font-size="14" text-anchor="middle">CategoriesModule</text></g><g id="edge2" class="edge"><title>CategoriesModule-&gt;AppModule</title><path fill="none" stroke="#000" d="M1248,-122.2843C1248,-143.3211 1248,-175 1248,-175 1248,-175 770.9519,-175 770.9519,-175"/><polygon fill="#000" stroke="#000" points="770.952 -171.5 760.952 -175 770.952 -178.5 770.952 -171.5"/></g><g id="node3" class="node"><title>CoursesModule</title><polygon fill="#8dd3c7" stroke="#000" points="1170.151 -122 1167.151 -126 1146.151 -126 1143.151 -122 1065.849 -122 1065.849 -86 1170.151 -86 1170.151 -122"/><text x="1118" y="-99.8" fill="#000" font-family="Times,serif" font-size="14" text-anchor="middle">CoursesModule</text></g><g id="edge3" class="edge"><title>CoursesModule-&gt;AppModule</title><path fill="none" stroke="#000" d="M1118,-122.1061C1118,-141.3391 1118,-169 1118,-169 1118,-169 770.9459,-169 770.9459,-169"/><polygon fill="#000" stroke="#000" points="770.946 -165.5 760.946 -169 770.946 -172.5 770.946 -165.5"/></g><g id="node4" class="node"><title>MailModule</title><polygon fill="#8dd3c7" stroke="#000" points="1047.99 -122 1044.99 -126 1023.99 -126 1020.99 -122 962.01 -122 962.01 -86 1047.99 -86 1047.99 -122"/><text x="1005" y="-99.8" fill="#000" font-family="Times,serif" font-size="14" text-anchor="middle">MailModule</text></g><g id="edge4" class="edge"><title>MailModule-&gt;AppModule</title><path fill="none" stroke="#000" d="M1005,-122.0225C1005,-139.3734 1005,-163 1005,-163 1005,-163 770.8931,-163 770.8931,-163"/><polygon fill="#000" stroke="#000" points="770.893 -159.5 760.893 -163 770.893 -166.5 770.893 -159.5"/></g><g id="node5" class="node"><title>MentorModule</title><polygon fill="#8dd3c7" stroke="#000" points="944.26 -122 941.26 -126 920.26 -126 917.26 -122 843.74 -122 843.74 -86 944.26 -86 944.26 -122"/><text x="894" y="-99.8" fill="#000" font-family="Times,serif" font-size="14" text-anchor="middle">MentorModule</text></g><g id="edge5" class="edge"><title>MentorModule-&gt;AppModule</title><path fill="none" stroke="#000" d="M894,-122.2396C894,-137.5706 894,-157 894,-157 894,-157 770.9169,-157 770.9169,-157"/><polygon fill="#000" stroke="#000" points="770.917 -153.5 760.917 -157 770.917 -160.5 770.917 -153.5"/></g><g id="node6" class="node"><title>ProfileModule</title><polygon fill="#8dd3c7" stroke="#000" points="825.65 -122 822.65 -126 801.65 -126 798.65 -122 728.35 -122 728.35 -86 825.65 -86 825.65 -122"/><text x="777" y="-99.8" fill="#000" font-family="Times,serif" font-size="14" text-anchor="middle">ProfileModule</text></g><g id="edge6" class="edge"><title>ProfileModule-&gt;AppModule</title><path fill="none" stroke="#000" d="M744.5018,-122.1061C744.5018,-122.1061 744.5018,-140.991 744.5018,-140.991"/><polygon fill="#000" stroke="#000" points="741.002 -140.991 744.502 -150.991 748.002 -140.991 741.002 -140.991"/></g><g id="node7" class="node"><title>SharedModule</title><polygon fill="#8dd3c7" stroke="#000" points="710.423 -122 707.423 -126 686.423 -126 683.423 -122 611.577 -122 611.577 -86 710.423 -86 710.423 -122"/><text x="661" y="-99.8" fill="#000" font-family="Times,serif" font-size="14" text-anchor="middle">SharedModule</text></g><g id="edge7" class="edge"><title>SharedModule-&gt;AppModule</title><path fill="none" stroke="#000" d="M693.6915,-122.1061C693.6915,-122.1061 693.6915,-140.991 693.6915,-140.991"/><polygon fill="#000" stroke="#000" points="690.192 -140.991 693.692 -150.991 697.192 -140.991 690.192 -140.991"/></g><g id="node8" class="node"><title>StagesModule</title><polygon fill="#8dd3c7" stroke="#000" points="594.097 -122 591.097 -126 570.097 -126 567.097 -122 497.903 -122 497.903 -86 594.097 -86 594.097 -122"/><text x="546" y="-99.8" fill="#000" font-family="Times,serif" font-size="14" text-anchor="middle">StagesModule</text></g><g id="edge8" class="edge"><title>StagesModule-&gt;AppModule</title><path fill="none" stroke="#000" d="M546,-122.2396C546,-137.5706 546,-157 546,-157 546,-157 667.1215,-157 667.1215,-157"/><polygon fill="#000" stroke="#000" points="667.122 -160.5 677.121 -157 667.121 -153.5 667.122 -160.5"/></g><g id="node9" class="node"><title>TasksModule</title><polygon fill="#8dd3c7" stroke="#000" points="480.206 -122 477.206 -126 456.206 -126 453.206 -122 387.794 -122 387.794 -86 480.206 -86 480.206 -122"/><text x="434" y="-99.8" fill="#000" font-family="Times,serif" font-size="14" text-anchor="middle">TasksModule</text></g><g id="edge9" class="edge"><title>TasksModule-&gt;AppModule</title><path fill="none" stroke="#000" d="M434,-122.0225C434,-139.3734 434,-163 434,-163 434,-163 667.2533,-163 667.2533,-163"/><polygon fill="#000" stroke="#000" points="667.253 -166.5 677.253 -163 667.253 -159.5 667.253 -166.5"/></g><g id="node10" class="node"><title>TracksModule</title><polygon fill="#8dd3c7" stroke="#000" points="369.637 -122 366.637 -126 345.637 -126 342.637 -122 272.363 -122 272.363 -86 369.637 -86 369.637 -122"/><text x="321" y="-99.8" fill="#000" font-family="Times,serif" font-size="14" text-anchor="middle">TracksModule</text></g><g id="edge10" class="edge"><title>TracksModule-&gt;AppModule</title><path fill="none" stroke="#000" d="M321,-122.1061C321,-141.3391 321,-169 321,-169 321,-169 667.1593,-169 667.1593,-169"/><polygon fill="#000" stroke="#000" points="667.159 -172.5 677.159 -169 667.159 -165.5 667.159 -172.5"/></g><g id="node11" class="node"><title>UsersModule</title><polygon fill="#8dd3c7" stroke="#000" points="253.922 -122 250.922 -126 229.922 -126 226.922 -122 162.078 -122 162.078 -86 253.922 -86 253.922 -122"/><text x="208" y="-99.8" fill="#000" font-family="Times,serif" font-size="14" text-anchor="middle">UsersModule</text></g><g id="edge11" class="edge"><title>UsersModule-&gt;AppModule</title><path fill="none" stroke="#000" d="M208,-122.2843C208,-143.3211 208,-175 208,-175 208,-175 667.1827,-175 667.1827,-175"/><polygon fill="#000" stroke="#000" points="667.183 -178.5 677.183 -175 667.183 -171.5 667.183 -178.5"/></g><g id="node13" class="node"><title>AppService</title><ellipse cx="81" cy="-104" fill="#fdb462" stroke="#000" rx="56.741" ry="18"/><text x="81" y="-99.8" fill="#000" font-family="Times,serif" font-size="14" text-anchor="middle">AppService</text></g><g id="edge12" class="edge"><title>AppService-&gt;AppModule</title><path fill="none" stroke="#000" d="M81,-122.0908C81,-145.1328 81,-182 81,-182 81,-182 667.139,-182 667.139,-182"/><polygon fill="#000" stroke="#000" points="667.139 -185.5 677.139 -182 667.139 -178.5 667.139 -185.5"/></g></g></svg>