<?xml version="1.0" encoding="UTF-8" standalone="no"?>
<!DOCTYPE svg PUBLIC "-//W3C//DTD SVG 1.1//EN"
 "http://www.w3.org/Graphics/SVG/1.1/DTD/svg11.dtd">
<!-- Generated by graphviz version 2.40.1 (20161225.0304)
 -->
<!-- Title: dependencies Pages: 1 -->
<svg width="590pt" height="211pt"
 viewBox="0.00 0.00 590.00 211.00" xmlns="http://www.w3.org/2000/svg" xmlns:xlink="http://www.w3.org/1999/xlink">
<g id="graph0" class="graph" transform="scale(1 1) rotate(0) translate(4 207)">
<title>dependencies</title>
<polygon fill="#ffffff" stroke="transparent" points="-4,4 -4,-207 586,-207 586,4 -4,4"/>
<text text-anchor="start" x="270.0091" y="-42.4" font-family="sans-serif" font-weight="bold" font-size="14.00" fill="#000000">Legend</text>
<polygon fill="#ffffb3" stroke="transparent" points="57,-10 57,-30 77,-30 77,-10 57,-10"/>
<text text-anchor="start" x="80.629" y="-15.4" font-family="sans-serif" font-size="14.00" fill="#000000"> &#160;Declarations</text>
<polygon fill="#8dd3c7" stroke="transparent" points="170,-10 170,-30 190,-30 190,-10 170,-10"/>
<text text-anchor="start" x="193.7251" y="-15.4" font-family="sans-serif" font-size="14.00" fill="#000000"> &#160;Module</text>
<polygon fill="#80b1d3" stroke="transparent" points="256,-10 256,-30 276,-30 276,-10 256,-10"/>
<text text-anchor="start" x="279.7812" y="-15.4" font-family="sans-serif" font-size="14.00" fill="#000000"> &#160;Bootstrap</text>
<polygon fill="#fdb462" stroke="transparent" points="353,-10 353,-30 373,-30 373,-10 353,-10"/>
<text text-anchor="start" x="376.6732" y="-15.4" font-family="sans-serif" font-size="14.00" fill="#000000"> &#160;Providers</text>
<polygon fill="#fb8072" stroke="transparent" points="449,-10 449,-30 469,-30 469,-10 449,-10"/>
<text text-anchor="start" x="472.7258" y="-15.4" font-family="sans-serif" font-size="14.00" fill="#000000"> &#160;Exports</text>
<g id="clust1" class="cluster">
<title>cluster_AppModule</title>
<polygon fill="none" stroke="#000000" stroke-dasharray="1,5" points="8,-70 8,-195 574,-195 574,-70 8,-70"/>
</g>
<g id="clust3" class="cluster">
<title>cluster_AppModule_imports</title>
<polygon fill="none" stroke="#000000" points="16,-78 16,-130 566,-130 566,-78 16,-78"/>
</g>
<!-- AuthModule -->
<g id="node1" class="node">
<title>AuthModule</title>
<polygon fill="#8dd3c7" stroke="#000000" points="557.5482,-122 554.5482,-126 533.5482,-126 530.5482,-122 470.4518,-122 470.4518,-86 557.5482,-86 557.5482,-122"/>
<text text-anchor="middle" x="514" y="-99.8" font-family="Times,serif" font-size="14.00" fill="#000000">AuthModule</text>
</g>
<!-- AppModule -->
<g id="node6" class="node">
<title>AppModule</title>
<polygon fill="#8dd3c7" stroke="#000000" points="340.6571,-187 337.6571,-191 316.6571,-191 313.6571,-187 257.3429,-187 257.3429,-151 340.6571,-151 340.6571,-187"/>
<text text-anchor="middle" x="299" y="-164.8" font-family="Times,serif" font-size="14.00" fill="#000000">AppModule</text>
</g>
<!-- AuthModule&#45;&gt;AppModule -->
<g id="edge1" class="edge">
<title>AuthModule&#45;&gt;AppModule</title>
<path fill="none" stroke="#000000" d="M514,-122.2843C514,-143.3211 514,-175 514,-175 514,-175 350.7091,-175 350.7091,-175"/>
<polygon fill="#000000" stroke="#000000" points="350.7091,-171.5001 340.7091,-175 350.7091,-178.5001 350.7091,-171.5001"/>
</g>
<!-- MailModule -->
<g id="node2" class="node">
<title>MailModule</title>
<polygon fill="#8dd3c7" stroke="#000000" points="451.9902,-122 448.9902,-126 427.9902,-126 424.9902,-122 366.0098,-122 366.0098,-86 451.9902,-86 451.9902,-122"/>
<text text-anchor="middle" x="409" y="-99.8" font-family="Times,serif" font-size="14.00" fill="#000000">MailModule</text>
</g>
<!-- MailModule&#45;&gt;AppModule -->
<g id="edge2" class="edge">
<title>MailModule&#45;&gt;AppModule</title>
<path fill="none" stroke="#000000" d="M409,-122.0225C409,-139.3734 409,-163 409,-163 409,-163 350.9001,-163 350.9001,-163"/>
<polygon fill="#000000" stroke="#000000" points="350.9001,-159.5001 340.9001,-163 350.9,-166.5001 350.9001,-159.5001"/>
</g>
<!-- ProfileModule -->
<g id="node3" class="node">
<title>ProfileModule</title>
<polygon fill="#8dd3c7" stroke="#000000" points="347.65,-122 344.65,-126 323.65,-126 320.65,-122 250.35,-122 250.35,-86 347.65,-86 347.65,-122"/>
<text text-anchor="middle" x="299" y="-99.8" font-family="Times,serif" font-size="14.00" fill="#000000">ProfileModule</text>
</g>
<!-- ProfileModule&#45;&gt;AppModule -->
<g id="edge3" class="edge">
<title>ProfileModule&#45;&gt;AppModule</title>
<path fill="none" stroke="#000000" d="M299,-122.1061C299,-122.1061 299,-140.991 299,-140.991"/>
<polygon fill="#000000" stroke="#000000" points="295.5001,-140.9909 299,-150.991 302.5001,-140.991 295.5001,-140.9909"/>
</g>
<!-- SharedModule -->
<g id="node4" class="node">
<title>SharedModule</title>
<polygon fill="#8dd3c7" stroke="#000000" points="232.4231,-122 229.4231,-126 208.4231,-126 205.4231,-122 133.5769,-122 133.5769,-86 232.4231,-86 232.4231,-122"/>
<text text-anchor="middle" x="183" y="-99.8" font-family="Times,serif" font-size="14.00" fill="#000000">SharedModule</text>
</g>
<!-- SharedModule&#45;&gt;AppModule -->
<g id="edge4" class="edge">
<title>SharedModule&#45;&gt;AppModule</title>
<path fill="none" stroke="#000000" d="M183,-122.0225C183,-139.3734 183,-163 183,-163 183,-163 247.1213,-163 247.1213,-163"/>
<polygon fill="#000000" stroke="#000000" points="247.1214,-166.5001 257.1213,-163 247.1213,-159.5001 247.1214,-166.5001"/>
</g>
<!-- UsersModule -->
<g id="node5" class="node">
<title>UsersModule</title>
<polygon fill="#8dd3c7" stroke="#000000" points="115.9218,-122 112.9218,-126 91.9218,-126 88.9218,-122 24.0782,-122 24.0782,-86 115.9218,-86 115.9218,-122"/>
<text text-anchor="middle" x="70" y="-99.8" font-family="Times,serif" font-size="14.00" fill="#000000">UsersModule</text>
</g>
<!-- UsersModule&#45;&gt;AppModule -->
<g id="edge5" class="edge">
<title>UsersModule&#45;&gt;AppModule</title>
<path fill="none" stroke="#000000" d="M70,-122.2843C70,-143.3211 70,-175 70,-175 70,-175 247.2641,-175 247.2641,-175"/>
<polygon fill="#000000" stroke="#000000" points="247.2642,-178.5001 257.2641,-175 247.2641,-171.5001 247.2642,-178.5001"/>
</g>
</g>
</svg>
