<?xml version="1.0" encoding="UTF-8" standalone="no"?>
<!DOCTYPE svg PUBLIC "-//W3C//DTD SVG 1.1//EN"
 "http://www.w3.org/Graphics/SVG/1.1/DTD/svg11.dtd">
<!-- Generated by graphviz version 2.40.1 (20161225.0304)
 -->
<!-- Title: dependencies Pages: 1 -->
<svg width="1365pt" height="211pt"
 viewBox="0.00 0.00 1365.00 211.00" xmlns="http://www.w3.org/2000/svg" xmlns:xlink="http://www.w3.org/1999/xlink">
<g id="graph0" class="graph" transform="scale(1 1) rotate(0) translate(4 207)">
<title>dependencies</title>
<polygon fill="#ffffff" stroke="transparent" points="-4,4 -4,-207 1361,-207 1361,4 -4,4"/>
<text text-anchor="start" x="657.5091" y="-42.4" font-family="sans-serif" font-weight="bold" font-size="14.00" fill="#000000">Legend</text>
<polygon fill="#ffffb3" stroke="transparent" points="444.5,-10 444.5,-30 464.5,-30 464.5,-10 444.5,-10"/>
<text text-anchor="start" x="468.129" y="-15.4" font-family="sans-serif" font-size="14.00" fill="#000000"> &#160;Declarations</text>
<polygon fill="#8dd3c7" stroke="transparent" points="557.5,-10 557.5,-30 577.5,-30 577.5,-10 557.5,-10"/>
<text text-anchor="start" x="581.2251" y="-15.4" font-family="sans-serif" font-size="14.00" fill="#000000"> &#160;Module</text>
<polygon fill="#80b1d3" stroke="transparent" points="643.5,-10 643.5,-30 663.5,-30 663.5,-10 643.5,-10"/>
<text text-anchor="start" x="667.2812" y="-15.4" font-family="sans-serif" font-size="14.00" fill="#000000"> &#160;Bootstrap</text>
<polygon fill="#fdb462" stroke="transparent" points="740.5,-10 740.5,-30 760.5,-30 760.5,-10 740.5,-10"/>
<text text-anchor="start" x="764.1732" y="-15.4" font-family="sans-serif" font-size="14.00" fill="#000000"> &#160;Providers</text>
<polygon fill="#fb8072" stroke="transparent" points="836.5,-10 836.5,-30 856.5,-30 856.5,-10 836.5,-10"/>
<text text-anchor="start" x="860.2258" y="-15.4" font-family="sans-serif" font-size="14.00" fill="#000000"> &#160;Exports</text>
<g id="clust1" class="cluster">
<title>cluster_AppModule</title>
<polygon fill="none" stroke="#000000" stroke-dasharray="1,5" points="8,-70 8,-195 1349,-195 1349,-70 8,-70"/>
</g>
<g id="clust3" class="cluster">
<title>cluster_AppModule_imports</title>
<polygon fill="none" stroke="#000000" points="302,-78 302,-130 1341,-130 1341,-78 302,-78"/>
</g>
<g id="clust6" class="cluster">
<title>cluster_AppModule_providers</title>
<polygon fill="none" stroke="#000000" points="16,-78 16,-130 294,-130 294,-78 16,-78"/>
</g>
<!-- AuthModule -->
<g id="node1" class="node">
<title>AuthModule</title>
<polygon fill="#8dd3c7" stroke="#000000" points="1332.5482,-122 1329.5482,-126 1308.5482,-126 1305.5482,-122 1245.4518,-122 1245.4518,-86 1332.5482,-86 1332.5482,-122"/>
<text text-anchor="middle" x="1289" y="-99.8" font-family="Times,serif" font-size="14.00" fill="#000000">AuthModule</text>
</g>
<!-- AppModule -->
<g id="node10" class="node">
<title>AppModule</title>
<polygon fill="#8dd3c7" stroke="#000000" points="740.6571,-187 737.6571,-191 716.6571,-191 713.6571,-187 657.3429,-187 657.3429,-151 740.6571,-151 740.6571,-187"/>
<text text-anchor="middle" x="699" y="-164.8" font-family="Times,serif" font-size="14.00" fill="#000000">AppModule</text>
</g>
<!-- AuthModule&#45;&gt;AppModule -->
<g id="edge1" class="edge">
<title>AuthModule&#45;&gt;AppModule</title>
<path fill="none" stroke="#000000" d="M1289,-122.0908C1289,-145.1328 1289,-182 1289,-182 1289,-182 750.9584,-182 750.9584,-182"/>
<polygon fill="#000000" stroke="#000000" points="750.9584,-178.5001 740.9584,-182 750.9583,-185.5001 750.9584,-178.5001"/>
</g>
<!-- CategoriesModule -->
<g id="node2" class="node">
<title>CategoriesModule</title>
<polygon fill="#8dd3c7" stroke="#000000" points="1227.9173,-122 1224.9173,-126 1203.9173,-126 1200.9173,-122 1108.0827,-122 1108.0827,-86 1227.9173,-86 1227.9173,-122"/>
<text text-anchor="middle" x="1168" y="-99.8" font-family="Times,serif" font-size="14.00" fill="#000000">CategoriesModule</text>
</g>
<!-- CategoriesModule&#45;&gt;AppModule -->
<g id="edge2" class="edge">
<title>CategoriesModule&#45;&gt;AppModule</title>
<path fill="none" stroke="#000000" d="M1168,-122.2843C1168,-143.3211 1168,-175 1168,-175 1168,-175 751.0334,-175 751.0334,-175"/>
<polygon fill="#000000" stroke="#000000" points="751.0334,-171.5001 741.0334,-175 751.0333,-178.5001 751.0334,-171.5001"/>
</g>
<!-- CoursesModule -->
<g id="node3" class="node">
<title>CoursesModule</title>
<polygon fill="#8dd3c7" stroke="#000000" points="1090.1514,-122 1087.1514,-126 1066.1514,-126 1063.1514,-122 985.8486,-122 985.8486,-86 1090.1514,-86 1090.1514,-122"/>
<text text-anchor="middle" x="1038" y="-99.8" font-family="Times,serif" font-size="14.00" fill="#000000">CoursesModule</text>
</g>
<!-- CoursesModule&#45;&gt;AppModule -->
<g id="edge3" class="edge">
<title>CoursesModule&#45;&gt;AppModule</title>
<path fill="none" stroke="#000000" d="M1038,-122.1061C1038,-141.3391 1038,-169 1038,-169 1038,-169 750.9081,-169 750.9081,-169"/>
<polygon fill="#000000" stroke="#000000" points="750.9081,-165.5001 740.9081,-169 750.908,-172.5001 750.9081,-165.5001"/>
</g>
<!-- MailModule -->
<g id="node4" class="node">
<title>MailModule</title>
<polygon fill="#8dd3c7" stroke="#000000" points="967.9902,-122 964.9902,-126 943.9902,-126 940.9902,-122 882.0098,-122 882.0098,-86 967.9902,-86 967.9902,-122"/>
<text text-anchor="middle" x="925" y="-99.8" font-family="Times,serif" font-size="14.00" fill="#000000">MailModule</text>
</g>
<!-- MailModule&#45;&gt;AppModule -->
<g id="edge4" class="edge">
<title>MailModule&#45;&gt;AppModule</title>
<path fill="none" stroke="#000000" d="M925,-122.0225C925,-139.3734 925,-163 925,-163 925,-163 750.7153,-163 750.7153,-163"/>
<polygon fill="#000000" stroke="#000000" points="750.7153,-159.5001 740.7153,-163 750.7152,-166.5001 750.7153,-159.5001"/>
</g>
<!-- ProfileModule -->
<g id="node5" class="node">
<title>ProfileModule</title>
<polygon fill="#8dd3c7" stroke="#000000" points="863.65,-122 860.65,-126 839.65,-126 836.65,-122 766.35,-122 766.35,-86 863.65,-86 863.65,-122"/>
<text text-anchor="middle" x="815" y="-99.8" font-family="Times,serif" font-size="14.00" fill="#000000">ProfileModule</text>
</g>
<!-- ProfileModule&#45;&gt;AppModule -->
<g id="edge5" class="edge">
<title>ProfileModule&#45;&gt;AppModule</title>
<path fill="none" stroke="#000000" d="M815,-122.2396C815,-137.5706 815,-157 815,-157 815,-157 750.8787,-157 750.8787,-157"/>
<polygon fill="#000000" stroke="#000000" points="750.8787,-153.5001 740.8787,-157 750.8786,-160.5001 750.8787,-153.5001"/>
</g>
<!-- SharedModule -->
<g id="node6" class="node">
<title>SharedModule</title>
<polygon fill="#8dd3c7" stroke="#000000" points="748.4231,-122 745.4231,-126 724.4231,-126 721.4231,-122 649.5769,-122 649.5769,-86 748.4231,-86 748.4231,-122"/>
<text text-anchor="middle" x="699" y="-99.8" font-family="Times,serif" font-size="14.00" fill="#000000">SharedModule</text>
</g>
<!-- SharedModule&#45;&gt;AppModule -->
<g id="edge6" class="edge">
<title>SharedModule&#45;&gt;AppModule</title>
<path fill="none" stroke="#000000" d="M699,-122.1061C699,-122.1061 699,-140.991 699,-140.991"/>
<polygon fill="#000000" stroke="#000000" points="695.5001,-140.9909 699,-150.991 702.5001,-140.991 695.5001,-140.9909"/>
</g>
<!-- StagesModule -->
<g id="node7" class="node">
<title>StagesModule</title>
<polygon fill="#8dd3c7" stroke="#000000" points="632.0968,-122 629.0968,-126 608.0968,-126 605.0968,-122 535.9032,-122 535.9032,-86 632.0968,-86 632.0968,-122"/>
<text text-anchor="middle" x="584" y="-99.8" font-family="Times,serif" font-size="14.00" fill="#000000">StagesModule</text>
</g>
<!-- StagesModule&#45;&gt;AppModule -->
<g id="edge7" class="edge">
<title>StagesModule&#45;&gt;AppModule</title>
<path fill="none" stroke="#000000" d="M584,-122.2396C584,-137.5706 584,-157 584,-157 584,-157 647.157,-157 647.157,-157"/>
<polygon fill="#000000" stroke="#000000" points="647.1571,-160.5001 657.157,-157 647.157,-153.5001 647.1571,-160.5001"/>
</g>
<!-- TracksModule -->
<g id="node8" class="node">
<title>TracksModule</title>
<polygon fill="#8dd3c7" stroke="#000000" points="517.6375,-122 514.6375,-126 493.6375,-126 490.6375,-122 420.3625,-122 420.3625,-86 517.6375,-86 517.6375,-122"/>
<text text-anchor="middle" x="469" y="-99.8" font-family="Times,serif" font-size="14.00" fill="#000000">TracksModule</text>
</g>
<!-- TracksModule&#45;&gt;AppModule -->
<g id="edge8" class="edge">
<title>TracksModule&#45;&gt;AppModule</title>
<path fill="none" stroke="#000000" d="M469,-122.0225C469,-139.3734 469,-163 469,-163 469,-163 647.0819,-163 647.0819,-163"/>
<polygon fill="#000000" stroke="#000000" points="647.0819,-166.5001 657.0819,-163 647.0819,-159.5001 647.0819,-166.5001"/>
</g>
<!-- UsersModule -->
<g id="node9" class="node">
<title>UsersModule</title>
<polygon fill="#8dd3c7" stroke="#000000" points="401.9218,-122 398.9218,-126 377.9218,-126 374.9218,-122 310.0782,-122 310.0782,-86 401.9218,-86 401.9218,-122"/>
<text text-anchor="middle" x="356" y="-99.8" font-family="Times,serif" font-size="14.00" fill="#000000">UsersModule</text>
</g>
<!-- UsersModule&#45;&gt;AppModule -->
<g id="edge9" class="edge">
<title>UsersModule&#45;&gt;AppModule</title>
<path fill="none" stroke="#000000" d="M356,-122.1061C356,-141.3391 356,-169 356,-169 356,-169 647.2844,-169 647.2844,-169"/>
<polygon fill="#000000" stroke="#000000" points="647.2844,-172.5001 657.2844,-169 647.2843,-165.5001 647.2844,-172.5001"/>
</g>
<!-- AppService -->
<g id="node11" class="node">
<title>AppService</title>
<ellipse fill="#fdb462" stroke="#000000" cx="229" cy="-104" rx="56.7406" ry="18"/>
<text text-anchor="middle" x="229" y="-99.8" font-family="Times,serif" font-size="14.00" fill="#000000">AppService</text>
</g>
<!-- AppService&#45;&gt;AppModule -->
<g id="edge10" class="edge">
<title>AppService&#45;&gt;AppModule</title>
<path fill="none" stroke="#000000" d="M229,-122.2843C229,-143.3211 229,-175 229,-175 229,-175 647.2906,-175 647.2906,-175"/>
<polygon fill="#000000" stroke="#000000" points="647.2907,-178.5001 657.2906,-175 647.2906,-171.5001 647.2907,-178.5001"/>
</g>
<!-- StagesService -->
<g id="node12" class="node">
<title>StagesService</title>
<ellipse fill="#fdb462" stroke="#000000" cx="89" cy="-104" rx="65.4033" ry="18"/>
<text text-anchor="middle" x="89" y="-99.8" font-family="Times,serif" font-size="14.00" fill="#000000">StagesService</text>
</g>
<!-- StagesService&#45;&gt;AppModule -->
<g id="edge11" class="edge">
<title>StagesService&#45;&gt;AppModule</title>
<path fill="none" stroke="#000000" d="M89,-122.0908C89,-145.1328 89,-182 89,-182 89,-182 647.0722,-182 647.0722,-182"/>
<polygon fill="#000000" stroke="#000000" points="647.0723,-185.5001 657.0722,-182 647.0722,-178.5001 647.0723,-185.5001"/>
</g>
</g>
</svg>
