<?xml version="1.0" encoding="UTF-8" standalone="no"?>
<!DOCTYPE svg PUBLIC "-//W3C//DTD SVG 1.1//EN"
 "http://www.w3.org/Graphics/SVG/1.1/DTD/svg11.dtd">
<!-- Generated by graphviz version 2.40.1 (20161225.0304)
 -->
<!-- Title: dependencies Pages: 1 -->
<svg width="504pt" height="284pt"
 viewBox="0.00 0.00 504.00 284.00" xmlns="http://www.w3.org/2000/svg" xmlns:xlink="http://www.w3.org/1999/xlink">
<g id="graph0" class="graph" transform="scale(1 1) rotate(0) translate(4 280)">
<title>dependencies</title>
<polygon fill="#ffffff" stroke="transparent" points="-4,4 -4,-280 500,-280 500,4 -4,4"/>
<text text-anchor="start" x="227.0091" y="-42.4" font-family="sans-serif" font-weight="bold" font-size="14.00" fill="#000000">Legend</text>
<polygon fill="#ffffb3" stroke="transparent" points="14,-10 14,-30 34,-30 34,-10 14,-10"/>
<text text-anchor="start" x="37.629" y="-15.4" font-family="sans-serif" font-size="14.00" fill="#000000"> &#160;Declarations</text>
<polygon fill="#8dd3c7" stroke="transparent" points="127,-10 127,-30 147,-30 147,-10 127,-10"/>
<text text-anchor="start" x="150.7251" y="-15.4" font-family="sans-serif" font-size="14.00" fill="#000000"> &#160;Module</text>
<polygon fill="#80b1d3" stroke="transparent" points="213,-10 213,-30 233,-30 233,-10 213,-10"/>
<text text-anchor="start" x="236.7812" y="-15.4" font-family="sans-serif" font-size="14.00" fill="#000000"> &#160;Bootstrap</text>
<polygon fill="#fdb462" stroke="transparent" points="310,-10 310,-30 330,-30 330,-10 310,-10"/>
<text text-anchor="start" x="333.6732" y="-15.4" font-family="sans-serif" font-size="14.00" fill="#000000"> &#160;Providers</text>
<polygon fill="#fb8072" stroke="transparent" points="406,-10 406,-30 426,-30 426,-10 406,-10"/>
<text text-anchor="start" x="429.7258" y="-15.4" font-family="sans-serif" font-size="14.00" fill="#000000"> &#160;Exports</text>
<g id="clust1" class="cluster">
<title>cluster_MentorModule</title>
<polygon fill="none" stroke="#000000" stroke-dasharray="1,5" points="106,-70 106,-268 390,-268 390,-70 106,-70"/>
</g>
<g id="clust3" class="cluster">
<title>cluster_MentorModule_imports</title>
<polygon fill="none" stroke="#000000" points="274,-78 274,-130 382,-130 382,-78 274,-78"/>
</g>
<g id="clust4" class="cluster">
<title>cluster_MentorModule_exports</title>
<polygon fill="none" stroke="#000000" points="197,-208 197,-260 315,-260 315,-208 197,-208"/>
</g>
<g id="clust6" class="cluster">
<title>cluster_MentorModule_providers</title>
<polygon fill="none" stroke="#000000" points="114,-78 114,-130 266,-130 266,-78 114,-78"/>
</g>
<!-- UsersModule -->
<g id="node1" class="node">
<title>UsersModule</title>
<polygon fill="#8dd3c7" stroke="#000000" points="373.9218,-122 370.9218,-126 349.9218,-126 346.9218,-122 282.0782,-122 282.0782,-86 373.9218,-86 373.9218,-122"/>
<text text-anchor="middle" x="328" y="-99.8" font-family="Times,serif" font-size="14.00" fill="#000000">UsersModule</text>
</g>
<!-- MentorModule -->
<g id="node2" class="node">
<title>MentorModule</title>
<polygon fill="#8dd3c7" stroke="#000000" points="306.2605,-187 303.2605,-191 282.2605,-191 279.2605,-187 205.7395,-187 205.7395,-151 306.2605,-151 306.2605,-187"/>
<text text-anchor="middle" x="256" y="-164.8" font-family="Times,serif" font-size="14.00" fill="#000000">MentorModule</text>
</g>
<!-- UsersModule&#45;&gt;MentorModule -->
<g id="edge1" class="edge">
<title>UsersModule&#45;&gt;MentorModule</title>
<path fill="none" stroke="#000000" d="M294.3349,-122.1061C294.3349,-122.1061 294.3349,-140.991 294.3349,-140.991"/>
<polygon fill="#000000" stroke="#000000" points="290.8349,-140.9909 294.3349,-150.991 297.8349,-140.991 290.8349,-140.9909"/>
</g>
<!-- MentorService  -->
<g id="node3" class="node">
<title>MentorService </title>
<polygon fill="#fb8072" stroke="#000000" points="307.1885,-252 204.8115,-252 204.8115,-216 307.1885,-216 307.1885,-252"/>
<text text-anchor="middle" x="256" y="-229.8" font-family="Times,serif" font-size="14.00" fill="#000000">MentorService </text>
</g>
<!-- MentorModule&#45;&gt;MentorService  -->
<g id="edge2" class="edge">
<title>MentorModule&#45;&gt;MentorService </title>
<path fill="none" stroke="#000000" stroke-dasharray="5,2" d="M256,-187.1061C256,-187.1061 256,-205.991 256,-205.991"/>
<polygon fill="#000000" stroke="#000000" points="252.5001,-205.9909 256,-215.991 259.5001,-205.991 252.5001,-205.9909"/>
</g>
<!-- MentorService -->
<g id="node4" class="node">
<title>MentorService</title>
<ellipse fill="#fdb462" stroke="#000000" cx="190" cy="-104" rx="68.3362" ry="18"/>
<text text-anchor="middle" x="190" y="-99.8" font-family="Times,serif" font-size="14.00" fill="#000000">MentorService</text>
</g>
<!-- MentorService&#45;&gt;MentorModule -->
<g id="edge3" class="edge">
<title>MentorService&#45;&gt;MentorModule</title>
<path fill="none" stroke="#000000" d="M232.019,-118.4256C232.019,-118.4256 232.019,-140.8939 232.019,-140.8939"/>
<polygon fill="#000000" stroke="#000000" points="228.5191,-140.8938 232.019,-150.8939 235.5191,-140.8939 228.5191,-140.8938"/>
</g>
</g>
</svg>
