<svg xmlns="http://www.w3.org/2000/svg" xmlns:xlink="http://www.w3.org/1999/xlink" width="672" height="284pt" viewBox="0 0 504 284"><g id="graph0" class="graph" transform="scale(1 1) rotate(0) translate(4 280)"><title>dependencies</title><polygon fill="#fff" stroke="transparent" points="-4 4 -4 -280 500 -280 500 4 -4 4"/><text x="227.009" y="-42.4" fill="#000" font-family="sans-serif" font-size="14" font-weight="bold" text-anchor="start">Legend</text><polygon fill="#ffffb3" stroke="transparent" points="14 -10 14 -30 34 -30 34 -10 14 -10"/><text x="37.629" y="-15.4" fill="#000" font-family="sans-serif" font-size="14" text-anchor="start">Declarations</text><polygon fill="#8dd3c7" stroke="transparent" points="127 -10 127 -30 147 -30 147 -10 127 -10"/><text x="150.725" y="-15.4" fill="#000" font-family="sans-serif" font-size="14" text-anchor="start">Module</text><polygon fill="#80b1d3" stroke="transparent" points="213 -10 213 -30 233 -30 233 -10 213 -10"/><text x="236.781" y="-15.4" fill="#000" font-family="sans-serif" font-size="14" text-anchor="start">Bootstrap</text><polygon fill="#fdb462" stroke="transparent" points="310 -10 310 -30 330 -30 330 -10 310 -10"/><text x="333.673" y="-15.4" fill="#000" font-family="sans-serif" font-size="14" text-anchor="start">Providers</text><polygon fill="#fb8072" stroke="transparent" points="406 -10 406 -30 426 -30 426 -10 406 -10"/><text x="429.726" y="-15.4" fill="#000" font-family="sans-serif" font-size="14" text-anchor="start">Exports</text><g id="clust1" class="cluster"><title>cluster_MentorModule</title><polygon fill="none" stroke="#000" stroke-dasharray="1 5" points="106 -70 106 -268 390 -268 390 -70 106 -70"/></g><g id="clust3" class="cluster"><title>cluster_MentorModule_imports</title><polygon fill="none" stroke="#000" points="274 -78 274 -130 382 -130 382 -78 274 -78"/></g><g id="clust4" class="cluster"><title>cluster_MentorModule_exports</title><polygon fill="none" stroke="#000" points="197 -208 197 -260 315 -260 315 -208 197 -208"/></g><g id="clust6" class="cluster"><title>cluster_MentorModule_providers</title><polygon fill="none" stroke="#000" points="114 -78 114 -130 266 -130 266 -78 114 -78"/></g><g id="node1" class="node"><title>UsersModule</title><polygon fill="#8dd3c7" stroke="#000" points="373.922 -122 370.922 -126 349.922 -126 346.922 -122 282.078 -122 282.078 -86 373.922 -86 373.922 -122"/><text x="328" y="-99.8" fill="#000" font-family="Times,serif" font-size="14" text-anchor="middle">UsersModule</text></g><g id="node2" class="node"><title>MentorModule</title><polygon fill="#8dd3c7" stroke="#000" points="306.26 -187 303.26 -191 282.26 -191 279.26 -187 205.739 -187 205.739 -151 306.26 -151 306.26 -187"/><text x="256" y="-164.8" fill="#000" font-family="Times,serif" font-size="14" text-anchor="middle">MentorModule</text></g><g id="edge1" class="edge"><title>UsersModule-&gt;MentorModule</title><path fill="none" stroke="#000" d="M294.3349,-122.1061C294.3349,-122.1061 294.3349,-140.991 294.3349,-140.991"/><polygon fill="#000" stroke="#000" points="290.835 -140.991 294.335 -150.991 297.835 -140.991 290.835 -140.991"/></g><g id="node3" class="node"><title>MentorService</title><polygon fill="#fb8072" stroke="#000" points="307.188 -252 204.811 -252 204.811 -216 307.188 -216 307.188 -252"/><text x="256" y="-229.8" fill="#000" font-family="Times,serif" font-size="14" text-anchor="middle">MentorService</text></g><g id="edge2" class="edge"><title>MentorModule-&gt;MentorService</title><path fill="none" stroke="#000" stroke-dasharray="5 2" d="M256,-187.1061C256,-187.1061 256,-205.991 256,-205.991"/><polygon fill="#000" stroke="#000" points="252.5 -205.991 256 -215.991 259.5 -205.991 252.5 -205.991"/></g><g id="node4" class="node"><title>MentorService</title><ellipse cx="190" cy="-104" fill="#fdb462" stroke="#000" rx="68.336" ry="18"/><text x="190" y="-99.8" fill="#000" font-family="Times,serif" font-size="14" text-anchor="middle">MentorService</text></g><g id="edge3" class="edge"><title>MentorService-&gt;MentorModule</title><path fill="none" stroke="#000" d="M232.019,-118.4256C232.019,-118.4256 232.019,-140.8939 232.019,-140.8939"/><polygon fill="#000" stroke="#000" points="228.519 -140.894 232.019 -150.894 235.519 -140.894 228.519 -140.894"/></g></g></svg>