<svg xmlns="http://www.w3.org/2000/svg" xmlns:xlink="http://www.w3.org/1999/xlink" width="752" height="284pt" viewBox="0 0 564 284"><g id="graph0" class="graph" transform="scale(1 1) rotate(0) translate(4 280)"><title>dependencies</title><polygon fill="#fff" stroke="transparent" points="-4 4 -4 -280 560 -280 560 4 -4 4"/><text x="257.009" y="-42.4" fill="#000" font-family="sans-serif" font-size="14" font-weight="bold" text-anchor="start">Legend</text><polygon fill="#ffffb3" stroke="transparent" points="44 -10 44 -30 64 -30 64 -10 44 -10"/><text x="67.629" y="-15.4" fill="#000" font-family="sans-serif" font-size="14" text-anchor="start">Declarations</text><polygon fill="#8dd3c7" stroke="transparent" points="157 -10 157 -30 177 -30 177 -10 157 -10"/><text x="180.725" y="-15.4" fill="#000" font-family="sans-serif" font-size="14" text-anchor="start">Module</text><polygon fill="#80b1d3" stroke="transparent" points="243 -10 243 -30 263 -30 263 -10 243 -10"/><text x="266.781" y="-15.4" fill="#000" font-family="sans-serif" font-size="14" text-anchor="start">Bootstrap</text><polygon fill="#fdb462" stroke="transparent" points="340 -10 340 -30 360 -30 360 -10 340 -10"/><text x="363.673" y="-15.4" fill="#000" font-family="sans-serif" font-size="14" text-anchor="start">Providers</text><polygon fill="#fb8072" stroke="transparent" points="436 -10 436 -30 456 -30 456 -10 436 -10"/><text x="459.726" y="-15.4" fill="#000" font-family="sans-serif" font-size="14" text-anchor="start">Exports</text><g id="clust1" class="cluster"><title>cluster_ProfileModule</title><polygon fill="none" stroke="#000" stroke-dasharray="1 5" points="8 -70 8 -268 548 -268 548 -70 8 -70"/></g><g id="clust3" class="cluster"><title>cluster_ProfileModule_imports</title><polygon fill="none" stroke="#000" points="314 -78 314 -130 540 -130 540 -78 314 -78"/></g><g id="clust4" class="cluster"><title>cluster_ProfileModule_exports</title><polygon fill="none" stroke="#000" points="242 -208 242 -260 358 -260 358 -208 242 -208"/></g><g id="clust6" class="cluster"><title>cluster_ProfileModule_providers</title><polygon fill="none" stroke="#000" points="16 -78 16 -130 306 -130 306 -78 16 -78"/></g><g id="node1" class="node"><title>MentorModule</title><polygon fill="#8dd3c7" stroke="#000" points="532.26 -122 529.26 -126 508.26 -126 505.26 -122 431.74 -122 431.74 -86 532.26 -86 532.26 -122"/><text x="482" y="-99.8" fill="#000" font-family="Times,serif" font-size="14" text-anchor="middle">MentorModule</text></g><g id="node3" class="node"><title>ProfileModule</title><polygon fill="#8dd3c7" stroke="#000" points="348.65 -187 345.65 -191 324.65 -191 321.65 -187 251.35 -187 251.35 -151 348.65 -151 348.65 -187"/><text x="300" y="-164.8" fill="#000" font-family="Times,serif" font-size="14" text-anchor="middle">ProfileModule</text></g><g id="edge1" class="edge"><title>MentorModule-&gt;ProfileModule</title><path fill="none" stroke="#000" d="M482,-122.1061C482,-141.3391 482,-169 482,-169 482,-169 358.7727,-169 358.7727,-169"/><polygon fill="#000" stroke="#000" points="358.773 -165.5 348.773 -169 358.773 -172.5 358.773 -165.5"/></g><g id="node2" class="node"><title>UsersModule</title><polygon fill="#8dd3c7" stroke="#000" points="413.922 -122 410.922 -126 389.922 -126 386.922 -122 322.078 -122 322.078 -86 413.922 -86 413.922 -122"/><text x="368" y="-99.8" fill="#000" font-family="Times,serif" font-size="14" text-anchor="middle">UsersModule</text></g><g id="edge2" class="edge"><title>UsersModule-&gt;ProfileModule</title><path fill="none" stroke="#000" d="M335.5572,-122.1061C335.5572,-122.1061 335.5572,-140.991 335.5572,-140.991"/><polygon fill="#000" stroke="#000" points="332.057 -140.991 335.557 -150.991 339.057 -140.991 332.057 -140.991"/></g><g id="node4" class="node"><title>ProfileService</title><polygon fill="#fb8072" stroke="#000" points="349.578 -252 250.422 -252 250.422 -216 349.578 -216 349.578 -252"/><text x="300" y="-229.8" fill="#000" font-family="Times,serif" font-size="14" text-anchor="middle">ProfileService</text></g><g id="edge3" class="edge"><title>ProfileModule-&gt;ProfileService</title><path fill="none" stroke="#000" stroke-dasharray="5 2" d="M300,-187.1061C300,-187.1061 300,-205.991 300,-205.991"/><polygon fill="#000" stroke="#000" points="296.5 -205.991 300 -215.991 303.5 -205.991 296.5 -205.991"/></g><g id="node5" class="node"><title>ProfileService</title><ellipse cx="232" cy="-104" fill="#fdb462" stroke="#000" rx="66.045" ry="18"/><text x="232" y="-99.8" fill="#000" font-family="Times,serif" font-size="14" text-anchor="middle">ProfileService</text></g><g id="edge4" class="edge"><title>ProfileService-&gt;ProfileModule</title><path fill="none" stroke="#000" d="M274.7238,-117.7848C274.7238,-117.7848 274.7238,-140.5475 274.7238,-140.5475"/><polygon fill="#000" stroke="#000" points="271.224 -140.547 274.724 -150.548 278.224 -140.548 271.224 -140.547"/></g><g id="node6" class="node"><title>UsersService</title><ellipse cx="86" cy="-104" fill="#fdb462" stroke="#000" rx="61.952" ry="18"/><text x="86" y="-99.8" fill="#000" font-family="Times,serif" font-size="14" text-anchor="middle">UsersService</text></g><g id="edge5" class="edge"><title>UsersService-&gt;ProfileModule</title><path fill="none" stroke="#000" d="M86,-122.1061C86,-141.3391 86,-169 86,-169 86,-169 241.1723,-169 241.1723,-169"/><polygon fill="#000" stroke="#000" points="241.172 -172.5 251.172 -169 241.172 -165.5 241.172 -172.5"/></g></g></svg>