<?xml version="1.0" encoding="UTF-8" standalone="no"?>
<!DOCTYPE svg PUBLIC "-//W3C//DTD SVG 1.1//EN"
 "http://www.w3.org/Graphics/SVG/1.1/DTD/svg11.dtd">
<!-- Generated by graphviz version 2.40.1 (20161225.0304)
 -->
<!-- Title: dependencies Pages: 1 -->
<svg width="504pt" height="211pt"
 viewBox="0.00 0.00 504.00 211.00" xmlns="http://www.w3.org/2000/svg" xmlns:xlink="http://www.w3.org/1999/xlink">
<g id="graph0" class="graph" transform="scale(1 1) rotate(0) translate(4 207)">
<title>dependencies</title>
<polygon fill="#ffffff" stroke="transparent" points="-4,4 -4,-207 500,-207 500,4 -4,4"/>
<text text-anchor="start" x="227.0091" y="-42.4" font-family="sans-serif" font-weight="bold" font-size="14.00" fill="#000000">Legend</text>
<polygon fill="#ffffb3" stroke="transparent" points="14,-10 14,-30 34,-30 34,-10 14,-10"/>
<text text-anchor="start" x="37.629" y="-15.4" font-family="sans-serif" font-size="14.00" fill="#000000"> &#160;Declarations</text>
<polygon fill="#8dd3c7" stroke="transparent" points="127,-10 127,-30 147,-30 147,-10 127,-10"/>
<text text-anchor="start" x="150.7251" y="-15.4" font-family="sans-serif" font-size="14.00" fill="#000000"> &#160;Module</text>
<polygon fill="#80b1d3" stroke="transparent" points="213,-10 213,-30 233,-30 233,-10 213,-10"/>
<text text-anchor="start" x="236.7812" y="-15.4" font-family="sans-serif" font-size="14.00" fill="#000000"> &#160;Bootstrap</text>
<polygon fill="#fdb462" stroke="transparent" points="310,-10 310,-30 330,-30 330,-10 310,-10"/>
<text text-anchor="start" x="333.6732" y="-15.4" font-family="sans-serif" font-size="14.00" fill="#000000"> &#160;Providers</text>
<polygon fill="#fb8072" stroke="transparent" points="406,-10 406,-30 426,-30 426,-10 406,-10"/>
<text text-anchor="start" x="429.7258" y="-15.4" font-family="sans-serif" font-size="14.00" fill="#000000"> &#160;Exports</text>
<g id="clust1" class="cluster">
<title>cluster_ProfileModule</title>
<polygon fill="none" stroke="#000000" stroke-dasharray="1,5" points="108,-70 108,-195 388,-195 388,-70 108,-70"/>
</g>
<g id="clust3" class="cluster">
<title>cluster_ProfileModule_imports</title>
<polygon fill="none" stroke="#000000" points="272,-78 272,-130 380,-130 380,-78 272,-78"/>
</g>
<g id="clust6" class="cluster">
<title>cluster_ProfileModule_providers</title>
<polygon fill="none" stroke="#000000" points="116,-78 116,-130 264,-130 264,-78 116,-78"/>
</g>
<!-- UsersModule -->
<g id="node1" class="node">
<title>UsersModule</title>
<polygon fill="#8dd3c7" stroke="#000000" points="371.9218,-122 368.9218,-126 347.9218,-126 344.9218,-122 280.0782,-122 280.0782,-86 371.9218,-86 371.9218,-122"/>
<text text-anchor="middle" x="326" y="-99.8" font-family="Times,serif" font-size="14.00" fill="#000000">UsersModule</text>
</g>
<!-- ProfileModule -->
<g id="node2" class="node">
<title>ProfileModule</title>
<polygon fill="#8dd3c7" stroke="#000000" points="306.65,-187 303.65,-191 282.65,-191 279.65,-187 209.35,-187 209.35,-151 306.65,-151 306.65,-187"/>
<text text-anchor="middle" x="258" y="-164.8" font-family="Times,serif" font-size="14.00" fill="#000000">ProfileModule</text>
</g>
<!-- UsersModule&#45;&gt;ProfileModule -->
<g id="edge1" class="edge">
<title>UsersModule&#45;&gt;ProfileModule</title>
<path fill="none" stroke="#000000" d="M293.5572,-122.1061C293.5572,-122.1061 293.5572,-140.991 293.5572,-140.991"/>
<polygon fill="#000000" stroke="#000000" points="290.0572,-140.9909 293.5572,-150.991 297.0572,-140.991 290.0572,-140.9909"/>
</g>
<!-- ProfileService -->
<g id="node3" class="node">
<title>ProfileService</title>
<ellipse fill="#fdb462" stroke="#000000" cx="190" cy="-104" rx="66.0454" ry="18"/>
<text text-anchor="middle" x="190" y="-99.8" font-family="Times,serif" font-size="14.00" fill="#000000">ProfileService</text>
</g>
<!-- ProfileService&#45;&gt;ProfileModule -->
<g id="edge2" class="edge">
<title>ProfileService&#45;&gt;ProfileModule</title>
<path fill="none" stroke="#000000" d="M232.7238,-117.7848C232.7238,-117.7848 232.7238,-140.5475 232.7238,-140.5475"/>
<polygon fill="#000000" stroke="#000000" points="229.2239,-140.5474 232.7238,-150.5475 236.2239,-140.5475 229.2239,-140.5474"/>
</g>
</g>
</svg>
