<?xml version="1.0" encoding="UTF-8" standalone="no"?>
<!DOCTYPE svg PUBLIC "-//W3C//DTD SVG 1.1//EN"
 "http://www.w3.org/Graphics/SVG/1.1/DTD/svg11.dtd">
<!-- Generated by graphviz version 2.40.1 (20161225.0304)
 -->
<!-- Title: dependencies Pages: 1 -->
<svg width="564pt" height="284pt"
 viewBox="0.00 0.00 564.00 284.00" xmlns="http://www.w3.org/2000/svg" xmlns:xlink="http://www.w3.org/1999/xlink">
<g id="graph0" class="graph" transform="scale(1 1) rotate(0) translate(4 280)">
<title>dependencies</title>
<polygon fill="#ffffff" stroke="transparent" points="-4,4 -4,-280 560,-280 560,4 -4,4"/>
<text text-anchor="start" x="257.0091" y="-42.4" font-family="sans-serif" font-weight="bold" font-size="14.00" fill="#000000">Legend</text>
<polygon fill="#ffffb3" stroke="transparent" points="44,-10 44,-30 64,-30 64,-10 44,-10"/>
<text text-anchor="start" x="67.629" y="-15.4" font-family="sans-serif" font-size="14.00" fill="#000000"> &#160;Declarations</text>
<polygon fill="#8dd3c7" stroke="transparent" points="157,-10 157,-30 177,-30 177,-10 157,-10"/>
<text text-anchor="start" x="180.7251" y="-15.4" font-family="sans-serif" font-size="14.00" fill="#000000"> &#160;Module</text>
<polygon fill="#80b1d3" stroke="transparent" points="243,-10 243,-30 263,-30 263,-10 243,-10"/>
<text text-anchor="start" x="266.7812" y="-15.4" font-family="sans-serif" font-size="14.00" fill="#000000"> &#160;Bootstrap</text>
<polygon fill="#fdb462" stroke="transparent" points="340,-10 340,-30 360,-30 360,-10 340,-10"/>
<text text-anchor="start" x="363.6732" y="-15.4" font-family="sans-serif" font-size="14.00" fill="#000000"> &#160;Providers</text>
<polygon fill="#fb8072" stroke="transparent" points="436,-10 436,-30 456,-30 456,-10 436,-10"/>
<text text-anchor="start" x="459.7258" y="-15.4" font-family="sans-serif" font-size="14.00" fill="#000000"> &#160;Exports</text>
<g id="clust1" class="cluster">
<title>cluster_ProfileModule</title>
<polygon fill="none" stroke="#000000" stroke-dasharray="1,5" points="8,-70 8,-268 548,-268 548,-70 8,-70"/>
</g>
<g id="clust3" class="cluster">
<title>cluster_ProfileModule_imports</title>
<polygon fill="none" stroke="#000000" points="314,-78 314,-130 540,-130 540,-78 314,-78"/>
</g>
<g id="clust4" class="cluster">
<title>cluster_ProfileModule_exports</title>
<polygon fill="none" stroke="#000000" points="242,-208 242,-260 358,-260 358,-208 242,-208"/>
</g>
<g id="clust6" class="cluster">
<title>cluster_ProfileModule_providers</title>
<polygon fill="none" stroke="#000000" points="16,-78 16,-130 306,-130 306,-78 16,-78"/>
</g>
<!-- MentorModule -->
<g id="node1" class="node">
<title>MentorModule</title>
<polygon fill="#8dd3c7" stroke="#000000" points="532.2605,-122 529.2605,-126 508.2605,-126 505.2605,-122 431.7395,-122 431.7395,-86 532.2605,-86 532.2605,-122"/>
<text text-anchor="middle" x="482" y="-99.8" font-family="Times,serif" font-size="14.00" fill="#000000">MentorModule</text>
</g>
<!-- ProfileModule -->
<g id="node3" class="node">
<title>ProfileModule</title>
<polygon fill="#8dd3c7" stroke="#000000" points="348.65,-187 345.65,-191 324.65,-191 321.65,-187 251.35,-187 251.35,-151 348.65,-151 348.65,-187"/>
<text text-anchor="middle" x="300" y="-164.8" font-family="Times,serif" font-size="14.00" fill="#000000">ProfileModule</text>
</g>
<!-- MentorModule&#45;&gt;ProfileModule -->
<g id="edge1" class="edge">
<title>MentorModule&#45;&gt;ProfileModule</title>
<path fill="none" stroke="#000000" d="M482,-122.1061C482,-141.3391 482,-169 482,-169 482,-169 358.7727,-169 358.7727,-169"/>
<polygon fill="#000000" stroke="#000000" points="358.7727,-165.5001 348.7727,-169 358.7726,-172.5001 358.7727,-165.5001"/>
</g>
<!-- UsersModule -->
<g id="node2" class="node">
<title>UsersModule</title>
<polygon fill="#8dd3c7" stroke="#000000" points="413.9218,-122 410.9218,-126 389.9218,-126 386.9218,-122 322.0782,-122 322.0782,-86 413.9218,-86 413.9218,-122"/>
<text text-anchor="middle" x="368" y="-99.8" font-family="Times,serif" font-size="14.00" fill="#000000">UsersModule</text>
</g>
<!-- UsersModule&#45;&gt;ProfileModule -->
<g id="edge2" class="edge">
<title>UsersModule&#45;&gt;ProfileModule</title>
<path fill="none" stroke="#000000" d="M335.5572,-122.1061C335.5572,-122.1061 335.5572,-140.991 335.5572,-140.991"/>
<polygon fill="#000000" stroke="#000000" points="332.0572,-140.9909 335.5572,-150.991 339.0572,-140.991 332.0572,-140.9909"/>
</g>
<!-- ProfileService  -->
<g id="node4" class="node">
<title>ProfileService </title>
<polygon fill="#fb8072" stroke="#000000" points="349.5781,-252 250.4219,-252 250.4219,-216 349.5781,-216 349.5781,-252"/>
<text text-anchor="middle" x="300" y="-229.8" font-family="Times,serif" font-size="14.00" fill="#000000">ProfileService </text>
</g>
<!-- ProfileModule&#45;&gt;ProfileService  -->
<g id="edge3" class="edge">
<title>ProfileModule&#45;&gt;ProfileService </title>
<path fill="none" stroke="#000000" stroke-dasharray="5,2" d="M300,-187.1061C300,-187.1061 300,-205.991 300,-205.991"/>
<polygon fill="#000000" stroke="#000000" points="296.5001,-205.9909 300,-215.991 303.5001,-205.991 296.5001,-205.9909"/>
</g>
<!-- ProfileService -->
<g id="node5" class="node">
<title>ProfileService</title>
<ellipse fill="#fdb462" stroke="#000000" cx="232" cy="-104" rx="66.0454" ry="18"/>
<text text-anchor="middle" x="232" y="-99.8" font-family="Times,serif" font-size="14.00" fill="#000000">ProfileService</text>
</g>
<!-- ProfileService&#45;&gt;ProfileModule -->
<g id="edge4" class="edge">
<title>ProfileService&#45;&gt;ProfileModule</title>
<path fill="none" stroke="#000000" d="M274.7238,-117.7848C274.7238,-117.7848 274.7238,-140.5475 274.7238,-140.5475"/>
<polygon fill="#000000" stroke="#000000" points="271.2239,-140.5474 274.7238,-150.5475 278.2239,-140.5475 271.2239,-140.5474"/>
</g>
<!-- UsersService -->
<g id="node6" class="node">
<title>UsersService</title>
<ellipse fill="#fdb462" stroke="#000000" cx="86" cy="-104" rx="61.9519" ry="18"/>
<text text-anchor="middle" x="86" y="-99.8" font-family="Times,serif" font-size="14.00" fill="#000000">UsersService</text>
</g>
<!-- UsersService&#45;&gt;ProfileModule -->
<g id="edge5" class="edge">
<title>UsersService&#45;&gt;ProfileModule</title>
<path fill="none" stroke="#000000" d="M86,-122.1061C86,-141.3391 86,-169 86,-169 86,-169 241.1723,-169 241.1723,-169"/>
<polygon fill="#000000" stroke="#000000" points="241.1724,-172.5001 251.1723,-169 241.1723,-165.5001 241.1724,-172.5001"/>
</g>
</g>
</svg>
