<svg xmlns="http://www.w3.org/2000/svg" xmlns:xlink="http://www.w3.org/1999/xlink" width="672" height="284pt" viewBox="0 0 504 284"><g id="graph0" class="graph" transform="scale(1 1) rotate(0) translate(4 280)"><title>dependencies</title><polygon fill="#fff" stroke="transparent" points="-4 4 -4 -280 500 -280 500 4 -4 4"/><text x="227.009" y="-42.4" fill="#000" font-family="sans-serif" font-size="14" font-weight="bold" text-anchor="start">Legend</text><polygon fill="#ffffb3" stroke="transparent" points="14 -10 14 -30 34 -30 34 -10 14 -10"/><text x="37.629" y="-15.4" fill="#000" font-family="sans-serif" font-size="14" text-anchor="start">Declarations</text><polygon fill="#8dd3c7" stroke="transparent" points="127 -10 127 -30 147 -30 147 -10 127 -10"/><text x="150.725" y="-15.4" fill="#000" font-family="sans-serif" font-size="14" text-anchor="start">Module</text><polygon fill="#80b1d3" stroke="transparent" points="213 -10 213 -30 233 -30 233 -10 213 -10"/><text x="236.781" y="-15.4" fill="#000" font-family="sans-serif" font-size="14" text-anchor="start">Bootstrap</text><polygon fill="#fdb462" stroke="transparent" points="310 -10 310 -30 330 -30 330 -10 310 -10"/><text x="333.673" y="-15.4" fill="#000" font-family="sans-serif" font-size="14" text-anchor="start">Providers</text><polygon fill="#fb8072" stroke="transparent" points="406 -10 406 -30 426 -30 426 -10 406 -10"/><text x="429.726" y="-15.4" fill="#000" font-family="sans-serif" font-size="14" text-anchor="start">Exports</text><g id="clust1" class="cluster"><title>cluster_ProfileModule</title><polygon fill="none" stroke="#000" stroke-dasharray="1 5" points="37 -70 37 -268 459 -268 459 -70 37 -70"/></g><g id="clust3" class="cluster"><title>cluster_ProfileModule_imports</title><polygon fill="none" stroke="#000" points="343 -78 343 -130 451 -130 451 -78 343 -78"/></g><g id="clust4" class="cluster"><title>cluster_ProfileModule_exports</title><polygon fill="none" stroke="#000" points="203 -208 203 -260 319 -260 319 -208 203 -208"/></g><g id="clust6" class="cluster"><title>cluster_ProfileModule_providers</title><polygon fill="none" stroke="#000" points="45 -78 45 -130 335 -130 335 -78 45 -78"/></g><g id="node1" class="node"><title>UsersModule</title><polygon fill="#8dd3c7" stroke="#000" points="442.922 -122 439.922 -126 418.922 -126 415.922 -122 351.078 -122 351.078 -86 442.922 -86 442.922 -122"/><text x="397" y="-99.8" fill="#000" font-family="Times,serif" font-size="14" text-anchor="middle">UsersModule</text></g><g id="node2" class="node"><title>ProfileModule</title><polygon fill="#8dd3c7" stroke="#000" points="309.65 -187 306.65 -191 285.65 -191 282.65 -187 212.35 -187 212.35 -151 309.65 -151 309.65 -187"/><text x="261" y="-164.8" fill="#000" font-family="Times,serif" font-size="14" text-anchor="middle">ProfileModule</text></g><g id="edge1" class="edge"><title>UsersModule-&gt;ProfileModule</title><path fill="none" stroke="#000" d="M397,-122.1061C397,-141.3391 397,-169 397,-169 397,-169 319.715,-169 319.715,-169"/><polygon fill="#000" stroke="#000" points="319.715 -165.5 309.715 -169 319.715 -172.5 319.715 -165.5"/></g><g id="node3" class="node"><title>ProfileService</title><polygon fill="#fb8072" stroke="#000" points="310.578 -252 211.422 -252 211.422 -216 310.578 -216 310.578 -252"/><text x="261" y="-229.8" fill="#000" font-family="Times,serif" font-size="14" text-anchor="middle">ProfileService</text></g><g id="edge2" class="edge"><title>ProfileModule-&gt;ProfileService</title><path fill="none" stroke="#000" stroke-dasharray="5 2" d="M261,-187.1061C261,-187.1061 261,-205.991 261,-205.991"/><polygon fill="#000" stroke="#000" points="257.5 -205.991 261 -215.991 264.5 -205.991 257.5 -205.991"/></g><g id="node4" class="node"><title>ProfileService</title><ellipse cx="261" cy="-104" fill="#fdb462" stroke="#000" rx="66.045" ry="18"/><text x="261" y="-99.8" fill="#000" font-family="Times,serif" font-size="14" text-anchor="middle">ProfileService</text></g><g id="edge3" class="edge"><title>ProfileService-&gt;ProfileModule</title><path fill="none" stroke="#000" d="M261,-122.1061C261,-122.1061 261,-140.991 261,-140.991"/><polygon fill="#000" stroke="#000" points="257.5 -140.991 261 -150.991 264.5 -140.991 257.5 -140.991"/></g><g id="node5" class="node"><title>UsersService</title><ellipse cx="115" cy="-104" fill="#fdb462" stroke="#000" rx="61.952" ry="18"/><text x="115" y="-99.8" fill="#000" font-family="Times,serif" font-size="14" text-anchor="middle">UsersService</text></g><g id="edge4" class="edge"><title>UsersService-&gt;ProfileModule</title><path fill="none" stroke="#000" d="M115,-122.1061C115,-141.3391 115,-169 115,-169 115,-169 201.978,-169 201.978,-169"/><polygon fill="#000" stroke="#000" points="201.978 -172.5 211.978 -169 201.978 -165.5 201.978 -172.5"/></g></g></svg>